<?xml version="1.0" standalone="no" ?>
<!DOCTYPE svg PUBLIC "-//W3C//DTD SVG 20010904//EN" "http://www.w3.org/TR/2001/REC-SVG-20010904/DTD/svg10.dtd">
<svg
	version="1.0"
	xmlns="http://www.w3.org/2000/svg"
	width="884.000000pt"
	height="884.000000pt"
	viewBox="0 0 884.000000 884.000000"
	preserveAspectRatio="xMidYMid meet"
>
<g transform="translate(0.000000,884.000000) scale(0.100000,-0.100000)" fill="#000000" stroke="none">
<path
			d="M0 4420 l0 -4420 4420 0 4420 0 0 4420 0 4420 -4420 0 -4420 0 0
-4420z m4810 3895 c780 -88 1510 -399 2093 -890 142 -120 381 -361 487 -494
19 -24 40 -48 45 -55 24 -25 157 -208 212 -291 397 -597 626 -1329 634 -2030
1 -158 4 -147 -33 -143 -25 2 -34 8 -36 26 -4 24 -4 25 -26 16 -17 -7 -22 -44
-6 -44 13 0 13 -47 0 -52 -5 -1 -12 -18 -16 -35 -6 -29 -4 -33 15 -33 11 0 21
4 21 9 0 17 38 22 59 9 22 -14 30 -68 10 -68 -8 0 -7 -5 1 -15 10 -13 11 -24
1 -57 -13 -42 -37 -75 -48 -64 -3 3 -1 12 6 20 13 15 -4 26 -39 26 -10 0 -20
7 -24 15 -3 8 -11 15 -18 15 -9 0 -9 -3 0 -12 7 -7 8 -17 1 -30 -11 -21 -35
-24 -42 -5 -3 9 -7 9 -20 -2 -23 -19 -21 -28 8 -35 25 -6 35 -39 15 -51 -6 -3
-10 -18 -9 -33 l1 -27 7 25 c8 30 54 36 59 8 2 -11 -3 -18 -11 -18 -16 0 -68
-39 -54 -40 5 0 24 7 42 16 31 14 35 14 62 -3 36 -23 43 -32 43 -62 0 -24 0
-24 -26 7 -23 27 -54 43 -54 28 0 -2 -3 -12 -6 -20 -5 -12 3 -19 25 -27 31
-11 37 -29 13 -37 -10 -3 -34 18 -70 62 -17 21 -74 22 -66 1 4 -8 1 -15 -5
-15 -6 0 -11 9 -11 20 0 13 -5 18 -16 13 -9 -3 -24 4 -36 17 l-22 23 25 -5
c13 -3 30 -7 38 -9 22 -6 24 19 2 26 -22 7 -29 41 -9 47 19 7 13 67 -8 83 -17
13 -17 14 -2 15 24 0 40 34 32 67 -5 23 -4 26 7 16 17 -17 52 -17 47 0 -3 6
-14 13 -26 15 -25 4 -28 12 -10 30 7 7 9 12 4 12 -4 0 -1 7 8 15 20 21 26 19
26 -10 0 -19 5 -25 21 -25 11 0 17 -4 14 -10 -3 -5 -1 -10 5 -10 6 0 15 -12
21 -27 10 -26 11 -27 24 -10 18 24 5 61 -22 65 -16 2 -22 13 -26 45 -3 23 -1
47 5 54 13 16 4 17 -23 3 -10 -6 -19 -18 -19 -26 0 -8 -4 -12 -10 -9 -13 8
-13 46 1 65 8 11 9 9 3 -10 -6 -22 -5 -23 10 -11 19 16 20 25 3 43 -22 22 -28
48 -12 48 24 0 17 27 -11 49 -28 22 -25 41 7 41 11 0 17 5 14 10 -3 6 -17 10
-29 10 -32 0 -56 28 -35 41 8 5 22 9 32 9 10 0 16 4 12 9 -3 5 -1 12 5 16 5 3
10 11 10 17 0 7 -5 7 -14 -1 -15 -13 -45 -5 -48 13 0 6 -2 16 -3 21 -2 6 -3
16 -4 23 0 6 -13 12 -29 12 -19 0 -42 14 -74 44 -25 25 -49 42 -52 39 -3 -4
-6 3 -6 14 0 28 31 39 47 18 6 -10 17 -14 23 -10 8 5 5 12 -9 21 -23 17 -45
86 -36 115 4 12 1 21 -9 25 -9 3 -16 13 -16 20 0 19 -30 65 -52 82 -19 14 -24
42 -8 42 5 0 30 -20 54 -45 30 -30 54 -45 71 -45 35 0 32 26 -5 39 -26 9 -30
15 -31 48 -1 21 -3 30 -6 21 -7 -27 -49 -22 -78 9 -14 15 -25 33 -25 40 0 7
-4 13 -10 13 -5 0 -10 7 -10 15 0 8 -5 15 -11 15 -5 0 -8 4 -4 9 3 5 1 12 -5
16 -5 3 -10 20 -10 36 0 20 -4 29 -12 26 -7 -2 -12 -12 -12 -21 1 -9 -2 -16
-7 -16 -5 0 -9 3 -9 8 0 4 -18 15 -40 25 -22 9 -40 24 -40 32 0 21 -23 19 -53
-5 -14 -11 -30 -20 -36 -20 -6 0 -11 -9 -11 -20 0 -11 -4 -20 -10 -20 -5 0
-10 3 -10 8 0 14 -38 31 -58 25 -12 -3 -23 -12 -25 -22 -3 -9 -5 -4 -6 12 -1
22 -6 27 -26 27 -42 0 -103 -72 -113 -133 -5 -30 -13 -43 -27 -45 -10 -3 -24
-10 -32 -17 -7 -7 -18 -15 -25 -17 -7 -3 -12 -17 -10 -31 1 -18 -3 -27 -13
-27 -19 0 -19 -34 0 -50 17 -14 19 -38 6 -59 -7 -10 -12 -10 -30 5 -11 10 -21
25 -22 34 0 10 -2 11 -6 3 -2 -7 -11 -13 -19 -13 -9 0 -14 -11 -14 -35 0 -35
15 -46 36 -26 16 16 54 -6 54 -31 0 -38 -12 -68 -26 -68 -7 0 -18 -8 -23 -17
-9 -16 -10 -16 -11 -2 0 9 -9 19 -21 22 -19 5 -20 3 -14 -34 7 -39 6 -40 -13
-28 -12 7 -18 17 -15 23 4 5 -6 7 -26 3 -71 -14 -113 -77 -51 -77 17 0 33 7
39 18 10 16 12 16 25 0 19 -26 29 -23 76 22 39 38 90 54 90 30 0 -5 -4 -10
-10 -10 -5 0 -10 -6 -10 -14 0 -8 -5 -16 -12 -18 -8 -3 -9 -12 0 -35 11 -33 7
-47 -12 -36 -6 4 -19 9 -30 10 -14 3 -17 -1 -11 -14 16 -39 17 -54 5 -68 -7
-8 -10 -25 -6 -39 5 -21 2 -25 -21 -28 -26 -3 -26 -4 -9 -20 10 -10 13 -18 8
-18 -6 0 -15 -13 -21 -30 -5 -16 -14 -30 -20 -30 -16 0 -43 -62 -31 -74 18
-18 11 -28 -15 -22 -20 5 -25 3 -25 -12 0 -10 4 -22 10 -28 6 -6 5 -15 -1 -24
-8 -11 -12 -12 -16 -2 -2 6 -11 12 -19 12 -8 0 -14 5 -14 10 0 6 -4 10 -10 10
-21 0 -10 -39 13 -42 18 -2 23 -10 25 -41 2 -27 -1 -39 -13 -43 -13 -5 -14 -9
-4 -15 10 -6 7 -14 -14 -31 -17 -15 -27 -34 -27 -52 0 -21 -4 -27 -15 -22 -9
3 -20 -3 -27 -14 -7 -11 -16 -20 -21 -20 -4 0 -6 4 -3 9 4 5 -7 12 -23 16 -15
3 -37 17 -49 30 l-20 23 29 12 c16 7 29 17 29 22 0 5 -4 7 -9 4 -5 -3 -14 8
-20 24 -12 35 2 47 40 37 15 -4 23 0 26 14 3 10 10 19 15 19 5 0 7 -4 3 -9 -6
-10 63 -37 71 -28 9 8 -15 47 -29 47 -7 0 -25 11 -40 24 -21 18 -25 26 -15 33
7 4 19 18 26 31 10 18 10 22 -3 22 -8 0 -15 -4 -15 -10 0 -5 -18 -10 -39 -10
-40 0 -51 -11 -51 -51 0 -10 -4 -19 -10 -19 -5 0 -10 -21 -10 -47 0 -27 -5
-65 -11 -87 -22 -79 8 -118 87 -115 30 1 57 0 60 -4 4 -3 -1 -18 -10 -31 -9
-14 -16 -34 -16 -46 0 -11 -7 -20 -15 -20 -10 0 -15 -10 -15 -31 0 -25 -3 -29
-13 -21 -17 15 -39 -1 -31 -21 3 -9 10 -17 15 -17 5 0 9 -8 9 -19 0 -12 -9
-20 -29 -24 -36 -7 -59 -63 -41 -97 9 -16 8 -22 -5 -26 -8 -4 -24 -4 -34 -1
-15 3 -19 0 -18 -14 1 -11 5 -19 9 -19 12 0 10 -34 -2 -46 -6 -6 -8 -18 -4
-27 5 -13 9 -14 24 -5 10 7 16 18 12 27 -3 9 9 4 30 -13 26 -19 37 -23 40 -14
3 9 22 12 61 11 31 -1 59 3 63 8 10 17 48 -2 87 -44 20 -22 37 -44 37 -49 0
-4 7 -8 15 -8 23 0 18 10 -27 52 -23 21 -39 40 -37 42 12 11 49 16 49 7 0 -6
7 -11 15 -11 8 0 15 -4 15 -10 0 -5 7 -10 15 -10 7 0 19 -8 24 -17 9 -15 10
-15 11 -3 0 9 -5 21 -11 27 -16 16 -3 43 20 43 23 0 51 -46 51 -84 0 -50 32
-38 45 17 6 21 4 27 -6 25 -11 -2 -14 12 -14 59 0 34 -5 67 -12 74 -6 6 -9 18
-6 25 3 8 1 14 -5 14 -5 0 -12 -13 -15 -30 -5 -22 -12 -30 -28 -30 -15 0 -19
4 -15 16 3 9 6 25 6 35 0 11 5 17 10 14 6 -3 13 1 16 9 3 8 14 18 25 21 25 8
24 31 -1 38 -23 6 -27 27 -6 27 20 0 51 -51 47 -79 -2 -15 1 -21 8 -16 6 3 9
10 6 15 -3 4 2 11 11 14 17 7 16 62 -1 59 -14 -2 -45 28 -45 44 0 7 7 16 15
19 8 4 15 12 15 20 0 24 42 64 67 64 13 0 38 7 55 16 24 12 36 14 55 5 34 -15
43 -14 43 8 0 12 -11 21 -31 27 -42 12 -37 28 11 32 40 3 40 3 40 -32 0 -28 4
-36 18 -36 10 0 23 -5 29 -11 6 -6 42 -14 79 -17 55 -4 69 -2 79 11 11 15 15
16 43 1 28 -13 34 -14 53 -1 17 13 25 13 46 2 14 -7 41 -11 62 -8 33 5 40 1
62 -27 13 -18 35 -42 48 -55 13 -13 21 -27 17 -33 -9 -14 -46 -3 -46 14 0 8
-4 14 -10 14 -16 0 1 -33 31 -62 18 -16 27 -33 23 -42 -4 -9 -1 -16 6 -16 13
0 39 -28 40 -43 0 -4 -11 -12 -25 -17 -14 -5 -25 -14 -25 -19 0 -14 40 -21 67
-10 13 5 28 9 33 9 17 0 80 -71 80 -89 0 -11 -12 -63 -26 -118 -148 -565 -393
-1046 -763 -1499 -271 -331 -649 -656 -1034 -886 -82 -50 -388 -204 -432 -218
-22 -7 -45 -17 -52 -22 -31 -24 -354 -130 -543 -178 -294 -73 -492 -99 -835
-107 -430 -10 -756 28 -1139 133 -148 41 -411 129 -442 149 -11 7 -39 19 -62
26 -23 7 -42 16 -42 21 0 4 -6 8 -12 8 -7 0 -35 11 -63 25 -27 13 -55 25 -62
25 -6 0 -13 3 -15 8 -1 4 -48 29 -103 57 -55 27 -102 52 -105 55 -3 3 -27 19
-55 34 -27 16 -89 55 -137 87 -47 33 -91 59 -96 59 -5 0 -12 7 -16 15 -3 8
-12 15 -20 15 -8 0 -16 3 -18 8 -1 4 -41 36 -88 71 -47 36 -92 71 -100 78 -8
8 -25 22 -38 32 -60 49 -203 184 -271 256 -42 43 -92 95 -111 115 -19 20 -47
52 -62 72 -15 20 -35 44 -44 53 -10 9 -43 51 -75 93 -32 43 -63 83 -69 90 -19
21 -180 264 -201 302 -11 19 -31 55 -45 80 -149 263 -271 554 -349 830 -14 52
-30 104 -34 115 -5 11 -13 44 -18 73 -10 54 -6 60 31 46 13 -5 14 -9 5 -20
-15 -18 -7 -27 15 -18 10 4 15 13 12 21 -5 11 2 13 34 8 35 -5 40 -3 40 13 0
11 -7 25 -15 32 -17 14 -20 30 -5 30 12 0 50 -37 50 -49 0 -11 55 -31 86 -31
13 0 24 5 24 10 0 6 -13 10 -30 10 -21 0 -30 5 -30 17 0 9 -3 13 -6 10 -9 -8
-44 11 -44 24 0 14 -26 39 -39 39 -6 0 -11 11 -11 25 0 29 21 33 46 8 17 -17
17 -16 11 9 -4 15 -18 38 -32 52 -29 29 -31 44 -9 60 15 12 10 46 -7 46 -5 0
-9 9 -9 19 0 10 -7 22 -16 25 -11 4 -13 13 -8 28 3 13 11 25 15 26 5 2 9 13 9
24 0 17 4 19 25 14 31 -8 31 -2 0 32 -14 15 -25 32 -25 39 0 7 -4 13 -9 13
-13 0 -24 37 -16 51 5 8 10 8 18 0 13 -13 27 -14 27 -3 0 4 -11 20 -25 36 -14
16 -25 35 -25 42 0 19 19 27 35 14 9 -7 15 -8 20 0 3 5 -1 10 -9 10 -11 0 -16
10 -16 31 0 23 4 30 14 26 8 -3 32 -8 53 -11 36 -6 37 -5 12 6 -14 7 -24 19
-22 26 6 17 40 15 47 -3 3 -8 15 -15 26 -15 11 0 23 7 26 15 7 17 34 21 34 5
0 -14 55 -40 82 -39 l23 0 -23 11 c-12 6 -22 17 -22 25 0 14 16 18 22 6 1 -5
23 -18 47 -31 42 -21 46 -21 69 -6 13 9 51 19 83 21 33 3 59 8 59 10 0 2 -9
13 -20 25 -26 29 -25 38 5 38 27 0 32 11 13 32 -7 7 -20 27 -28 43 -8 17 -16
34 -19 39 -2 5 1 6 8 2 16 -10 25 19 12 41 -6 10 -11 12 -11 6 0 -7 -7 -13
-15 -13 -11 0 -15 9 -13 31 2 21 -3 34 -15 40 -21 12 -13 29 13 29 14 0 21
-10 26 -36 5 -29 9 -33 16 -20 5 9 16 16 23 16 21 0 19 19 -2 28 -14 5 -12 8
11 12 29 5 44 34 25 46 -5 3 -9 -3 -9 -14 0 -27 -59 -26 -82 2 -16 21 -17 21
-24 1 -4 -11 -12 -23 -18 -27 -14 -9 -48 1 -61 18 -5 7 -32 14 -59 16 -36 2
-52 8 -60 23 -6 10 -17 25 -23 33 -7 7 -13 18 -13 23 0 16 -68 79 -85 79 -9 0
-19 -8 -22 -17 -13 -36 -53 -45 -53 -13 0 11 -7 20 -15 20 -23 0 -18 -30 11
-56 32 -30 54 -31 55 -1 1 17 2 18 6 4 3 -10 -1 -24 -7 -32 -12 -15 -5 -55 10
-55 22 0 40 14 40 31 0 27 36 24 55 -5 11 -17 13 -29 6 -47 -7 -17 -10 -19
-10 -7 -1 22 -43 33 -69 19 -11 -6 -28 -8 -37 -5 -9 4 -40 7 -68 8 -45 1 -52
4 -55 22 -2 11 4 27 13 34 16 14 21 60 6 60 -6 0 -9 27 -9 61 1 54 3 60 19 56
20 -5 26 7 9 18 -5 3 -10 14 -10 24 0 15 9 17 70 15 90 -3 102 -11 64 -41 -27
-22 -28 -23 -7 -23 13 0 33 14 50 35 31 39 62 46 70 15 5 -21 23 -28 23 -10 0
16 53 33 70 22 9 -5 25 -6 39 0 31 11 61 1 61 -20 1 -16 2 -15 11 1 5 9 18 17
28 17 16 0 19 -8 18 -60 0 -68 12 -91 39 -69 12 10 15 24 11 57 -5 42 -4 44
19 39 20 -3 23 -1 19 13 -7 22 7 33 29 24 17 -6 23 -60 7 -66 -13 -5 -21 -90
-8 -85 7 2 14 23 17 48 6 42 25 87 44 101 5 3 25 4 44 1 32 -6 34 -5 23 15 -6
11 -11 23 -11 26 0 11 18 6 32 -8 26 -26 56 -29 68 -6 14 27 50 27 50 0 0 -11
5 -20 10 -20 13 0 13 47 0 55 -13 8 -13 45 0 45 6 0 10 -5 10 -11 0 -6 10 -19
22 -28 22 -19 35 -61 18 -61 -6 0 -10 -4 -10 -9 0 -5 11 -4 25 2 29 14 31 20
10 37 -8 7 -15 23 -15 35 0 13 -16 40 -37 62 -36 37 -50 63 -33 63 20 0 40
-13 40 -26 0 -8 5 -14 10 -14 6 0 10 11 10 24 0 16 -19 43 -55 79 -30 30 -55
59 -55 64 0 4 -9 14 -20 21 -21 13 -27 46 -10 57 13 8 1 35 -16 35 -8 0 -14
-9 -14 -20 0 -22 -8 -24 -43 -11 -22 8 -24 7 -20 -10 3 -10 9 -19 14 -19 5 0
9 -6 9 -14 0 -8 8 -17 17 -20 13 -5 14 -9 4 -19 -8 -8 -14 -9 -19 -1 -12 18
-87 42 -115 37 -20 -4 -27 -1 -27 11 0 9 -7 16 -16 16 -12 0 -15 -6 -11 -20 4
-17 2 -20 -14 -15 -21 7 -89 -14 -89 -27 0 -4 -9 -8 -20 -8 -11 0 -20 7 -20
15 0 8 -4 15 -10 15 -13 0 -13 -23 0 -36 6 -6 8 -19 4 -28 -4 -10 -10 -14 -13
-9 -3 4 -15 13 -26 19 -11 6 -24 20 -30 32 -5 12 -23 26 -39 32 -32 11 -49 4
-26 -10 13 -8 12 -10 -2 -10 -9 0 -29 5 -44 11 -21 7 -34 7 -50 -2 -18 -9 -29
-8 -54 5 -24 11 -47 14 -91 9 -33 -3 -62 -10 -65 -15 -3 -5 -11 -4 -19 2 -7 6
-26 12 -42 13 -25 2 -29 5 -25 27 3 14 8 30 12 35 4 6 11 26 15 45 43 210 222
647 374 913 44 77 113 189 153 247 21 30 44 64 51 74 34 53 214 277 278 348
132 144 339 343 401 387 13 8 28 20 33 27 6 6 37 31 70 55 65 48 69 51 102 77
84 66 325 217 453 284 52 27 102 53 110 58 16 10 152 73 230 108 81 36 292
110 420 147 270 78 505 118 880 149 92 8 480 -4 610 -19z m2820 -2990 c0 -8
-4 -15 -10 -15 -5 0 -10 7 -10 15 0 8 5 15 10 15 6 0 10 -7 10 -15z m-234 -60
l23 -25 -29 0 c-17 0 -30 -4 -30 -10 0 -5 5 -10 10 -10 6 0 10 -9 10 -20 0
-13 -7 -20 -19 -20 -36 0 -50 47 -25 85 20 31 31 31 60 0z m-5833 -109 c34
-31 36 -35 19 -40 -23 -8 -54 2 -47 14 3 5 1 11 -5 15 -9 5 -15 45 -7 45 2 0
20 -15 40 -34z m5775 -34 c2 -15 -2 -22 -12 -22 -20 0 -20 -10 0 -38 14 -21
14 -22 -11 -22 -35 0 -54 40 -35 75 7 13 17 22 22 19 4 -3 8 0 8 6 0 21 25 4
28 -18z m-5808 -42 c0 -11 -4 -20 -9 -20 -5 0 -11 9 -14 20 -3 13 0 20 9 20 8
0 14 -9 14 -20z m5714 -33 c37 -37 47 -87 17 -87 -11 0 -22 -6 -24 -12 -3 -7
-6 9 -6 35 -1 33 -6 49 -16 53 -8 4 -15 10 -15 15 0 13 30 11 44 -4z m36 -152
c0 -8 -5 -15 -11 -15 -5 0 -8 4 -4 9 3 5 -3 12 -12 14 -14 4 -13 5 5 6 13 1
22 -5 22 -14z m590 -10 c0 -8 -2 -15 -4 -15 -2 0 -6 7 -10 15 -3 8 -1 15 4 15
6 0 10 -7 10 -15z m-5 -62 c16 -21 7 -54 -14 -51 -30 5 -43 68 -15 68 9 0 22
-8 29 -17z m-275 -56 c0 -27 -10 -42 -32 -50 -12 -4 -18 -1 -18 8 0 8 7 15 15
15 10 0 15 10 15 31 0 17 4 28 10 24 6 -3 10 -16 10 -28z m-5 -67 c3 -5 1 -10
-4 -10 -6 0 -11 5 -11 10 0 6 2 10 4 10 3 0 8 -4 11 -10z m-45 -51 c0 -6 -4
-7 -10 -4 -5 3 -10 11 -10 16 0 6 5 7 10 4 6 -3 10 -11 10 -16z m108 -19 c23
-31 29 -60 12 -60 -12 0 16 -49 39 -68 10 -8 16 -30 16 -63 0 -38 5 -55 20
-65 10 -8 20 -23 22 -34 3 -18 0 -19 -17 -10 -16 8 -28 7 -51 -4 -30 -15 -31
-14 -64 19 -19 18 -44 37 -57 40 -12 4 -28 14 -36 21 -19 19 -44 18 -40 -3 2
-9 19 -22 38 -28 27 -9 36 -18 38 -39 3 -26 2 -27 -20 -15 -26 15 -59 13 -70
-4 -4 -7 -15 -5 -33 7 -23 15 -26 23 -21 49 9 43 10 59 4 77 -3 8 -3 12 -1 8
6 -11 63 -10 63 1 0 5 -7 11 -15 15 -8 3 -15 15 -15 26 0 11 7 23 15 26 9 4
15 19 15 40 0 22 5 34 14 34 8 0 16 7 20 15 3 8 17 15 31 15 15 0 24 4 21 9
-7 10 9 19 35 20 8 1 25 -12 37 -29z m392 -40 c0 -5 -4 -10 -10 -10 -5 0 -10
5 -10 10 0 6 5 10 10 10 6 0 10 -4 10 -10z m0 -55 c0 -8 -7 -15 -15 -15 -8 0
-15 7 -15 15 0 8 7 15 15 15 8 0 15 -7 15 -15z m25 -25 c-3 -5 -11 -10 -16
-10 -6 0 -7 5 -4 10 3 6 11 10 16 10 6 0 7 -4 4 -10z m-25 -44 c0 -2 -7 -6
-15 -10 -8 -3 -15 -1 -15 4 0 6 7 10 15 10 8 0 15 -2 15 -4z m20 -26 c0 -5 -4
-10 -10 -10 -5 0 -10 5 -10 10 0 6 5 10 10 10 6 0 10 -4 10 -10z m-300 -37 c0
-10 -4 -14 -8 -8 -4 6 -11 13 -16 18 -5 4 -2 7 7 7 10 0 17 -8 17 -17z m243
-16 c23 -8 23 -47 -1 -47 -22 0 -44 34 -35 55 3 9 9 13 12 8 3 -5 14 -12 24
-16z m241 -13 c3 -9 6 -23 6 -32 -1 -15 -3 -14 -15 2 -17 22 -20 46 -6 46 5 0
12 -7 15 -16z m-303 -14 c6 0 8 -4 5 -9 -3 -5 1 -11 9 -15 8 -3 15 -15 15 -26
0 -18 -4 -16 -35 14 -38 38 -44 52 -19 42 9 -3 20 -6 25 -6z m-6841 -15 c0 -8
-4 -15 -10 -15 -5 0 -10 7 -10 15 0 8 5 15 10 15 6 0 10 -7 10 -15z m5722 -17
c6 -16 -1 -38 -12 -38 -11 0 -21 30 -14 41 8 13 21 11 26 -3z m1043 2 c3 -5 1
-18 -4 -27 -10 -17 -10 -17 -11 0 0 9 -4 17 -10 17 -5 0 -10 5 -10 10 0 13 27
13 35 0z m49 -49 c4 -5 3 -16 0 -25 -5 -13 -8 -13 -20 -1 -8 7 -14 18 -14 24
0 13 27 15 34 2z m-1064 -11 c0 -5 -4 -10 -10 -10 -5 0 -10 5 -10 10 0 6 5 10
10 10 6 0 10 -4 10 -10z m1170 -26 c0 -8 -4 -14 -10 -14 -5 0 -10 9 -10 21 0
11 5 17 10 14 6 -3 10 -13 10 -21z m-166 -13 c8 -12 -3 -41 -15 -41 -5 0 -9
11 -9 25 0 25 14 34 24 16z m110 0 c4 -5 3 -16 0 -25 -5 -13 -8 -13 -20 -1 -8
7 -14 18 -14 24 0 13 27 15 34 2z m-112 -84 c17 -5 18 -8 6 -26 -7 -12 -16
-21 -20 -21 -13 0 -9 28 5 33 8 4 6 6 -4 6 -9 1 -26 10 -39 21 -19 17 -21 22
-9 36 12 14 15 13 28 -14 7 -17 22 -33 33 -35z m66 24 c2 -13 12 -25 22 -28
20 -5 37 -36 23 -40 -35 -13 -38 -22 -15 -53 30 -40 19 -57 -16 -25 -34 32
-48 32 -56 0 -4 -14 -11 -25 -16 -25 -13 0 -13 14 1 60 9 28 16 36 29 33 12
-3 19 3 23 18 8 28 1 39 -24 39 -14 0 -19 7 -19 26 0 21 4 25 23 22 14 -2 23
-11 25 -27z m86 -5 c-7 -29 -27 -30 -32 -3 -2 10 3 17 12 17 9 0 16 5 16 12 0
6 2 9 5 6 4 -3 3 -18 -1 -32z m-196 -83 c10 -30 9 -33 -9 -33 -10 0 -19 6 -19
14 0 7 -7 19 -15 26 -11 9 -12 16 -2 31 14 23 29 10 45 -38z m-348 32 c0 -8
-7 -15 -15 -15 -16 0 -20 12 -8 23 11 12 23 8 23 -8z m-89 -43 c0 -4 2 -18 5
-30 5 -30 -13 -25 -39 10 -23 31 -15 53 14 38 10 -6 19 -14 20 -18z m634 -5
c0 -26 -20 -25 -23 2 -3 16 1 22 10 19 7 -3 13 -12 13 -21z m215 -2 c0 -8 -2
-15 -4 -15 -2 0 -6 7 -10 15 -3 8 -1 15 4 15 6 0 10 -7 10 -15z m-658 -19 c5
-23 -6 -56 -15 -46 -2 3 -7 20 -10 38 -5 23 -3 32 7 32 8 0 16 -11 18 -24z
m628 14 c0 -5 -4 -10 -10 -10 -5 0 -10 5 -10 10 0 6 5 10 10 10 6 0 10 -4 10
-10z m-520 -30 c0 -5 -5 -10 -11 -10 -5 0 -7 5 -4 10 3 6 8 10 11 10 2 0 4 -4
4 -10z m450 -156 c0 -8 -6 -14 -14 -14 -9 0 -12 7 -9 20 6 22 23 18 23 -6z
m-7405 -3 c-3 -6 -11 -11 -17 -11 -6 0 -6 6 2 15 14 17 26 13 15 -4z m7347
-49 c-4 -10 -7 -12 -10 -4 -2 7 -10 12 -18 12 -8 0 -14 4 -14 9 0 4 11 6 24 4
18 -4 23 -10 18 -21z m95 13 c8 -23 -4 -30 -22 -12 -19 20 -19 27 0 27 9 0 18
-7 22 -15z m83 1 c0 -8 -4 -17 -9 -20 -10 -7 -23 19 -14 28 11 11 23 6 23 -8z
m-27 -44 c10 -11 14 -27 11 -40 -6 -21 -7 -21 -30 -4 -23 17 -31 42 -17 55 10
11 19 8 36 -11z m-93 -31 c0 -4 16 -13 35 -20 52 -18 76 -80 33 -87 -11 -1
-19 10 -27 40 -8 32 -17 44 -41 53 -16 6 -30 16 -30 22 0 6 7 8 15 5 8 -4 15
-9 15 -13z m-1320 -15 c0 -3 -4 -8 -10 -11 -5 -3 -10 -1 -10 4 0 6 5 11 10 11
6 0 10 -2 10 -4z m386 -101 c4 -14 4 -29 0 -32 -9 -9 -14 -1 -20 30 -6 34 11
36 20 2z"
		/>
<path d="M2520 5415 c0 -8 2 -15 4 -15 2 0 6 7 10 15 3 8 1 15 -4 15 -6 0 -10
-7 -10 -15z" />
<path d="M3680 5420 c0 -5 5 -10 10 -10 6 0 10 5 10 10 0 6 -4 10 -10 10 -5 0
-10 -4 -10 -10z" />
<path d="M5940 5420 c0 -5 5 -10 10 -10 6 0 10 5 10 10 0 6 -4 10 -10 10 -5 0
-10 -4 -10 -10z" />
<path d="M6445 5420 c3 -5 10 -10 16 -10 5 0 9 5 9 10 0 6 -7 10 -16 10 -8 0
-12 -4 -9 -10z" />
<path d="M796 5404 c-5 -12 -2 -15 10 -10 8 3 18 6 20 6 2 0 4 5 4 10 0 16
-27 11 -34 -6z" />
<path d="M2605 5410 c-3 -5 3 -10 14 -10 12 0 21 -7 21 -15 0 -17 16 -20 25
-5 8 13 -19 40 -39 40 -8 0 -18 -4 -21 -10z" />
<path d="M6230 5380 c0 -22 5 -40 10 -40 6 0 10 18 10 40 0 22 -4 40 -10 40
-5 0 -10 -18 -10 -40z" />
<path
			d="M6294 5407 c3 -7 9 -20 12 -29 4 -10 13 -18 20 -18 8 0 14 -5 14 -10
0 -6 11 -15 25 -20 28 -11 34 -40 8 -40 -36 0 -63 13 -63 29 0 28 -17 44 -36
37 -15 -6 -16 -9 -4 -16 21 -13 23 -50 2 -51 -23 -2 -24 -2 -46 7 -19 7 -19 7
-3 -16 21 -30 21 -40 2 -40 -8 0 -15 9 -15 20 0 23 -40 43 -74 38 -16 -2 -20
-9 -18 -27 2 -14 -1 -22 -8 -19 -6 2 -11 8 -10 13 2 11 -31 25 -42 18 -12 -7
-9 -48 3 -60 9 -9 8 -21 -5 -46 -9 -19 -16 -40 -16 -46 0 -6 -7 -11 -16 -11
-11 0 -14 -5 -10 -16 3 -9 6 -20 6 -25 0 -6 4 -8 9 -4 5 3 15 -11 22 -30 7
-19 20 -35 29 -35 13 0 13 -1 0 -10 -23 -15 -30 -12 -30 15 0 15 -6 25 -14 25
-18 0 -27 -37 -12 -53 22 -22 46 -61 46 -74 0 -9 -8 -11 -25 -7 -15 4 -25 2
-25 -5 0 -6 4 -11 8 -11 5 0 14 -15 22 -34 7 -19 22 -37 34 -40 16 -4 18 -8 9
-17 -10 -10 -17 -9 -31 4 -10 9 -24 17 -30 17 -13 0 -16 -16 -4 -22 11 -5 42
-64 42 -82 0 -13 -4 -15 -19 -6 -13 7 -22 7 -26 0 -3 -5 -3 -10 2 -10 11 0 33
-49 33 -73 0 -16 -3 -17 -14 -8 -11 9 -16 9 -22 0 -4 -6 0 -16 10 -21 22 -12
23 -80 1 -72 -9 4 -15 0 -15 -10 0 -9 4 -16 9 -16 7 0 31 -51 31 -66 0 -2 -9
-4 -20 -4 -24 0 -25 -6 -5 -26 16 -17 21 -79 6 -69 -5 3 -13 0 -17 -6 -3 -6
-2 -14 4 -18 5 -3 15 -23 20 -44 9 -33 9 -38 -4 -33 -9 3 -20 6 -25 6 -6 0 -8
4 -4 9 3 6 -1 13 -8 18 -7 4 -24 23 -38 41 -17 24 -30 32 -46 29 -12 -2 -28 0
-35 4 -10 7 -10 9 0 9 8 0 6 8 -7 22 -11 11 -18 25 -16 29 3 4 -4 10 -15 14
-19 6 -26 35 -21 89 1 11 -4 23 -10 27 -16 10 -16 69 0 79 10 6 10 12 2 28
-12 23 -1 67 21 75 7 3 3 6 -9 6 -13 1 -23 -3 -23 -9 0 -5 -11 -10 -25 -10
-14 0 -25 -5 -25 -11 0 -15 21 -53 34 -61 22 -14 -5 -21 -31 -7 -58 30 -137
129 -103 129 6 0 10 5 10 11 0 8 -5 7 -16 -2 -13 -10 -17 -10 -25 2 -4 8 -6
21 -4 30 3 9 1 29 -5 44 -10 27 -10 27 20 21 29 -5 31 -4 28 22 -2 19 -8 26
-20 24 -13 -2 -18 4 -18 23 0 15 4 24 10 20 6 -4 10 5 10 19 0 34 -12 33 -28
-1 -7 -16 -24 -36 -37 -46 -25 -18 -25 -18 -25 7 0 19 7 27 25 32 44 11 25 44
-26 44 -10 0 -19 5 -19 10 0 6 -4 10 -10 10 -15 0 -12 -16 5 -34 11 -11 12
-17 4 -22 -7 -4 -17 0 -24 9 -7 10 -17 17 -24 17 -6 0 -17 11 -23 25 -6 14
-17 25 -24 25 -6 0 -14 6 -17 13 -4 10 2 13 19 9 17 -3 24 0 24 11 0 23 -28
35 -69 30 -45 -5 -59 4 -67 45 -5 25 -3 32 10 32 18 0 21 15 6 33 -36 44 -59
67 -69 67 -7 0 -10 -4 -7 -9 3 -4 -1 -17 -9 -27 -8 -11 -15 -14 -15 -7 0 7
-10 12 -22 10 -17 -1 -24 4 -26 21 -2 12 -7 22 -11 22 -17 0 -31 -28 -24 -46
6 -17 5 -17 -10 -5 -9 7 -17 22 -17 33 0 14 -5 18 -16 14 -9 -3 -24 -6 -34 -6
-11 0 -20 -10 -24 -25 -4 -14 -14 -25 -22 -25 -13 0 -16 7 -11 38 3 20 3 31 0
25 -2 -7 -18 -13 -34 -13 -16 0 -29 -3 -29 -6 0 -10 34 -69 45 -76 6 -4 0 -8
-12 -8 -14 0 -23 -6 -23 -15 0 -17 20 -56 35 -68 6 -4 -9 -4 -32 -1 -36 5 -43
4 -43 -10 0 -9 7 -16 15 -16 24 0 31 -49 9 -65 -13 -10 -16 -17 -8 -22 7 -5
13 -17 15 -28 3 -11 17 -26 32 -33 15 -7 27 -17 27 -21 0 -13 -36 -20 -51 -10
-7 4 -17 5 -22 2 -5 -3 -4 -8 2 -12 6 -4 14 -21 17 -39 5 -25 3 -32 -10 -32
-10 0 -16 -9 -16 -25 0 -14 5 -25 10 -25 6 0 10 -7 10 -15 0 -8 -6 -15 -12
-15 -9 0 -8 -4 2 -10 10 -6 11 -10 3 -10 -7 0 -13 -7 -13 -16 0 -8 5 -12 10
-9 6 4 10 -8 10 -29 0 -20 -4 -36 -10 -36 -6 0 -10 -43 -10 -110 0 -63 4 -110
10 -110 5 0 12 -16 16 -37 5 -28 3 -39 -10 -48 -13 -10 -16 -31 -16 -109 0
-53 4 -96 9 -96 5 0 11 -8 14 -17 2 -10 8 -26 12 -35 5 -14 2 -18 -14 -18 -16
0 -21 -6 -21 -25 0 -14 5 -25 10 -25 6 0 10 -11 10 -25 0 -18 -5 -25 -20 -25
-23 0 -25 -8 -6 -33 15 -19 10 -56 -8 -70 -8 -6 -7 -10 2 -14 6 -2 12 -11 12
-19 0 -8 6 -14 14 -14 23 0 7 -38 -18 -42 -18 -3 -21 -9 -20 -43 2 -66 3 -70
24 -93 25 -26 25 -30 1 -50 -25 -22 -12 -59 24 -68 34 -8 120 8 121 24 3 25 4
26 20 4 11 -16 25 -22 50 -22 32 0 35 2 29 21 -8 23 -9 23 58 2 9 -3 17 0 17
6 0 6 13 11 29 11 20 0 30 -6 34 -20 3 -11 14 -20 24 -20 10 0 24 -5 30 -11 6
-6 16 -8 22 -5 16 10 14 27 -3 24 -7 -2 -30 17 -51 42 -35 42 -36 45 -16 48
13 2 21 11 21 23 0 10 -3 19 -7 19 -8 0 -33 47 -33 62 0 4 9 8 20 8 16 0 20 7
20 36 0 19 -4 33 -9 30 -11 -7 -23 94 -15 133 4 17 10 28 15 25 5 -3 9 2 9 11
0 9 -4 14 -8 11 -14 -9 -31 9 -23 23 12 18 61 -16 81 -56 8 -15 15 -29 16 -31
1 -1 9 0 18 4 16 6 23 44 8 44 -8 0 -32 43 -32 55 0 15 40 2 45 -15 3 -11 11
-20 16 -20 5 0 9 -7 9 -15 0 -8 5 -15 10 -15 6 0 10 -9 10 -20 0 -11 7 -20 15
-20 19 0 19 -30 -1 -58 -17 -25 -11 -42 14 -42 16 -1 16 -1 0 -10 -23 -14 -44
-3 -57 28 -10 24 -58 58 -69 48 -2 -2 2 -14 8 -26 12 -23 1 -39 -27 -40 -7 0
-11 -21 -12 -60 0 -45 4 -60 14 -60 8 0 17 5 20 10 12 19 42 10 68 -20 15 -16
32 -30 37 -30 6 0 10 -7 10 -15 0 -8 6 -15 13 -15 8 0 26 -14 41 -31 23 -25
25 -33 15 -40 -20 -13 -20 -13 -67 31 -40 38 -62 44 -62 17 0 -6 -12 -21 -27
-32 -15 -13 -23 -27 -19 -33 14 -22 34 -12 46 23 10 30 13 33 26 21 8 -8 18
-26 24 -40 8 -22 16 -26 48 -26 59 0 109 51 62 63 -11 3 -20 13 -20 22 0 9 -4
14 -9 11 -4 -3 -13 5 -19 18 -6 14 -20 27 -31 31 -11 3 -22 18 -26 35 -4 17
-10 30 -14 30 -4 0 -18 9 -31 20 -13 11 -29 20 -35 20 -18 0 -26 38 -9 44 7 3
23 -7 34 -22 12 -14 36 -33 54 -42 19 -8 34 -17 34 -20 2 -17 15 -40 23 -40
14 0 11 34 -5 55 -10 14 -11 25 -3 42 7 16 6 31 -3 52 -18 43 -5 56 32 30 l30
-22 -7 24 c-4 13 -15 31 -24 39 -9 8 -22 27 -28 42 -10 22 -9 28 5 34 9 4 20
6 25 6 4 -1 7 3 7 8 0 6 -4 10 -10 10 -5 0 -10 6 -10 14 0 27 -70 36 -92 13
-10 -12 -15 -10 -29 7 -15 18 -19 19 -42 7 -21 -11 -32 -12 -56 -1 -17 7 -43
9 -57 6 -44 -11 -132 4 -137 23 -3 12 3 16 22 16 102 2 121 6 121 20 0 21 27
30 45 15 8 -7 15 -8 15 -2 0 14 -21 29 -53 37 -56 15 -23 45 51 45 44 0 40 17
-7 31 -31 9 -40 17 -45 41 -8 42 2 53 28 30 38 -34 48 -36 34 -8 -6 14 -15 26
-19 26 -13 0 -89 73 -89 86 0 6 -9 21 -20 34 -38 43 -21 64 26 34 15 -10 29
-13 33 -8 13 14 24 74 13 74 -5 0 -9 15 -8 33 1 27 5 32 28 35 23 3 27 -1 33
-37 4 -27 13 -42 26 -46 10 -4 19 -13 19 -21 0 -8 11 -19 24 -23 27 -11 36
-29 36 -77 0 -19 5 -34 10 -34 6 0 10 -11 10 -25 0 -20 -5 -25 -25 -25 -14 0
-25 5 -25 10 0 6 -4 10 -10 10 -5 0 -10 -11 -10 -25 0 -14 4 -25 9 -25 5 0 13
-9 16 -20 3 -11 15 -20 25 -20 11 0 23 -8 28 -17 9 -16 12 -16 36 1 15 9 24
21 21 26 -4 6 -1 10 4 10 6 0 11 -5 11 -10 0 -6 9 -21 21 -33 16 -17 19 -30
15 -59 -4 -21 -2 -38 3 -38 15 0 130 -120 143 -151 7 -16 16 -29 20 -29 13 0
38 -58 38 -90 0 -32 8 -38 28 -18 6 6 14 9 17 6 3 -3 -2 -14 -12 -24 -13 -12
-14 -19 -5 -22 6 -2 12 -11 12 -19 0 -18 47 -66 74 -76 10 -4 20 -16 23 -27 3
-11 13 -22 24 -25 12 -4 20 -20 24 -50 4 -24 5 -47 2 -52 -8 -13 5 -29 32 -38
23 -7 24 -5 18 25 l-7 32 28 -18 c15 -10 33 -24 40 -31 13 -13 42 -18 42 -7 0
3 -5 14 -11 26 -10 18 -8 19 13 13 12 -4 28 -13 34 -21 6 -8 16 -14 22 -14 6
0 21 -13 33 -30 26 -35 37 -32 31 8 -2 18 -13 34 -25 40 -22 10 -21 11 3 11
14 1 37 -10 52 -24 22 -21 31 -23 58 -15 21 6 39 6 51 0 23 -13 69 -13 69 -1
0 5 7 17 17 26 14 14 14 18 2 26 -10 6 -22 -1 -40 -22 l-26 -31 -7 26 c-3 14
-10 26 -15 26 -12 0 -41 57 -33 64 11 11 23 6 48 -21 23 -24 25 -25 42 -10 26
23 42 21 42 -5 0 -19 2 -20 10 -8 5 8 10 37 10 64 0 48 0 48 -29 43 -23 -5
-30 -2 -34 14 -3 12 -10 19 -14 16 -5 -3 -17 7 -26 23 -10 17 -23 27 -31 24
-19 -7 -29 41 -15 67 13 26 3 38 -14 16 -8 -12 -16 -14 -27 -7 -12 8 -11 13 8
33 25 27 29 47 7 47 -8 0 -15 7 -15 16 0 12 6 15 26 10 23 -6 26 -4 20 11 -18
47 -19 73 -1 73 12 0 15 5 10 18 -15 38 -18 74 -6 81 8 5 7 16 -5 40 -18 36
-8 58 29 63 15 2 22 10 22 26 0 29 -19 33 -23 5 -5 -36 -28 -16 -30 26 -2 35
-1 39 18 34 14 -4 20 -1 20 11 0 9 -3 16 -8 16 -4 0 -13 9 -20 21 -12 18 -10
23 13 43 25 22 25 39 0 30 -19 -8 -27 28 -15 60 8 21 7 31 -5 42 -19 20 -19
23 4 58 17 25 17 31 5 43 -21 22 -18 53 6 53 11 0 20 -4 20 -10 0 -5 7 -10 15
-10 8 0 15 6 15 14 0 8 6 17 13 20 6 3 2 3 -9 1 -25 -6 -70 11 -72 28 -1 7 -5
27 -8 45 -5 27 -4 31 10 26 9 -3 16 -1 16 5 0 6 -4 11 -9 11 -13 0 -20 35 -9
54 25 44 82 86 117 86 27 0 28 30 2 37 -19 5 -19 5 1 25 22 22 18 67 -8 81 -8
4 -14 15 -14 22 0 8 -9 24 -20 35 -11 11 -20 27 -20 35 0 8 9 15 20 15 28 0
25 30 -5 59 -14 13 -25 28 -26 35 0 6 -1 29 -2 51 l-2 40 -47 -3 c-29 -2 -60
2 -79 12 -20 10 -28 11 -25 3z m139 -46 c5 -22 0 -31 -20 -31 -13 0 -18 31 -6
43 11 12 21 8 26 -12z m-133 -133 c-12 -11 -24 -17 -27 -14 -4 3 4 14 15 25
12 10 23 25 23 32 1 8 3 6 6 -4 3 -11 -4 -27 -17 -39z m128 35 c-5 -25 -28
-28 -28 -4 0 12 6 21 16 21 9 0 14 -7 12 -17z m-1307 -61 c8 -20 6 -22 -19
-16 -36 9 -37 11 -22 29 16 20 31 15 41 -13z m199 14 c0 -18 -37 -28 -44 -11
-6 17 3 25 26 25 10 0 18 -6 18 -14z m-83 -28 c34 -33 41 -48 23 -48 -6 0 -20
-9 -32 -20 -12 -11 -28 -20 -35 -20 -11 0 -11 4 -1 20 7 11 16 20 20 20 17 0
7 39 -11 45 -12 4 -18 12 -14 21 7 20 13 18 50 -18z m-167 -25 c0 -10 -5 -25
-10 -33 -9 -13 -11 -13 -20 0 -17 25 -12 50 10 50 12 0 20 -7 20 -17z m94 -4
c-3 -5 -10 -7 -15 -3 -5 3 -7 10 -3 15 3 5 10 7 15 3 5 -3 7 -10 3 -15z m964
-1 c11 -14 10 -16 -7 -11 -12 3 -21 9 -21 12 0 8 12 23 14 19 1 -2 7 -11 14
-20z m102 12 c0 -5 -5 -10 -11 -10 -5 0 -7 5 -4 10 3 6 8 10 11 10 2 0 4 -4 4
-10z m202 -20 c6 0 8 -3 5 -6 -10 -11 -38 17 -30 30 5 7 9 5 11 -6 2 -10 8
-18 14 -18z m-1122 -35 c-7 -8 -19 -15 -26 -15 -8 0 -11 6 -8 15 4 8 15 15 26
15 17 0 18 -3 8 -15z m-203 -12 c-9 -2 -24 -18 -32 -34 -17 -32 -49 -42 -38
-11 10 25 45 51 68 51 17 -1 17 -2 2 -6z m963 -3 c0 -5 -4 -10 -10 -10 -5 0
-10 5 -10 10 0 6 5 10 10 10 6 0 10 -4 10 -10z m-813 -37 c29 -33 32 -62 4
-34 -24 24 -45 61 -34 61 4 0 18 -12 30 -27z m883 -7 c0 -2 -7 -6 -15 -10 -8
-3 -15 -1 -15 4 0 6 7 10 15 10 8 0 15 -2 15 -4z m310 -36 c0 -4 10 -12 23
-18 17 -8 18 -11 5 -11 -9 -1 -29 -12 -44 -26 -15 -14 -28 -24 -30 -23 -1 2 3
23 9 47 10 35 9 45 0 48 -7 3 -13 9 -13 14 0 5 11 2 25 -7 14 -9 25 -20 25
-24z m-1420 -4 c0 -7 -10 -16 -22 -19 -28 -8 -34 -2 -17 17 17 19 39 20 39 2z
m84 -2 c9 -22 8 -24 -9 -18 -8 4 -15 12 -15 20 0 19 16 18 24 -2z m1053 -6
c-3 -8 -6 -5 -6 6 -1 11 2 17 5 13 3 -3 4 -12 1 -19z m-759 -20 c7 -7 12 -29
12 -50 0 -31 -4 -38 -20 -38 -14 0 -18 5 -13 18 4 9 11 20 17 24 8 5 7 11 -1
19 -10 10 -14 9 -19 -4 -4 -10 -16 -17 -33 -16 l-26 1 25 7 c15 4 26 15 28 29
4 25 12 28 30 10z m-143 -8 c3 -5 4 -10 1 -10 -2 0 -12 -3 -20 -6 -12 -5 -15
-2 -10 10 7 18 20 21 29 6z m-201 -16 c7 -18 -1 -37 -13 -29 -5 2 -11 14 -14
25 -6 24 18 28 27 4z m106 -14 c0 -5 -7 -10 -15 -10 -8 0 -15 5 -15 10 0 6 7
10 15 10 8 0 15 -4 15 -10z m970 6 c0 -2 -7 -6 -15 -10 -8 -3 -15 -1 -15 4 0
6 7 10 15 10 8 0 15 -2 15 -4z m-646 -21 c18 -13 18 -15 -4 -45 -19 -26 -20
-33 -8 -48 7 -9 20 -25 28 -36 8 -10 23 -27 33 -38 16 -17 16 -18 0 -18 -10 0
-29 9 -43 20 -33 25 -39 25 -33 -2 3 -16 2 -19 -5 -10 -12 17 -134 21 -130 5
0 -5 -2 -16 -6 -25 -9 -19 -56 -25 -56 -8 0 6 -13 10 -29 10 -21 0 -32 -6 -36
-20 -7 -21 -25 -28 -25 -10 0 6 5 10 10 10 6 0 10 7 10 15 0 18 38 29 85 23
41 -5 45 7 10 34 -14 11 -25 24 -25 30 0 6 6 6 15 -2 8 -7 53 -14 101 -17 84
-4 85 -4 82 19 -2 14 -12 24 -27 28 -33 8 -38 28 -6 25 23 -3 25 0 25 36 0 42
5 46 34 24z m-189 -19 c15 -14 10 -26 -11 -26 -6 0 -14 9 -17 20 -6 23 8 26
28 6z m865 -6 c0 -11 -2 -20 -4 -20 -2 0 -6 9 -9 20 -3 11 -1 20 4 20 5 0 9
-9 9 -20z m-951 -20 c3 -25 3 -25 -18 -6 -26 23 -27 39 -3 34 9 -2 19 -14 21
-28z m-109 10 c0 -5 -4 -10 -10 -10 -5 0 -10 5 -10 10 0 6 5 10 10 10 6 0 10
-4 10 -10z m-42 -33 c2 -10 -3 -17 -12 -17 -10 0 -16 9 -16 21 0 24 23 21 28
-4z m92 3 c0 -5 -7 -10 -15 -10 -8 0 -15 5 -15 10 0 6 7 10 15 10 8 0 15 -4
15 -10z m114 -11 c-8 -14 -24 -10 -24 6 0 9 6 12 15 9 8 -4 12 -10 9 -15z
m869 -3 c4 -10 1 -13 -9 -9 -7 3 -14 9 -14 14 0 14 17 10 23 -5z m-578 -6 c3
-5 15 -10 26 -10 24 0 24 -12 0 -27 -21 -13 -31 -8 -31 18 0 9 -6 20 -12 22
-10 4 -10 6 -1 6 6 1 15 -3 18 -9z m-211 -15 c-4 -8 -8 -15 -10 -15 -2 0 -4 7
-4 15 0 8 4 15 10 15 5 0 7 -7 4 -15z m1021 -15 c3 -5 1 -10 -4 -10 -6 0 -11
5 -11 10 0 6 2 10 4 10 3 0 8 -4 11 -10z m-1226 -45 c23 -25 23 -25 2 -25 -15
0 -21 6 -21 21 0 12 -8 23 -20 26 -11 3 -20 9 -20 15 0 12 30 -6 59 -37z m-79
-20 c0 -9 -6 -12 -15 -9 -8 4 -15 10 -15 15 0 5 7 9 15 9 8 0 15 -7 15 -15z
m353 -12 c4 -3 3 -11 -2 -17 -6 -7 -2 -20 10 -35 10 -13 19 -20 19 -15 0 10
29 -28 30 -38 1 -22 -37 -4 -48 22 -8 16 -25 35 -40 42 -39 19 -42 48 -4 48
16 0 32 -3 35 -7z m190 -17 c4 -10 1 -13 -9 -9 -7 3 -14 9 -14 14 0 14 17 10
23 -5z m772 -16 c3 -5 -1 -10 -10 -10 -9 0 -13 5 -10 10 3 6 8 10 10 10 2 0 7
-4 10 -10z m-730 -50 c3 -6 -1 -7 -9 -4 -18 7 -21 14 -7 14 6 0 13 -4 16 -10z
m-435 -40 c0 -12 -28 -25 -36 -17 -9 9 6 27 22 27 8 0 14 -5 14 -10z m100 -11
c0 -5 -7 -9 -15 -9 -8 0 -15 7 -15 15 0 9 6 12 15 9 8 -4 15 -10 15 -15z m128
-36 c13 -12 22 -30 20 -39 -2 -14 -13 -8 -48 30 -25 26 -47 52 -49 58 -4 12
44 -18 77 -49z m252 47 c0 -5 -7 -10 -15 -10 -8 0 -15 5 -15 10 0 6 7 10 15
10 8 0 15 -4 15 -10z m-110 -16 c0 -2 -7 -4 -15 -4 -8 0 -15 4 -15 10 0 5 7 7
15 4 8 -4 15 -8 15 -10z m-73 -56 c-2 -13 -4 -5 -4 17 -1 22 1 32 4 23 2 -10
2 -28 0 -40z m-267 28 c0 -11 -19 -15 -25 -6 -3 5 1 10 9 10 9 0 16 -2 16 -4z
m400 -6 c0 -5 -7 -10 -15 -10 -8 0 -15 5 -15 10 0 6 7 10 15 10 8 0 15 -4 15
-10z m-333 -40 c1 -11 -4 -20 -13 -20 -8 0 -14 9 -14 20 0 11 6 20 13 20 7 0
13 -9 14 -20z m-93 -16 c7 -19 -1 -34 -19 -34 -15 0 -28 27 -19 41 9 14 31 10
38 -7z m296 -14 c0 -11 -7 -20 -15 -20 -8 0 -15 2 -15 4 0 2 -3 11 -6 20 -4
12 0 16 15 16 14 0 21 -6 21 -20z m65 0 c-8 -26 4 -82 16 -74 5 3 9 0 9 -5 0
-6 -4 -11 -10 -11 -5 0 -10 -6 -10 -14 0 -8 -7 -16 -15 -20 -11 -4 -15 1 -15
18 0 13 -7 26 -15 30 -10 4 -14 -1 -12 -16 1 -11 -4 -23 -10 -25 -9 -3 -13 8
-13 36 0 23 4 41 9 41 5 0 22 14 38 30 33 35 36 37 28 10z m-425 -10 c17 -17
29 -70 15 -70 -11 0 -65 64 -65 76 0 20 27 17 50 -6z m500 -23 c0 -10 17 -13
65 -13 72 1 94 -15 95 -69 0 -22 3 -26 9 -16 13 21 41 -4 41 -35 0 -28 -8 -30
-25 -7 -13 17 -14 17 -33 0 -23 -21 -52 -13 -52 14 0 10 5 19 10 19 14 0 12
17 -6 56 -20 42 -43 44 -50 4 -4 -20 -13 -30 -24 -30 -11 0 -24 13 -32 30 -7
17 -16 30 -20 30 -5 0 -8 7 -8 15 0 8 7 15 15 15 8 0 15 -6 15 -13z m-552 -66
c3 -16 -1 -22 -10 -19 -7 3 -15 15 -16 27 -3 16 1 22 10 19 7 -3 15 -15 16
-27z m67 -18 c28 -32 34 -69 9 -59 -9 3 -39 6 -67 6 l-51 0 32 26 c18 15 32
33 32 40 0 22 19 16 45 -13z m90 0 c34 -39 33 -63 -2 -54 -16 4 -28 13 -28 20
0 7 -8 18 -17 25 -10 7 -18 18 -18 25 0 21 41 11 65 -16z m493 -5 c-7 -19 -38
-22 -38 -4 0 10 9 16 21 16 12 0 19 -5 17 -12z m-168 -33 c0 -8 -4 -15 -10
-15 -5 0 -10 7 -10 15 0 8 5 15 10 15 6 0 10 -7 10 -15z m110 -15 c0 -5 -4
-10 -9 -10 -6 0 -13 5 -16 10 -3 6 1 10 9 10 9 0 16 -4 16 -10z m-145 -50 c3
-6 0 -17 -9 -25 -17 -17 -30 -20 -21 -5 3 6 1 10 -4 10 -6 0 -11 7 -11 15 0
17 35 21 45 5z m283 1 c11 -7 11 -9 -1 -14 -16 -6 -27 0 -27 15 0 10 11 10 28
-1z m102 -1 c0 -5 -7 -10 -16 -10 -8 0 -12 5 -9 10 3 6 10 10 16 10 5 0 9 -4
9 -10z m-622 -63 c3 -15 0 -16 -22 -6 -32 15 -34 26 -3 24 12 -1 23 -9 25 -18z
m462 13 c0 -5 -5 -10 -11 -10 -5 0 -7 5 -4 10 3 6 8 10 11 10 2 0 4 -4 4 -10z
m-505 -50 c-3 -5 -10 -10 -16 -10 -5 0 -9 5 -9 10 0 6 7 10 16 10 8 0 12 -4 9
-10z m665 -6 c0 -2 -7 -4 -15 -4 -8 0 -15 4 -15 10 0 5 7 7 15 4 8 -4 15 -8
15 -10z m-755 -44 c3 -5 1 -10 -4 -10 -6 0 -11 5 -11 10 0 6 2 10 4 10 3 0 8
-4 11 -10z m135 3 c0 -10 -20 -40 -20 -31 0 3 -3 13 -6 22 -4 11 -1 16 10 16
9 0 16 -3 16 -7z m-222 -70 c2 -9 -11 -13 -47 -13 -39 0 -51 4 -51 16 0 12 10
14 47 12 26 -2 48 -9 51 -15z m455 -78 c1 -5 -6 -11 -15 -13 -11 -2 -18 3 -18
13 0 17 30 18 33 0z m765 -4 c3 -8 -1 -12 -9 -9 -7 2 -15 10 -17 17 -3 8 1 12
9 9 7 -2 15 -10 17 -17z m-1073 -1 c3 -5 1 -10 -4 -10 -6 0 -11 5 -11 10 0 6
2 10 4 10 3 0 8 -4 11 -10z m1098 -86 c11 -11 -5 -34 -24 -34 -18 0 -26 20
-12 33 8 9 28 9 36 1z m-1123 -69 c0 -19 -8 -19 -26 -1 -22 22 -18 39 6 26 11
-6 20 -17 20 -25z m1204 -122 c9 -22 -12 -43 -23 -24 -10 15 -4 41 9 41 4 0
11 -8 14 -17z m-1454 -16 c0 -8 -3 -17 -7 -20 -9 -9 -34 13 -27 24 8 14 34 11
34 -4z m1500 -24 c14 -16 13 -20 -2 -35 -10 -10 -18 -17 -19 -15 0 1 -3 17 -5
35 -6 36 4 41 26 15z m-1200 -72 c0 -5 -6 -11 -12 -14 -18 -6 -39 3 -32 14 7
12 44 12 44 0z m1120 -62 c0 -5 -9 -9 -20 -9 -22 0 -27 16 -7 23 15 5 27 -1
27 -14z"
		/>
<path d="M7655 5410 c-3 -5 -1 -10 6 -10 6 0 18 -8 25 -17 16 -22 38 -5 28 20
-7 18 -49 23 -59 7z" />
<path d="M2446 5393 c-7 -7 13 -33 25 -33 5 0 9 6 9 14 0 15 -24 28 -34 19z" />
<path d="M3535 5390 c-3 -5 1 -10 9 -10 9 0 16 5 16 10 0 6 -4 10 -9 10 -6 0
-13 -4 -16 -10z" />
<path d="M7491 5391 c-11 -7 -9 -11 9 -21 25 -13 35 -8 27 15 -7 17 -16 19
-36 6z" />
<path
			d="M2523 5367 c-18 -12 -36 -32 -39 -44 -8 -30 -18 -29 -38 2 -20 30
-42 32 -51 5 -10 -31 -39 -26 -31 5 16 63 -87 0 -114 -70 -5 -14 -10 -37 -10
-51 0 -14 -6 -24 -14 -24 -8 0 -21 -6 -28 -12 -8 -7 -23 -18 -33 -24 -13 -8
-19 -21 -18 -38 1 -20 -3 -26 -18 -26 -22 0 -27 -38 -5 -46 16 -6 27 -40 19
-60 -5 -15 -43 -20 -43 -6 0 5 -6 17 -14 27 -12 16 -16 17 -30 6 -9 -7 -16
-26 -16 -42 0 -31 9 -36 27 -18 9 9 20 9 42 -1 42 -17 42 -57 0 -99 -33 -33
-49 -39 -49 -17 0 7 -7 19 -15 26 -13 11 -15 8 -15 -14 0 -14 5 -26 10 -26 16
0 12 -37 -5 -44 -10 -3 -17 3 -21 19 -3 14 -13 25 -23 25 -24 0 -93 -49 -88
-63 6 -19 56 -21 63 -3 8 20 30 21 38 1 7 -20 34 -9 72 32 20 21 40 33 57 33
34 0 34 -14 2 -44 -29 -27 -31 -36 -10 -36 9 0 15 -9 15 -25 0 -29 -2 -30 -40
-10 -27 14 -30 14 -30 0 0 -8 5 -15 12 -15 6 0 8 -3 5 -7 -4 -3 -2 -12 3 -18
11 -14 3 -45 -11 -45 -5 0 -9 -9 -9 -20 0 -11 5 -20 10 -20 6 0 10 -4 10 -10
0 -5 -15 -10 -32 -11 -18 0 -27 -3 -20 -6 18 -7 14 -41 -8 -66 -12 -12 -23
-32 -26 -44 -4 -13 -12 -23 -20 -23 -8 0 -14 -9 -14 -20 0 -11 7 -20 15 -20 8
0 15 -5 15 -11 0 -7 -11 -9 -30 -5 -22 4 -30 2 -30 -9 0 -7 5 -17 10 -20 15
-9 12 -35 -5 -41 -9 -4 -23 3 -34 15 -23 26 -41 27 -41 1 0 -13 7 -20 18 -20
10 0 23 -5 30 -12 13 -13 16 -60 5 -72 -4 -4 -8 -15 -8 -24 0 -9 -11 -22 -25
-29 -17 -8 -24 -20 -25 -40 0 -21 -5 -29 -22 -31 -13 -2 -23 -10 -23 -18 0
-15 -16 -20 -22 -6 -1 4 -20 15 -40 24 -49 23 -53 67 -5 59 13 -2 7 30 -8 46
-24 23 -12 38 29 37 29 -1 36 2 36 17 0 11 -7 19 -15 19 -8 0 -15 5 -15 10 0
17 28 11 34 -7 6 -18 49 -43 73 -43 19 0 16 37 -4 44 -20 6 -51 25 -69 42 -10
8 -7 17 12 37 28 30 30 37 9 37 -8 0 -15 -4 -15 -10 0 -5 -17 -10 -38 -10 -50
0 -62 -21 -69 -127 -4 -57 -10 -86 -20 -90 -7 -3 -13 -16 -13 -30 0 -13 4 -22
8 -19 5 3 16 -8 25 -24 16 -26 22 -28 69 -26 29 1 58 -2 65 -7 15 -11 6 -37
-13 -37 -9 0 -14 -11 -14 -29 0 -16 -6 -31 -15 -35 -8 -3 -15 -16 -15 -29 0
-21 -4 -23 -32 -19 -31 5 -31 5 -15 -19 23 -32 22 -59 -2 -59 -12 0 -25 -12
-33 -30 -7 -16 -16 -30 -20 -30 -13 0 -9 -21 7 -36 8 -9 15 -20 15 -25 0 -13
-44 -11 -57 2 -8 8 -13 7 -18 -1 -4 -7 -3 -15 2 -19 6 -3 15 -16 22 -28 9 -18
8 -24 -10 -37 -21 -14 -21 -16 -4 -32 14 -15 18 -15 26 -3 5 8 9 18 9 22 0 10
42 -12 52 -27 4 -7 13 -4 26 7 15 14 29 16 61 11 23 -4 46 -2 53 4 15 11 58
-2 58 -18 0 -5 7 -10 15 -10 8 0 15 -3 15 -8 0 -14 59 -72 64 -63 3 5 -10 25
-29 45 -40 42 -42 51 -18 61 12 4 24 -1 35 -14 9 -12 20 -21 24 -21 4 0 16 -7
26 -17 24 -21 36 -9 15 15 -22 24 -22 52 1 52 32 -1 64 -38 69 -81 6 -38 7
-40 20 -24 7 11 13 15 14 9 1 -12 17 27 18 44 1 6 -8 12 -19 12 -18 0 -20 7
-21 63 -1 34 -5 73 -9 87 l-8 25 -1 -24 c-1 -13 -4 -21 -8 -18 -3 4 -12 -1
-19 -11 -19 -26 -26 -8 -14 37 8 31 16 41 31 41 11 0 22 6 25 14 9 23 34 7 35
-23 1 -22 3 -20 14 14 13 39 12 41 -16 66 -34 30 -38 59 -9 59 15 0 20 7 20
24 0 34 25 56 64 56 19 0 39 7 47 16 12 15 31 14 74 -2 13 -5 16 -2 13 17 -2
16 -11 25 -25 27 -13 2 -23 10 -23 18 0 10 13 14 45 14 45 0 45 0 45 -35 0
-23 5 -35 14 -35 7 0 27 -7 42 -15 39 -20 122 -20 145 1 16 15 20 15 41 0 28
-20 33 -20 51 -2 12 12 18 12 45 -1 19 -9 39 -12 49 -8 30 13 45 5 105 -55 51
-52 55 -60 38 -65 -24 -8 -40 1 -40 21 0 8 -7 14 -15 14 -26 0 -16 -22 25 -57
22 -19 37 -39 34 -44 -3 -6 4 -18 15 -28 28 -25 26 -47 -4 -55 -14 -4 -25 -11
-25 -16 0 -13 67 -13 75 0 11 18 24 11 74 -39 27 -27 58 -52 69 -56 19 -5 20
-4 9 19 -7 14 -24 30 -39 35 -19 7 -28 17 -28 31 0 22 -45 70 -65 70 -7 0 -15
7 -19 15 -8 23 26 19 47 -5 9 -11 23 -20 31 -20 8 0 21 -9 29 -20 8 -11 17
-17 20 -14 4 4 14 -7 24 -25 10 -17 21 -31 26 -31 4 0 7 -9 7 -20 0 -11 5 -20
10 -20 13 0 13 21 0 54 -5 14 -16 26 -25 26 -9 0 -20 11 -25 24 -5 13 -18 27
-29 31 -12 3 -22 13 -22 21 -1 8 -2 20 -3 27 -1 6 9 13 21 13 16 1 26 -7 35
-27 7 -16 18 -29 25 -29 6 0 26 -18 45 -41 57 -70 92 -104 108 -104 8 0 16
-10 18 -22 4 -28 32 -31 32 -3 0 11 -4 20 -10 20 -14 0 -13 47 1 52 6 2 14 22
18 43 4 27 13 43 27 49 12 5 27 18 33 28 11 18 9 19 -24 12 -24 -4 -42 -1 -59
10 -22 14 -25 14 -30 0 -5 -12 -15 -14 -46 -9 -45 8 -52 -3 -19 -34 l21 -19
-22 -7 c-16 -5 -26 -1 -36 14 -9 12 -22 21 -30 21 -8 0 -14 6 -14 13 0 8 -11
19 -25 25 -28 13 -38 66 -10 56 19 -8 19 4 0 49 -20 48 -65 59 -65 16 0 -11
11 -20 31 -24 33 -7 35 -28 3 -33 -13 -2 -32 11 -54 38 -22 26 -42 40 -58 40
-17 0 -23 -4 -18 -15 3 -9 0 -15 -9 -15 -8 0 -15 5 -15 11 0 5 -13 15 -29 20
-16 6 -32 16 -35 24 -6 17 24 29 38 15 12 -12 46 -13 46 -1 0 5 -9 11 -20 14
-18 5 -19 11 -14 66 5 43 3 61 -5 61 -18 0 -13 15 15 44 15 14 22 26 15 26 -6
0 -11 16 -11 35 0 24 5 35 14 35 8 0 16 10 18 22 4 32 38 37 38 5 0 -15 9 -28
24 -37 13 -7 27 -22 30 -34 4 -15 8 -18 17 -9 16 16 1 53 -27 63 -14 6 -24 16
-23 22 1 7 -1 21 -6 31 -4 10 -2 24 6 34 11 13 11 17 2 20 -7 3 -13 12 -13 22
0 9 -9 24 -20 34 -11 9 -20 21 -20 27 0 5 9 10 20 10 27 0 25 16 -5 42 -33 28
-32 48 3 49 21 1 18 3 -18 13 -29 9 -49 10 -57 3 -9 -6 -13 -6 -13 2 0 15 25
41 38 41 5 0 21 12 37 26 l27 25 -38 -3 c-36 -3 -39 -1 -42 25 -2 19 -9 27
-23 27 -14 0 -18 4 -13 13 5 7 2 7 -10 -2 -9 -8 -16 -10 -14 -5 1 5 -21 33
-50 62 -58 58 -65 82 -27 82 29 0 31 6 10 26 -9 9 -15 34 -15 59 0 24 -4 47
-10 50 -5 3 -10 17 -10 31 0 13 -6 24 -12 24 -7 0 -21 14 -30 31 -10 17 -22
27 -28 24 -5 -3 -10 3 -10 14 0 32 27 25 71 -18 45 -45 71 -57 96 -42 17 10
16 12 -6 15 -21 3 -60 46 -55 61 5 12 0 14 -25 9 -27 -6 -36 -2 -61 26 -17 19
-30 42 -30 51 0 10 -8 23 -17 28 -10 6 -13 11 -8 11 6 0 4 4 -3 9 -7 4 -14 22
-14 39 -1 34 -18 45 -18 12 0 -11 -4 -20 -10 -20 -5 0 -10 4 -10 9 0 5 -15 14
-34 21 -19 6 -36 19 -39 30 -6 25 -23 24 -64 -3z m67 -37 c0 -13 -7 -20 -20
-20 -19 0 -27 20 -13 33 13 14 33 6 33 -13z m-233 -69 c10 -14 7 -16 -18 -19
-29 -3 -42 -22 -14 -22 8 0 15 -9 15 -20 0 -24 -34 -27 -56 -6 -15 16 -19 56
-5 56 5 0 11 9 14 21 4 17 10 19 29 13 12 -4 28 -14 35 -23z m-59 -139 c3 -17
-2 -22 -17 -22 -25 0 -27 -13 -6 -34 19 -19 19 -23 -4 -29 -13 -3 -26 4 -40
21 -25 31 -27 52 -6 52 8 0 15 6 15 14 0 33 54 31 58 -2z m-90 -94 c7 -16 17
-28 23 -28 5 0 9 -9 9 -20 0 -13 -7 -20 -19 -20 -10 0 -21 -7 -25 -15 -12 -32
-26 -13 -26 34 0 28 -4 53 -10 56 -18 11 -10 26 12 23 13 -2 29 -15 36 -30z
m21 -135 c-10 -11 -14 -11 -20 -1 -14 21 -10 26 11 21 16 -4 18 -8 9 -20z
m599 -10 c-4 -22 -22 -20 -26 1 -2 10 3 16 13 16 10 0 15 -7 13 -17z m-4 -59
c11 -29 6 -54 -10 -54 -20 0 -43 28 -44 53 0 22 45 23 54 1z m-280 -79 c-3
-14 -10 -25 -14 -25 -5 0 -15 -3 -24 -6 -10 -4 -16 -1 -16 9 0 8 7 17 15 21 8
3 12 12 9 21 -3 8 -3 23 0 32 11 27 38 -20 30 -52z m1 -45 c-3 -5 -13 -10 -21
-10 -8 0 -14 5 -14 10 0 6 9 10 21 10 11 0 17 -4 14 -10z m380 0 c3 -5 -1 -10
-10 -10 -9 0 -13 5 -10 10 3 6 8 10 10 10 2 0 7 -4 10 -10z m-435 -50 c0 -24
16 -26 36 -5 19 18 64 20 64 2 0 -7 10 -24 22 -36 19 -21 19 -24 5 -33 -18 -9
-13 -31 12 -59 31 -32 51 -63 51 -76 0 -7 -8 -13 -17 -13 -11 0 -14 -3 -7 -8
6 -4 14 -14 17 -22 4 -8 16 -29 26 -46 l19 -32 -37 5 c-21 3 -47 0 -59 -6 -15
-8 -23 -7 -32 4 -7 8 -16 12 -21 9 -5 -3 -9 4 -9 15 0 13 -11 23 -34 31 -19 6
-36 15 -38 19 -2 5 -13 12 -25 15 -17 6 -23 3 -23 -9 0 -8 8 -18 18 -21 56
-18 72 -28 72 -44 0 -20 -26 -34 -35 -20 -8 14 -41 12 -65 -2 -15 -10 -22 -9
-39 6 -11 10 -18 22 -16 26 3 5 0 10 -7 12 -8 3 -5 14 10 35 19 27 20 32 6 51
-9 13 -11 22 -5 22 6 0 11 -4 11 -10 0 -5 11 -10 25 -10 30 0 33 16 5 25 -11
4 -20 15 -20 27 0 11 8 22 20 25 15 4 20 14 20 37 0 20 7 37 20 46 21 15 27
40 10 40 -5 0 -10 5 -10 10 0 6 7 10 15 10 8 0 15 -9 15 -20z m500 -114 c0 -8
10 -16 23 -19 19 -3 20 -5 5 -11 -11 -5 -26 -1 -42 11 -31 22 -33 33 -6 33 11
0 20 -6 20 -14z m0 -65 c0 -5 -7 -11 -15 -15 -15 -5 -20 5 -8 17 9 10 23 9 23
-2z m20 -30 c0 -5 -7 -11 -14 -14 -10 -4 -13 -1 -9 9 6 15 23 19 23 5z m-307
-31 c3 -11 1 -20 -4 -20 -5 0 -9 9 -9 20 0 11 2 20 4 20 2 0 6 -9 9 -20z m237
-10 c0 -5 6 -10 14 -10 8 0 16 -7 20 -15 7 -19 -3 -45 -16 -45 -17 0 -62 54
-49 58 6 2 9 8 5 13 -3 5 2 9 10 9 9 0 16 -4 16 -10z m125 0 c3 -5 1 -10 -4
-10 -6 0 -11 -4 -11 -10 0 -5 7 -7 15 -4 18 7 19 0 5 -27 -14 -25 -26 -24 -33
1 -10 39 11 77 28 50z m-175 -50 c6 -11 17 -20 25 -20 8 0 15 -9 15 -20 0 -11
-4 -20 -10 -20 -9 0 -80 66 -80 75 0 14 41 2 50 -15z m-1120 -36 c0 -16 -16
-19 -25 -4 -8 13 4 32 16 25 5 -4 9 -13 9 -21z m1056 15 c3 -6 -1 -18 -10 -27
-18 -18 -21 -16 -30 16 -6 18 -3 22 13 22 11 0 23 -5 27 -11z m53 -55 c2 -2
-4 -11 -14 -20 -14 -15 -18 -15 -26 -3 -16 26 -11 41 14 33 12 -3 24 -8 26
-10z m-124 -4 c3 -5 1 -10 -4 -10 -6 0 -11 5 -11 10 0 6 2 10 4 10 3 0 8 -4
11 -10z m215 -21 c0 -10 -7 -19 -15 -19 -13 0 -14 12 -6 48 3 12 21 -13 21
-29z m-163 -20 c9 -9 8 -15 -2 -25 -19 -20 -25 -17 -25 11 0 27 9 32 27 14z
m112 -25 c-11 -13 -14 -13 -27 0 -21 20 -7 39 19 25 17 -8 18 -13 8 -25z
m-113 -90 c-20 -20 -29 -17 -23 6 3 14 0 20 -10 20 -21 0 -41 29 -36 51 4 15
11 12 44 -22 34 -35 37 -42 25 -55z m57 82 c9 -7 17 -20 17 -29 0 -8 11 -24
25 -35 31 -25 31 -28 -1 -36 -20 -5 -24 -11 -19 -29 4 -12 13 -27 21 -33 18
-15 18 -34 0 -34 -8 0 -18 9 -21 20 -3 11 -10 20 -15 20 -5 0 -15 3 -24 6 -12
5 -16 0 -16 -20 0 -17 -5 -26 -15 -26 -25 0 -28 27 -7 57 10 15 17 35 14 43
-4 12 -3 13 10 3 8 -7 18 -10 21 -6 12 12 7 44 -7 49 -18 7 -27 29 -20 49 7
18 14 18 37 1z m105 -9 c2 -10 -3 -17 -12 -17 -9 0 -16 -7 -16 -17 0 -9 -3
-14 -6 -10 -3 3 -3 20 1 37 7 32 28 36 33 7z m-224 -82 c4 -19 11 -35 16 -35
6 0 10 -4 10 -10 0 -5 -7 -10 -15 -10 -8 0 -15 6 -15 14 0 8 -9 18 -20 21 -23
7 -25 20 -7 40 19 22 24 18 31 -20z m-334 10 c0 -8 -4 -15 -10 -15 -5 0 -10 7
-10 15 0 8 5 15 10 15 6 0 10 -7 10 -15z m-103 -35 c7 -8 13 -26 13 -39 0 -20
-2 -21 -15 -11 -8 7 -15 18 -15 25 0 7 -7 16 -16 19 -17 7 -10 27 9 23 7 -1
17 -9 24 -17z m80 4 c-3 -3 -12 -4 -19 -1 -8 3 -5 6 6 6 11 1 17 -2 13 -5z
m578 -14 c1 -20 -18 -32 -27 -17 -13 21 -9 39 10 35 9 -2 17 -10 17 -18z
m-298 -12 c-3 -8 -6 -5 -6 6 -1 11 2 17 5 13 3 -3 4 -12 1 -19z m-163 -41 c-7
-21 -8 -20 -14 8 -8 36 -1 54 12 31 5 -9 6 -26 2 -39z m116 19 c0 -3 -4 -8
-10 -11 -5 -3 -10 -1 -10 4 0 6 5 11 10 11 6 0 10 -2 10 -4z m100 -18 c0 -19
-2 -20 -10 -8 -13 19 -13 30 0 30 6 0 10 -10 10 -22z m353 -132 c7 -16 -1 -26
-20 -26 -7 0 -13 9 -13 20 0 23 25 27 33 6z m-50 -61 c-7 -19 -20 -19 -39 -1
-12 13 -11 15 8 18 30 5 38 1 31 -17z m95 2 c2 -12 -3 -17 -17 -17 -15 0 -21
6 -21 21 0 25 33 22 38 -4z m-960 -5 c2 -6 -6 -10 -17 -9 -12 1 -21 7 -21 13
0 15 33 11 38 -4z m-413 -82 c-3 -5 -10 -10 -16 -10 -5 0 -9 5 -9 10 0 6 7 10
16 10 8 0 12 -4 9 -10z m1645 -4 c0 -2 -7 -9 -15 -16 -12 -10 -15 -10 -15 4 0
9 7 16 15 16 8 0 15 -2 15 -4z m-57 -53 c-3 -9 -9 -11 -15 -5 -5 5 -6 17 -2
26 5 13 9 14 14 5 5 -7 6 -19 3 -26z m-1193 -53 c0 -11 -4 -20 -10 -20 -5 0
-10 2 -10 4 0 2 -3 11 -6 20 -4 11 -1 16 10 16 9 0 16 -8 16 -20z"
		/>
<path d="M2571 4503 c10 -2 19 -14 23 -26 3 -11 7 -19 10 -16 3 3 3 15 -1 27
-3 15 -13 22 -27 21 -15 -1 -16 -3 -5 -6z" />
<path d="M2500 4460 c0 -5 7 -7 15 -4 8 4 15 8 15 10 0 2 -7 4 -15 4 -8 0 -15
-4 -15 -10z" />
<path d="M2560 4400 c0 -11 5 -20 10 -20 6 0 10 9 10 20 0 11 -4 20 -10 20 -5
0 -10 -9 -10 -20z" />
<path d="M2410 4361 c0 -12 6 -21 14 -21 17 0 15 32 -2 38 -7 2 -12 -6 -12
-17z" />
<path d="M3120 5380 c0 -5 5 -10 10 -10 6 0 10 5 10 10 0 6 -4 10 -10 10 -5 0
-10 -4 -10 -10z" />
<path d="M3820 5371 c0 -10 7 -22 16 -25 12 -5 15 -2 10 10 -3 8 -6 20 -6 25
0 5 -4 9 -10 9 -5 0 -10 -9 -10 -19z" />
<path d="M4996 5375 c4 -8 12 -15 20 -15 20 0 17 7 -6 20 -16 9 -18 8 -14 -5z" />
<path d="M5952 5370 c0 -14 2 -19 5 -12 2 6 2 18 0 25 -3 6 -5 1 -5 -13z" />
<path d="M7780 5380 c0 -5 7 -10 15 -10 8 0 15 5 15 10 0 6 -7 10 -15 10 -8 0
-15 -4 -15 -10z" />
<path d="M5847 5365 c-4 -8 -2 -17 3 -20 6 -4 10 3 10 14 0 25 -6 27 -13 6z" />
<path d="M5996 5364 c-9 -24 -7 -28 9 -14 17 14 20 30 6 30 -5 0 -12 -7 -15
-16z" />
<path d="M6050 5364 c0 -17 27 -37 42 -31 8 4 7 6 -4 6 -9 1 -22 9 -27 19 -6
9 -11 12 -11 6z" />
<path d="M1100 5350 c0 -5 5 -10 10 -10 6 0 10 5 10 10 0 6 -4 10 -10 10 -5 0
-10 -4 -10 -10z" />
<path d="M1604 5325 c-7 -17 4 -37 17 -30 12 8 12 45 -1 45 -6 0 -13 -7 -16
-15z" />
<path d="M1665 5330 c4 -6 11 -8 16 -5 14 9 11 15 -7 15 -8 0 -12 -5 -9 -10z" />
<path
			d="M4523 5314 c-16 -17 -17 -34 -1 -34 6 0 8 -3 5 -7 -4 -3 -2 -12 4
-19 9 -10 7 -15 -5 -20 -9 -3 -16 -12 -16 -19 0 -7 -7 -18 -15 -25 -8 -7 -15
-28 -15 -46 0 -26 -4 -34 -18 -34 -14 0 -19 -8 -20 -30 -3 -51 -5 -59 -13 -55
-6 4 -15 -14 -26 -55 -2 -8 -6 -35 -9 -60 -4 -25 -13 -49 -20 -53 -8 -4 -14
-19 -14 -32 0 -13 -11 -35 -24 -50 -30 -32 -50 -127 -37 -173 6 -20 6 -32 0
-32 -5 0 -9 7 -9 15 0 8 -9 15 -20 15 -22 0 -25 -12 -10 -41 8 -14 7 -25 -5
-42 -8 -13 -12 -27 -8 -31 4 -4 -3 -9 -15 -13 -25 -6 -30 -41 -7 -49 24 -10
18 -34 -9 -34 -19 0 -25 -7 -30 -32 -14 -65 -17 -113 -8 -100 8 11 10 11 15
-1 4 -10 -7 -18 -36 -28 -33 -11 -41 -11 -45 -1 -2 7 -14 22 -26 33 -20 19
-20 21 -3 33 17 13 23 36 9 36 -6 0 -34 52 -38 73 -1 4 -3 10 -4 15 -1 4 -1
15 0 25 1 10 -10 34 -25 53 -14 19 -26 44 -25 57 4 42 0 57 -14 57 -10 0 -17
16 -21 48 -14 99 -18 107 -54 107 -29 0 -32 2 -28 24 3 14 -2 35 -10 48 -10
15 -11 23 -4 23 15 0 14 33 -1 49 -7 6 -13 15 -13 19 0 4 -17 25 -38 45 l-37
38 27 -3 c25 -3 28 1 31 31 3 25 0 32 -10 28 -27 -10 -52 21 -50 61 2 30 -4
47 -28 77 -19 24 -28 45 -24 57 4 12 0 18 -11 18 -9 0 -13 -4 -10 -10 10 -16
-15 -12 -32 5 -15 16 -54 12 -61 -6 -2 -5 -10 -2 -19 6 -19 19 -52 19 -59 0
-4 -8 -10 -15 -16 -15 -5 0 -7 4 -4 9 7 11 -37 23 -58 15 -24 -9 -31 -45 -12
-59 9 -7 16 -20 16 -29 0 -9 5 -16 11 -16 6 0 8 -15 4 -43 -6 -39 -4 -46 26
-75 29 -28 32 -35 21 -52 -14 -23 -5 -53 28 -90 14 -16 20 -33 17 -50 -6 -28
5 -52 35 -82 13 -13 18 -27 14 -43 -7 -26 11 -75 31 -88 7 -4 13 -27 13 -52 0
-24 5 -47 10 -50 6 -4 8 -10 5 -15 -3 -5 4 -14 16 -20 16 -9 20 -18 16 -38 -5
-27 21 -102 35 -102 5 0 8 -16 8 -35 0 -19 5 -35 10 -35 6 0 10 4 10 10 0 5 7
7 15 4 8 -4 15 -10 15 -16 0 -5 -4 -7 -9 -4 -5 3 -14 -1 -20 -8 -8 -10 -9 -16
-1 -21 5 -3 10 -16 10 -27 0 -12 3 -18 6 -15 12 12 54 -46 44 -59 -6 -6 -7
-32 -4 -58 5 -35 11 -46 23 -45 31 3 41 -1 41 -16 0 -8 -9 -15 -20 -15 -23 0
-24 -4 -10 -31 15 -27 29 -24 42 9 9 23 12 24 16 8 2 -10 -1 -22 -7 -25 -18
-11 0 -118 22 -133 6 -3 12 -31 15 -61 3 -41 11 -63 31 -86 24 -28 29 -30 41
-17 14 18 40 22 40 6 0 -5 30 -10 68 -12 61 -3 67 -5 70 -25 2 -13 8 -23 13
-23 12 0 12 27 -1 35 -7 4 -7 13 0 26 13 23 30 25 30 4 0 -9 9 -15 25 -15 19
0 26 7 34 38 6 20 11 45 11 55 0 15 3 16 21 6 21 -11 22 -10 16 25 -3 20 -1
38 5 42 6 4 7 21 3 41 -6 31 -4 34 13 29 18 -6 20 -1 24 59 4 63 19 92 40 79
4 -3 8 22 8 55 0 53 2 61 19 61 16 0 19 11 25 70 6 55 11 70 26 75 16 5 20 17
22 67 3 58 4 61 20 45 9 -9 21 -17 27 -17 17 0 13 30 -4 36 -20 8 -19 50 1 58
8 3 13 10 9 15 -3 5 -1 12 5 16 5 3 10 22 10 41 0 31 -8 39 -32 35 -5 0 -8 6
-8 14 0 10 11 15 35 15 31 0 35 3 35 25 0 14 -6 25 -13 25 -8 0 -24 9 -37 20
-24 21 -15 25 27 14 13 -4 20 -10 17 -15 -3 -5 3 -9 14 -9 14 0 19 7 19 32 0
18 5 34 11 36 17 5 15 32 -3 32 -8 0 -15 7 -15 16 0 10 8 15 23 14 35 -3 40
-1 28 14 -8 10 -8 22 4 47 8 19 14 30 15 25 0 -6 7 -1 15 10 17 22 20 54 5 54
-21 0 -9 31 15 40 20 8 23 13 16 32 -6 17 -3 30 11 51 22 31 29 98 10 105 -7
2 -12 8 -12 14 0 6 7 7 15 4 8 -3 22 -9 30 -12 26 -11 17 34 -10 52 -19 13
-28 14 -39 5 -17 -14 -58 -10 -80 8 -14 12 -16 10 -16 -13 0 -32 -22 -34 -50
-6 -11 11 -20 27 -20 35 0 8 -4 15 -10 15 -5 0 -10 -4 -10 -10 0 -5 -6 -10
-14 -10 -8 0 -18 -5 -22 -12 -5 -7 -2 -9 8 -6 8 4 21 2 29 -3 10 -6 5 -9 -18
-9 -26 0 -32 4 -35 24 -2 20 -5 22 -15 10z m-913 -107 c0 -20 0 -20 -19 1 -10
12 -26 22 -35 22 -19 0 -22 16 -3 23 19 6 57 -23 57 -46z m1096 26 c-10 -10
-19 5 -10 18 6 11 8 11 12 0 2 -7 1 -15 -2 -18z m-1186 -11 c6 -14 9 -26 7
-29 -8 -8 -37 10 -37 23 0 8 -7 14 -15 14 -8 0 -15 4 -15 10 0 20 49 5 60 -18z
m163 3 c25 -24 35 -45 22 -45 -3 0 -21 16 -41 35 -40 40 -23 48 19 10z m957
21 c0 -2 -9 -6 -20 -9 -11 -3 -20 -1 -20 4 0 5 9 9 20 9 11 0 20 -2 20 -4z
m-56 -41 c3 -9 0 -15 -8 -15 -7 0 -19 7 -26 15 -10 12 -9 15 8 15 11 0 22 -7
26 -15z m60 -34 c-17 -33 -37 -37 -42 -8 -2 11 3 17 16 17 11 0 23 7 26 16 4
9 9 15 11 12 3 -3 -2 -19 -11 -37z m106 29 c0 -5 -4 -10 -10 -10 -5 0 -10 5
-10 10 0 6 5 10 10 10 6 0 10 -4 10 -10z m-1000 -35 c0 -8 -4 -15 -10 -15 -5
0 -10 7 -10 15 0 8 5 15 10 15 6 0 10 -7 10 -15z m975 -25 c6 0 11 -6 13 -14
2 -9 -2 -16 -10 -16 -14 0 -39 46 -30 55 4 3 9 -1 12 -10 3 -9 10 -16 15 -15z
m-1055 12 c0 -4 -10 -9 -22 -9 -18 -2 -20 0 -8 7 18 12 30 13 30 2z m918 -30
c2 -7 -3 -12 -12 -12 -9 0 -16 7 -16 16 0 17 22 14 28 -4z m82 3 c4 3 10 -2
14 -10 3 -10 -1 -15 -14 -15 -23 0 -34 15 -24 32 6 9 9 9 12 0 2 -7 7 -10 12
-7z m-963 -21 c-3 -3 -12 -4 -19 -1 -8 3 -5 6 6 6 11 1 17 -2 13 -5z m43 -34
c0 -5 -5 -10 -11 -10 -5 0 -7 5 -4 10 3 6 8 10 11 10 2 0 4 -4 4 -10z m888 -2
c17 -17 15 -28 -4 -28 -8 0 -12 5 -9 10 3 6 -1 10 -10 10 -9 0 -13 5 -10 10 8
13 18 13 33 -2z m-1038 -28 c0 -5 -2 -10 -4 -10 -3 0 -8 5 -11 10 -3 6 -1 10
4 10 6 0 11 -4 11 -10z m980 -15 c0 -8 -4 -15 -10 -15 -5 0 -10 7 -10 15 0 8
5 15 10 15 6 0 10 -7 10 -15z m-950 -16 c0 -5 -4 -9 -10 -9 -5 0 -10 7 -10 16
0 8 5 12 10 9 6 -3 10 -10 10 -16z m120 -17 c13 -10 21 -24 19 -31 -3 -8 -11
-5 -27 9 -12 11 -32 25 -44 30 -23 9 -22 9 3 9 15 1 37 -7 49 -17z m-180 -12
c0 -13 -5 -18 -15 -14 -8 4 -15 12 -15 20 0 8 7 14 15 14 8 0 15 -9 15 -20z
m108 -3 c3 -12 -4 -17 -22 -17 -27 0 -37 24 -13 33 19 8 32 2 35 -16z m1029
17 c-3 -3 -12 -4 -19 -1 -8 3 -5 6 6 6 11 1 17 -2 13 -5z m-167 -14 c0 -5 -7
-10 -15 -10 -8 0 -15 5 -15 10 0 6 7 10 15 10 8 0 15 -4 15 -10z m100 -5 c0
-8 -7 -15 -15 -15 -26 0 -18 20 13 29 1 1 2 -6 2 -14z m-65 -43 c-3 -3 -11 0
-18 7 -9 10 -8 11 6 5 10 -3 15 -9 12 -12z m113 -20 c3 -9 -2 -13 -14 -10 -9
1 -19 9 -22 16 -3 9 2 13 14 10 9 -1 19 -9 22 -16z m-50 -31 c3 -20 2 -21 -18
-9 -18 11 -18 13 -4 17 14 2 15 5 3 13 -12 8 -11 9 1 5 8 -2 16 -14 18 -26z
m-893 9 c3 -5 -1 -10 -10 -10 -9 0 -13 5 -10 10 3 6 8 10 10 10 2 0 7 -4 10
-10z m790 0 c-3 -5 -10 -10 -16 -10 -5 0 -9 5 -9 10 0 6 7 10 16 10 8 0 12 -4
9 -10z m-839 -30 c6 0 21 -12 33 -27 18 -20 20 -25 6 -20 -9 4 -25 7 -35 7
-11 0 -25 13 -34 32 -21 40 -20 45 2 25 10 -10 23 -17 28 -17z m796 -28 c-5
-13 -7 -13 -10 -2 -3 8 -11 21 -19 28 -23 24 -14 33 11 11 15 -13 22 -27 18
-37z m-675 10 c4 -9 14 -22 22 -29 9 -6 13 -15 9 -19 -5 -4 -16 0 -25 8 -10 8
-26 18 -35 21 -11 4 -15 12 -12 22 3 8 1 15 -6 15 -6 0 -8 5 -5 10 8 13 44 -6
52 -28z m-181 4 c16 -16 19 -36 5 -36 -5 0 -17 7 -25 16 -9 8 -16 20 -16 25 0
14 20 11 36 -5z m944 0 c0 -3 -4 -8 -10 -11 -5 -3 -10 -1 -10 4 0 6 5 11 10
11 6 0 10 -2 10 -4z m47 -32 c-3 -3 -12 -4 -19 -1 -8 3 -5 6 6 6 11 1 17 -2
13 -5z m-187 -8 c0 -3 -4 -8 -10 -11 -5 -3 -10 -1 -10 4 0 6 5 11 10 11 6 0
10 -2 10 -4z m97 -2 c-3 -3 -12 -4 -19 -1 -8 3 -5 6 6 6 11 1 17 -2 13 -5z
m-52 -44 c-3 -5 -10 -10 -16 -10 -5 0 -9 5 -9 10 0 6 7 10 16 10 8 0 12 -4 9
-10z m-552 -52 c-9 -15 -23 -8 -23 12 0 17 2 19 14 8 8 -7 12 -16 9 -20z
m-225 -30 c-6 -18 -28 -21 -28 -4 0 9 7 16 16 16 9 0 14 -5 12 -12z m162 -3
c0 -8 -4 -15 -10 -15 -5 0 -7 7 -4 15 4 8 8 15 10 15 2 0 4 -7 4 -15z m527 -7
c-3 -8 -6 -5 -6 6 -1 11 2 17 5 13 3 -3 4 -12 1 -19z m-480 -50 c-3 -7 -5 -2
-5 12 0 14 2 19 5 13 2 -7 2 -19 0 -25z m-167 12 c0 -5 -5 -10 -11 -10 -5 0
-7 5 -4 10 3 6 8 10 11 10 2 0 4 -4 4 -10z m800 -4 c0 -3 -4 -8 -10 -11 -5 -3
-10 -1 -10 4 0 6 5 11 10 11 6 0 10 -2 10 -4z m-588 -38 c-9 -9 -12 -7 -12 12
0 19 3 21 12 12 9 -9 9 -15 0 -24z m538 -10 c0 -5 -4 -8 -10 -8 -5 0 -10 10
-10 23 0 18 2 19 10 7 5 -8 10 -18 10 -22z m-800 7 c0 -8 -4 -15 -10 -15 -5 0
-10 7 -10 15 0 8 5 15 10 15 6 0 10 -7 10 -15z m84 0 c3 -8 1 -15 -4 -15 -6 0
-10 7 -10 15 0 8 2 15 4 15 2 0 6 -7 10 -15z m-34 -46 c0 -11 -4 -17 -10 -14
-5 3 -10 13 -10 21 0 8 5 14 10 14 6 0 10 -9 10 -21z m167 -11 c-3 -7 -5 -2
-5 12 0 14 2 19 5 13 2 -7 2 -19 0 -25z m533 17 c0 -8 -7 -15 -15 -15 -26 0
-18 20 13 29 1 1 2 -6 2 -14z m90 0 c0 -8 -7 -15 -15 -15 -26 0 -18 20 13 29
1 1 2 -6 2 -14z m-700 -5 c0 -5 -4 -10 -10 -10 -5 0 -10 5 -10 10 0 6 5 10 10
10 6 0 10 -4 10 -10z m520 0 c0 -5 -4 -10 -10 -10 -5 0 -10 5 -10 10 0 6 5 10
10 10 6 0 10 -4 10 -10z m-566 -37 c-5 -5 -12 -12 -16 -18 -4 -6 -8 -2 -8 8 0
9 7 17 17 17 9 0 12 -3 7 -7z m96 3 c0 -2 -7 -9 -15 -16 -12 -10 -15 -10 -15
4 0 9 7 16 15 16 8 0 15 -2 15 -4z m80 -5 c0 -6 -4 -13 -10 -16 -5 -3 -10 1
-10 9 0 9 5 16 10 16 6 0 10 -4 10 -9z m350 0 c0 -6 -4 -13 -10 -16 -5 -3 -10
1 -10 9 0 9 5 16 10 16 6 0 10 -4 10 -9z m77 -13 c-3 -8 -6 -5 -6 6 -1 11 2
17 5 13 3 -3 4 -12 1 -19z m-547 -49 c0 -5 -7 -9 -15 -9 -9 0 -15 9 -15 21 0
18 2 19 15 9 8 -7 15 -16 15 -21z m67 -6 c-3 -3 -11 -2 -17 2 -8 5 -7 11 2 22
12 15 13 14 16 -1 2 -10 1 -20 -1 -23z m143 -113 c0 -5 -4 -10 -10 -10 -5 0
-10 5 -10 10 0 6 5 10 10 10 6 0 10 -4 10 -10z m185 0 c3 -5 -3 -10 -15 -10
-12 0 -18 5 -15 10 3 6 10 10 15 10 5 0 12 -4 15 -10z m45 -14 c0 -2 3 -11 6
-19 3 -10 -3 -16 -20 -19 -27 -5 -30 -1 -20 26 5 14 34 24 34 12z m-460 -26
c0 -5 -4 -10 -10 -10 -5 0 -10 5 -10 10 0 6 5 10 10 10 6 0 10 -4 10 -10z
m126 -15 c4 -14 4 -29 0 -32 -3 -4 -6 4 -6 16 0 18 -4 21 -20 16 -14 -5 -20
-2 -20 9 0 27 39 19 46 -9z m72 8 c15 -9 28 -17 28 -17 1 -1 5 -11 8 -23 6
-20 5 -21 -18 -10 -14 7 -26 17 -26 23 0 12 -28 29 -42 26 -5 -1 -8 3 -8 8 0
15 28 12 58 -7z m417 7 c3 -5 -1 -10 -9 -10 -9 0 -16 5 -16 10 0 6 4 10 9 10
6 0 13 -4 16 -10z m-205 -34 c0 -8 -6 -16 -14 -19 -10 -4 -14 0 -13 14 1 21
27 27 27 5z m77 -22 c-9 -9 -27 6 -27 22 0 13 2 13 16 -1 9 -9 14 -18 11 -21z
m-422 6 c3 -5 -3 -10 -14 -10 -12 0 -21 5 -21 10 0 6 6 10 14 10 8 0 18 -4 21
-10z m510 0 c3 -5 1 -10 -4 -10 -6 0 -11 5 -11 10 0 6 2 10 4 10 3 0 8 -4 11
-10z m-220 -28 c0 -18 -20 -15 -23 4 -3 10 1 15 10 12 7 -3 13 -10 13 -16z
m-51 -61 c-2 -2 -15 8 -30 24 -19 21 -22 30 -13 36 8 5 18 -4 30 -24 9 -18 15
-34 13 -36z m96 9 c13 -8 13 -10 -2 -10 -9 0 -20 5 -23 10 -8 13 5 13 25 0z
m175 1 c3 -5 1 -12 -5 -16 -5 -3 -10 1 -10 9 0 18 6 21 15 7z m-345 -11 c0 -5
-7 -10 -16 -10 -8 0 -12 5 -9 10 3 6 10 10 16 10 5 0 9 -4 9 -10z m-40 -35 c0
-8 -4 -15 -10 -15 -5 0 -10 7 -10 15 0 8 5 15 10 15 6 0 10 -7 10 -15z m85 6
c7 -12 -12 -24 -25 -16 -11 7 -4 25 10 25 5 0 11 -4 15 -9z m85 -6 c0 -8 -4
-15 -10 -15 -5 0 -10 7 -10 15 0 8 5 15 10 15 6 0 10 -7 10 -15z m97 0 c3 -9
3 -19 -1 -22 -8 -9 -37 18 -30 28 8 14 24 11 31 -6z m-317 -51 c0 -8 -4 -14
-10 -14 -5 0 -10 9 -10 21 0 11 5 17 10 14 6 -3 10 -13 10 -21z m93 12 c7 -16
-1 -26 -20 -26 -7 0 -13 9 -13 20 0 23 25 27 33 6z m177 10 c0 -2 -7 -6 -15
-10 -8 -3 -15 -1 -15 4 0 6 7 10 15 10 8 0 15 -2 15 -4z m-90 -21 c0 -8 -9
-15 -20 -15 -13 0 -18 5 -14 15 4 8 12 15 20 15 8 0 14 -7 14 -15z m-133 -31
c-3 -3 -12 -4 -19 -1 -8 3 -5 6 6 6 11 1 17 -2 13 -5z m83 -9 c0 -8 -7 -15
-15 -15 -8 0 -15 7 -15 15 0 8 7 15 15 15 8 0 15 -7 15 -15z m0 -89 c0 -8 -4
-18 -10 -21 -5 -3 -10 3 -10 14 0 12 5 21 10 21 6 0 10 -6 10 -14z m90 7 c0
-5 -4 -14 -9 -21 -6 -10 -10 -9 -14 7 -3 14 0 21 9 21 8 0 14 -3 14 -7z m-225
-43 c3 -5 1 -10 -4 -10 -6 0 -11 5 -11 10 0 6 2 10 4 10 3 0 8 -4 11 -10z
m355 1 c0 -6 -4 -13 -10 -16 -5 -3 -10 1 -10 9 0 9 5 16 10 16 6 0 10 -4 10
-9z m-83 -7 c-3 -3 -12 -4 -19 -1 -8 3 -5 6 6 6 11 1 17 -2 13 -5z m-137 -44
c0 -5 -4 -10 -10 -10 -5 0 -10 5 -10 10 0 6 5 10 10 10 6 0 10 -4 10 -10z
m180 0 c12 -8 11 -10 -7 -10 -13 0 -23 5 -23 10 0 13 11 13 30 0z m-135 -40
c3 -5 1 -10 -4 -10 -6 0 -11 5 -11 10 0 6 2 10 4 10 3 0 8 -4 11 -10z m-45
-41 c0 -5 -4 -9 -10 -9 -5 0 -10 7 -10 16 0 8 5 12 10 9 6 -3 10 -10 10 -16z"
		/>
<path d="M2744 5284 c3 -9 6 -18 6 -20 0 -2 7 -4 15 -4 20 0 19 26 -1 34 -24
9 -27 8 -20 -10z" />
<path d="M7797 5293 c-2 -4 4 -17 14 -27 16 -16 19 -17 19 -4 0 18 -26 43 -33
31z" />
<path d="M1655 5280 c-7 -12 2 -30 16 -30 5 0 9 9 9 20 0 21 -15 27 -25 10z" />
<path d="M5522 5259 c-10 -15 -11 -24 -3 -32 8 -8 11 -7 11 2 0 9 8 11 24 7
12 -3 26 -2 30 2 4 4 12 7 18 7 6 0 12 8 14 18 4 27 -77 24 -94 -4z" />
<path d="M5410 5246 c0 -9 7 -16 16 -16 9 0 14 5 12 12 -6 18 -28 21 -28 4z" />
<path d="M7850 5226 c0 -9 5 -16 10 -16 6 0 10 4 10 9 0 6 -4 13 -10 16 -5 3
-10 -1 -10 -9z" />
<path d="M2790 5220 c0 -5 7 -10 15 -10 8 0 15 5 15 10 0 6 -7 10 -15 10 -8 0
-15 -4 -15 -10z" />
<path d="M3837 5224 c-9 -9 4 -35 14 -28 5 3 9 12 9 20 0 14 -12 19 -23 8z" />
<path
			d="M5460 5190 c0 -9 39 -40 50 -40 6 0 10 5 10 10 0 6 4 10 9 10 11 0
-6 -69 -21 -87 -8 -10 2 -18 36 -33 25 -10 46 -24 46 -30 0 -20 19 -10 22 13
2 15 9 21 21 19 21 -4 22 2 0 28 -12 14 -31 21 -63 22 l-45 1 40 4 c36 4 54
16 55 36 0 4 -9 7 -19 7 -23 0 -36 16 -21 25 23 14 6 21 -55 20 -36 0 -65 -2
-65 -5z"
		/>
<path d="M5630 5180 c0 -5 5 -10 10 -10 6 0 10 5 10 10 0 6 -4 10 -10 10 -5 0
-10 -4 -10 -10z" />
<path d="M4017 5159 c-4 -15 -2 -19 10 -15 8 3 19 6 24 6 5 0 9 7 9 15 0 23
-37 18 -43 -6z" />
<path d="M5370 5165 c0 -16 27 -32 37 -22 5 6 -21 37 -31 37 -3 0 -6 -7 -6
-15z" />
<path d="M1740 5150 c0 -5 5 -10 10 -10 6 0 10 5 10 10 0 6 -4 10 -10 10 -5 0
-10 -4 -10 -10z" />
<path d="M5657 5153 c-4 -3 -7 -11 -7 -17 0 -6 5 -5 12 2 6 6 9 14 7 17 -3 3
-9 2 -12 -2z" />
<path d="M5947 5143 c-4 -3 -7 -13 -7 -22 1 -13 3 -13 11 2 11 19 8 33 -4 20z" />
<path d="M3820 5110 c0 -16 5 -30 10 -30 6 0 10 14 10 30 0 17 -4 30 -10 30
-5 0 -10 -13 -10 -30z" />
<path d="M5843 5075 c-15 -17 -3 -27 17 -15 10 6 11 12 5 19 -6 6 -14 4 -22
-4z" />
<path d="M5780 5062 c0 -5 7 -9 15 -9 8 0 15 4 15 9 0 4 -7 8 -15 8 -8 0 -15
-4 -15 -8z" />
<path d="M5680 5050 c0 -5 7 -10 16 -10 8 0 12 5 9 10 -3 6 -10 10 -16 10 -5
0 -9 -4 -9 -10z" />
<path d="M3983 5025 c-18 -20 -16 -25 12 -25 27 0 28 1 19 24 -7 19 -15 20
-31 1z" />
<path d="M5630 5025 c0 -8 7 -15 15 -15 8 0 15 7 15 15 0 8 -7 15 -15 15 -8 0
-15 -7 -15 -15z" />
<path d="M3460 5020 c0 -5 5 -10 10 -10 6 0 10 5 10 10 0 6 -4 10 -10 10 -5 0
-10 -4 -10 -10z" />
<path d="M4168 5009 c-20 -21 -24 -49 -8 -49 6 0 10 7 10 15 0 8 4 15 9 15 5
0 11 9 14 20 6 25 -2 24 -25 -1z" />
<path d="M5748 5003 c-22 -5 -24 -23 -3 -23 8 0 15 -4 15 -10 0 -5 5 -10 10
-10 12 0 14 37 3 43 -5 2 -16 2 -25 0z" />
<path d="M5800 5003 c0 -4 8 -17 16 -28 15 -20 16 -20 12 4 -3 22 -28 44 -28
24z" />
<path d="M5940 4985 c0 -15 6 -25 14 -25 24 0 26 15 5 33 -18 16 -19 16 -19
-8z" />
<path d="M3950 4980 c0 -13 5 -20 13 -17 6 2 12 10 12 17 0 7 -6 15 -12 18 -8
2 -13 -5 -13 -18z" />
<path d="M4025 4990 c-8 -14 3 -30 21 -30 8 0 14 9 14 20 0 21 -24 28 -35 10z" />
<path d="M4127 4979 c4 -13 8 -18 11 -10 2 7 -1 18 -6 23 -8 8 -9 4 -5 -13z" />
<path d="M6504 4928 c-4 -6 0 -16 8 -22 8 -6 20 -22 27 -34 21 -39 26 -15 6
28 -19 41 -29 48 -41 28z" />
<path d="M1181 4904 c0 -11 3 -14 6 -6 3 7 2 16 -1 19 -3 4 -6 -2 -5 -13z" />
<path d="M2940 4900 c0 -5 7 -10 15 -10 8 0 15 5 15 10 0 6 -7 10 -15 10 -8 0
-15 -4 -15 -10z" />
<path d="M8000 4900 c0 -5 5 -10 10 -10 6 0 10 5 10 10 0 6 -4 10 -10 10 -5 0
-10 -4 -10 -10z" />
<path d="M786 4885 c4 -8 10 -12 15 -9 14 8 10 24 -6 24 -9 0 -12 -6 -9 -15z" />
<path d="M865 4891 c-7 -12 31 -25 45 -16 5 3 10 10 10 16 0 12 -47 12 -55 0z" />
<path d="M6465 4850 c3 -5 10 -10 16 -10 5 0 9 5 9 10 0 6 -7 10 -16 10 -8 0
-12 -4 -9 -10z" />
<path d="M946 4841 c-3 -4 3 -19 14 -31 21 -24 24 -20 14 18 -7 23 -19 29 -28
13z" />
<path d="M6510 4820 c-13 -8 -12 -10 3 -10 9 0 17 5 17 10 0 12 -1 12 -20 0z" />
<path d="M4028 4813 c7 -3 16 -2 19 1 4 3 -2 6 -13 5 -11 0 -14 -3 -6 -6z" />
<path d="M1275 4800 c-3 -5 -1 -10 4 -10 6 0 11 5 11 10 0 6 -2 10 -4 10 -3 0
-8 -4 -11 -10z" />
<path d="M4180 4774 c0 -12 32 -65 36 -61 9 9 -8 56 -22 61 -8 3 -14 3 -14 0z" />
<path d="M5960 4770 c0 -5 7 -10 15 -10 8 0 15 5 15 10 0 6 -7 10 -15 10 -8 0
-15 -4 -15 -10z" />
<path d="M1025 4741 c-3 -5 -1 -12 4 -15 5 -3 11 1 15 9 6 16 -9 21 -19 6z" />
<path d="M1536 4725 c4 -8 8 -15 10 -15 2 0 4 7 4 15 0 8 -4 15 -10 15 -5 0
-7 -7 -4 -15z" />
<path d="M3420 4727 c0 -8 12 -19 28 -26 l27 -13 -24 26 c-28 30 -31 31 -31
13z" />
<path d="M1962 4709 c2 -6 7 -10 11 -10 4 1 14 1 23 1 8 0 12 5 9 10 -8 13
-48 13 -43 -1z" />
<path d="M5715 4710 c-3 -5 -1 -10 4 -10 6 0 11 5 11 10 0 6 -2 10 -4 10 -3 0
-8 -4 -11 -10z" />
<path d="M6943 4705 c4 -9 7 -30 7 -46 0 -19 5 -29 15 -29 25 0 20 67 -7 81
-18 10 -20 9 -15 -6z" />
<path d="M7010 4712 c0 -14 11 -21 26 -15 21 8 17 23 -6 23 -11 0 -20 -4 -20
-8z" />
<path d="M1900 4693 c0 -29 12 -63 21 -63 10 0 12 41 3 64 -8 21 -24 20 -24
-1z" />
<path d="M6525 4700 c3 -5 11 -10 16 -10 6 0 7 5 4 10 -3 6 -11 10 -16 10 -6
0 -7 -4 -4 -10z" />
<path d="M3453 4673 c-7 -3 -13 -20 -13 -40 0 -38 23 -43 28 -5 2 14 11 22 23
22 10 0 19 5 19 12 0 6 -3 8 -6 5 -4 -3 -14 -3 -23 2 -9 5 -22 6 -28 4z" />
<path d="M1855 4657 c-4 -10 -5 -21 -1 -24 10 -10 18 4 13 24 -4 17 -4 17 -12
0z" />
<path d="M5865 4660 c3 -5 8 -10 11 -10 2 0 4 5 4 10 0 6 -5 10 -11 10 -5 0
-7 -4 -4 -10z" />
<path d="M6896 4654 c-9 -22 -8 -24 9 -24 8 0 15 9 15 20 0 24 -15 27 -24 4z" />
<path d="M7006 4652 c-8 -14 30 -59 41 -48 5 4 1 13 -8 19 -9 7 -18 19 -21 27
-3 10 -6 11 -12 2z" />
<path d="M1960 4641 c0 -21 13 -41 26 -41 19 0 18 6 -6 30 -11 11 -20 16 -20
11z" />
<path d="M1500 4620 c0 -5 5 -10 10 -10 6 0 10 5 10 10 0 6 -4 10 -10 10 -5 0
-10 -4 -10 -10z" />
<path d="M4665 4620 c-3 -5 1 -10 10 -10 9 0 13 5 10 10 -3 6 -8 10 -10 10 -2
0 -7 -4 -10 -10z" />
<path d="M1876 4605 c-3 -9 1 -18 10 -22 19 -7 28 2 21 22 -8 19 -23 19 -31 0z" />
<path d="M6935 4607 c-4 -10 -5 -21 -1 -24 10 -10 18 4 13 24 -4 17 -4 17 -12
0z" />
<path d="M5960 4570 c0 -6 7 -10 15 -10 8 0 15 2 15 4 0 2 -7 6 -15 10 -8 3
-15 1 -15 -4z" />
<path d="M1920 4560 c0 -5 7 -10 15 -10 8 0 15 5 15 10 0 6 -7 10 -15 10 -8 0
-15 -4 -15 -10z" />
<path d="M6970 4560 c0 -5 5 -10 10 -10 6 0 10 5 10 10 0 6 -4 10 -10 10 -5 0
-10 -4 -10 -10z" />
<path d="M4665 4547 c-4 -10 -5 -21 -1 -24 10 -10 18 4 13 24 -4 17 -4 17 -12
0z" />
<path d="M6500 4519 c0 -18 51 -62 61 -52 13 13 -15 58 -39 61 -12 2 -22 -2
-22 -9z" />
<path d="M1870 4510 c0 -5 7 -10 15 -10 8 0 15 5 15 10 0 6 -7 10 -15 10 -8 0
-15 -4 -15 -10z" />
<path d="M1970 4512 c0 -5 7 -9 15 -9 8 0 15 4 15 9 0 4 -7 8 -15 8 -8 0 -15
-4 -15 -8z" />
<path d="M4150 4509 c0 -5 5 -7 10 -4 6 3 10 8 10 11 0 2 -4 4 -10 4 -5 0 -10
-5 -10 -11z" />
<path d="M6930 4509 c0 -5 5 -7 10 -4 6 3 10 8 10 11 0 2 -4 4 -10 4 -5 0 -10
-5 -10 -11z" />
<path d="M7025 4510 c-3 -5 -2 -10 4 -10 5 0 13 5 16 10 3 6 2 10 -4 10 -5 0
-13 -4 -16 -10z" />
<path d="M1783 4503 c-20 -7 -15 -23 6 -23 10 0 21 7 25 15 5 15 -7 18 -31 8z" />
<path d="M4618 4503 c7 -3 16 -2 19 1 4 3 -2 6 -13 5 -11 0 -14 -3 -6 -6z" />
<path d="M6835 4499 c-4 -6 -5 -12 -2 -15 7 -7 37 7 37 17 0 13 -27 11 -35 -2z" />
<path d="M6462 4488 c-18 -18 -15 -41 4 -34 9 3 18 6 20 6 2 0 4 9 4 20 0 23
-10 26 -28 8z" />
<path d="M1815 4470 c-3 -6 2 -13 12 -17 10 -4 21 -11 25 -17 12 -19 20 2 8
23 -11 22 -35 28 -45 11z" />
<path d="M6870 4472 c0 -8 37 -42 45 -42 10 0 4 22 -9 36 -16 15 -36 19 -36 6z" />
<path d="M1491 4454 c-15 -18 -15 -19 22 -28 30 -7 32 -4 17 25 -13 23 -20 23
-39 3z" />
<path d="M1925 4460 c4 -6 11 -8 16 -5 14 9 11 15 -7 15 -8 0 -12 -5 -9 -10z" />
<path d="M5855 4460 c3 -5 8 -10 11 -10 2 0 4 5 4 10 0 6 -5 10 -11 10 -5 0
-7 -4 -4 -10z" />
<path d="M1776 4453 c-7 -7 23 -43 35 -43 4 0 5 9 2 19 -5 20 -27 34 -37 24z" />
<path
			d="M3127 4435 c-4 -8 -2 -17 3 -20 14 -9 12 -42 -4 -74 -10 -18 -11 -32
-5 -42 8 -12 10 -12 18 0 9 14 51 19 81 10 12 -3 15 7 17 49 l1 52 -34 0 c-19
0 -34 5 -34 11 0 5 -4 7 -10 4 -5 -3 -10 1 -10 9 0 20 -16 21 -23 1z m73 -81
c0 -8 -4 -14 -10 -14 -5 0 -10 4 -10 9 0 5 -3 18 -7 28 -6 16 -5 16 10 4 9 -7
17 -20 17 -27z"
		/>
<path d="M6830 4441 c0 -12 29 -35 36 -28 4 3 -1 13 -9 22 -17 17 -27 19 -27
6z" />
<path d="M3440 4430 c0 -5 5 -10 10 -10 6 0 10 5 10 10 0 6 -4 10 -10 10 -5 0
-10 -4 -10 -10z" />
<path d="M1567 4423 c-10 -9 -9 -33 1 -33 4 0 8 9 8 20 0 23 0 22 -9 13z" />
<path d="M6508 4423 c7 -3 16 -2 19 1 4 3 -2 6 -13 5 -11 0 -14 -3 -6 -6z" />
<path d="M1870 4407 c0 -19 10 -27 26 -20 21 8 17 33 -6 33 -11 0 -20 -6 -20
-13z" />
<path d="M6930 4405 c0 -8 5 -15 10 -15 6 0 10 7 10 15 0 8 -4 15 -10 15 -5 0
-10 -7 -10 -15z" />
<path d="M1390 4380 c0 -5 4 -10 9 -10 6 0 13 5 16 10 3 6 -1 10 -9 10 -9 0
-16 -4 -16 -10z" />
<path d="M4610 4386 c0 -2 7 -6 15 -10 8 -3 15 -1 15 4 0 6 -7 10 -15 10 -8 0
-15 -2 -15 -4z" />
<path d="M3260 4370 c-12 -8 -13 -13 -3 -29 7 -11 10 -29 8 -40 -5 -27 6 -27
29 1 13 14 15 23 8 26 -7 2 -12 12 -12 22 0 24 -12 31 -30 20z" />
<path d="M3680 4370 c0 -5 7 -10 15 -10 8 0 15 5 15 10 0 6 -7 10 -15 10 -8 0
-15 -4 -15 -10z" />
<path d="M4550 4373 c0 -5 5 -15 10 -23 9 -13 11 -13 20 0 15 22 12 30 -10 30
-11 0 -20 -3 -20 -7z" />
<path d="M6455 4370 c3 -5 8 -10 11 -10 2 0 4 5 4 10 0 6 -5 10 -11 10 -5 0
-7 -4 -4 -10z" />
<path d="M1610 4345 c0 -8 5 -15 10 -15 6 0 10 7 10 15 0 8 -4 15 -10 15 -5 0
-10 -7 -10 -15z" />
<path d="M890 4307 c0 -7 14 -23 30 -35 30 -23 43 -15 15 8 -8 7 -15 19 -15
26 0 8 -7 14 -15 14 -8 0 -15 -6 -15 -13z" />
<path d="M1276 4305 c-3 -8 -1 -15 4 -15 6 0 10 7 10 15 0 8 -2 15 -4 15 -2 0
-6 -7 -10 -15z" />
<path d="M4556 4294 c-4 -11 0 -15 16 -12 12 2 23 9 26 16 6 18 -35 15 -42 -4z" />
<path d="M4650 4296 c0 -19 19 -31 31 -19 5 5 0 14 -11 21 -17 10 -20 10 -20
-2z" />
<path d="M1386 4275 c4 -8 15 -15 25 -15 23 0 25 16 3 24 -25 10 -34 7 -28 -9z" />
<path d="M842 4248 c8 -12 20 -24 26 -26 18 -6 14 35 -4 42 -30 11 -37 6 -22
-16z" />
<path d="M1030 4259 c0 -5 5 -7 10 -4 6 3 10 8 10 11 0 2 -4 4 -10 4 -5 0 -10
-5 -10 -11z" />
<path d="M3630 4254 c0 -7 27 -34 34 -34 4 0 1 9 -6 20 -12 19 -28 27 -28 14z" />
<path d="M3015 4231 c-6 -11 42 -27 52 -17 8 8 3 12 -24 20 -12 4 -24 2 -28
-3z" />
<path d="M782 4219 c2 -6 8 -10 13 -10 5 0 11 4 13 10 2 6 -4 11 -13 11 -9 0
-15 -5 -13 -11z" />
<path d="M895 4220 c-7 -12 2 -30 16 -30 12 0 12 27 0 35 -5 3 -12 1 -16 -5z" />
<path d="M977 4210 c3 -11 9 -17 14 -14 14 8 10 34 -5 34 -9 0 -12 -7 -9 -20z" />
<path d="M1070 4210 c23 -23 50 -26 50 -6 0 15 -21 26 -51 26 -18 0 -18 -1 1
-20z" />
<path d="M1172 4213 c2 -10 13 -22 26 -28 12 -5 22 -13 22 -17 0 -5 5 -8 10
-8 16 0 12 14 -15 43 -29 31 -48 35 -43 10z" />
<path d="M1355 4220 c-3 -5 1 -10 10 -10 9 0 13 5 10 10 -3 6 -8 10 -10 10 -2
0 -7 -4 -10 -10z" />
<path d="M5426 4215 c4 -8 12 -15 20 -15 8 0 14 -4 14 -9 0 -5 11 -8 24 -8
l24 0 -23 23 c-27 27 -68 33 -59 9z" />
<path
			d="M6478 4223 c-22 -6 -24 -51 -3 -59 8 -3 17 -14 20 -25 8 -24 27 -24
48 -1 21 23 22 42 2 42 -9 0 -12 -6 -9 -15 9 -22 -9 -18 -24 6 -7 11 -10 29
-7 40 6 19 4 20 -27 12z"
		/>
<path d="M1270 4209 c0 -5 5 -7 10 -4 6 3 10 8 10 11 0 2 -4 4 -10 4 -5 0 -10
-5 -10 -11z" />
<path d="M5562 4179 c2 -6 8 -10 13 -10 5 0 11 4 13 10 2 6 -4 11 -13 11 -9 0
-15 -5 -13 -11z" />
<path d="M935 4170 c-4 -6 -3 -14 0 -20 9 -15 35 -12 35 4 0 17 -27 29 -35 16z" />
<path d="M1825 4170 c3 -5 10 -10 16 -10 5 0 9 5 9 10 0 6 -7 10 -16 10 -8 0
-12 -4 -9 -10z" />
<path d="M3090 4170 c19 -13 30 -13 30 0 0 6 -10 10 -22 10 -19 0 -20 -2 -8
-10z" />
<path d="M840 4161 c0 -12 26 -32 33 -25 3 4 0 13 -8 20 -16 16 -25 18 -25 5z" />
<path d="M1135 4160 c-3 -5 -1 -10 4 -10 6 0 11 5 11 10 0 6 -2 10 -4 10 -3 0
-8 -4 -11 -10z" />
<path
			d="M5390 4161 c0 -15 54 -65 85 -79 24 -11 29 -10 41 5 7 10 14 21 14
26 0 16 22 6 27 -13 6 -24 23 -27 23 -4 0 32 -20 54 -51 54 -26 0 -29 -3 -23
-25 5 -21 3 -25 -15 -25 -14 0 -21 6 -21 19 0 38 -11 51 -46 51 -19 0 -34 -4
-34 -9z"
		/>
<path
			d="M3099 4139 c-16 -16 -23 -17 -40 -8 -32 17 -36 1 -6 -27 32 -30 35
-54 6 -61 -12 -4 -18 -11 -15 -20 3 -8 6 -17 6 -19 0 -2 5 -4 11 -4 5 0 8 4 4
9 -9 16 37 42 52 29 19 -15 16 -27 -9 -37 -13 -5 -32 -19 -43 -31 l-20 -22 35
19 c19 10 38 22 41 26 3 4 12 1 19 -7 7 -9 16 -13 21 -11 5 3 14 -3 21 -15 7
-11 17 -20 22 -20 5 0 24 -16 43 -35 33 -34 66 -45 78 -25 3 6 -3 10 -14 10
-28 0 -78 49 -87 85 -5 25 -4 28 7 18 16 -15 59 -17 59 -3 0 6 -8 10 -18 10
-12 0 -23 13 -32 38 -8 20 -16 40 -18 45 -2 4 4 7 13 7 12 0 15 7 13 27 -3 28
-28 45 -28 19 0 -9 -7 -16 -16 -16 -8 0 -12 -4 -9 -10 3 -5 -1 -10 -10 -10
-13 0 -14 4 -5 20 12 21 10 23 -38 33 -15 4 -30 -1 -43 -14z m81 -80 c0 -18
-2 -19 -15 -9 -8 7 -15 16 -15 21 0 5 7 9 15 9 9 0 15 -9 15 -21z m-36 -5 c4
-10 1 -14 -6 -12 -15 5 -23 28 -10 28 5 0 13 -7 16 -16z m46 -35 c-7 -11 -14
-18 -17 -15 -3 3 0 12 7 21 18 21 23 19 10 -6z"
		/>
<path d="M1770 4130 c0 -5 7 -10 15 -10 8 0 15 5 15 10 0 6 -7 10 -15 10 -8 0
-15 -4 -15 -10z" />
<path d="M6825 4130 c3 -5 11 -10 16 -10 6 0 7 5 4 10 -3 6 -11 10 -16 10 -6
0 -7 -4 -4 -10z" />
<path d="M788 4124 c-3 -3 -4 -14 -1 -24 4 -16 8 -17 24 -7 10 6 19 16 19 21
0 5 -3 6 -7 3 -3 -4 -11 -2 -18 3 -7 5 -14 7 -17 4z" />
<path d="M1170 4115 c0 -8 5 -15 10 -15 6 0 10 7 10 15 0 8 -4 15 -10 15 -5 0
-10 -7 -10 -15z" />
<path d="M4546 4115 c4 -9 15 -20 25 -26 15 -8 17 -7 12 8 -7 18 -22 33 -35
33 -4 0 -5 -7 -2 -15z" />
<path d="M6560 4101 c0 -17 5 -31 10 -31 6 0 10 11 10 24 0 14 -4 28 -10 31
-6 4 -10 -7 -10 -24z" />
<path d="M886 4104 c-8 -22 -8 -24 8 -24 9 0 12 -7 9 -21 -5 -17 -2 -20 13
-17 24 4 31 46 10 54 -9 3 -13 10 -10 15 3 5 -1 9 -9 9 -8 0 -18 -7 -21 -16z" />
<path d="M970 4090 c0 -5 5 -10 10 -10 6 0 10 5 10 10 0 6 -4 10 -10 10 -5 0
-10 -4 -10 -10z" />
<path
			d="M3306 4085 c-18 -14 -18 -15 -2 -15 9 0 14 -4 11 -10 -3 -5 5 -15 19
-21 14 -7 28 -20 31 -30 8 -24 -4 -67 -21 -73 -18 -7 -18 -36 0 -36 7 0 19 -7
26 -15 7 -8 21 -15 31 -15 15 0 18 5 15 26 -7 34 -15 42 -26 24 -5 -8 -12 -11
-15 -8 -10 10 4 28 21 28 16 0 19 27 3 32 -6 2 -11 20 -12 41 0 20 -5 37 -9
37 -4 0 -8 9 -8 20 0 11 -4 20 -9 20 -5 0 -15 2 -23 5 -7 2 -22 -2 -32 -10z"
		/>
<path d="M835 4068 c12 -39 25 -44 25 -10 0 22 -5 32 -16 32 -11 0 -14 -6 -9
-22z" />
<path d="M1650 4067 c0 -14 41 -57 53 -57 4 0 7 7 7 15 0 8 -6 15 -14 15 -7 0
-16 9 -19 20 -6 22 -27 28 -27 7z" />
<path d="M6697 4060 c3 -10 14 -22 24 -25 10 -4 19 -11 19 -16 0 -5 5 -9 10
-9 16 0 12 14 -15 43 -30 32 -45 35 -38 7z" />
<path d="M6490 4036 c0 -8 5 -18 10 -21 6 -3 10 1 10 9 0 8 -4 18 -10 21 -5 3
-10 -1 -10 -9z" />
<path d="M5620 4030 c0 -5 7 -7 15 -4 8 4 15 8 15 10 0 2 -7 4 -15 4 -8 0 -15
-4 -15 -10z" />
<path
			d="M783 4010 c-3 -11 -16 -23 -29 -26 -19 -5 -21 -9 -11 -24 6 -10 19
-21 29 -23 14 -4 17 -1 12 17 -3 14 1 27 10 35 18 15 21 41 5 41 -6 0 -13 -9
-16 -20z"
		/>
<path d="M4480 4019 c0 -5 5 -7 10 -4 6 3 10 8 10 11 0 2 -4 4 -10 4 -5 0 -10
-5 -10 -11z" />
<path d="M1725 3980 c-3 -5 3 -10 15 -10 12 0 18 5 15 10 -3 6 -10 10 -15 10
-5 0 -12 -4 -15 -10z" />
<path d="M3820 3976 c0 -7 7 -19 15 -26 16 -13 20 -3 9 24 -8 20 -24 21 -24 2z" />
<path d="M5670 3980 c0 -5 7 -10 15 -10 8 0 15 5 15 10 0 6 -7 10 -15 10 -8 0
-15 -4 -15 -10z" />
<path d="M6780 3980 c0 -5 5 -10 10 -10 6 0 10 5 10 10 0 6 -4 10 -10 10 -5 0
-10 -4 -10 -10z" />
<path d="M2342 3960 c0 -14 2 -19 5 -12 2 6 2 18 0 25 -3 6 -5 1 -5 -13z" />
<path d="M7380 3960 c0 -11 5 -20 10 -20 6 0 10 9 10 20 0 11 -4 20 -10 20 -5
0 -10 -9 -10 -20z" />
<path d="M1670 3940 c0 -13 28 -25 38 -16 3 4 0 11 -8 16 -20 13 -30 12 -30 0z" />
<path d="M6730 3936 c0 -9 5 -16 10 -16 6 0 10 4 10 9 0 6 -4 13 -10 16 -5 3
-10 -1 -10 -9z" />
<path d="M5620 3930 c0 -5 7 -10 15 -10 8 0 15 5 15 10 0 6 -7 10 -15 10 -8 0
-15 -4 -15 -10z" />
<path d="M5728 3933 c7 -3 16 -2 19 1 4 3 -2 6 -13 5 -11 0 -14 -3 -6 -6z" />
<path d="M860 3915 c0 -8 5 -15 10 -15 6 0 10 7 10 15 0 8 -4 15 -10 15 -5 0
-10 -7 -10 -15z" />
<path d="M1650 3880 c0 -11 5 -20 10 -20 6 0 10 9 10 20 0 11 -4 20 -10 20 -5
0 -10 -9 -10 -20z" />
<path d="M5474 3885 c-9 -23 5 -37 22 -21 8 8 14 19 14 25 0 16 -30 13 -36 -4z" />
<path d="M5665 3891 c-3 -5 -1 -12 5 -16 5 -3 10 1 10 9 0 18 -6 21 -15 7z" />
<path d="M5765 3887 c-4 -10 -5 -21 -1 -24 10 -10 18 4 13 24 -4 17 -4 17 -12
0z" />
<path d="M6696 3892 c-2 -4 -1 -14 5 -22 7 -12 9 -10 9 8 0 23 -5 28 -14 14z" />
<path d="M2210 3880 c0 -5 7 -10 15 -10 8 0 15 5 15 10 0 6 -7 10 -15 10 -8 0
-15 -4 -15 -10z" />
<path d="M3440 3880 c0 -5 4 -10 9 -10 6 0 13 5 16 10 3 6 -1 10 -9 10 -9 0
-16 -4 -16 -10z" />
<path d="M5370 3875 c0 -8 4 -15 10 -15 5 0 7 7 4 15 -4 8 -8 15 -10 15 -2 0
-4 -7 -4 -15z" />
<path d="M5700 3864 c0 -8 5 -12 10 -9 6 4 8 11 5 16 -9 14 -15 11 -15 -7z" />
<path d="M842 3838 c7 -19 38 -22 38 -4 0 10 -9 16 -21 16 -12 0 -19 -5 -17
-12z" />
<path d="M1685 3840 c-3 -5 -1 -10 4 -10 6 0 11 5 11 10 0 6 -2 10 -4 10 -3 0
-8 -4 -11 -10z" />
<path d="M3230 3842 c0 -17 27 -45 38 -39 16 11 2 47 -19 47 -11 0 -19 -4 -19
-8z" />
<path d="M5722 3838 c5 -15 28 -23 28 -10 0 5 -7 13 -16 16 -10 4 -14 1 -12
-6z" />
<path d="M3320 3824 c0 -8 5 -12 10 -9 6 3 10 10 10 16 0 5 -4 9 -10 9 -5 0
-10 -7 -10 -16z" />
<path d="M796 3814 c-7 -19 1 -34 18 -34 8 0 17 -10 21 -22 4 -14 8 -18 11
-11 8 19 -16 83 -31 83 -7 0 -16 -7 -19 -16z" />
<path d="M5666 3813 c-3 -4 -6 -15 -6 -25 0 -19 25 -25 35 -8 7 12 -20 42 -29
33z" />
<path d="M1640 3790 c0 -5 7 -10 15 -10 8 0 15 5 15 10 0 6 -7 10 -15 10 -8 0
-15 -4 -15 -10z" />
<path d="M5780 3792 c0 -5 7 -13 16 -16 10 -4 14 -1 12 6 -5 15 -28 23 -28 10z" />
<path d="M6690 3790 c0 -5 5 -10 10 -10 6 0 10 5 10 10 0 6 -4 10 -10 10 -5 0
-10 -4 -10 -10z" />
<path
			d="M5630 3725 c0 -18 5 -25 20 -25 11 0 20 -4 20 -10 0 -5 9 -10 20 -10
11 0 20 5 20 10 0 6 -9 10 -19 10 -12 0 -21 9 -25 25 -4 14 -13 25 -21 25 -9
0 -15 -10 -15 -25z"
		/>
<path d="M5727 3743 c-13 -13 -7 -32 8 -27 8 4 15 12 15 20 0 15 -12 19 -23 7z" />
<path d="M5826 3742 c-2 -4 -1 -14 4 -22 7 -11 12 -12 21 -3 6 6 8 16 5 22 -8
13 -23 14 -30 3z" />
<path d="M3440 3709 c0 -11 5 -17 10 -14 6 3 10 13 10 21 0 8 -4 14 -10 14 -5
0 -10 -9 -10 -21z" />
<path d="M4420 3710 c0 -5 5 -10 10 -10 6 0 10 5 10 10 0 6 -4 10 -10 10 -5 0
-10 -4 -10 -10z" />
<path d="M815 3700 c-18 -7 -19 -8 -2 -15 9 -4 17 -13 17 -21 0 -8 5 -14 10
-14 12 0 14 47 3 53 -5 3 -17 1 -28 -3z" />
<path d="M5770 3695 c0 -8 7 -15 15 -15 8 0 15 7 15 15 0 8 -7 15 -15 15 -8 0
-15 -7 -15 -15z" />
<path d="M5865 3690 c-8 -13 9 -20 24 -11 10 6 9 10 -3 14 -8 3 -18 2 -21 -3z" />
<path d="M3440 3665 c0 -8 9 -15 20 -15 11 0 20 7 20 15 0 8 -9 15 -20 15 -11
0 -20 -7 -20 -15z" />
<path d="M3847 3660 c-18 -22 -23 -50 -8 -50 5 0 13 9 16 20 7 22 25 27 25 8
0 -9 3 -9 11 -1 14 14 5 43 -13 43 -8 0 -21 -9 -31 -20z" />
<path d="M3915 3670 c-7 -11 65 -44 74 -34 3 4 0 9 -6 11 -7 3 -13 11 -13 19
0 16 -45 20 -55 4z" />
<path
			d="M3015 3630 c-10 -11 -21 -17 -26 -15 -4 3 -10 1 -14 -5 -4 -6 12 -10
42 -10 27 0 54 -5 60 -11 8 -8 13 -7 18 1 4 7 1 16 -6 21 -8 5 -10 9 -5 9 5 0
3 7 -4 15 -17 21 -43 19 -65 -5z"
		/>
<path d="M4105 3640 c-3 -5 1 -10 9 -10 9 0 16 5 16 10 0 6 -4 10 -9 10 -6 0
-13 -4 -16 -10z" />
<path d="M5427 3631 c7 -26 46 -29 41 -3 -2 9 -13 18 -25 20 -17 3 -20 -1 -16
-17z" />
<path d="M5630 3640 c0 -5 5 -10 10 -10 6 0 10 5 10 10 0 6 -4 10 -10 10 -5 0
-10 -4 -10 -10z" />
<path d="M5920 3630 c0 -24 25 -27 34 -4 9 23 8 24 -14 24 -13 0 -20 -7 -20
-20z" />
<path d="M8057 3632 c-24 -26 -22 -29 21 -36 75 -13 77 -12 74 9 -7 43 -66 60
-95 27z" />
<path d="M4000 3625 c0 -9 5 -15 11 -13 6 2 11 8 11 13 0 5 -5 11 -11 13 -6 2
-11 -4 -11 -13z" />
<path d="M3286 3614 c-9 -22 -8 -24 9 -18 8 4 15 12 15 20 0 19 -16 18 -24 -2z" />
<path d="M4150 3619 c0 -5 5 -7 10 -4 6 3 10 8 10 11 0 2 -4 4 -10 4 -5 0 -10
-5 -10 -11z" />
<path d="M4350 3619 c0 -5 5 -7 10 -4 6 3 10 8 10 11 0 2 -4 4 -10 4 -5 0 -10
-5 -10 -11z" />
<path d="M2845 3610 c-3 -5 3 -10 15 -10 12 0 18 5 15 10 -3 6 -10 10 -15 10
-5 0 -12 -4 -15 -10z" />
<path d="M7900 3610 c0 -5 5 -10 10 -10 6 0 10 5 10 10 0 6 -4 10 -10 10 -5 0
-10 -4 -10 -10z" />
<path d="M5387 3593 c4 -11 3 -14 -5 -9 -7 4 -10 2 -7 -6 5 -13 55 -24 55 -12
0 3 -5 14 -10 25 -13 24 -42 26 -33 2z" />
<path d="M5677 3603 c-12 -11 -8 -23 7 -23 8 0 21 -19 28 -42 17 -51 34 -59
40 -19 6 38 -3 54 -25 45 -13 -5 -17 0 -17 20 0 24 -18 35 -33 19z" />
<path
			d="M5765 3600 c-7 -11 18 -40 35 -40 6 0 16 -12 23 -27 21 -50 28 -52
77 -37 10 4 7 11 -14 27 -18 15 -25 28 -21 39 6 16 8 16 24 0 10 -9 21 -25 24
-34 4 -10 16 -18 27 -18 11 0 20 -4 20 -10 0 -5 7 -10 15 -10 8 0 15 5 15 10
0 6 -5 10 -11 10 -5 0 -8 4 -5 9 7 11 -22 37 -52 46 -12 3 -20 11 -17 16 13
20 -26 20 -52 -1 -26 -20 -28 -20 -40 -4 -7 10 -13 21 -13 26 0 11 -28 10 -35
-2z"
		/>
<path d="M5954 3595 c-8 -21 6 -41 17 -24 8 12 11 12 18 -1 9 -12 11 -12 16 2
4 10 4 22 0 28 -9 15 -45 12 -51 -5z" />
<path d="M4370 3590 c0 -5 5 -10 10 -10 6 0 10 5 10 10 0 6 -4 10 -10 10 -5 0
-10 -4 -10 -10z" />
<path d="M4025 3580 c-4 -6 -3 -16 3 -22 6 -6 12 -6 17 2 4 6 3 16 -3 22 -6 6
-12 6 -17 -2z" />
<path d="M2637 3567 c-8 -21 -2 -50 11 -55 14 -4 16 36 3 56 -7 11 -9 11 -14
-1z" />
<path d="M1777 3563 c-3 -5 6 -24 19 -43 24 -34 24 -34 24 -8 0 15 -7 34 -16
42 -17 18 -21 19 -27 9z" />
<path d="M7686 3563 c-12 -13 -6 -53 9 -53 9 0 15 9 15 24 0 26 -12 40 -24 29z" />
<path d="M885 3550 c-8 -13 6 -41 19 -37 17 6 19 34 2 40 -9 4 -18 2 -21 -3z" />
<path d="M1685 3550 c-3 -5 -1 -10 4 -10 6 0 11 5 11 10 0 6 -2 10 -4 10 -3 0
-8 -4 -11 -10z" />
<path d="M3220 3552 c0 -5 7 -17 15 -28 15 -19 20 -8 9 20 -6 17 -24 22 -24 8z" />
<path
			d="M3302 3548 c-7 -7 -12 -22 -12 -34 0 -21 2 -22 33 -13 17 6 42 15 54
21 13 6 44 11 69 10 42 0 45 1 31 15 -13 14 -24 14 -73 4 -39 -7 -61 -8 -68
-1 -13 13 -19 13 -34 -2z"
		/>
<path d="M4325 3550 c3 -5 10 -10 16 -10 5 0 9 5 9 10 0 6 -7 10 -16 10 -8 0
-12 -4 -9 -10z" />
<path d="M6830 3555 c0 -12 24 -55 32 -55 12 0 10 34 -4 48 -12 12 -28 16 -28
7z" />
<path d="M686 3538 c-11 -34 -14 -88 -5 -88 11 0 15 10 24 63 4 23 2 37 -5 37
-6 0 -12 -6 -14 -12z" />
<path d="M1857 3543 c-15 -15 -6 -33 17 -33 13 0 26 -6 29 -12 4 -10 7 -10 18
0 11 10 11 14 -1 26 -19 17 -54 28 -63 19z" />
<path d="M6904 3535 c-19 -13 -18 -14 1 -20 11 -4 28 -11 38 -16 19 -10 37 -4
37 11 0 5 -13 16 -29 24 -24 13 -31 13 -47 1z" />
<path d="M1696 3525 c-11 -8 -18 -16 -15 -17 22 -14 50 -28 55 -28 9 0 0 53
-11 56 -5 2 -19 -3 -29 -11z" />
<path d="M2558 3510 c5 -36 27 -35 27 1 0 14 -7 25 -16 27 -12 2 -15 -4 -11
-28z" />
<path d="M2926 3525 c4 -10 20 -15 46 -15 22 0 46 7 54 15 14 13 9 15 -45 15
-50 0 -59 -3 -55 -15z" />
<path d="M6752 3528 c-17 -17 -15 -23 14 -36 24 -12 25 -11 22 15 -3 30 -18
39 -36 21z" />
<path d="M7612 3518 c2 -14 -2 -22 -9 -20 -7 1 -13 -5 -13 -14 0 -13 3 -14 13
-5 8 6 17 8 20 4 4 -3 7 8 7 25 0 18 -5 32 -11 32 -5 0 -9 -10 -7 -22z" />
<path d="M7930 3529 c0 -5 5 -7 10 -4 6 3 10 8 10 11 0 2 -4 4 -10 4 -5 0 -10
-5 -10 -11z" />
<path d="M7966 3525 c5 -11 22 -15 65 -15 46 0 59 3 59 15 0 12 -14 15 -65 15
-53 0 -63 -3 -59 -15z" />
<path d="M1635 3520 c4 -6 11 -8 16 -5 14 9 11 15 -7 15 -8 0 -12 -5 -9 -10z" />
<path d="M5280 3506 c0 -9 5 -16 10 -16 6 0 10 4 10 9 0 6 -4 13 -10 16 -5 3
-10 -1 -10 -9z" />
<path d="M1950 3501 c0 -6 5 -13 10 -16 6 -3 10 1 10 9 0 9 -4 16 -10 16 -5 0
-10 -4 -10 -9z" />
<path d="M4205 3500 c3 -5 8 -10 11 -10 2 0 4 5 4 10 0 6 -5 10 -11 10 -5 0
-7 -4 -4 -10z" />
<path d="M7000 3496 c0 -9 5 -16 10 -16 6 0 10 4 10 9 0 6 -4 13 -10 16 -5 3
-10 -1 -10 -9z" />
<path d="M1100 3469 c0 -24 23 -21 28 4 2 10 -3 17 -12 17 -10 0 -16 -9 -16
-21z" />
<path d="M2541 3474 c0 -11 3 -14 6 -6 3 7 2 16 -1 19 -3 4 -6 -2 -5 -13z" />
<path d="M3377 3484 c-4 -4 -7 -14 -7 -23 0 -11 3 -12 11 -4 6 6 10 16 7 23
-2 6 -7 8 -11 4z" />
<path d="M3420 3475 c0 -8 6 -15 14 -15 22 0 28 17 10 24 -22 9 -24 8 -24 -9z" />
<path d="M5505 3481 c-3 -5 -1 -12 5 -16 5 -3 10 1 10 9 0 18 -6 21 -15 7z" />
<path d="M2945 3460 c-3 -5 1 -10 9 -10 9 0 16 5 16 10 0 6 -4 10 -9 10 -6 0
-13 -4 -16 -10z" />
<path d="M8005 3460 c-3 -5 -1 -10 4 -10 6 0 11 5 11 10 0 6 -2 10 -4 10 -3 0
-8 -4 -11 -10z" />
<path d="M7600 4640 c0 -5 5 -10 10 -10 6 0 10 5 10 10 0 6 -4 10 -10 10 -5 0
-10 -4 -10 -10z" />
<path d="M7560 4560 c0 -5 5 -10 10 -10 6 0 10 5 10 10 0 6 -4 10 -10 10 -5 0
-10 -4 -10 -10z" />
<path d="M7637 4479 c29 -32 42 -25 23 10 -6 12 -20 21 -30 21 -18 0 -18 -3 7
-31z" />
<path d="M7560 4459 c0 -5 5 -7 10 -4 6 3 10 8 10 11 0 2 -4 4 -10 4 -5 0 -10
-5 -10 -11z" />
<path d="M7610 4400 c0 -11 5 -20 10 -20 6 0 10 9 10 20 0 11 -4 20 -10 20 -5
0 -10 -9 -10 -20z" />
<path d="M7460 4360 c0 -11 5 -20 10 -20 6 0 10 9 10 20 0 11 -4 20 -10 20 -5
0 -10 -9 -10 -20z" />
</g>
</svg>
