<?xml version="1.0" standalone="no"?>
<!DOCTYPE svg PUBLIC "-//W3C//DTD SVG 20010904//EN"
  "http://www.w3.org/TR/2001/REC-SVG-20010904/DTD/svg10.dtd">
<svg version="1.0" xmlns="http://www.w3.org/2000/svg"
     width="1024.000000pt" height="1024.000000pt" viewBox="0 0 1024.000000 1024.000000"
     preserveAspectRatio="xMidYMid meet">
  <metadata>
    Created by potrace 1.11, written by Peter Selinger 2001-2013
  </metadata>
  <g transform="translate(0.000000,1024.000000) scale(0.100000,-0.100000)"
     fill="#000000" stroke="none">
    <path d="M4755 10025 c-1452 -125 -2735 -840 -3599 -2005 -499 -674 -832
-1509 -926 -2325 -6 -55 -13 -114 -15 -132 -14 -120 -26 -475 -21 -618 31
-777 199 -1437 537 -2105 576 -1140 1597 -2032 2798 -2444 542 -186 1044 -270
1621 -270 577 0 1079 84 1621 270 1421 488 2575 1642 3063 3063 186 542 270
1044 270 1621 0 366 -28 650 -95 979 -276 1362 -1109 2543 -2304 3266 -191
116 -546 292 -740 368 -437 170 -876 275 -1370 328 -156 16 -668 19 -840 4z
m779 -36 c1125 -95 2183 -580 2990 -1369 419 -410 707 -804 965 -1320 373
-746 541 -1527 510 -2372 -37 -987 -376 -1944 -969 -2733 -160 -213 -254 -320
-455 -520 -491 -490 -1035 -850 -1655 -1094 -469 -185 -927 -291 -1434 -331
-166 -13 -566 -13 -732 0 -930 73 -1792 394 -2537 943 -362 267 -739 641
-1013 1007 -834 1112 -1151 2541 -869 3910 426 2064 2135 3625 4231 3865 303
35 666 40 968 14z"/>
    <path d="M4780 9469 c-618 -53 -1200 -223 -1715 -501 -261 -140 -454 -269
-695 -462 -166 -134 -510 -478 -642 -644 -533 -669 -841 -1406 -945 -2262 -25
-204 -25 -764 0 -965 98 -792 376 -1498 831 -2110 277 -372 615 -701 1000
-974 258 -183 647 -391 946 -505 946 -360 1990 -382 2946 -61 935 314 1726
927 2267 1757 119 182 171 273 269 472 217 443 348 893 414 1426 26 204 26
742 1 950 -68 556 -200 1004 -435 1475 -604 1211 -1731 2072 -3057 2334 -166
33 -334 55 -529 71 -148 12 -517 11 -656 -1z m820 -523 c973 -135 1817 -589
2443 -1315 568 -659 896 -1498 924 -2363 l6 -188 -36 0 c-33 0 -37 3 -37 25 0
27 -1 28 -24 19 -18 -7 -23 -64 -6 -64 6 0 10 -7 10 -15 0 -8 -4 -15 -9 -15
-5 0 -11 -9 -14 -20 -3 -11 -10 -20 -16 -20 -14 0 -14 33 -1 46 7 7 3 18 -13
35 -28 27 -44 69 -28 69 20 0 11 28 -14 48 -31 25 -31 28 0 36 37 9 30 26 -10
26 -19 0 -35 2 -35 4 0 2 -3 11 -6 19 -3 10 4 17 23 22 26 6 43 21 43 38 0 4
-11 5 -24 1 -26 -6 -37 5 -41 40 -1 11 -3 24 -4 29 0 4 -14 7 -30 7 -19 0 -36
8 -48 23 -10 13 -26 26 -36 30 -11 4 -21 16 -24 27 -3 11 -9 20 -14 20 -5 0
-9 5 -9 10 0 14 37 13 42 -2 3 -7 12 -9 22 -5 9 4 14 11 11 17 -4 6 -11 8 -16
5 -13 -9 -27 33 -33 98 -5 54 -16 75 -62 121 -11 12 -24 29 -27 39 -6 15 -3
17 16 11 21 -7 46 -31 47 -46 0 -5 5 -8 11 -8 6 0 17 -7 26 -15 8 -9 23 -15
32 -13 25 5 19 31 -9 38 -20 5 -26 14 -31 45 -3 22 -7 35 -8 29 0 -7 -7 -14
-15 -17 -27 -10 -52 4 -72 41 -10 20 -25 43 -32 51 -7 7 -18 33 -24 57 -11 39
-28 60 -28 34 0 -24 -73 5 -93 37 -12 19 -40 16 -60 -7 -9 -11 -24 -20 -32
-20 -8 0 -15 -9 -15 -20 l0 -20 -20 20 c-11 11 -31 20 -45 20 -18 0 -25 -5
-25 -20 0 -11 -4 -20 -9 -20 -5 0 -8 11 -5 25 3 18 0 25 -11 25 -8 0 -15 6
-15 13 0 7 -3 8 -8 2 -4 -6 -19 -18 -34 -28 -16 -10 -28 -24 -28 -32 0 -8 -7
-18 -16 -23 -8 -5 -18 -28 -21 -51 -5 -36 -11 -45 -34 -53 -16 -5 -29 -13 -29
-18 0 -4 -10 -10 -21 -13 -17 -5 -20 -11 -17 -31 4 -18 1 -26 -8 -26 -18 0
-17 -40 1 -64 22 -29 18 -46 -10 -46 -18 0 -26 7 -31 25 -3 14 -9 25 -11 25
-14 0 -44 -46 -41 -65 2 -16 9 -20 39 -17 51 4 66 -16 50 -68 -11 -36 -15 -40
-46 -40 -18 0 -36 6 -39 13 -4 6 -4 -4 -2 -24 2 -20 0 -42 -5 -50 -7 -11 -9
-11 -9 4 0 9 -6 17 -12 17 -9 0 -8 4 2 10 13 8 13 10 -2 10 -9 0 -29 -5 -45
-11 -47 -18 -83 -69 -49 -69 8 0 16 -6 19 -12 3 -9 11 -5 26 11 16 19 24 22
33 13 19 -19 33 -14 77 28 26 25 50 40 66 40 31 0 31 -2 0 -36 -16 -17 -23
-34 -19 -43 3 -9 9 -25 12 -36 5 -18 4 -18 -11 -6 -9 7 -17 10 -17 6 0 -4 -7
-2 -15 5 -13 10 -15 9 -15 -12 0 -13 5 -29 12 -36 9 -9 9 -17 -1 -36 -7 -13
-10 -33 -6 -45 5 -17 2 -21 -18 -21 -20 0 -24 -4 -20 -20 6 -23 -15 -80 -28
-80 -5 0 -17 -16 -27 -37 -13 -27 -14 -37 -4 -40 23 -8 12 -25 -14 -20 -24 4
-26 2 -20 -24 5 -26 3 -29 -19 -29 -14 0 -25 5 -25 10 0 6 -4 10 -10 10 -5 0
-10 -12 -10 -27 0 -14 3 -23 6 -20 4 3 15 2 25 -4 24 -12 27 -69 4 -69 -8 0
-15 -4 -15 -10 0 -5 5 -10 10 -10 6 0 10 -4 10 -10 0 -5 -5 -10 -11 -10 -17 0
-38 -32 -39 -57 0 -16 -6 -23 -19 -23 -11 0 -23 -5 -27 -11 -7 -13 -60 -5 -81
12 -19 17 -16 49 5 49 10 0 23 -5 30 -12 6 -6 14 -9 17 -6 4 3 -7 20 -24 37
-17 18 -31 41 -31 53 0 17 5 19 27 15 15 -3 35 -1 45 4 10 5 27 5 43 -1 15 -6
31 -8 36 -4 14 8 -9 44 -37 54 -13 5 -24 14 -24 20 0 5 -7 10 -16 10 -13 0
-12 3 4 18 23 19 33 48 17 47 -5 0 -9 -3 -8 -7 2 -5 -17 -8 -42 -8 -39 0 -45
-3 -51 -25 -3 -14 -9 -25 -13 -25 -4 0 -13 -49 -20 -109 -15 -130 -9 -147 55
-157 22 -3 51 -4 64 -2 28 4 36 -14 15 -35 -8 -9 -15 -24 -15 -35 0 -11 -7
-22 -15 -26 -8 -3 -15 -16 -15 -29 0 -20 -4 -23 -25 -19 -20 3 -25 0 -25 -16
0 -12 8 -25 17 -30 15 -9 15 -11 1 -26 -9 -9 -23 -16 -30 -16 -24 0 -40 -39
-33 -81 6 -36 5 -39 -17 -39 -13 0 -30 6 -37 13 -7 7 -6 -3 5 -28 12 -30 13
-44 5 -57 -13 -21 -4 -48 15 -48 13 0 18 12 15 33 -2 10 42 -13 52 -27 5 -8
10 -7 16 4 12 18 80 17 92 -2 6 -8 9 -9 9 -1 0 6 14 14 30 18 27 6 35 1 75
-41 25 -26 45 -51 45 -56 0 -4 7 -8 15 -8 22 0 18 11 -15 44 -32 31 -40 66
-16 66 8 0 21 -6 28 -13 24 -23 68 -48 68 -38 0 5 -4 13 -10 16 -13 8 -13 42
0 50 14 8 56 -19 58 -37 5 -40 15 -78 22 -78 11 0 26 21 34 48 6 16 3 22 -8
22 -13 0 -16 12 -14 74 2 58 -1 77 -15 90 -16 17 -18 16 -23 -13 -5 -22 -12
-31 -26 -31 -15 0 -18 5 -12 22 7 25 48 68 64 68 5 0 10 5 10 10 0 6 5 10 10
10 6 0 10 -14 10 -31 0 -26 2 -29 14 -16 8 8 18 30 21 49 6 32 4 36 -18 42
-29 7 -44 46 -22 59 8 4 15 15 15 23 0 25 31 48 78 59 25 6 47 15 49 21 2 6
-8 23 -22 38 -30 32 -32 46 -6 46 19 0 31 -18 31 -48 0 -27 13 -39 48 -47 30
-6 32 -5 32 19 0 19 -5 26 -20 26 -11 0 -20 7 -20 15 0 10 10 15 30 15 27 0
30 -3 30 -33 0 -31 2 -33 53 -44 95 -22 127 -25 144 -17 16 7 70 12 128 12 80
0 116 -5 132 -19 30 -27 83 -90 83 -100 0 -18 -39 -8 -45 11 -6 19 -25 28 -25
12 0 -9 28 -50 52 -76 9 -10 15 -23 12 -28 -3 -4 1 -8 8 -8 18 0 39 -36 32
-54 -3 -8 -14 -16 -25 -18 -41 -6 -16 -23 34 -24 78 0 82 -2 98 -31 8 -16 18
-31 23 -34 21 -16 -109 -441 -205 -669 -140 -331 -337 -656 -574 -947 -189
-232 -565 -575 -811 -740 -454 -305 -962 -512 -1474 -602 -209 -37 -362 -52
-590 -58 -1293 -32 -2491 566 -3245 1622 -206 288 -381 631 -499 973 -52 153
-123 409 -115 416 2 2 34 -1 72 -7 37 -6 70 -8 73 -4 3 3 -2 19 -12 36 -10 17
-14 34 -10 38 5 4 11 3 13 -4 14 -38 109 -93 134 -77 18 10 9 24 -16 24 -14 0
-25 4 -25 9 0 5 -10 11 -23 13 -12 2 -26 13 -32 25 -5 12 -20 27 -32 34 -22
12 -33 49 -14 49 22 0 41 -13 41 -29 0 -13 2 -13 9 -2 9 15 -6 61 -19 61 -7 0
-40 61 -40 74 0 3 7 6 15 6 8 0 15 3 15 7 0 15 -34 83 -42 83 -4 0 -8 9 -8 20
0 11 5 20 10 20 6 0 10 14 10 31 0 27 3 30 23 24 37 -12 40 -22 13 -46 -28
-26 -24 -42 12 -54 22 -6 23 -5 12 16 -10 18 -10 23 4 31 9 5 16 14 16 19 0
13 -25 39 -38 39 -5 0 -13 8 -16 18 -13 32 -31 62 -38 62 -5 0 -8 11 -8 25 0
29 15 33 29 8 6 -10 11 -13 11 -7 0 16 -24 64 -32 64 -5 0 -8 11 -8 25 0 14 5
25 10 25 6 0 10 12 10 26 0 26 1 26 50 20 32 -4 50 -3 50 4 0 5 -9 10 -20 10
-11 0 -20 7 -20 15 0 20 36 20 44 0 7 -19 45 -19 52 0 7 17 34 21 34 5 0 -13
54 -40 80 -40 11 0 20 5 20 10 0 6 -9 10 -20 10 -11 0 -20 7 -20 15 0 8 5 15
10 15 6 0 10 -4 10 -9 0 -5 11 -12 25 -15 14 -4 35 -16 46 -27 14 -14 24 -18
28 -11 11 19 78 42 121 42 44 0 48 4 25 26 -8 9 -15 22 -15 30 0 19 26 18 34
-2 4 -9 9 -14 12 -11 7 7 -17 77 -26 77 -14 0 -31 52 -21 64 6 7 8 29 4 50 -5
32 -3 38 14 42 15 4 19 12 16 25 -4 15 -2 18 11 13 13 -5 16 0 15 27 -1 24 -3
27 -6 12 -4 -19 -11 -23 -39 -23 -22 0 -34 5 -34 14 0 8 -6 16 -13 19 -16 6
-47 -16 -47 -32 0 -14 -41 -5 -51 11 -3 5 -26 12 -50 15 -54 7 -79 19 -79 38
0 8 -4 15 -9 15 -5 0 -13 9 -16 20 -9 29 -57 78 -80 82 -13 2 -23 -5 -30 -19
-11 -26 -43 -31 -51 -8 -7 18 -34 20 -34 2 0 -7 14 -23 30 -37 17 -14 30 -28
30 -33 0 -4 8 -17 18 -28 21 -22 48 -17 55 11 7 26 45 15 59 -16 14 -31 4 -40
-28 -26 -14 7 -32 9 -42 4 -29 -14 -152 -7 -163 9 -13 21 -11 39 5 39 8 0 16
6 19 13 7 20 -5 142 -14 145 -5 2 -9 11 -9 19 0 10 6 14 19 10 17 -4 19 -1 14
29 l-6 33 32 -9 c18 -5 42 -6 54 -1 47 16 78 -16 42 -43 -11 -8 -12 -15 -4
-26 8 -12 12 -12 16 -2 3 7 20 29 38 49 33 36 65 40 65 8 0 -19 7 -19 27 1 12
11 27 14 50 11 19 -3 46 -2 60 4 21 8 29 6 44 -12 17 -19 20 -20 34 -5 27 26
31 19 31 -48 -1 -74 13 -99 39 -72 12 12 16 29 13 61 -4 50 -4 49 23 35 17
-10 19 -7 19 20 0 34 5 37 26 16 16 -17 19 -56 4 -56 -5 0 -10 -18 -10 -40 0
-29 -4 -40 -15 -40 -13 0 -13 -3 -3 -13 18 -20 33 -1 41 53 3 25 12 58 19 73
11 24 18 28 53 25 37 -2 40 -1 37 22 -2 16 0 21 6 13 4 -7 22 -16 40 -19 24
-5 33 -3 38 10 8 21 40 21 48 -1 5 -11 10 -13 17 -6 8 8 8 17 0 31 -14 26 -14
52 -1 52 6 0 10 -9 10 -20 0 -11 4 -20 9 -20 5 0 17 -3 26 -6 13 -5 15 -1 11
18 -6 36 -26 65 -53 77 -13 6 -23 19 -23 31 0 25 10 25 38 0 26 -25 32 -25 32
-1 0 10 -25 43 -55 72 -30 30 -55 59 -55 66 0 7 -9 17 -21 23 -17 10 -19 18
-14 50 7 41 -12 69 -22 31 -4 -15 -13 -21 -33 -21 -16 0 -31 6 -34 13 -3 6 -2
-1 1 -18 3 -16 15 -36 25 -43 10 -7 18 -21 18 -30 0 -11 -3 -13 -8 -6 -13 19
-100 47 -127 40 -18 -5 -25 -2 -25 9 0 8 -7 15 -15 15 -8 0 -15 -9 -15 -19 0
-11 -5 -23 -10 -26 -6 -4 -9 -1 -8 7 2 7 -4 12 -12 10 -30 -6 -70 -25 -70 -33
0 -5 -9 -9 -20 -9 -11 0 -20 7 -20 15 0 8 -4 15 -10 15 -12 0 -13 -23 -1 -36
5 -5 5 -18 1 -29 -5 -11 -9 -14 -9 -8 -1 7 -15 19 -31 28 -17 9 -30 21 -30 27
0 15 -31 37 -52 38 -10 0 -18 -4 -18 -10 0 -5 5 -10 12 -10 6 0 9 -3 5 -6 -3
-3 -21 0 -41 7 -25 9 -41 10 -58 2 -17 -8 -33 -7 -63 5 -22 9 -43 20 -46 25
-3 5 -9 2 -12 -7 -5 -11 -20 -16 -52 -16 -30 0 -44 -4 -40 -11 5 -7 2 -7 -11
0 -11 5 -31 12 -46 15 l-27 6 25 93 c276 1046 997 1938 1968 2436 449 231 938
370 1456 415 115 10 670 -3 780 -18z m2717 -2956 c-1 -22 -17 -28 -17 -7 0 12
9 27 16 27 2 0 2 -9 1 -20z m-243 -46 c9 -3 16 -12 16 -19 0 -7 6 -16 13 -18
6 -3 -1 -6 -16 -6 -25 -1 -27 -3 -17 -21 12 -23 6 -40 -15 -40 -21 0 -36 36
-29 67 11 46 16 49 48 37z m-5789 -102 c24 -18 46 -52 40 -62 -4 -7 -14 -3
-29 12 -35 36 -44 74 -11 50z m5755 -55 c0 -5 -8 -16 -17 -23 -15 -10 -16 -16
-6 -32 6 -11 9 -23 6 -26 -14 -14 -33 -4 -48 25 -16 30 -16 31 12 58 27 27 53
26 53 -2z m-5773 -49 c-3 -8 -6 -5 -6 6 -1 11 2 17 5 13 3 -3 4 -12 1 -19z
m5676 -29 c17 -19 41 -70 35 -73 -2 -1 -15 -9 -29 -19 l-27 -16 1 37 c1 20 -3
49 -7 65 -10 32 2 35 27 6z m24 -135 c-3 -3 -12 -4 -19 -1 -8 3 -5 6 6 6 11 1
17 -2 13 -5z m590 -26 c-3 -8 -6 -5 -6 6 -1 11 2 17 5 13 3 -3 4 -12 1 -19z
m0 -58 c16 -24 7 -50 -17 -50 -16 0 -30 26 -30 58 0 19 34 14 47 -8z m-6957
-35 c0 -8 -4 -15 -10 -15 -5 0 -10 7 -10 15 0 8 5 15 10 15 6 0 10 -7 10 -15z
m6680 -14 c0 -33 -11 -51 -31 -51 -10 0 -19 5 -19 10 0 6 9 10 20 10 17 0 19
5 14 25 -4 15 -2 25 5 25 6 0 11 -9 11 -19z m-6320 -123 c0 -7 3 -30 6 -50 5
-31 4 -38 -10 -38 -9 0 -16 5 -16 10 0 6 5 10 10 10 17 0 11 21 -12 39 -12 10
-18 23 -14 29 10 16 36 15 36 0z m6270 -3 c0 -8 9 -15 19 -15 10 0 21 7 25 15
8 21 45 19 53 -2 4 -10 12 -21 19 -26 8 -4 12 -24 11 -48 -1 -33 4 -45 22 -61
19 -15 25 -30 27 -70 1 -29 8 -57 16 -63 7 -6 19 -20 25 -32 12 -21 11 -22
-11 -13 -15 5 -37 5 -61 -3 -34 -10 -39 -9 -57 13 -13 16 -16 26 -8 34 13 13
13 46 0 46 -5 0 -10 -11 -10 -25 0 -30 -9 -31 -38 -5 -12 11 -35 23 -52 26
-46 10 -39 -20 10 -40 22 -9 40 -18 40 -20 0 -2 3 -11 6 -20 4 -11 0 -16 -14
-16 -11 0 -22 5 -24 12 -3 8 -13 7 -36 -4 -30 -15 -32 -15 -58 8 -15 15 -24
31 -20 40 3 9 6 20 6 25 0 5 7 9 15 9 8 0 15 5 15 10 0 6 -4 10 -9 10 -5 0
-11 6 -14 13 -4 10 3 12 24 9 34 -5 35 -1 12 34 -16 25 -16 27 0 36 9 5 17 18
17 29 0 11 9 30 21 42 12 13 19 31 16 45 -2 12 0 22 4 22 5 0 9 -7 9 -15z
m500 -55 c0 -5 -4 -10 -10 -10 -5 0 -10 5 -10 10 0 6 5 10 10 10 6 0 10 -4 10
-10z m0 -56 c0 -17 -22 -14 -28 4 -2 7 3 12 12 12 9 0 16 -7 16 -16z m-3 -70
c-3 -3 -12 -4 -19 -1 -8 3 -5 6 6 6 11 1 17 -2 13 -5z m-34 -77 c9 -3 17 -16
17 -27 0 -28 -34 -26 -47 3 -10 23 -6 57 6 40 3 -5 14 -12 24 -16z m125 -18
c-10 -6 -18 -17 -18 -25 0 -8 -4 -12 -10 -9 -5 3 -10 18 -10 33 0 21 3 24 10
12 8 -12 10 -12 16 3 5 14 10 15 18 7 8 -8 6 -14 -6 -21z m116 5 c11 -28 6
-34 -14 -17 -11 10 -20 21 -20 25 0 15 28 8 34 -8z m-314 -25 c0 -5 6 -9 14
-9 16 0 31 -18 23 -26 -9 -9 -46 15 -57 36 -9 16 -8 18 5 14 8 -4 15 -10 15
-15z m-6770 -5 c0 -8 -4 -12 -10 -9 -5 3 -10 10 -10 16 0 5 5 9 10 9 6 0 10
-7 10 -16z m5670 -19 c0 -8 -4 -15 -10 -15 -5 0 -10 7 -10 15 0 8 5 15 10 15
6 0 10 -7 10 -15z m1035 5 c3 -5 1 -18 -4 -27 -10 -17 -10 -17 -11 0 0 9 -4
17 -10 17 -5 0 -10 5 -10 10 0 13 27 13 35 0z m398 -30 c17 -21 23 -60 9 -60
-4 0 -6 -16 -4 -36 5 -41 -14 -84 -37 -83 -11 0 -12 2 -3 6 24 10 11 23 -23
23 -23 0 -35 5 -35 14 0 8 -7 16 -15 20 -12 4 -14 0 -10 -17 7 -31 -9 -54 -28
-39 -17 15 -47 6 -47 -14 0 -8 9 -14 19 -14 17 0 31 -18 31 -41 0 -5 -7 -9
-16 -9 -11 0 -14 -5 -10 -16 3 -9 6 -21 7 -27 0 -7 4 -2 10 11 6 17 15 22 31
20 35 -5 35 -36 1 -40 -17 -2 -32 -11 -38 -25 -5 -13 -18 -23 -27 -23 -10 0
-18 -6 -19 -12 0 -10 -2 -10 -6 0 -2 6 -14 12 -25 12 -18 0 -48 21 -48 34 0 3
9 6 20 6 11 0 20 -4 20 -10 0 -12 37 -13 44 -1 3 5 -5 12 -19 15 -25 6 -36 40
-16 48 19 6 23 55 6 71 -14 15 -14 18 6 38 13 13 19 29 16 44 -4 22 -1 23 26
18 23 -5 29 -3 25 8 -3 8 -17 14 -31 14 -21 -1 -24 2 -16 17 5 10 15 18 22 19
9 0 9 2 0 6 -10 3 -10 8 1 19 20 19 26 18 26 -5 0 -32 11 -51 30 -51 11 0 20
-10 24 -25 7 -29 17 -32 32 -7 16 24 0 62 -26 62 -14 0 -20 6 -19 23 0 12 3
16 6 10 6 -17 31 -16 49 2 21 20 36 19 57 -5z m-355 -23 c7 -8 7 -18 2 -27 -8
-13 -10 -12 -10 3 0 9 -4 17 -10 17 -5 0 -10 5 -10 10 0 14 16 12 28 -3z m-50
-55 c2 -7 -3 -12 -12 -12 -9 0 -16 7 -16 16 0 17 22 14 28 -4z m106 3 c4 -10
-1 -15 -14 -15 -11 0 -20 7 -20 15 0 8 6 15 14 15 8 0 16 -7 20 -15z m-47 -46
c3 -17 13 -33 22 -37 35 -12 40 -39 9 -44 -17 -2 -22 -9 -20 -23 2 -11 10 -24
18 -28 8 -4 14 -17 14 -28 0 -18 -2 -18 -27 6 -35 32 -51 32 -59 -1 -6 -21 -8
-24 -15 -11 -6 9 -4 27 3 44 6 15 11 31 10 36 -1 4 7 7 17 7 20 0 35 25 25 41
-3 5 -11 9 -19 9 -16 0 -26 25 -19 45 10 26 34 16 41 -16z m89 -4 c-4 -14 -13
-25 -21 -25 -19 0 -19 19 0 26 8 4 15 13 15 22 0 8 3 13 6 9 4 -3 4 -18 0 -32z
m-184 -3 c7 -10 22 -24 33 -30 11 -6 14 -12 8 -12 -7 0 -13 -7 -13 -15 0 -8
-4 -15 -10 -15 -15 0 -12 30 3 31 6 0 0 5 -15 11 -16 5 -28 16 -28 23 0 7 -6
16 -12 18 -8 3 -6 6 4 6 9 1 23 -7 30 -17z m-17 -79 c3 -19 4 -38 1 -41 -3 -3
-6 1 -6 9 0 11 -2 11 -10 -1 -8 -12 -10 -11 -10 6 0 11 -5 25 -10 30 -14 14
-2 44 15 38 7 -3 16 -21 20 -41z m-341 22 c-4 -8 -10 -15 -15 -15 -5 0 -9 7
-9 15 0 8 7 15 15 15 9 0 12 -6 9 -15z m536 -40 c0 -14 -4 -25 -10 -25 -5 0
-10 11 -10 25 0 14 5 25 10 25 6 0 10 -11 10 -25z m220 -10 c0 -8 -2 -15 -4
-15 -2 0 -6 7 -10 15 -3 8 -1 15 4 15 6 0 10 -7 10 -15z m-660 -20 c0 -14 -4
-25 -10 -25 -5 0 -10 11 -10 25 0 14 5 25 10 25 6 0 10 -11 10 -25z m630 15
c0 -5 -4 -10 -10 -10 -5 0 -10 5 -10 10 0 6 5 10 10 10 6 0 10 -4 10 -10z m20
-90 c11 -11 25 -20 30 -20 6 0 10 -9 10 -20 0 -26 -26 -26 -33 1 -8 29 -51 22
-55 -8 -3 -19 1 -23 22 -23 19 0 26 -5 26 -20 0 -11 -4 -20 -10 -20 -5 0 -10
5 -10 10 0 6 -7 10 -15 10 -8 0 -15 4 -15 9 0 5 -11 19 -25 32 -32 31 -31 43
3 56 40 16 50 15 72 -7z m-103 -102 c-3 -7 -5 -2 -5 12 0 14 2 19 5 13 2 -7 2
-19 0 -25z m51 -41 c2 -9 -1 -17 -7 -17 -6 0 -11 7 -11 16 0 8 -4 12 -10 9 -5
-3 -10 -1 -10 5 0 18 34 7 38 -13z m75 2 c-4 -16 -8 -17 -14 -7 -13 19 -11 28
5 28 9 0 12 -7 9 -21z m-1013 -4 c0 -8 -6 -15 -14 -15 -8 0 -16 7 -20 15 -4
10 1 15 14 15 11 0 20 -7 20 -15z m840 0 c0 -8 -2 -15 -4 -15 -2 0 -6 7 -10
15 -3 8 -1 15 4 15 6 0 10 -7 10 -15z m148 -27 c7 -7 12 -23 12 -37 l0 -26
-25 27 c-14 15 -25 32 -25 38 0 14 23 13 38 -2z m-98 -25 c0 -5 20 -17 45 -28
46 -20 60 -40 49 -68 -5 -14 -8 -14 -20 -2 -8 7 -18 25 -24 40 -6 15 -22 30
-40 36 -28 10 -42 29 -20 29 6 0 10 -3 10 -7z m-920 -135 c0 -19 -2 -20 -10
-8 -13 19 -13 30 0 30 6 0 10 -10 10 -22z"/>
    <path d="M3250 6075 c0 -8 4 -15 9 -15 5 0 11 7 15 15 3 9 0 15 -9 15 -8 0
-15 -7 -15 -15z"/>
    <path d="M6611 6074 c0 -11 3 -14 6 -6 3 7 2 16 -1 19 -3 4 -6 -2 -5 -13z"/>
    <path d="M6650 6075 c0 -8 5 -15 10 -15 6 0 10 7 10 15 0 8 -4 15 -10 15 -5 0
-10 -7 -10 -15z"/>
    <path d="M7153 6083 c9 -2 17 -9 17 -14 0 -5 5 -9 10 -9 6 0 10 7 10 15 0 10
-9 15 -27 14 -17 -1 -21 -3 -10 -6z"/>
    <path d="M8260 6075 c0 -8 2 -15 4 -15 2 0 6 7 10 15 3 8 1 15 -4 15 -6 0 -10
-7 -10 -15z"/>
    <path d="M1550 6065 c0 -9 6 -12 15 -9 8 4 15 10 15 15 0 5 -7 9 -15 9 -8 0
-15 -7 -15 -15z"/>
    <path d="M3330 6070 c0 -5 9 -10 21 -10 12 0 23 -8 26 -20 4 -16 7 -17 19 -5
27 27 17 45 -26 45 -22 0 -40 -4 -40 -10z"/>
    <path d="M4506 6065 c-3 -9 0 -15 9 -15 8 0 15 7 15 15 0 8 -4 15 -9 15 -5 0
-11 -7 -15 -15z"/>
    <path d="M6941 6041 c-1 -32 2 -42 10 -34 7 7 7 21 1 44 l-10 34 -1 -44z"/>
    <path d="M7000 6069 c0 -20 58 -79 77 -79 7 0 13 -7 13 -15 0 -10 -10 -15 -34
-15 -30 0 -35 4 -41 30 -5 21 -13 30 -26 30 -19 0 -27 -16 -10 -22 5 -1 11
-12 13 -23 3 -17 -2 -20 -37 -19 -22 1 -34 -1 -27 -3 16 -6 16 -56 0 -51 -7 3
-15 15 -18 29 -5 20 -13 25 -48 27 -41 3 -42 2 -36 -22 7 -31 4 -32 -26 -6
-36 31 -43 25 -36 -29 4 -30 2 -52 -4 -56 -5 -3 -10 -19 -10 -36 0 -22 -5 -29
-19 -29 -17 0 -18 -3 -8 -25 7 -14 15 -25 20 -25 12 0 8 -21 -8 -37 -20 -19
-11 -49 23 -78 18 -15 23 -27 18 -40 -5 -14 -9 -16 -18 -7 -18 18 -28 15 -28
-8 0 -11 4 -20 8 -20 5 0 15 -11 22 -25 7 -14 19 -25 27 -25 7 0 13 -7 13 -15
0 -19 -11 -19 -36 0 -25 19 -34 19 -34 0 0 -8 4 -15 9 -15 11 0 44 -80 36 -88
-3 -3 -11 0 -17 6 -16 16 -28 15 -28 -3 0 -8 4 -15 8 -15 5 0 13 -16 19 -35
11 -34 10 -35 -15 -35 l-26 0 22 -20 c26 -24 31 -83 7 -74 -9 4 -15 0 -15 -9
0 -8 4 -17 9 -19 5 -1 12 -18 16 -35 5 -26 3 -33 -9 -33 -20 0 -20 -7 -1 -26
8 -9 15 -26 15 -40 0 -15 -6 -24 -15 -24 -9 0 -15 -9 -15 -21 0 -11 7 -27 15
-35 13 -14 21 -54 11 -54 -8 0 -71 66 -82 86 -6 10 -21 21 -34 22 -28 4 -45
20 -54 49 -4 12 -16 25 -27 28 -12 4 -20 16 -21 33 -2 43 -7 84 -14 126 -6 37
-5 38 17 31 13 -3 19 -3 13 2 -25 18 -35 52 -23 76 7 12 17 25 23 29 6 5 1 8
-11 8 -13 0 -23 -4 -23 -10 0 -5 -11 -10 -25 -10 -14 0 -25 -6 -25 -12 0 -30
13 -58 26 -58 8 0 14 -4 14 -10 0 -5 -4 -10 -10 -10 -15 0 -60 23 -60 30 0 4
-19 26 -42 50 -27 27 -38 44 -30 47 20 7 14 22 -7 16 -15 -4 -20 2 -23 34 -3
21 -8 46 -12 55 -7 16 -4 17 23 12 29 -6 31 -5 31 25 0 28 -3 31 -20 26 -14
-5 -20 -2 -20 9 0 9 5 16 10 16 6 0 10 11 10 25 0 14 -4 25 -10 25 -5 0 -10
-6 -10 -13 0 -16 -55 -68 -64 -60 -13 14 -5 34 19 45 39 18 31 38 -15 38 -31
0 -38 -3 -34 -15 4 -8 1 -15 -5 -15 -16 0 -61 41 -61 56 0 6 -10 19 -22 28
l-23 17 23 -5 c16 -3 22 0 22 15 0 24 -38 45 -53 30 -26 -26 -71 -2 -82 42 -6
21 -4 27 9 27 9 0 16 7 16 15 0 8 -4 15 -10 15 -5 0 -10 6 -10 13 0 7 -12 24
-26 36 -21 18 -28 20 -35 10 -5 -8 -9 -17 -9 -21 0 -4 -12 -5 -27 -3 -16 2
-31 4 -35 4 -13 1 -9 29 5 34 6 3 1 6 -11 6 -16 1 -26 -6 -29 -19 -10 -38 -31
-15 -23 25 1 6 -4 4 -11 -2 -7 -7 -23 -13 -35 -13 -14 0 -25 -8 -29 -19 -9
-31 -35 -35 -35 -6 0 21 -5 25 -30 25 -16 0 -30 -4 -30 -9 0 -15 28 -63 42
-73 10 -8 9 -9 -3 -5 -9 3 -22 1 -29 -3 -11 -7 -10 -14 3 -42 l16 -33 -34 -3
c-37 -3 -49 -22 -15 -22 16 0 20 -7 20 -35 0 -19 -4 -35 -10 -35 -5 0 -10 -11
-10 -25 0 -14 5 -25 10 -25 6 0 10 -7 10 -15 0 -9 9 -15 25 -15 19 0 25 -5 25
-20 0 -18 -4 -20 -35 -14 -28 5 -35 3 -35 -9 0 -8 4 -17 9 -19 4 -1 12 -13 15
-25 6 -17 3 -23 -8 -23 -20 0 -22 -55 -3 -64 10 -5 10 -7 0 -12 -15 -7 -18
-74 -3 -74 6 0 10 -9 10 -20 0 -11 -4 -20 -10 -20 -6 0 -10 -43 -10 -110 0
-60 4 -110 9 -110 5 0 11 -15 15 -32 5 -24 2 -36 -9 -44 -22 -16 -22 -219 0
-240 8 -9 15 -22 15 -30 0 -8 -7 -14 -15 -14 -19 0 -21 -56 -2 -63 8 -3 5 -11
-11 -25 -19 -17 -21 -23 -11 -45 9 -19 8 -31 -5 -56 -15 -27 -15 -31 -1 -31 8
0 15 -7 15 -15 0 -8 5 -15 10 -15 6 0 10 -4 10 -10 0 -5 -9 -10 -19 -10 -24 0
-31 -19 -31 -81 0 -35 4 -51 15 -55 8 -4 15 -12 15 -19 0 -7 6 -15 13 -18 8
-3 5 -11 -11 -24 -19 -17 -21 -25 -12 -47 9 -24 14 -26 76 -26 57 0 67 3 71
20 7 25 14 25 36 -1 22 -25 62 -22 62 5 0 27 17 30 43 6 27 -25 32 -25 32 1 0
17 4 20 23 15 12 -3 28 -6 35 -6 6 0 12 -7 12 -15 0 -8 5 -15 12 -15 6 0 20
-8 31 -17 18 -17 19 -17 32 0 6 9 19 17 27 17 8 0 20 11 26 25 15 32 40 32 48
-1 11 -45 78 -53 117 -13 23 24 22 39 -3 39 -11 0 -20 7 -20 15 0 8 -3 15 -7
15 -5 0 -16 14 -25 30 -9 17 -24 30 -32 30 -8 0 -19 15 -25 33 -10 30 -29 46
-73 63 -21 7 -24 44 -5 44 7 0 24 -12 39 -27 39 -42 96 -93 102 -93 3 0 6 11
6 25 0 14 -5 25 -11 25 -7 0 -9 16 -4 49 4 31 3 51 -4 56 -19 11 -12 25 14 25
13 0 29 -8 34 -17 15 -25 14 3 -1 30 -6 12 -17 27 -24 32 -7 6 -16 22 -20 38
-5 23 -3 27 15 27 28 0 27 18 -5 46 -28 26 -54 30 -72 12 -10 -10 -17 -10 -32
0 -25 15 -57 16 -62 0 -3 -8 -16 -7 -47 5 -29 12 -47 14 -60 8 -22 -12 -113 0
-118 15 -4 11 48 24 99 24 18 0 29 7 33 20 9 27 39 25 54 -2 11 -23 11 -23 5
2 -8 32 -23 50 -41 50 -8 0 -21 6 -28 14 -13 12 -6 15 46 21 68 8 73 23 13 40
-36 10 -39 13 -41 50 -1 22 0 34 3 28 3 -7 11 -13 17 -13 6 0 18 -7 28 -16 10
-9 23 -14 30 -12 15 5 -36 58 -55 58 -15 0 -62 53 -79 88 -5 12 -14 22 -19 22
-11 0 -10 37 1 44 5 4 11 2 13 -3 1 -4 13 -11 25 -15 33 -10 51 32 35 78 -15
42 -7 66 23 66 18 0 24 -7 28 -33 5 -33 48 -88 78 -99 17 -6 29 -49 29 -99 0
-16 5 -29 10 -29 6 0 10 -7 10 -15 0 -17 -35 -21 -45 -5 -11 18 -25 10 -25
-15 0 -14 4 -25 9 -25 5 0 13 -9 16 -20 4 -11 15 -20 26 -20 11 0 22 -7 25
-15 9 -21 21 -19 49 10 23 22 25 22 25 5 0 -10 9 -22 21 -25 18 -6 21 -13 16
-44 -4 -35 -1 -41 64 -105 38 -37 69 -71 69 -75 0 -4 9 -16 19 -28 31 -33 51
-80 51 -118 0 -19 4 -35 10 -35 5 0 17 -14 25 -31 17 -32 50 -69 63 -69 14 0
68 -64 81 -97 7 -18 10 -45 6 -61 -5 -25 -3 -30 17 -36 37 -9 41 -7 36 18 -4
19 -1 22 14 18 10 -2 23 -13 29 -23 5 -11 20 -19 35 -19 22 0 23 2 14 20 -9
17 -8 20 9 20 11 0 24 -6 28 -12 4 -7 17 -18 28 -24 11 -6 24 -20 30 -32 14
-31 35 -27 35 6 0 31 -9 47 -30 55 -10 4 -8 6 7 6 12 1 34 -11 48 -25 21 -21
33 -25 56 -20 16 3 40 1 53 -5 31 -14 96 14 96 42 0 27 -23 24 -54 -7 -25 -25
-26 -26 -26 -6 0 12 -6 25 -12 29 -17 11 -41 53 -34 60 7 8 56 -25 56 -37 0
-17 25 -11 38 10 7 11 17 20 22 20 6 0 10 -9 10 -20 0 -11 4 -20 9 -20 11 0
21 36 21 78 0 30 -2 32 -35 32 -22 0 -35 5 -35 13 0 7 -11 21 -25 31 -14 10
-25 27 -25 37 0 21 -16 26 -23 7 -2 -7 -8 0 -12 16 -5 18 -4 36 3 47 7 11 8
20 2 24 -5 3 -13 -2 -18 -11 -5 -9 -14 -14 -20 -10 -13 8 -4 38 15 49 17 10
17 27 -1 27 -8 0 -17 7 -20 16 -5 13 -1 15 20 11 23 -4 25 -2 21 22 -2 14 -8
34 -12 44 -5 11 -3 17 7 17 11 0 13 15 11 68 -1 37 -5 79 -9 93 -5 23 -2 28
25 37 33 12 50 37 34 53 -13 13 -43 0 -44 -20 -1 -9 -4 -6 -9 9 -13 41 -11 50
10 50 24 0 26 16 5 36 -19 19 -19 44 -1 44 8 0 17 7 20 16 8 21 8 24 -5 24
-25 0 -39 28 -28 58 7 22 7 36 0 51 -12 22 1 71 19 71 5 0 10 5 10 10 0 6 -6
10 -14 10 -7 0 -16 10 -20 23 -9 34 -8 37 14 37 11 0 20 -4 20 -10 0 -16 19
-12 42 10 18 16 19 20 5 20 -8 0 -19 -4 -22 -10 -10 -16 -45 12 -61 49 -18 43
-18 51 2 51 11 0 14 5 9 18 -17 41 -15 50 24 92 29 31 48 43 70 44 34 1 41 19
14 34 -15 9 -15 11 1 27 19 20 15 57 -9 82 -8 8 -15 20 -15 26 0 7 -9 20 -20
30 -26 22 -26 47 1 47 19 0 21 4 15 32 -3 17 -16 38 -27 46 -17 11 -20 21 -15
47 11 55 3 62 -70 61 -47 -1 -67 3 -74 14 -8 13 -10 13 -10 -1z m140 -48 c0
-10 -7 -22 -16 -25 -23 -9 -24 -8 -24 19 0 18 5 25 20 25 13 0 20 -7 20 -19z
m-129 -119 c-6 -2 -12 -16 -12 -30 -1 -18 -3 -21 -6 -9 -2 9 1 31 9 48 10 23
14 26 17 12 2 -9 -2 -19 -8 -21z m129 29 c0 -11 -26 -22 -34 -14 -12 12 -5 23
14 23 11 0 20 -4 20 -9z m-1305 -62 c9 -26 5 -29 -22 -18 -13 5 -23 15 -23 24
0 23 38 18 45 -6z m98 -2 c11 -4 21 -16 24 -27 3 -11 9 -20 14 -20 5 0 9 -4 9
-10 0 -5 -8 -10 -18 -10 -9 0 -23 -9 -30 -20 -13 -21 -32 -27 -32 -11 0 5 7
16 15 25 8 8 15 21 15 29 0 8 -7 17 -15 21 -8 3 -15 16 -15 28 0 13 4 18 8 12
4 -6 15 -14 25 -17z m97 15 c0 -4 -9 -13 -20 -20 -18 -11 -20 -10 -20 8 0 13
7 20 20 20 11 0 20 -3 20 -8z m-250 -67 c0 -41 -11 -45 -29 -11 -15 26 -8 46
15 46 9 0 14 -11 14 -35z m1050 10 c0 -8 -4 -15 -10 -15 -5 0 -10 7 -10 15 0
8 5 15 10 15 6 0 10 -7 10 -15z m-805 -47 c6 -4 0 -8 -12 -8 -16 0 -21 4 -16
15 3 9 8 12 12 8 3 -4 11 -11 16 -15z m-233 -43 c-9 -19 -20 -35 -24 -35 -15
0 -8 43 10 56 27 21 31 16 14 -21z m179 -7 c30 -33 24 -56 -6 -24 -24 26 -32
46 -19 46 4 0 15 -10 25 -22z m859 -8 c0 -5 -5 -10 -11 -10 -5 0 -7 5 -4 10 3
6 8 10 11 10 2 0 4 -4 4 -10z m400 0 c0 -5 -4 -10 -10 -10 -5 0 -10 5 -10 10
0 6 5 10 10 10 6 0 10 -4 10 -10z m-79 -31 c5 -11 17 -19 27 -20 13 0 12 -3
-5 -11 -13 -6 -23 -15 -23 -19 0 -5 -9 -13 -21 -20 -20 -10 -21 -9 -14 30 4
27 3 47 -5 56 -9 11 -7 12 10 8 11 -3 25 -14 31 -24z m-1408 -3 c7 -18 -1 -26
-25 -26 -20 0 -21 1 -12 24 8 20 30 21 37 2z m373 -29 c8 -5 14 -24 14 -46 0
-29 -5 -40 -19 -44 -14 -3 -17 0 -14 14 3 11 9 19 14 19 5 0 9 7 9 15 0 18
-12 19 -27 4 -6 -6 -19 -9 -29 -6 -16 4 -15 5 4 6 19 1 22 7 23 44 1 23 4 33
6 22 3 -11 11 -24 19 -28z m655 0 c-15 -15 -21 -5 -14 22 5 21 7 21 16 6 6
-11 5 -21 -2 -28z m109 28 c0 -8 -4 -15 -10 -15 -5 0 -10 7 -10 15 0 8 5 15
10 15 6 0 10 -7 10 -15z m-1045 -15 c3 -5 -3 -10 -14 -10 -12 0 -21 5 -21 10
0 6 6 10 14 10 8 0 18 -4 21 -10z m145 -30 c0 -5 -7 -10 -15 -10 -8 0 -15 5
-15 10 0 6 7 10 15 10 8 0 15 -4 15 -10z m-200 -25 c0 -8 -4 -15 -9 -15 -5 0
-11 7 -15 15 -3 9 0 15 9 15 8 0 15 -7 15 -15z m97 -1 c-3 -3 -12 -4 -19 -1
-8 3 -5 6 6 6 11 1 17 -2 13 -5z m328 -10 c13 -10 16 -17 9 -22 -6 -4 -16 -17
-23 -30 -10 -19 -10 -27 1 -40 7 -9 20 -25 28 -36 8 -10 23 -27 33 -38 16 -17
16 -18 -1 -18 -10 0 -28 9 -40 20 -27 25 -32 25 -32 0 0 -17 -3 -19 -19 -10
-11 5 -33 10 -50 10 -17 0 -31 5 -31 11 0 6 -7 4 -15 -5 -8 -8 -15 -17 -15
-21 0 -4 -6 -13 -14 -21 -17 -16 -56 -19 -56 -4 0 15 -48 12 -53 -2 -2 -7 -8
-10 -12 -5 -19 17 30 37 77 31 44 -5 46 -4 41 15 -3 12 -11 21 -18 21 -7 0
-19 8 -26 17 -12 15 -12 16 6 9 25 -10 167 -26 178 -19 12 7 8 43 -6 43 -7 0
-22 7 -33 15 -14 11 -15 15 -4 14 35 -3 40 2 40 41 0 44 5 47 35 24z m-189
-18 c19 -20 18 -26 -6 -26 -13 0 -20 7 -20 20 0 24 6 25 26 6z m864 -7 c0 -11
-4 -17 -10 -14 -5 3 -10 13 -10 21 0 8 5 14 10 14 6 0 10 -9 10 -21z m-1050
-9 c0 -5 -4 -10 -10 -10 -5 0 -10 5 -10 10 0 6 5 10 10 10 6 0 10 -4 10 -10z
m104 -6 c10 -25 7 -34 -8 -28 -19 7 -28 44 -11 44 7 0 16 -7 19 -16z m-154
-29 c0 -14 -4 -25 -10 -25 -5 0 -10 11 -10 25 0 14 5 25 10 25 6 0 10 -11 10
-25z m210 -5 c0 -5 -7 -10 -15 -10 -8 0 -15 5 -15 10 0 6 7 10 15 10 8 0 15
-4 15 -10z m860 -10 c0 -5 -4 -10 -9 -10 -6 0 -13 5 -16 10 -3 6 1 10 9 10 9
0 16 -4 16 -10z m-550 -30 c0 -11 -4 -20 -10 -20 -5 0 -10 2 -10 4 0 2 -3 11
-6 20 -4 11 -1 16 10 16 9 0 16 -8 16 -20z m-454 -35 c9 -14 14 -28 10 -32 -3
-3 -6 -1 -6 5 0 7 -9 21 -20 32 -11 11 -16 20 -10 20 5 0 17 -11 26 -25z m-58
-33 c2 -7 -2 -10 -12 -6 -9 3 -16 11 -16 16 0 13 23 5 28 -10z m339 -21 c-3
-13 5 -30 24 -48 30 -30 37 -53 16 -53 -6 0 -18 13 -25 30 -8 16 -25 35 -40
42 -15 7 -28 21 -30 31 -3 13 3 17 28 17 27 0 31 -3 27 -19z m-197 -110 c0 -5
-7 -11 -15 -15 -9 -3 -15 0 -15 9 0 8 7 15 15 15 8 0 15 -4 15 -9z m480 -1 c0
-5 -7 -10 -16 -10 -8 0 -12 5 -9 10 3 6 10 10 16 10 5 0 9 -4 9 -10z m-380
-16 c0 -2 -7 -4 -15 -4 -8 0 -15 4 -15 10 0 5 7 7 15 4 8 -4 15 -8 15 -10z
m100 -14 c0 -5 9 -11 19 -15 19 -6 38 -41 29 -51 -7 -6 -74 61 -81 80 -5 14
-3 15 13 6 11 -6 20 -15 20 -20z m167 14 c-3 -3 -12 -4 -19 -1 -8 3 -5 6 6 6
11 1 17 -2 13 -5z m-70 -56 c-2 -13 -4 -5 -4 17 -1 22 1 32 4 23 2 -10 2 -28
0 -40z m-267 22 c0 -5 -4 -10 -10 -10 -5 0 -10 5 -10 10 0 6 5 10 10 10 6 0
10 -4 10 -10z m400 6 c0 -2 -7 -7 -16 -10 -8 -3 -12 -2 -9 4 6 10 25 14 25 6z
m-420 -71 c0 -30 -20 -33 -37 -6 -10 15 -10 21 0 24 26 11 37 6 37 -18z m90
15 c0 -5 -4 -10 -10 -10 -5 0 -10 5 -10 10 0 6 5 10 10 10 6 0 10 -4 10 -10z
m200 -21 c0 -18 -2 -19 -15 -5 -8 8 -15 17 -15 20 0 3 7 6 15 6 9 0 15 -9 15
-21z m65 -42 c0 -58 -16 -93 -24 -52 -2 10 -10 26 -19 34 -14 14 -15 13 -9
-17 5 -24 3 -32 -8 -32 -10 0 -15 11 -15 35 0 19 4 35 9 35 5 0 22 14 38 30
15 17 28 30 28 30 0 0 0 -28 0 -63z m-421 23 c28 -29 31 -65 3 -55 -14 6 -47
57 -47 74 0 18 13 12 44 -19z m492 -14 c4 -10 23 -13 69 -12 73 1 94 -15 95
-71 0 -47 -9 -63 -37 -63 -20 0 -24 4 -18 18 17 39 16 62 -1 86 -25 33 -39 32
-54 -4 -15 -36 -21 -37 -40 -9 -8 12 -21 27 -27 35 -7 7 -13 17 -13 23 0 16
20 13 26 -3z m-545 -56 c5 0 9 -4 9 -10 0 -5 -7 -10 -15 -10 -11 0 -15 10 -14
33 1 23 3 26 6 10 2 -13 9 -23 14 -23z m51 -20 c14 0 37 -31 38 -51 0 -14 -7
-15 -47 -8 -25 5 -48 11 -51 13 -2 2 6 14 17 25 12 12 21 27 22 34 0 10 2 10
6 0 2 -7 9 -13 15 -13z m97 3 c17 -16 41 -55 41 -66 0 -2 -11 -2 -25 1 -34 6
-75 82 -45 82 6 0 19 -8 29 -17z m491 -18 c0 -8 -7 -15 -15 -15 -8 0 -15 7
-15 15 0 8 7 15 15 15 8 0 15 -7 15 -15z m111 -21 c5 -15 7 -29 5 -32 -8 -7
-36 25 -36 42 0 25 20 18 31 -10z m-271 -9 c0 -8 -4 -15 -10 -15 -5 0 -10 7
-10 15 0 8 5 15 10 15 6 0 10 -7 10 -15z m110 -15 c0 -5 -4 -10 -10 -10 -5 0
-10 5 -10 10 0 6 5 10 10 10 6 0 10 -4 10 -10z m-151 -49 c12 -8 12 -11 -1
-24 -13 -13 -16 -13 -26 4 -7 10 -12 21 -12 24 0 8 24 6 39 -4z m281 -1 c0 -5
-5 -10 -11 -10 -5 0 -7 5 -4 10 3 6 8 10 11 10 2 0 4 -4 4 -10z m-510 -55 c0
-17 -2 -18 -25 -9 -13 5 -14 8 -3 15 19 13 28 11 28 -6z m-43 -41 c-3 -3 -12
-4 -19 -1 -8 3 -5 6 6 6 11 1 17 -2 13 -5z m43 -54 c0 -5 -4 -10 -10 -10 -5 0
-10 5 -10 10 0 6 5 10 10 10 6 0 10 -4 10 -10z m-220 -65 c0 -10 -11 -15 -35
-15 -24 0 -35 5 -35 15 0 10 11 15 35 15 24 0 35 -5 35 -15z m356 -65 c8 0 14
-7 14 -15 0 -8 5 -15 10 -15 6 0 10 -7 10 -15 0 -8 5 -15 10 -15 17 0 11 -25
-10 -38 -11 -7 -20 -19 -20 -27 0 -8 9 -15 20 -15 15 0 20 7 20 25 0 16 6 25
16 25 12 0 15 -6 10 -22 -17 -62 -18 -80 -5 -89 10 -6 6 -9 -13 -9 -21 0 -28
5 -28 18 0 19 -52 72 -70 72 -13 0 -13 -27 0 -35 14 -9 1 -32 -21 -38 -16 -4
-19 -14 -19 -61 0 -49 3 -56 19 -56 11 0 22 4 26 10 9 15 37 0 87 -49 26 -25
59 -56 75 -69 23 -19 25 -25 13 -32 -22 -14 -26 -13 -63 25 -38 39 -67 46 -67
15 0 -11 -6 -20 -14 -20 -8 0 -23 -11 -34 -25 l-20 -25 -30 30 c-37 37 -50 70
-28 70 17 0 22 36 6 42 -5 2 -12 18 -16 36 -5 25 -3 32 10 32 12 0 16 9 16 35
0 19 -4 35 -10 35 -6 0 -10 30 -10 70 0 40 4 70 10 70 6 0 10 7 10 15 0 8 -7
15 -15 15 -8 0 -15 5 -15 10 0 22 38 8 64 -22 14 -17 26 -35 26 -40 0 -13 40
-9 41 5 3 25 -3 42 -17 50 -8 4 -14 18 -13 30 0 12 3 16 6 10 2 -7 11 -13 19
-13z m80 -27 c-10 -10 -19 5 -10 18 6 11 8 11 12 0 2 -7 1 -15 -2 -18z m774
17 c0 -5 -2 -10 -4 -10 -3 0 -8 5 -11 10 -3 6 -1 10 4 10 6 0 11 -4 11 -10z
m20 -111 c0 -10 -7 -19 -15 -19 -9 0 -15 9 -15 25 0 18 4 23 15 19 8 -4 15
-15 15 -25z m-1110 -39 c0 -5 -4 -10 -9 -10 -6 0 -13 5 -16 10 -3 6 1 10 9 10
9 0 16 -4 16 -10z m1186 -158 c-12 -11 -18 7 -10 30 l8 23 4 -23 c2 -13 1 -26
-2 -30z m-1426 2 c0 -2 -7 -4 -15 -4 -8 0 -15 4 -15 10 0 5 7 7 15 4 8 -4 15
-8 15 -10z m1480 -21 c0 -10 -5 -25 -10 -33 -7 -11 -10 -7 -10 18 0 17 5 32
10 32 6 0 10 -8 10 -17z m-1196 -70 c-5 -5 -12 -12 -16 -18 -4 -6 -8 -2 -8 8
0 9 7 17 17 17 9 0 12 -3 7 -7z m1116 -58 c0 -8 -9 -15 -20 -15 -20 0 -26 11
-13 23 12 13 33 7 33 -8z"/>
    <path d="M6090 4587 c0 -10 8 -17 18 -17 9 0 13 4 7 8 -5 4 -13 11 -17 16 -5
5 -8 2 -8 -7z"/>
    <path d="M6080 4546 c0 -9 5 -16 10 -16 6 0 10 4 10 9 0 6 -4 13 -10 16 -5 3
-10 -1 -10 -9z"/>
    <path d="M6136 4334 c-8 -22 4 -44 25 -44 24 0 24 21 0 42 -16 14 -20 14 -25
2z"/>
    <path d="M6092 4278 c-21 -21 -13 -38 18 -38 18 0 30 5 30 13 0 13 -19 37 -30
37 -3 0 -11 -5 -18 -12z"/>
    <path d="M8330 6070 c0 -5 9 -10 21 -10 12 0 23 -8 26 -20 6 -24 19 -26 27 -4
13 35 7 44 -34 44 -22 0 -40 -4 -40 -10z"/>
    <path d="M3184 6044 c3 -9 6 -18 6 -20 0 -2 7 -4 15 -4 8 0 15 9 15 20 0 14
-7 20 -21 20 -15 0 -19 -4 -15 -16z"/>
    <path d="M4265 6050 c-3 -5 1 -10 9 -10 9 0 16 5 16 10 0 6 -4 10 -9 10 -6 0
-13 -4 -16 -10z"/>
    <path d="M4468 6053 c7 -3 16 -2 19 1 4 3 -2 6 -13 5 -11 0 -14 -3 -6 -6z"/>
    <path d="M8180 6054 c0 -3 6 -12 14 -20 20 -19 26 -18 26 6 0 13 -7 20 -20 20
-11 0 -20 -3 -20 -6z"/>
    <path d="M2351 6034 c0 -11 3 -14 6 -6 3 7 2 16 -1 19 -3 4 -6 -2 -5 -13z"/>
    <path d="M3274 6036 c-3 -8 -16 -17 -30 -20 -15 -4 -24 -14 -24 -26 0 -26 -12
-25 -28 0 -7 11 -23 20 -37 20 -18 0 -25 -5 -25 -20 0 -12 -7 -20 -17 -20 -14
0 -15 2 -4 9 11 7 11 9 0 14 -10 4 -10 6 -1 6 17 1 15 21 -2 21 -8 0 -17 6
-19 13 -4 10 -6 10 -6 0 -1 -7 -7 -13 -13 -13 -35 -1 -88 -82 -88 -133 0 -18
-8 -28 -32 -38 -48 -19 -72 -44 -65 -68 4 -16 0 -21 -14 -21 -26 0 -25 -40 1
-63 28 -24 26 -47 -5 -47 -18 0 -26 7 -31 25 -7 30 -30 33 -39 5 -3 -11 -11
-20 -16 -20 -5 0 -9 -9 -9 -19 0 -21 22 -33 46 -24 22 8 64 -17 64 -39 0 -10
-4 -18 -9 -18 -5 0 -12 -11 -15 -25 -5 -20 -13 -25 -36 -25 -17 0 -30 5 -30
10 0 6 -4 10 -10 10 -14 0 -12 -48 2 -52 9 -3 8 -9 -5 -22 -16 -17 -17 -17
-18 1 -1 10 -1 21 0 26 2 11 -23 8 -62 -8 -41 -17 -56 -48 -33 -70 20 -20 33
-19 41 5 7 21 30 27 40 10 11 -17 24 -11 67 30 61 57 120 55 63 -2 -24 -24
-26 -58 -4 -58 5 0 9 -7 9 -15 0 -19 -9 -19 -34 0 -11 8 -23 15 -28 15 -15 0
-8 -48 7 -54 8 -3 15 -12 15 -21 0 -9 -7 -18 -15 -21 -17 -7 -21 -44 -5 -44 6
0 10 -4 10 -10 0 -5 -15 -10 -32 -11 -18 0 -27 -3 -20 -6 14 -5 17 -53 3 -53
-5 0 -12 -8 -15 -17 -3 -10 -17 -31 -31 -47 -28 -33 -32 -56 -10 -56 8 0 15
-5 15 -11 0 -7 -11 -9 -26 -6 -24 4 -26 2 -20 -24 5 -26 3 -29 -19 -29 -14 0
-25 5 -25 10 0 6 -7 10 -15 10 -9 0 -15 -10 -15 -26 0 -18 4 -25 14 -21 7 3
19 0 25 -6 14 -14 14 -67 0 -67 -6 0 -8 -8 -5 -18 4 -11 -3 -24 -19 -36 -14
-11 -25 -29 -25 -42 0 -15 -6 -24 -15 -24 -8 0 -24 -5 -34 -12 -26 -16 -91 14
-91 42 0 21 34 28 45 10 3 -5 13 -10 21 -10 8 0 14 5 14 10 0 6 -7 10 -15 10
-9 0 -21 11 -27 25 -6 14 -15 25 -20 25 -4 0 -8 10 -8 21 0 19 4 21 31 15 19
-3 38 -1 46 5 10 9 19 9 38 -1 27 -15 57 -7 50 13 -3 7 -20 22 -38 32 -53 31
-60 42 -39 57 24 17 34 45 20 54 -6 4 -16 0 -23 -9 -7 -10 -26 -17 -48 -17
-31 0 -37 -4 -46 -32 -5 -18 -13 -66 -16 -105 -4 -40 -11 -73 -16 -73 -18 0
-9 -60 13 -82 17 -17 34 -22 77 -22 31 -1 59 -5 63 -10 9 -13 -2 -36 -18 -36
-8 0 -14 -10 -14 -24 0 -14 -4 -28 -10 -31 -5 -3 -10 -17 -10 -30 0 -22 -3
-24 -30 -18 -24 4 -30 2 -30 -12 0 -10 7 -23 16 -29 18 -13 9 -46 -12 -46 -21
0 -54 -37 -54 -60 0 -11 5 -20 10 -20 6 0 10 -9 10 -20 0 -22 -28 -27 -60 -10
-16 8 -18 8 -14 -5 4 -8 10 -15 14 -15 4 0 11 -12 15 -27 5 -20 2 -31 -11 -40
-15 -11 -15 -13 1 -29 16 -16 18 -16 27 -1 11 21 37 22 44 2 8 -19 21 -19 40
0 16 16 73 10 86 -9 5 -8 8 -7 8 1 0 7 12 16 26 19 22 6 34 -2 81 -50 30 -32
57 -55 60 -53 7 8 -26 54 -43 61 -8 3 -14 15 -14 26 0 24 37 28 46 5 4 -8 11
-15 17 -15 6 0 19 -7 29 -17 10 -9 21 -13 25 -10 4 4 -1 13 -11 20 -23 17 -17
52 8 52 10 0 24 -9 30 -20 6 -10 17 -25 24 -33 6 -7 12 -24 12 -38 0 -21 3
-23 18 -13 9 6 23 22 29 35 10 21 9 24 -8 24 -22 0 -34 37 -26 79 3 16 2 45
-4 65 -9 32 -12 35 -25 22 -7 -8 -14 -22 -14 -30 0 -9 -7 -16 -15 -16 -18 0
-18 -1 -4 39 6 17 16 31 23 31 6 0 18 9 26 20 22 30 40 25 40 -12 1 -24 3 -29
9 -18 14 24 24 90 14 90 -12 0 -53 38 -53 50 0 5 7 10 16 12 9 2 22 19 28 38
10 30 16 35 56 43 25 5 51 16 58 25 9 11 15 13 20 6 4 -6 19 -14 35 -18 24 -6
27 -4 27 18 0 16 -7 27 -20 31 -32 10 -23 25 15 25 33 0 35 -2 35 -34 0 -37
-8 -33 118 -57 50 -9 68 -9 87 1 17 9 31 10 54 2 23 -8 32 -7 41 3 9 11 18 11
38 4 15 -6 42 -7 60 -4 32 6 38 2 88 -51 30 -31 54 -61 54 -65 0 -18 -39 -8
-45 11 -3 11 -13 20 -21 20 -21 0 -17 -13 11 -46 35 -39 41 -47 44 -59 2 -5
14 -20 28 -33 20 -19 22 -24 11 -36 -8 -7 -24 -17 -37 -21 -18 -6 -21 -9 -10
-16 19 -12 66 -11 74 0 15 25 86 -20 105 -66 6 -15 18 -23 35 -23 14 0 25 3
25 6 0 15 -22 44 -34 44 -16 0 -46 42 -46 64 0 8 -18 23 -40 33 -22 10 -40 21
-40 26 0 14 38 7 44 -8 3 -8 12 -15 20 -15 20 0 116 -93 116 -113 0 -9 7 -17
15 -17 8 0 15 4 15 9 0 28 -70 113 -102 124 -19 7 -26 57 -8 57 14 0 150 -135
150 -149 0 -7 4 -10 9 -7 4 3 13 -6 19 -19 7 -15 20 -25 33 -25 12 0 23 -8 26
-20 3 -11 12 -20 19 -20 8 0 14 9 14 20 0 11 -4 20 -10 20 -5 0 -10 11 -10 25
0 16 6 25 15 25 11 0 15 11 15 35 0 29 6 39 30 53 46 26 54 60 10 44 -34 -13
-70 -3 -70 19 0 25 -16 24 -23 -1 -4 -16 -14 -20 -46 -20 -30 0 -41 -4 -41
-15 0 -8 7 -15 15 -15 8 0 15 -7 15 -15 0 -8 -9 -15 -20 -15 -11 0 -20 7 -20
15 0 8 -9 15 -19 15 -11 0 -23 9 -26 20 -3 11 -10 20 -15 20 -11 0 -40 29 -40
41 0 5 12 9 28 10 15 0 21 3 15 6 -7 2 -13 10 -13 17 0 7 -7 27 -16 45 -12 23
-22 31 -37 29 -12 -2 -23 -11 -25 -21 -3 -16 3 -20 45 -33 16 -4 5 -34 -13
-34 -8 0 -14 4 -14 9 0 5 -8 12 -18 15 -9 3 -26 22 -37 42 -16 30 -17 37 -4
45 7 5 20 9 27 9 6 0 12 5 12 10 0 6 -8 10 -17 10 -22 -1 -53 -23 -53 -39 0
-6 -6 -11 -14 -11 -8 0 -17 -6 -20 -12 -5 -10 -7 -10 -12 0 -3 6 -16 12 -29
12 -12 0 -26 7 -29 16 -9 23 -8 24 14 24 11 0 20 -4 20 -10 0 -13 37 -13 45
-1 3 5 -5 11 -17 13 -19 2 -23 9 -21 33 2 17 4 41 5 55 1 14 -2 32 -5 40 -5
10 0 24 13 37 23 25 26 49 8 57 -7 3 4 3 25 0 23 -4 37 -2 37 4 0 15 -33 24
-55 16 -16 -7 -16 -5 1 15 11 12 20 26 20 31 1 6 2 15 3 20 2 20 31 10 31 -11
0 -22 22 -49 39 -49 6 0 13 -11 17 -24 5 -23 7 -23 23 -8 9 10 14 19 11 22 -4
3 -9 13 -13 23 -3 9 -16 17 -27 17 -13 0 -20 7 -20 20 0 11 5 20 10 20 6 0 10
-4 10 -10 0 -12 27 -13 32 -1 7 17 46 22 61 6 20 -20 27 -19 28 3 0 13 2 14 6
2 10 -27 27 -29 47 -8 14 15 16 23 8 26 -7 2 -12 15 -12 28 0 36 -37 33 -43
-3 -3 -20 -4 -15 -6 15 -1 41 -2 42 -36 42 -31 0 -35 3 -35 26 0 19 -4 25 -17
22 -14 -3 -17 -12 -15 -45 3 -51 -12 -93 -34 -93 -13 0 -15 7 -9 38 6 35 6 36
-9 17 -8 -11 -16 -26 -16 -33 0 -26 -25 -5 -28 23 -3 24 -1 27 11 17 7 -6 17
-9 20 -5 13 12 7 44 -8 49 -8 4 -15 15 -15 25 0 10 7 19 15 19 23 0 18 22 -12
45 -28 23 -25 45 8 45 11 0 17 5 14 10 -3 6 -22 10 -41 10 -20 0 -34 5 -34 13
0 8 -4 7 -11 -3 -9 -12 -10 -12 -5 3 3 10 6 21 6 23 0 2 8 4 18 4 19 0 62 31
62 45 0 4 -10 5 -23 2 -29 -8 -49 5 -52 34 -1 13 -3 27 -4 32 0 4 -11 7 -24 7
-13 0 -37 12 -55 28 -17 15 -37 32 -45 37 -9 6 -18 20 -22 33 -5 17 -2 22 13
22 11 0 22 -5 24 -12 3 -7 10 -8 17 -3 11 6 10 10 -3 17 -9 5 -16 15 -16 23 0
7 -4 15 -10 17 -5 2 -11 23 -14 48 -7 72 -13 90 -46 123 -16 17 -30 36 -30 43
0 7 -6 15 -12 17 -8 3 -6 6 5 6 9 1 34 -16 55 -37 43 -43 65 -54 87 -46 24 10
17 22 -20 34 -31 10 -35 15 -35 48 0 32 -1 34 -13 18 -17 -23 -53 -14 -62 15
-4 10 -11 19 -16 19 -5 0 -16 18 -25 40 -9 22 -20 40 -25 40 -4 0 -11 16 -15
35 -3 19 -10 35 -16 35 -5 0 -6 -4 -3 -10 3 -5 0 -10 -8 -10 -22 0 -75 29 -81
45 -7 19 -45 20 -52 1z m46 -32 c0 -3 -7 -12 -15 -20 -12 -13 -15 -13 -15 -1
0 7 3 17 7 20 8 8 23 9 23 1z m-240 -64 c4 0 10 -9 13 -19 4 -16 -1 -21 -21
-23 -25 -3 -25 -4 -7 -21 15 -16 16 -20 4 -28 -20 -12 -22 -12 -42 11 -19 23
-22 40 -7 40 6 0 10 8 10 18 0 24 10 34 28 27 7 -3 17 -5 22 -5z m-40 -155 c0
-8 -7 -15 -15 -15 -23 0 -31 -31 -11 -45 16 -12 16 -13 -1 -19 -11 -5 -24 2
-40 20 -28 33 -29 44 -3 51 10 3 22 14 25 24 5 15 10 17 26 9 10 -6 19 -17 19
-25z m-92 -92 c9 -21 20 -39 25 -41 12 -6 8 -22 -7 -22 -7 0 -19 -7 -26 -15
-7 -8 -16 -15 -21 -15 -5 0 -9 7 -9 15 0 8 5 15 10 15 15 0 12 40 -5 56 -19
20 -19 44 0 44 9 0 23 -17 33 -37z m612 -138 c0 -8 -4 -15 -10 -15 -5 0 -10 7
-10 15 0 8 5 15 10 15 6 0 10 -7 10 -15z m-9 -63 c12 -12 17 -25 13 -35 -9
-25 -41 -21 -48 6 -13 51 -1 61 35 29z m-271 -51 c0 -33 -11 -51 -31 -51 -10
0 -19 5 -19 10 0 6 9 10 20 10 11 0 20 5 20 10 0 6 -4 10 -10 10 -5 0 -10 7
-10 15 0 8 7 15 15 15 8 0 15 -9 15 -19z m-3 -77 c-3 -3 -12 -4 -19 -1 -8 3
-5 6 6 6 11 1 17 -2 13 -5z m-47 -49 c0 -8 9 -15 19 -15 10 0 21 7 25 15 3 8
14 15 25 15 25 0 55 -53 47 -85 -4 -15 2 -31 19 -51 14 -16 25 -35 25 -41 0
-7 5 -13 10 -13 14 0 12 -37 -2 -43 -9 -4 -10 -8 -2 -14 5 -4 18 -25 27 -45 9
-20 21 -38 25 -41 4 -2 0 -1 -8 1 -19 7 -48 5 -81 -3 -21 -6 -32 0 -60 29 -18
20 -37 36 -42 36 -5 0 -15 7 -23 15 -20 19 -54 19 -54 0 0 -9 12 -20 27 -26
26 -10 63 -41 63 -54 0 -11 -39 -4 -43 8 -3 9 -13 8 -38 -6 l-33 -18 -30 32
c-19 21 -26 34 -18 37 7 2 12 10 12 17 0 7 5 15 11 17 9 3 9 9 1 24 -10 19 -8
20 19 16 34 -5 37 6 9 31 -11 9 -20 21 -20 26 0 5 9 11 20 14 14 3 20 14 20
31 0 14 9 35 20 46 23 23 26 46 8 53 -8 3 -6 6 5 6 9 1 17 -6 17 -14z m490
-110 c0 -8 -4 -15 -10 -15 -5 0 -10 7 -10 15 0 8 5 15 10 15 6 0 10 -7 10 -15z
m-27 -148 c21 -8 23 -47 2 -47 -8 0 -24 9 -35 20 -17 17 -18 23 -8 34 7 8 15
11 18 7 3 -4 13 -10 23 -14z m232 -18 c6 -19 0 -38 -9 -28 -10 12 -16 49 -7
49 5 0 13 -9 16 -21z m-298 -25 c7 -7 18 -14 25 -16 6 -2 9 -12 5 -21 -5 -14
-12 -11 -42 20 -19 20 -35 37 -35 39 0 6 35 -10 47 -22z m-1120 -26 c-3 -8 -6
-5 -6 6 -1 11 2 17 5 13 3 -3 4 -12 1 -19z m1042 13 c12 -8 12 -12 -2 -26 -10
-9 -17 -12 -17 -7 0 6 -3 17 -6 26 -7 18 4 20 25 7z m45 -54 c11 -10 10 -15
-1 -25 -7 -7 -13 -8 -13 -3 0 5 -3 16 -6 25 -7 19 3 21 20 3z m106 -17 c0 -11
-4 -20 -10 -20 -5 0 -10 9 -10 20 0 11 5 20 10 20 6 0 10 -9 10 -20z m-160
-35 c0 -8 -4 -15 -10 -15 -5 0 -10 7 -10 15 0 8 5 15 10 15 6 0 10 -7 10 -15z
m106 0 c14 -13 13 -15 -5 -15 -12 0 -21 6 -21 15 0 8 3 15 6 15 3 0 12 -7 20
-15z m-50 -29 c8 -8 14 -21 14 -29 0 -8 11 -23 25 -33 30 -22 32 -34 6 -34
-28 0 -32 -12 -15 -44 22 -44 17 -58 -11 -31 -31 32 -43 31 -51 0 -7 -28 -19
-33 -27 -11 -8 21 3 54 20 60 8 3 11 10 8 16 -3 5 -1 10 5 10 6 0 19 7 27 16
14 13 14 17 2 25 -8 5 -17 9 -20 9 -11 0 -19 29 -13 45 8 19 12 19 30 1z m104
-2 c0 -16 -28 -50 -35 -42 -7 6 18 58 28 58 4 0 7 -7 7 -16z m-185 -25 c4 -11
16 -24 28 -29 16 -6 18 -9 5 -9 -9 -1 -18 -7 -21 -13 -2 -7 -3 -5 -1 5 1 11
-6 19 -21 23 -29 7 -41 44 -15 44 10 0 22 -9 25 -21z m-30 -81 c5 -25 4 -38
-4 -38 -6 0 -11 9 -11 20 0 10 -7 23 -17 28 -14 8 -14 12 -2 25 18 20 26 11
34 -35z m-341 27 c-4 -8 -8 -15 -10 -15 -2 0 -4 7 -4 15 0 8 4 15 10 15 5 0 7
-7 4 -15z m533 -52 c-3 -10 -5 -4 -5 12 0 17 2 24 5 18 2 -7 2 -21 0 -30z
m-623 11 c3 -9 6 -23 6 -32 0 -13 -6 -10 -25 10 -30 32 -31 38 -6 38 10 0 22
-7 25 -16z m183 -41 c-3 -10 -5 -4 -5 12 0 17 2 24 5 18 2 -7 2 -21 0 -30z
m223 -3 c0 -5 -4 -10 -10 -10 -5 0 -10 5 -10 10 0 6 5 10 10 10 6 0 10 -4 10
-10z m340 -150 c0 -11 -4 -20 -10 -20 -5 0 -10 9 -10 20 0 11 5 20 10 20 6 0
10 -9 10 -20z m34 -36 c20 -8 21 -34 1 -34 -8 0 -15 2 -15 4 0 2 -3 11 -6 20
-7 18 -4 19 20 10z m-934 -19 c0 -8 -3 -15 -6 -15 -3 0 -12 7 -20 15 -14 13
-13 15 5 15 12 0 21 -6 21 -15z m850 0 c0 -8 -4 -15 -9 -15 -5 0 -11 7 -15 15
-3 9 0 15 9 15 8 0 15 -7 15 -15z m365 -85 c-3 -5 -10 -10 -16 -10 -5 0 -9 5
-9 10 0 6 7 10 16 10 8 0 12 -4 9 -10z m-58 -52 c-3 -8 -6 -5 -6 6 -1 11 2 17
5 13 3 -3 4 -12 1 -19z m-1177 -48 c0 -11 -4 -20 -10 -20 -5 0 -10 2 -10 4 0
2 -3 11 -6 20 -4 11 -1 16 10 16 9 0 16 -8 16 -20z"/>
    <path d="M3298 5273 c7 -3 16 -2 19 1 4 3 -2 6 -13 5 -11 0 -14 -3 -6 -6z"/>
    <path d="M3250 5230 c0 -5 5 -10 10 -10 6 0 10 5 10 10 0 6 -4 10 -10 10 -5 0
-10 -4 -10 -10z"/>
    <path d="M3320 5158 c11 -12 20 -26 20 -32 0 -5 2 -7 5 -4 13 13 -8 58 -26 58
-19 0 -19 -1 1 -22z"/>
    <path d="M3240 5130 c0 -5 7 -7 15 -4 8 4 15 8 15 10 0 2 -7 4 -15 4 -8 0 -15
-4 -15 -10z"/>
    <path d="M3290 5065 c0 -18 4 -23 15 -19 8 4 15 15 15 25 0 10 -7 19 -15 19
-9 0 -15 -9 -15 -25z"/>
    <path d="M3140 5030 c0 -23 25 -27 33 -6 7 16 -1 26 -20 26 -7 0 -13 -9 -13
-20z"/>
    <path d="M4368 6043 c6 -2 18 -2 25 0 6 3 1 5 -13 5 -14 0 -19 -2 -12 -5z"/>
    <path d="M4550 6030 c0 -11 7 -20 15 -20 8 0 15 6 15 14 0 8 -7 16 -15 20 -10
4 -15 -1 -15 -14z"/>
    <path d="M5716 6035 c4 -8 10 -15 15 -15 5 0 9 7 9 15 0 8 -7 15 -15 15 -9 0
-12 -6 -9 -15z"/>
    <path d="M6654 6030 c0 -11 4 -20 8 -20 4 0 8 9 8 20 0 11 -4 20 -8 20 -4 0
-8 -9 -8 -20z"/>
    <path d="M6710 6031 c-7 -15 -7 -21 0 -21 12 0 25 28 17 36 -3 3 -10 -4 -17
-15z"/>
    <path d="M8478 6043 c7 -3 16 -2 19 1 4 3 -2 6 -13 5 -11 0 -14 -3 -6 -6z"/>
    <path d="M6552 6024 c-7 -8 -8 -14 -3 -14 5 0 18 -3 28 -6 11 -4 14 -3 7 3 -6
4 -13 13 -15 20 -3 8 -8 7 -17 -3z"/>
    <path d="M6761 6030 c-1 -17 17 -40 31 -40 4 0 8 5 8 10 0 6 -6 10 -14 10 -8
0 -17 8 -19 18 -4 13 -5 13 -6 2z"/>
    <path d="M2410 6000 c0 -5 5 -10 11 -10 5 0 7 5 4 10 -3 6 -8 10 -11 10 -2 0
-4 -4 -4 -10z"/>
    <path d="M2348 5993 c-22 -6 -23 -19 -2 -27 20 -8 34 1 34 20 0 14 -2 15 -32
7z"/>
    <path d="M5230 5955 c0 -19 5 -35 10 -35 6 0 10 -7 10 -15 0 -8 -4 -15 -8 -15
-17 0 -45 -67 -40 -93 4 -22 2 -27 -16 -27 -17 0 -21 -7 -22 -31 -1 -17 -5
-34 -10 -38 -13 -8 -44 -111 -44 -143 0 -14 -7 -28 -15 -32 -8 -3 -15 -16 -15
-28 0 -13 -11 -36 -25 -52 -18 -21 -25 -41 -25 -71 0 -22 -5 -46 -11 -52 -7
-7 -8 -22 -1 -47 6 -21 7 -36 1 -36 -5 0 -9 7 -9 15 0 18 -27 20 -33 3 -2 -7
1 -20 6 -29 8 -13 6 -21 -6 -34 -9 -9 -17 -25 -17 -36 0 -11 -7 -19 -16 -19
-13 0 -15 -7 -10 -30 3 -17 1 -30 -4 -30 -6 0 -10 -16 -10 -35 0 -22 -6 -38
-15 -41 -10 -4 -15 -20 -15 -49 0 -45 -19 -71 -45 -61 -8 3 -15 12 -15 20 0 8
-8 20 -17 26 -13 8 -14 13 -5 16 13 6 17 54 4 54 -12 0 -32 55 -36 95 -1 20
-7 40 -13 43 -19 13 -36 56 -35 90 1 20 -4 35 -13 38 -17 7 -35 64 -35 112 0
28 -5 36 -30 45 -21 8 -30 18 -30 33 0 12 -5 24 -12 26 -7 3 -11 19 -10 40 1
20 -2 39 -8 43 -5 3 -10 14 -10 23 -1 16 -14 30 -65 67 -17 12 -18 14 -3 15 9
0 20 -5 23 -10 15 -24 25 6 24 73 0 56 -2 67 -10 48 -5 -13 -7 -32 -4 -42 8
-25 -3 -24 -27 3 -11 13 -17 31 -14 42 6 23 -21 87 -42 99 -8 5 -11 18 -8 31
5 21 2 21 -69 20 -41 0 -75 3 -75 8 0 12 -27 10 -50 -4 -15 -10 -25 -10 -38
-2 -21 13 -57 2 -65 -21 -6 -15 11 -55 24 -55 11 0 22 -52 20 -88 -2 -25 4
-38 28 -59 32 -29 39 -49 19 -55 -17 -6 -2 -51 27 -81 22 -21 25 -31 20 -60
-6 -28 -3 -37 14 -49 15 -11 24 -33 31 -74 6 -35 17 -64 27 -71 10 -8 17 -29
19 -55 2 -57 0 -53 30 -85 18 -19 23 -34 19 -51 -6 -24 22 -102 37 -102 4 0 8
-16 8 -35 0 -43 28 -100 58 -116 17 -10 22 -19 18 -35 -3 -12 -3 -43 1 -69 5
-39 9 -46 24 -42 14 4 19 0 19 -14 0 -10 -4 -19 -10 -19 -19 0 -10 -39 10 -45
12 -4 23 -21 30 -48 19 -72 22 -82 32 -88 5 -3 10 -27 11 -52 2 -26 9 -53 15
-59 7 -7 12 -17 12 -24 0 -6 6 -14 14 -17 20 -8 56 3 56 17 0 6 5 4 10 -4 7
-11 24 -14 69 -12 56 3 61 2 75 -25 l16 -28 -6 38 c-7 39 8 51 30 22 7 -9 19
-12 33 -9 22 6 33 30 33 73 0 18 4 22 19 18 17 -4 20 3 26 59 3 35 4 68 0 74
-3 5 3 10 14 10 18 0 21 6 21 43 0 61 9 87 31 87 16 0 19 8 19 44 0 53 8 76
25 76 9 0 15 23 20 70 4 38 10 69 13 68 27 -3 31 7 34 69 3 62 4 66 20 50 9
-9 21 -17 27 -17 17 0 13 30 -4 36 -16 6 -21 44 -6 44 7 0 41 75 41 92 0 4
-12 19 -27 34 l-27 27 37 -7 c36 -7 37 -6 37 24 0 18 -5 30 -13 30 -8 0 -24 9
-37 20 -18 15 -19 20 -7 20 8 0 22 -6 30 -14 8 -8 22 -16 32 -18 15 -2 19 4
21 32 1 19 7 36 13 38 17 6 13 32 -4 32 -8 0 -15 7 -15 16 0 12 7 14 30 9 31
-7 39 2 19 22 -12 12 0 42 32 74 21 21 25 44 9 54 -18 11 -10 34 13 37 17 2
21 8 19 29 -2 15 4 44 12 64 19 45 20 87 4 103 -10 10 -6 11 19 6 29 -6 31 -4
26 15 -8 31 -36 43 -68 31 -20 -8 -35 -7 -56 4 -16 8 -29 10 -29 5 0 -6 -7
-18 -16 -27 -15 -14 -17 -14 -26 2 -8 14 -18 16 -54 10 -42 -6 -44 -5 -44 20
0 16 -5 26 -15 26 -10 0 -15 -11 -15 -35z m-890 -88 c0 -18 -2 -18 -23 6 -12
15 -29 27 -37 27 -13 0 -13 2 -1 9 20 13 61 -16 61 -42z m1090 43 c0 -5 -4
-10 -10 -10 -5 0 -10 5 -10 10 0 6 5 10 10 10 6 0 10 -4 10 -10z m-1183 -35
c1 -20 0 -23 -4 -7 -3 15 -12 22 -29 22 -13 0 -24 5 -24 11 0 6 12 9 28 7 22
-2 27 -8 29 -33z m182 -23 c-14 -5 -36 15 -42 39 -5 18 -2 17 23 -8 16 -15 24
-30 19 -31z m918 52 c-3 -3 -12 -4 -19 -1 -8 3 -5 6 6 6 11 1 17 -2 13 -5z
m-47 -29 c0 -8 -7 -15 -15 -15 -8 0 -15 7 -15 15 0 8 7 15 15 15 8 0 15 -7 15
-15z m80 -15 c0 -5 -5 -10 -11 -10 -5 0 -7 5 -4 10 3 6 8 10 11 10 2 0 4 -4 4
-10z m90 6 c0 -3 -4 -8 -10 -11 -5 -3 -10 -1 -10 4 0 6 5 11 10 11 6 0 10 -2
10 -4z m-120 -42 c0 -17 -22 -14 -28 4 -2 7 3 12 12 12 9 0 16 -7 16 -16z m86
-12 c6 -4 13 -15 17 -24 8 -23 -15 -14 -31 12 -12 20 -6 26 14 12z m-136 -22
c0 -5 -4 -10 -10 -10 -5 0 -10 5 -10 10 0 6 5 10 10 10 6 0 10 -4 10 -10z
m105 -20 c-3 -5 -12 -10 -20 -10 -8 0 -17 5 -20 10 -4 6 5 10 20 10 15 0 24
-4 20 -10z m-40 -50 c3 -5 1 -10 -4 -10 -6 0 -11 5 -11 10 0 6 2 10 4 10 3 0
8 -4 11 -10z m-1018 -42 c-3 -8 -6 -5 -6 6 -1 11 2 17 5 13 3 -3 4 -12 1 -19z
m122 -17 c13 -10 22 -24 19 -31 -3 -10 -9 -8 -24 7 -10 11 -28 25 -39 31 l-20
11 20 0 c11 1 31 -8 44 -18z m-172 -23 c-3 -8 -6 -5 -6 6 -1 11 2 17 5 13 3
-3 4 -12 1 -19z m108 2 c0 -18 -16 -22 -35 -10 -13 9 -13 11 0 20 19 12 35 8
35 -10z m1022 14 c-3 -3 -12 -4 -19 -1 -8 3 -5 6 6 6 11 1 17 -2 13 -5z m-74
-18 c4 -10 1 -13 -9 -9 -15 6 -19 23 -5 23 5 0 11 -7 14 -14z m47 -51 c0 -8
-7 -15 -15 -15 -8 0 -15 7 -15 15 0 8 7 15 15 15 8 0 15 -7 15 -15z m-143 -21
c-3 -3 -12 -4 -19 -1 -8 3 -5 6 6 6 11 1 17 -2 13 -5z m103 -9 c0 -8 -7 -15
-15 -15 -26 0 -18 20 13 29 1 1 2 -6 2 -14z m-151 -50 c0 -14 -2 -16 -6 -5 -4
8 -12 21 -20 28 -21 21 -15 34 7 15 11 -10 20 -27 19 -38z m-762 -2 c13 -19
12 -20 -10 -16 -14 3 -29 15 -35 28 -10 22 -9 23 10 16 12 -4 28 -17 35 -28z
m-87 -6 c-1 -21 -1 -21 -15 -3 -8 10 -12 23 -9 28 9 14 24 -2 24 -25z m177 16
c4 -10 11 -21 17 -25 20 -13 -1 -18 -26 -6 -15 7 -26 20 -25 30 2 23 26 23 34
1z m813 -33 c0 -5 -4 -10 -10 -10 -5 0 -10 5 -10 10 0 6 5 10 10 10 6 0 10 -4
10 -10z m-700 -96 c0 -14 -4 -23 -10 -19 -5 3 -10 15 -10 26 0 10 5 19 10 19
6 0 10 -12 10 -26z m-4 -101 c-11 -11 -17 4 -9 23 7 18 8 18 11 1 2 -10 1 -21
-2 -24z m44 -18 c0 -8 -2 -15 -4 -15 -2 0 -6 7 -10 15 -3 8 -1 15 4 15 6 0 10
-7 10 -15z m-260 -10 c0 -8 -4 -15 -10 -15 -5 0 -10 7 -10 15 0 8 5 15 10 15
6 0 10 -7 10 -15z m784 0 c3 -8 1 -15 -4 -15 -6 0 -10 7 -10 15 0 8 2 15 4 15
2 0 6 -7 10 -15z m-577 -47 c-3 -8 -6 -5 -6 6 -1 11 2 17 5 13 3 -3 4 -12 1
-19z m-157 2 c0 -5 -4 -10 -10 -10 -5 0 -10 5 -10 10 0 6 5 10 10 10 6 0 10
-4 10 -10z m27 -52 c-3 -8 -6 -5 -6 6 -1 11 2 17 5 13 3 -3 4 -12 1 -19z m180
0 c-3 -8 -6 -5 -6 6 -1 11 2 17 5 13 3 -3 4 -12 1 -19z m520 0 c-3 -8 -6 -5
-6 6 -1 11 2 17 5 13 3 -3 4 -12 1 -19z m-647 -43 c0 -8 -2 -15 -4 -15 -2 0
-6 7 -10 15 -3 8 -1 15 4 15 6 0 10 -7 10 -15z m77 -7 c-3 -8 -6 -5 -6 6 -1
11 2 17 5 13 3 -3 4 -12 1 -19z m-107 -124 c0 -2 -9 -4 -21 -4 -11 0 -18 4
-14 10 5 8 35 3 35 -6z m430 6 c0 -5 -4 -10 -10 -10 -5 0 -10 5 -10 10 0 6 5
10 10 10 6 0 10 -4 10 -10z m53 -24 c3 -8 -2 -16 -14 -19 -21 -6 -22 -5 -13
17 8 20 20 21 27 2z m-366 -28 c-3 -8 -6 -5 -6 6 -1 11 2 17 5 13 3 -3 4 -12
1 -19z m136 -27 c3 -15 1 -18 -12 -14 -17 6 -50 43 -51 56 0 16 58 -23 63 -42z
m382 39 c3 -6 -1 -7 -9 -4 -18 7 -21 14 -7 14 6 0 13 -4 16 -10z m-484 -43
c-8 -8 -11 -7 -11 4 0 20 13 34 18 19 3 -7 -1 -17 -7 -23z m279 8 c0 -8 -7
-15 -15 -15 -9 0 -12 6 -9 15 4 8 10 15 15 15 5 0 9 -7 9 -15z m80 -15 c0 -5
-2 -10 -4 -10 -3 0 -8 5 -11 10 -3 6 -1 10 4 10 6 0 11 -4 11 -10z m90 0 c0
-5 -2 -10 -4 -10 -3 0 -8 5 -11 10 -3 6 -1 10 4 10 6 0 11 -4 11 -10z m-493
-32 c-3 -8 -6 -5 -6 6 -1 11 2 17 5 13 3 -3 4 -12 1 -19z m273 1 c0 -5 -7 -9
-15 -9 -8 0 -15 7 -15 15 0 9 6 12 15 9 8 -4 15 -10 15 -15z m-60 -42 c0 -5
-7 -1 -16 7 -8 9 -20 16 -25 16 -5 0 -4 6 3 14 11 12 15 11 25 -8 7 -11 12
-25 13 -29z m105 -9 c6 -4 2 -8 -7 -8 -10 0 -18 7 -18 17 0 9 3 12 8 7 4 -5
12 -12 17 -16z m-135 -43 c0 -8 -4 -15 -10 -15 -5 0 -10 7 -10 15 0 8 5 15 10
15 6 0 10 -7 10 -15z m90 5 c0 -5 -4 -10 -10 -10 -5 0 -10 5 -10 10 0 6 5 10
10 10 6 0 10 -4 10 -10z m95 -19 c-6 -5 -25 10 -25 20 0 5 6 4 14 -3 8 -7 12
-15 11 -17z m-312 -30 c3 -14 1 -18 -9 -14 -15 6 -18 16 -7 26 9 10 10 9 16
-12z m87 4 c0 -8 -7 -15 -15 -15 -26 0 -18 20 13 29 1 1 2 -6 2 -14z m94 -10
c4 -10 -1 -15 -14 -15 -11 0 -20 7 -20 15 0 8 6 15 14 15 8 0 16 -7 20 -15z
m-224 -22 c0 -14 -19 -38 -25 -32 -8 8 5 39 16 39 5 0 9 -3 9 -7z m170 -18 c0
-8 -4 -15 -10 -15 -5 0 -10 7 -10 15 0 8 5 15 10 15 6 0 10 -7 10 -15z m47
-121 c-3 -3 -12 -4 -19 -1 -8 3 -5 6 6 6 11 1 17 -2 13 -5z m173 -4 c0 -5 -5
-10 -11 -10 -5 0 -7 5 -4 10 3 6 8 10 11 10 2 0 4 -4 4 -10z m-35 -58 c-3 -3
-11 0 -18 7 -9 10 -8 11 6 5 10 -3 15 -9 12 -12z"/>
    <path d="M5300 5980 c0 -5 -7 -10 -15 -10 -8 0 -15 -4 -15 -8 0 -5 14 -7 30
-4 30 4 43 32 15 32 -8 0 -15 -4 -15 -10z"/>
    <path d="M3480 5941 c0 -10 9 -21 20 -24 21 -5 24 1 14 27 -9 22 -34 20 -34
-3z"/>
    <path d="M8490 5941 c0 -10 7 -21 15 -25 16 -6 19 3 9 28 -8 22 -24 20 -24 -3z"/>
    <path d="M2400 5931 c0 -11 5 -23 10 -26 6 -4 10 5 10 19 0 14 -4 26 -10 26
-5 0 -10 -9 -10 -19z"/>
    <path d="M2501 5924 c0 -11 3 -14 6 -6 3 7 2 16 -1 19 -3 4 -6 -2 -5 -13z"/>
    <path d="M6126 5925 c-9 -23 -8 -25 9 -25 17 0 19 9 6 28 -7 11 -10 10 -15 -3z"/>
    <path d="M6235 5919 c-4 -11 -4 -23 -1 -26 3 -4 6 -1 6 6 0 7 5 9 11 6 18 -11
79 5 79 20 0 11 -12 15 -44 15 -36 0 -46 -4 -51 -21z"/>
    <path d="M3530 5885 c0 -8 7 -15 15 -15 8 0 15 7 15 15 0 8 -7 15 -15 15 -8 0
-15 -7 -15 -15z"/>
    <path d="M4578 5893 c-10 -2 -18 -11 -18 -19 0 -21 18 -17 30 6 6 11 9 19 8
19 -2 -1 -11 -3 -20 -6z"/>
    <path d="M8540 5885 c0 -8 5 -15 10 -15 6 0 10 7 10 15 0 8 -4 15 -10 15 -5 0
-10 -7 -10 -15z"/>
    <path d="M6170 5865 c1 -21 28 -45 50 -45 16 0 20 -4 16 -16 -3 -9 -6 -24 -6
-34 0 -10 -8 -20 -17 -23 -12 -3 -2 -11 32 -27 28 -12 52 -27 53 -31 6 -16 20
-10 25 11 3 11 12 20 21 20 21 0 21 26 0 34 -9 3 -33 6 -55 6 -21 0 -39 5 -39
10 0 6 18 10 40 10 29 0 40 4 40 15 0 8 -6 15 -14 15 -25 0 -30 22 -10 38 17
13 12 14 -48 9 -41 -3 -71 0 -77 6 -6 6 -11 7 -11 2z"/>
    <path d="M6340 5850 c0 -5 5 -10 10 -10 6 0 10 5 10 10 0 6 -4 10 -10 10 -5 0
-10 -4 -10 -10z"/>
    <path d="M4746 5824 c-9 -22 -8 -23 14 -17 11 3 20 12 20 19 0 19 -26 18 -34
-2z"/>
    <path d="M6080 5827 c0 -19 10 -27 26 -20 21 8 17 33 -6 33 -11 0 -20 -6 -20
-13z"/>
    <path d="M2488 5813 c7 -3 16 -2 19 1 4 3 -2 6 -13 5 -11 0 -14 -3 -6 -6z"/>
    <path d="M6360 5809 c0 -5 5 -7 10 -4 6 3 10 8 10 11 0 2 -4 4 -10 4 -5 0 -10
-5 -10 -11z"/>
    <path d="M6650 5795 c0 -8 2 -15 4 -15 2 0 6 7 10 15 3 8 1 15 -4 15 -6 0 -10
-7 -10 -15z"/>
    <path d="M6421 5734 c0 -11 3 -14 6 -6 3 7 2 16 -1 19 -3 4 -6 -2 -5 -13z"/>
    <path d="M6552 5735 c-11 -13 -9 -15 8 -15 11 0 20 7 20 15 0 19 -11 19 -28 0z"/>
    <path d="M6390 5715 c0 -8 7 -15 15 -15 9 0 12 6 9 15 -4 8 -10 15 -15 15 -5
0 -9 -7 -9 -15z"/>
    <path d="M6461 5714 c0 -11 3 -14 6 -6 3 7 2 16 -1 19 -3 4 -6 -2 -5 -13z"/>
    <path d="M6488 5723 c6 -2 18 -2 25 0 6 3 1 5 -13 5 -14 0 -19 -2 -12 -5z"/>
    <path d="M6336 5696 c7 -19 38 -22 32 -3 -3 6 -12 13 -21 15 -12 2 -15 -1 -11
-12z"/>
    <path d="M2420 5685 c0 -8 7 -15 15 -15 8 0 15 7 15 15 0 8 -7 15 -15 15 -8 0
-15 -7 -15 -15z"/>
    <path d="M4190 5684 c0 -8 5 -12 10 -9 6 3 10 10 10 16 0 5 -4 9 -10 9 -5 0
-10 -7 -10 -16z"/>
    <path d="M4700 5686 c0 -8 -7 -16 -15 -20 -8 -3 -15 -12 -15 -21 0 -8 7 -15
15 -15 8 0 15 9 15 20 0 13 7 20 20 20 11 0 20 7 20 15 0 8 -9 15 -20 15 -11
0 -20 -6 -20 -14z"/>
    <path d="M4895 5676 c-12 -13 -27 -21 -38 -18 -13 3 -16 0 -11 -12 3 -9 13
-16 21 -16 18 0 53 37 53 57 0 17 -2 17 -25 -11z"/>
    <path d="M6236 5685 c-3 -8 -1 -15 4 -15 6 0 10 7 10 15 0 8 -2 15 -4 15 -2 0
-6 -7 -10 -15z"/>
    <path d="M6452 5665 c-11 -12 -10 -15 3 -15 8 0 15 -4 15 -10 0 -5 5 -10 11
-10 13 0 8 42 -6 46 -5 2 -16 -3 -23 -11z"/>
    <path d="M4750 5650 c0 -11 6 -20 14 -20 20 0 28 27 10 34 -23 9 -24 8 -24
-14z"/>
    <path d="M6514 5654 c3 -9 6 -18 6 -20 0 -2 5 -4 10 -4 6 0 10 9 10 20 0 12
-7 20 -16 20 -11 0 -14 -5 -10 -16z"/>
    <path d="M6650 5651 c0 -12 6 -21 15 -21 8 0 15 3 15 6 0 3 -7 12 -15 20 -13
14 -15 13 -15 -5z"/>
    <path d="M4932 5640 c0 -14 2 -19 5 -12 2 6 2 18 0 25 -3 6 -5 1 -5 -13z"/>
    <path d="M6370 5645 c0 -8 2 -15 4 -15 2 0 6 7 10 15 3 8 1 15 -4 15 -6 0 -10
-7 -10 -15z"/>
    <path d="M6561 5634 c0 -11 3 -14 6 -6 3 7 2 16 -1 19 -3 4 -6 -2 -5 -13z"/>
    <path d="M7204 5599 c-4 -7 2 -19 13 -28 11 -9 23 -25 27 -35 3 -10 9 -17 12
-14 6 7 -28 88 -38 88 -4 0 -10 -5 -14 -11z"/>
    <path d="M1927 5560 c3 -11 7 -20 9 -20 2 0 4 9 4 20 0 11 -4 20 -9 20 -5 0
-7 -9 -4 -20z"/>
    <path d="M2830 5561 c0 -25 6 -27 13 -6 4 8 2 17 -3 20 -6 4 -10 -3 -10 -14z"/>
    <path d="M3680 5570 c0 -5 7 -10 15 -10 8 0 15 5 15 10 0 6 -7 10 -15 10 -8 0
-15 -4 -15 -10z"/>
    <path d="M7830 5558 c0 -12 3 -17 8 -12 4 5 11 12 15 15 5 3 2 9 -7 12 -12 5
-16 0 -16 -15z"/>
    <path d="M8690 5570 c0 -5 10 -10 23 -10 18 0 19 2 7 10 -19 13 -30 13 -30 0z"/>
    <path d="M1536 5555 c4 -8 10 -15 15 -15 5 0 9 7 9 15 0 8 -7 15 -15 15 -9 0
-12 -6 -9 -15z"/>
    <path d="M1623 5563 c-24 -9 -13 -23 17 -23 20 0 30 5 30 15 0 15 -22 19 -47
8z"/>
    <path d="M1730 5555 c0 -8 2 -15 4 -15 2 0 6 7 10 15 3 8 1 15 -4 15 -6 0 -10
-7 -10 -15z"/>
    <path d="M2131 5544 c0 -11 3 -14 6 -6 3 7 2 16 -1 19 -3 4 -6 -2 -5 -13z"/>
    <path d="M4192 5510 c0 -14 2 -19 5 -12 2 6 2 18 0 25 -3 6 -5 1 -5 -13z"/>
    <path d="M4630 5520 c0 -5 5 -10 11 -10 5 0 7 5 4 10 -3 6 -8 10 -11 10 -2 0
-4 -4 -4 -10z"/>
    <path d="M7165 5520 c3 -5 10 -10 16 -10 5 0 9 5 9 10 0 6 -7 10 -16 10 -8 0
-12 -4 -9 -10z"/>
    <path d="M4741 5513 c-2 -21 11 -43 25 -43 8 0 14 5 14 10 0 6 -6 10 -14 10
-8 0 -17 8 -19 18 -3 9 -5 12 -6 5z"/>
    <path d="M1700 5495 c0 -8 5 -15 10 -15 6 0 10 -10 11 -22 0 -13 3 -17 6 -10
7 18 -5 62 -17 62 -6 0 -10 -7 -10 -15z"/>
    <path d="M4250 5479 c0 -5 5 -7 10 -4 6 3 10 8 10 11 0 2 -4 4 -10 4 -5 0 -10
-5 -10 -11z"/>
    <path d="M4670 5480 c0 -5 5 -10 11 -10 5 0 7 5 4 10 -3 6 -8 10 -11 10 -2 0
-4 -4 -4 -10z"/>
    <path d="M4848 5483 c7 -3 16 -2 19 1 4 3 -2 6 -13 5 -11 0 -14 -3 -6 -6z"/>
    <path d="M7208 5483 c7 -3 16 -2 19 1 4 3 -2 6 -13 5 -11 0 -14 -3 -6 -6z"/>
    <path d="M2020 5455 c0 -8 2 -15 4 -15 2 0 6 7 10 15 3 8 1 15 -4 15 -6 0 -10
-7 -10 -15z"/>
    <path d="M4902 5444 c-7 -8 -9 -14 -4 -14 5 0 15 -12 22 -27 10 -22 14 -24 17
-11 2 9 -2 28 -9 41 -11 21 -15 23 -26 11z"/>
    <path d="M6670 5430 c0 -5 7 -7 15 -4 8 4 15 8 15 10 0 2 -7 4 -15 4 -8 0 -15
-4 -15 -10z"/>
    <path d="M1780 5405 c0 -8 5 -15 10 -15 6 0 10 7 10 15 0 8 -4 15 -10 15 -5 0
-10 -7 -10 -15z"/>
    <path d="M2280 5395 c0 -8 5 -15 10 -15 6 0 10 7 10 15 0 8 -4 15 -10 15 -5 0
-10 -7 -10 -15z"/>
    <path d="M4150 5396 c0 -8 10 -22 23 -31 15 -12 18 -19 10 -22 -19 -7 -17 -73
2 -73 9 0 15 9 15 25 0 14 5 25 10 25 6 0 10 -4 10 -10 0 -5 7 -10 15 -10 24
0 18 19 -10 32 -14 6 -25 17 -25 23 0 13 -33 55 -44 55 -3 0 -6 -6 -6 -14z"/>
    <path d="M2700 5375 c0 -11 7 -15 23 -13 12 2 22 8 22 13 0 6 -10 11 -22 13
-16 2 -23 -2 -23 -13z"/>
    <path d="M4240 5379 c0 -5 5 -7 10 -4 6 3 10 8 10 11 0 2 -4 4 -10 4 -5 0 -10
-5 -10 -11z"/>
    <path d="M7700 5375 c0 -11 7 -15 23 -13 12 2 22 8 22 13 0 6 -10 11 -22 13
-16 2 -23 -2 -23 -13z"/>
    <path d="M2645 5344 c9 -48 10 -50 30 -30 9 9 12 16 6 16 -5 0 -11 10 -13 22
-2 12 -9 23 -17 26 -11 4 -12 -3 -6 -34z"/>
    <path d="M7220 5370 c19 -13 30 -13 30 0 0 6 -10 10 -22 10 -19 0 -20 -2 -8
-10z"/>
    <path d="M7644 5350 c3 -18 6 -36 6 -41 0 -14 27 -11 32 4 8 22 -8 62 -26 65
-16 4 -18 0 -12 -28z"/>
    <path d="M4295 5330 c-3 -5 -1 -10 4 -10 6 0 11 5 11 10 0 6 -2 10 -4 10 -3 0
-8 -4 -11 -10z"/>
    <path d="M6575 5330 c3 -5 8 -10 11 -10 2 0 4 5 4 10 0 6 -5 10 -11 10 -5 0
-7 -4 -4 -10z"/>
    <path d="M6678 5333 c7 -3 16 -2 19 1 4 3 -2 6 -13 5 -11 0 -14 -3 -6 -6z"/>
    <path d="M2597 5323 c-12 -11 -8 -23 8 -23 8 0 15 7 15 15 0 16 -12 20 -23 8z"/>
    <path d="M2701 5318 c-1 -26 10 -48 25 -48 8 0 14 5 14 10 0 6 -5 10 -10 10
-6 0 -15 10 -20 23 -6 15 -9 17 -9 5z"/>
    <path d="M7597 5323 c-13 -12 -7 -23 13 -23 11 0 20 7 20 15 0 15 -21 21 -33
8z"/>
    <path d="M7700 5314 c0 -16 28 -50 35 -42 7 6 -18 58 -27 58 -5 0 -8 -7 -8
-16z"/>
    <path d="M2250 5289 c0 -5 5 -7 10 -4 6 3 10 8 10 11 0 2 -4 4 -10 4 -5 0 -10
-5 -10 -11z"/>
    <path d="M4330 5290 c0 -5 5 -10 11 -10 5 0 7 5 4 10 -3 6 -8 10 -11 10 -2 0
-4 -4 -4 -10z"/>
    <path d="M2620 5270 c0 -23 25 -27 33 -6 7 16 -1 26 -20 26 -7 0 -13 -9 -13
-20z"/>
    <path d="M7630 5270 c0 -24 6 -25 25 -6 12 12 12 15 -1 20 -23 9 -24 8 -24
-14z"/>
    <path d="M6670 5240 c0 -6 7 -10 15 -10 8 0 15 2 15 4 0 2 -7 6 -15 10 -8 3
-15 1 -15 -4z"/>
    <path d="M2660 5230 c0 -5 9 -10 20 -10 11 0 20 5 20 10 0 6 -9 10 -20 10 -11
0 -20 -4 -20 -10z"/>
    <path d="M7670 5230 c0 -5 7 -10 15 -10 8 0 15 5 15 10 0 6 -7 10 -15 10 -8 0
-15 -4 -15 -10z"/>
    <path d="M5380 5205 c0 -14 5 -25 10 -25 6 0 10 11 10 25 0 14 -4 25 -10 25
-5 0 -10 -11 -10 -25z"/>
    <path d="M4240 5211 c0 -6 5 -13 10 -16 6 -3 10 1 10 9 0 9 -4 16 -10 16 -5 0
-10 -4 -10 -9z"/>
    <path d="M7207 5199 c-8 -29 0 -44 29 -58 35 -16 44 -14 44 9 0 11 -4 20 -8
20 -5 0 -15 11 -22 25 -16 30 -36 32 -43 4z"/>
    <path d="M2618 5178 c9 -9 15 -9 24 0 9 9 7 12 -12 12 -19 0 -21 -3 -12 -12z"/>
    <path d="M2710 5180 c0 -5 7 -10 15 -10 8 0 15 5 15 10 0 6 -7 10 -15 10 -8 0
-15 -4 -15 -10z"/>
    <path d="M4870 5180 c0 -13 11 -13 30 0 12 8 11 10 -7 10 -13 0 -23 -4 -23
-10z"/>
    <path d="M7625 5180 c4 -6 11 -8 16 -5 14 9 11 15 -7 15 -8 0 -12 -5 -9 -10z"/>
    <path d="M7720 5180 c0 -5 5 -10 10 -10 6 0 10 5 10 10 0 6 -4 10 -10 10 -5 0
-10 -4 -10 -10z"/>
    <path d="M2520 5166 c0 -11 9 -16 26 -16 31 0 28 23 -4 28 -15 2 -22 -2 -22
-12z"/>
    <path d="M5338 5173 c7 -3 16 -2 19 1 4 3 -2 6 -13 5 -11 0 -14 -3 -6 -6z"/>
    <path d="M7530 5166 c0 -11 9 -16 26 -16 31 0 28 23 -4 28 -15 2 -22 -2 -22
-12z"/>
    <path d="M7160 5161 c0 -5 -3 -17 -7 -26 -5 -14 -2 -16 18 -10 31 10 31 9 23
29 -6 17 -34 23 -34 7z"/>
    <path d="M2566 5142 c-6 -10 33 -46 41 -38 3 2 2 14 -2 25 -6 21 -29 28 -39
13z"/>
    <path d="M7577 5144 c-9 -9 16 -44 30 -44 17 0 16 18 -1 36 -16 16 -20 17 -29
8z"/>
    <path d="M2241 5124 c-16 -19 -13 -22 28 -30 l33 -7 -23 27 c-12 14 -23 26
-23 26 -1 -1 -7 -8 -15 -16z"/>
    <path d="M2670 5130 c0 -5 5 -10 10 -10 6 0 10 5 10 10 0 6 -4 10 -10 10 -5 0
-10 -4 -10 -10z"/>
    <path d="M6565 5130 c3 -5 8 -10 11 -10 2 0 4 5 4 10 0 6 -5 10 -11 10 -5 0
-7 -4 -4 -10z"/>
    <path d="M2520 5110 c0 -11 6 -20 14 -20 8 0 17 -8 19 -17 4 -17 5 -17 6 0 1
23 -16 57 -29 57 -6 0 -10 -9 -10 -20z"/>
    <path d="M7530 5112 c0 -12 5 -22 10 -22 6 0 10 -7 10 -15 0 -8 5 -15 10 -15
17 0 11 30 -10 52 l-20 22 0 -22z"/>
    <path d="M4170 5105 c0 -8 5 -15 10 -15 6 0 10 7 10 15 0 8 -4 15 -10 15 -5 0
-10 -7 -10 -15z"/>
    <path d="M2312 5080 c0 -14 2 -19 5 -12 2 6 2 18 0 25 -3 6 -5 1 -5 -13z"/>
    <path d="M2633 5093 c-15 -6 -17 -43 -3 -43 12 0 24 25 18 38 -1 5 -9 7 -15 5z"/>
    <path d="M7205 5090 c3 -5 10 -10 16 -10 5 0 9 5 9 10 0 6 -7 10 -16 10 -8 0
-12 -4 -9 -10z"/>
    <path d="M7638 5094 c-5 -4 -8 -16 -8 -28 0 -14 3 -17 11 -9 6 6 9 19 7 28 -1
9 -6 13 -10 9z"/>
    <path d="M2330 5070 c0 -5 5 -10 10 -10 6 0 10 5 10 10 0 6 -4 10 -10 10 -5 0
-10 -4 -10 -10z"/>
    <path d="M2140 5050 c0 -5 4 -10 9 -10 6 0 13 5 16 10 3 6 -1 10 -9 10 -9 0
-16 -4 -16 -10z"/>
    <path d="M5330 5056 c0 -2 7 -6 15 -10 8 -3 15 -1 15 4 0 6 -7 10 -15 10 -8 0
-15 -2 -15 -4z"/>
    <path d="M4410 5040 c0 -5 7 -10 15 -10 8 0 15 5 15 10 0 6 -7 10 -15 10 -8 0
-15 -4 -15 -10z"/>
    <path d="M5270 5043 c0 -5 4 -14 9 -22 8 -12 12 -12 25 2 22 22 20 27 -9 27
-14 0 -25 -3 -25 -7z"/>
    <path d="M2362 5010 c0 -14 2 -19 5 -12 2 6 2 18 0 25 -3 6 -5 1 -5 -13z"/>
    <path d="M1640 4979 c0 -6 13 -23 28 -38 39 -35 56 -18 21 21 -28 29 -49 36
-49 17z"/>
    <path d="M2026 4981 c-4 -7 -5 -15 -2 -18 9 -9 19 4 14 18 -4 11 -6 11 -12 0z"/>
    <path d="M5276 4964 c-4 -11 0 -15 16 -12 12 2 23 9 26 16 6 18 -35 15 -42 -4z"/>
    <path d="M5370 4965 c0 -8 7 -15 15 -15 8 0 15 7 15 15 0 8 -7 15 -15 15 -8 0
-15 -7 -15 -15z"/>
    <path d="M2136 4945 c6 -16 54 -21 54 -6 0 5 -10 11 -22 15 -34 9 -38 7 -32
-9z"/>
    <path d="M1490 4925 c0 -8 2 -15 4 -15 2 0 6 7 10 15 3 8 1 15 -4 15 -6 0 -10
-7 -10 -15z"/>
    <path d="M1590 4926 c0 -18 26 -39 39 -32 5 3 7 15 4 26 -6 22 -43 28 -43 6z"/>
    <path d="M1780 4925 c0 -8 5 -15 10 -15 6 0 10 7 10 15 0 8 -4 15 -10 15 -5 0
-10 -7 -10 -15z"/>
    <path d="M4360 4916 c0 -8 7 -16 15 -20 17 -6 18 -4 9 18 -8 20 -24 21 -24 2z"/>
    <path d="M1534 4898 c-10 -16 4 -22 28 -11 l22 10 -22 5 c-12 4 -25 2 -28 -4z"/>
    <path d="M1813 4903 c-15 -5 22 -43 42 -43 25 0 18 37 -8 42 -12 2 -28 3 -34
1z"/>
    <path d="M6142 4902 c-18 -12 23 -52 54 -52 l25 0 -21 22 c-11 12 -20 25 -20
30 0 10 -21 10 -38 0z"/>
    <path d="M1648 4894 c-11 -10 3 -34 19 -34 8 0 13 7 11 17 -3 18 -20 27 -30
17z"/>
    <path d="M1727 4880 c6 -24 10 -25 28 -6 12 12 12 15 -1 20 -26 10 -32 7 -27
-14z"/>
    <path d="M1920 4890 c0 -15 38 -50 55 -50 12 0 11 5 -3 30 -16 28 -52 42 -52
20z"/>
    <path d="M2100 4890 c-13 -8 -12 -10 3 -10 9 0 17 5 17 10 0 12 -1 12 -20 0z"/>
    <path d="M7183 4893 c-26 -5 -31 -37 -10 -50 8 -4 16 -16 20 -25 8 -22 55 -24
63 -3 4 8 3 23 -2 33 -7 15 -8 14 -11 -6 -4 -19 -6 -20 -19 -8 -17 18 -18 53
-1 59 15 7 -8 6 -40 0z"/>
    <path d="M2016 4875 c4 -8 7 -15 9 -15 2 0 5 7 9 15 3 9 0 15 -9 15 -9 0 -12
-6 -9 -15z"/>
    <path d="M6270 4860 c0 -11 7 -20 15 -20 17 0 18 2 9 24 -9 23 -24 20 -24 -4z"/>
    <path d="M3825 4837 c3 -12 1 -29 -5 -37 -8 -13 -11 -13 -19 -1 -11 17 -41 7
-41 -14 0 -8 9 -15 19 -15 17 0 31 -18 31 -41 0 -5 -8 -9 -19 -9 -14 0 -17 -6
-13 -25 5 -30 18 -32 25 -4 8 29 51 22 55 -9 2 -13 14 -27 28 -32 13 -5 24
-14 24 -19 0 -5 14 -14 30 -21 17 -7 30 -16 30 -20 0 -19 34 -40 63 -39 22 1
25 3 12 6 -23 6 -79 60 -88 86 -6 16 -2 17 28 11 23 -4 35 -2 35 5 0 6 -9 11
-20 11 -12 0 -20 7 -20 18 0 9 -6 29 -14 44 -12 23 -12 27 0 32 19 7 18 56 0
56 -8 0 -21 -7 -30 -15 -8 -8 -17 -15 -20 -15 -3 0 -3 7 0 15 5 11 -1 15 -25
15 -20 0 -31 5 -31 14 0 7 -9 16 -20 19 -16 4 -19 1 -15 -16z m85 -104 c0 -10
-4 -14 -8 -8 -4 6 -11 13 -16 18 -5 4 -2 7 7 7 10 0 17 -8 17 -17z"/>
    <path d="M1601 4833 c-1 -16 5 -23 17 -23 10 0 13 3 6 8 -6 4 -14 14 -17 22
-4 10 -6 8 -6 -7z"/>
    <path d="M1686 4843 c-13 -14 -5 -33 14 -33 11 0 20 6 20 14 0 15 -24 28 -34
19z"/>
    <path d="M1886 4841 c-4 -7 -5 -15 -2 -18 9 -9 19 4 14 18 -4 11 -6 11 -12 0z"/>
    <path d="M2570 4835 c0 -8 4 -15 9 -15 5 0 11 7 15 15 3 9 0 15 -9 15 -8 0
-15 -7 -15 -15z"/>
    <path d="M7580 4835 c0 -8 2 -15 4 -15 2 0 6 7 10 15 3 8 1 15 -4 15 -6 0 -10
-7 -10 -15z"/>
    <path d="M1786 4823 c-6 -14 -5 -15 5 -6 7 7 10 15 7 18 -3 3 -9 -2 -12 -12z"/>
    <path d="M6100 4825 c0 -8 4 -15 8 -15 5 0 17 -8 28 -18 10 -9 32 -26 48 -36
28 -18 30 -18 43 0 7 10 13 21 13 26 0 4 7 8 15 8 8 0 15 -9 15 -20 0 -19 11
-26 23 -14 3 3 1 19 -5 35 -9 25 -15 29 -49 29 -28 0 -39 -4 -39 -15 0 -8 5
-15 10 -15 6 0 10 -4 10 -10 0 -5 -9 -10 -20 -10 -16 0 -20 7 -20 35 0 34 -1
35 -40 35 -29 0 -40 -4 -40 -15z"/>
    <path d="M5260 4800 c0 -12 40 -53 46 -47 2 2 2 11 -1 18 -7 18 -45 43 -45 29z"/>
    <path d="M1540 4775 c0 -23 2 -24 20 -13 24 15 25 24 4 32 -23 9 -24 8 -24
-19z"/>
    <path d="M1920 4785 c0 -8 5 -15 10 -15 6 0 10 7 10 15 0 8 -4 15 -10 15 -5 0
-10 -7 -10 -15z"/>
    <path d="M7260 4760 c0 -22 5 -40 10 -40 6 0 10 18 10 40 0 22 -4 40 -10 40
-5 0 -10 -18 -10 -40z"/>
    <path d="M1637 4778 c-2 -7 5 -18 17 -25 12 -7 15 -12 9 -13 -7 0 -13 -7 -13
-16 0 -24 35 -12 38 14 5 35 -40 70 -51 40z"/>
    <path d="M1726 4774 c-8 -20 0 -32 14 -18 5 5 5 15 1 22 -6 11 -10 10 -15 -4z"/>
    <path d="M1585 4760 c-9 -14 22 -60 38 -59 9 0 9 2 0 6 -7 2 -13 18 -13 34 0
29 -13 38 -25 19z"/>
    <path d="M1830 4759 c0 -5 5 -7 10 -4 6 3 10 8 10 11 0 2 -4 4 -10 4 -5 0 -10
-5 -10 -11z"/>
    <path d="M4040 4761 c0 -5 -8 -12 -17 -14 -17 -4 -17 -5 0 -6 10 0 15 -5 12
-11 -3 -5 0 -10 7 -10 22 0 48 -38 48 -70 0 -17 -4 -30 -9 -30 -12 0 -21 -27
-15 -44 3 -8 20 -18 37 -22 18 -3 35 -11 39 -17 11 -18 16 -4 11 31 -4 24 -10
32 -27 32 -20 1 -20 2 -3 14 19 14 23 36 7 36 -5 0 -10 16 -10 35 0 19 -4 35
-9 35 -5 0 -11 10 -13 23 -2 16 -11 23 -30 25 -16 2 -28 -1 -28 -7z"/>
    <path d="M2380 4754 c0 -4 18 -24 40 -46 22 -22 40 -35 40 -29 0 7 -15 28 -34
46 -32 33 -46 42 -46 29z"/>
    <path d="M7390 4752 c0 -6 16 -27 35 -46 19 -20 35 -30 35 -23 -1 22 -70 90
-70 69z"/>
    <path d="M7190 4723 c0 -12 5 -25 10 -28 13 -8 13 15 0 35 -8 12 -10 11 -10
-7z"/>
    <path d="M6330 4700 c0 -5 7 -7 15 -4 8 4 15 8 15 10 0 2 -7 4 -15 4 -8 0 -15
-4 -15 -10z"/>
    <path d="M2478 4653 c7 -3 16 -2 19 1 4 3 -2 6 -13 5 -11 0 -14 -3 -6 -6z"/>
    <path d="M4550 4640 c0 -11 7 -20 15 -20 8 0 15 6 15 14 0 8 -7 16 -15 20 -10
4 -15 -1 -15 -14z"/>
    <path d="M6380 4650 c0 -5 7 -7 15 -4 8 4 15 8 15 10 0 2 -7 4 -15 4 -8 0 -15
-4 -15 -10z"/>
    <path d="M3080 4635 c0 -8 5 -15 10 -15 6 0 10 7 10 15 0 8 -4 15 -10 15 -5 0
-10 -7 -10 -15z"/>
    <path d="M8080 4635 c0 -8 7 -15 15 -15 8 0 15 4 15 9 0 5 -7 11 -15 15 -9 3
-15 0 -15 -9z"/>
    <path d="M2420 4600 c0 -23 25 -27 33 -6 7 16 -1 26 -20 26 -7 0 -13 -9 -13
-20z"/>
    <path d="M6330 4610 c0 -5 7 -10 15 -10 8 0 15 5 15 10 0 6 -7 10 -15 10 -8 0
-15 -4 -15 -10z"/>
    <path d="M6430 4610 c0 -5 7 -10 15 -10 8 0 15 5 15 10 0 6 -7 10 -15 10 -8 0
-15 -4 -15 -10z"/>
    <path d="M7430 4600 c0 -11 4 -20 9 -20 11 0 22 26 14 34 -12 12 -23 5 -23
-14z"/>
    <path d="M1610 4590 c0 -5 5 -10 10 -10 6 0 10 5 10 10 0 6 -4 10 -10 10 -5 0
-10 -4 -10 -10z"/>
    <path d="M2400 4553 c0 -13 5 -23 10 -23 13 0 13 11 0 30 -8 12 -10 11 -10 -7z"/>
    <path d="M4180 4560 c-13 -8 -12 -10 3 -10 9 0 17 5 17 10 0 12 -1 12 -20 0z"/>
    <path d="M6377 4550 c3 -11 7 -20 9 -20 2 0 4 9 4 20 0 11 -4 20 -9 20 -5 0
-7 -9 -4 -20z"/>
    <path d="M6477 4563 c-11 -10 -8 -33 3 -33 6 0 10 6 10 14 0 8 6 17 13 19 8 4
6 6 -4 6 -9 1 -19 -2 -22 -6z"/>
    <path d="M7400 4551 c0 -12 6 -21 15 -21 8 0 15 3 15 6 0 3 -7 12 -15 20 -13
14 -15 13 -15 -5z"/>
    <path d="M2958 4553 c6 -2 18 -2 25 0 6 3 1 5 -13 5 -14 0 -19 -2 -12 -5z"/>
    <path d="M1600 4515 c0 -8 7 -15 15 -15 8 0 15 4 15 9 0 5 -7 11 -15 15 -9 3
-15 0 -15 -9z"/>
    <path d="M3965 4520 c-7 -11 12 -50 25 -50 15 0 22 19 15 40 -7 21 -30 27 -40
10z"/>
    <path d="M2425 4510 c3 -5 10 -10 16 -10 5 0 9 5 9 10 0 6 -7 10 -16 10 -8 0
-12 -4 -9 -10z"/>
    <path d="M4053 4504 c-8 -22 4 -29 21 -11 14 13 14 16 0 21 -8 3 -17 -1 -21
-10z"/>
    <path d="M6430 4510 c0 -5 7 -10 15 -10 8 0 15 5 15 10 0 6 -7 10 -15 10 -8 0
-15 -4 -15 -10z"/>
    <path d="M7435 4510 c3 -5 8 -10 11 -10 2 0 4 5 4 10 0 6 -5 10 -11 10 -5 0
-7 -4 -4 -10z"/>
    <path d="M1540 4487 c0 -6 14 -26 32 -42 l31 -30 -6 34 c-4 18 -7 37 -7 42 0
5 -11 9 -25 9 -14 0 -25 -6 -25 -13z"/>
    <path d="M4161 4484 c0 -11 3 -14 6 -6 3 7 2 16 -1 19 -3 4 -6 -2 -5 -13z"/>
    <path d="M6376 4484 c-10 -26 -7 -34 14 -34 23 0 26 15 6 35 -12 12 -15 12
-20 -1z"/>
    <path d="M2380 4460 c0 -5 7 -10 15 -10 8 0 15 5 15 10 0 6 -7 10 -15 10 -8 0
-15 -4 -15 -10z"/>
    <path d="M6490 4464 c0 -3 7 -12 15 -20 13 -14 15 -13 15 5 0 12 -6 21 -15 21
-8 0 -15 -3 -15 -6z"/>
    <path d="M7390 4460 c0 -5 5 -10 10 -10 6 0 10 5 10 10 0 6 -4 10 -10 10 -5 0
-10 -4 -10 -10z"/>
    <path d="M7988 4463 c7 -3 16 -2 19 1 4 3 -2 6 -13 5 -11 0 -14 -3 -6 -6z"/>
    <path d="M6353 4423 c-17 -6 -16 -40 1 -46 17 -7 26 1 26 24 0 21 -10 28 -27
22z"/>
    <path d="M6437 4423 c-4 -3 -7 -15 -7 -25 0 -17 2 -18 15 -4 8 8 15 19 15 25
0 12 -13 15 -23 4z"/>
    <path d="M6530 4413 c0 -5 5 -15 10 -23 9 -13 11 -13 19 0 5 8 7 18 5 22 -6
10 -34 11 -34 1z"/>
    <path d="M4170 4390 c0 -11 5 -20 10 -20 6 0 10 9 10 20 0 11 -4 20 -10 20 -5
0 -10 -9 -10 -20z"/>
    <path d="M5140 4384 c0 -17 22 -14 28 4 2 7 -3 12 -12 12 -9 0 -16 -7 -16 -16z"/>
    <path d="M1560 4370 c0 -5 5 -10 10 -10 6 0 10 -6 10 -14 0 -8 5 -18 10 -21 6
-4 10 7 10 24 0 24 -4 31 -20 31 -11 0 -20 -4 -20 -10z"/>
    <path d="M6385 4369 c-4 -6 -4 -13 -1 -16 8 -8 36 5 36 17 0 13 -27 13 -35 -1z"/>
    <path d="M6480 4370 c0 -5 7 -10 15 -10 8 0 15 5 15 10 0 6 -7 10 -15 10 -8 0
-15 -4 -15 -10z"/>
    <path d="M6570 4360 c0 -5 9 -10 20 -10 11 0 20 5 20 10 0 6 -9 10 -20 10 -11
0 -20 -4 -20 -10z"/>
    <path d="M4580 4345 c0 -8 -4 -15 -9 -15 -5 0 -11 -11 -13 -24 -5 -26 16 -27
26 -1 3 8 13 11 25 8 25 -6 27 9 5 31 -20 20 -34 20 -34 1z"/>
    <path d="M4170 4340 c0 -5 11 -10 25 -10 14 0 25 5 25 10 0 6 -11 10 -25 10
-14 0 -25 -4 -25 -10z"/>
    <path d="M4642 4338 c5 -13 67 -33 75 -24 3 3 -2 12 -10 21 -19 18 -71 21 -65
3z"/>
    <path d="M3760 4320 c0 -5 -7 -10 -16 -10 -8 0 -22 -6 -29 -14 -12 -11 -7 -14
33 -19 26 -3 55 -9 65 -12 22 -9 23 12 1 43 -15 22 -54 31 -54 12z"/>
    <path d="M4815 4319 c-16 -4 -22 -7 -12 -8 9 0 17 -5 17 -11 0 -16 17 -11 24
6 8 21 7 22 -29 13z"/>
    <path d="M6335 4320 c-3 -5 1 -10 9 -10 9 0 16 5 16 10 0 6 -4 10 -9 10 -6 0
-13 -4 -16 -10z"/>
    <path d="M6550 4320 c-9 -6 -10 -10 -3 -10 6 0 15 5 18 10 8 12 4 12 -15 0z"/>
    <path d="M6627 4324 c-9 -9 4 -34 18 -34 14 0 27 25 18 34 -4 3 -12 6 -18 6
-6 0 -14 -3 -18 -6z"/>
    <path d="M8760 4320 c0 -5 -7 -10 -15 -10 -8 0 -15 -4 -15 -10 0 -5 -8 -11
-17 -11 -10 -1 2 -5 27 -9 25 -4 57 -10 73 -14 34 -10 37 14 5 44 -23 21 -58
27 -58 10z"/>
    <path d="M4725 4310 c-4 -7 -1 -16 6 -21 17 -10 26 8 11 23 -6 6 -12 6 -17 -2z"/>
    <path d="M4876 4311 c-4 -7 -5 -15 -2 -18 9 -9 19 4 14 18 -4 11 -6 11 -12 0z"/>
    <path d="M4012 4294 c-15 -16 -8 -34 14 -34 8 0 14 10 14 25 0 28 -9 31 -28 9z"/>
    <path d="M5070 4294 c0 -8 5 -12 10 -9 6 3 10 10 10 16 0 5 -4 9 -10 9 -5 0
-10 -7 -10 -16z"/>
    <path d="M3570 4280 c0 -5 9 -10 20 -10 11 0 20 5 20 10 0 6 -9 10 -20 10 -11
0 -20 -4 -20 -10z"/>
    <path d="M6667 4283 c-4 -3 -7 -15 -7 -25 0 -21 45 -26 52 -5 11 28 -24 52
-45 30z"/>
    <path d="M8570 4280 c0 -5 9 -10 20 -10 11 0 20 5 20 10 0 6 -9 10 -20 10 -11
0 -20 -4 -20 -10z"/>
    <path d="M5090 4270 c0 -5 5 -10 10 -10 6 0 10 5 10 10 0 6 -4 10 -10 10 -5 0
-10 -4 -10 -10z"/>
    <path d="M6384 4264 c3 -9 6 -18 6 -20 0 -2 7 -4 15 -4 8 0 15 -9 15 -21 0
-25 17 -59 30 -59 13 0 22 37 15 60 -3 11 -12 20 -20 20 -8 0 -17 9 -20 20 -4
11 -15 20 -27 20 -14 0 -18 -5 -14 -16z"/>
    <path d="M6470 4273 c0 -14 15 -29 33 -36 10 -4 23 -20 28 -36 12 -33 27 -42
58 -34 27 7 27 39 1 46 -25 7 -26 27 -1 27 12 0 23 -11 30 -30 6 -20 17 -30
30 -30 11 0 23 -4 26 -10 9 -15 25 -12 25 5 0 8 -4 15 -9 15 -5 0 -13 9 -16
20 -3 11 -17 23 -31 26 -13 3 -24 9 -24 13 0 3 -4 12 -9 20 -7 12 -13 12 -40
0 -17 -8 -31 -17 -31 -21 0 -5 -4 -8 -10 -8 -5 0 -10 9 -10 20 0 15 -7 20 -25
20 -14 0 -25 -3 -25 -7z"/>
    <path d="M1400 4255 c0 -8 7 -15 15 -15 8 0 15 7 15 15 0 8 -7 15 -15 15 -8 0
-15 -7 -15 -15z"/>
    <path d="M4750 4251 c0 -12 6 -21 16 -21 9 0 14 7 12 17 -5 25 -28 28 -28 4z"/>
    <path d="M3370 4220 c0 -22 5 -40 10 -40 6 0 10 18 10 40 0 22 -4 40 -10 40
-5 0 -10 -18 -10 -40z"/>
    <path d="M8370 4220 c0 -29 4 -40 15 -40 11 0 15 11 15 40 0 29 -4 40 -15 40
-11 0 -15 -11 -15 -40z"/>
    <path d="M2520 4230 c0 -5 5 -10 10 -10 6 0 10 -9 10 -19 0 -24 16 -36 25 -20
10 14 -15 59 -32 59 -7 0 -13 -4 -13 -10z"/>
    <path d="M4031 4232 c-6 -2 -11 -17 -11 -34 0 -27 3 -30 23 -23 12 4 34 9 50
12 15 3 27 9 27 14 0 14 88 11 93 -3 3 -8 6 -6 6 5 1 10 -5 19 -11 22 -18 5
-164 11 -177 7z"/>
    <path d="M5040 4226 c0 -9 7 -16 16 -16 9 0 14 5 12 12 -6 18 -28 21 -28 4z"/>
    <path d="M7536 4213 c8 -35 19 -47 33 -39 17 11 13 30 -9 49 -28 23 -31 22
-24 -10z"/>
    <path d="M1437 4223 c-4 -3 -7 -26 -7 -50 0 -61 24 -52 28 10 3 43 -5 57 -21
40z"/>
    <path d="M1634 4214 c3 -9 6 -20 6 -25 0 -4 7 -6 15 -3 24 9 19 44 -6 44 -15
0 -19 -4 -15 -16z"/>
    <path d="M2428 4223 c7 -3 16 -2 19 1 4 3 -2 6 -13 5 -11 0 -14 -3 -6 -6z"/>
    <path d="M2599 4214 c-14 -17 -14 -18 30 -33 40 -13 46 -10 32 17 -13 25 -47
34 -62 16z"/>
    <path d="M3940 4224 c8 -4 21 -14 28 -23 13 -14 13 -14 10 4 -2 13 -12 21 -28
22 -14 1 -18 0 -10 -3z"/>
    <path d="M7607 4218 c-26 -14 -21 -22 24 -36 45 -14 52 -12 44 10 -9 23 -48
38 -68 26z"/>
    <path d="M2448 4213 c-26 -6 -22 -28 7 -41 23 -11 25 -10 25 13 0 27 -7 33
-32 28z"/>
    <path d="M3285 4184 c-3 -20 -4 -39 -1 -42 3 -3 6 6 7 19 0 13 3 18 6 12 2 -7
12 -13 20 -13 10 0 13 6 9 16 -3 9 -6 22 -6 30 0 30 -28 13 -35 -22z"/>
    <path d="M3621 4204 c0 -11 3 -14 6 -6 3 7 2 16 -1 19 -3 4 -6 -2 -5 -13z"/>
    <path d="M3654 4205 c9 -9 33 -15 64 -15 35 0 52 4 56 15 4 12 -7 15 -65 15
-63 0 -69 -2 -55 -15z"/>
    <path d="M3801 4204 c0 -11 3 -14 6 -6 3 7 2 16 -1 19 -3 4 -6 -2 -5 -13z"/>
    <path d="M4731 4204 c0 -11 3 -14 6 -6 3 7 2 16 -1 19 -3 4 -6 -2 -5 -13z"/>
    <path d="M4971 4204 c0 -11 3 -14 6 -6 3 7 2 16 -1 19 -3 4 -6 -2 -5 -13z"/>
    <path d="M7451 4211 c-19 -12 -8 -37 19 -44 18 -5 21 -2 18 21 -3 28 -16 36
-37 23z"/>
    <path d="M8300 4203 c0 -20 17 -50 24 -43 2 3 2 17 -1 33 -6 30 -23 37 -23 10z"/>
    <path d="M8620 4205 c0 -8 5 -15 10 -15 6 0 10 7 10 15 0 8 -4 15 -10 15 -5 0
-10 -7 -10 -15z"/>
    <path d="M8656 4205 c5 -11 22 -15 64 -15 42 0 59 4 64 15 4 12 -6 15 -64 15
-58 0 -68 -3 -64 -15z"/>
    <path d="M8801 4204 c0 -11 3 -14 6 -6 3 7 2 16 -1 19 -3 4 -6 -2 -5 -13z"/>
    <path d="M2380 4200 c0 -5 5 -10 10 -10 6 0 10 5 10 10 0 6 -4 10 -10 10 -5 0
-10 -4 -10 -10z"/>
    <path d="M2697 4183 c-3 -5 -1 -17 4 -28 7 -17 8 -17 8 8 1 27 -4 34 -12 20z"/>
    <path d="M4925 4180 c3 -5 8 -10 11 -10 2 0 4 5 4 10 0 6 -5 10 -11 10 -5 0
-7 -4 -4 -10z"/>
    <path d="M5995 4180 c3 -5 8 -10 11 -10 2 0 4 5 4 10 0 6 -5 10 -11 10 -5 0
-7 -4 -4 -10z"/>
    <path d="M7700 4165 c0 -14 5 -25 10 -25 6 0 10 11 10 25 0 14 -4 25 -10 25
-5 0 -10 -11 -10 -25z"/>
    <path d="M4112 4168 c-15 -15 -16 -38 -2 -38 6 0 10 9 10 19 0 11 8 22 18 24
13 4 13 5 2 6 -9 0 -21 -4 -28 -11z"/>
    <path d="M8280 4160 c0 -11 5 -20 10 -20 6 0 10 9 10 20 0 11 -4 20 -10 20 -5
0 -10 -9 -10 -20z"/>
    <path d="M1850 4149 c0 -24 23 -21 28 4 2 10 -3 17 -12 17 -10 0 -16 -9 -16
-21z"/>
    <path d="M6221 4154 c0 -11 3 -14 6 -6 3 7 2 16 -1 19 -3 4 -6 -2 -5 -13z"/>
    <path d="M4150 4150 c0 -5 9 -10 20 -10 11 0 20 5 20 10 0 6 -9 10 -20 10 -11
0 -20 -4 -20 -10z"/>
    <path d="M4691 4144 c0 -11 3 -14 6 -6 3 7 2 16 -1 19 -3 4 -6 -2 -5 -13z"/>
    <path d="M3688 4133 c7 -3 16 -2 19 1 4 3 -2 6 -13 5 -11 0 -14 -3 -6 -6z"/>
    <path d="M4438 1583 c-29 -7 -20 -23 12 -23 20 0 30 5 30 15 0 15 -9 17 -42 8z"/>
    <path d="M8310 5176 c0 -3 12 -18 27 -33 l26 -28 -6 25 c-4 14 -7 28 -7 33 0
7 -40 10 -40 3z"/>
    <path d="M8250 5129 c0 -5 5 -7 10 -4 6 3 10 8 10 11 0 2 -4 4 -10 4 -5 0 -10
-5 -10 -11z"/>
    <path d="M8150 5030 c0 -11 4 -20 9 -20 11 0 22 26 14 34 -12 12 -23 5 -23
-14z"/>
    <path d="M8338 5033 c7 -3 16 -2 19 1 4 3 -2 6 -13 5 -11 0 -14 -3 -6 -6z"/>
  </g>
</svg>
