<?xml version="1.0" encoding="utf-8"?>
<!-- Generator: Adobe Illustrator 22.1.0, SVG Export Plug-In . SVG Version: 6.00 Build 0)  -->
<svg version="1.1" baseProfile="tiny" id="Layer_1" xmlns="http://www.w3.org/2000/svg"
     x="0px" y="0px" viewBox="0 0 380 380" xml:space="preserve">
<style type="text/css">
	.white{fill:#FFFFFF;}
</style>
  <g>
	<g>
		<path class="white" d="M284,248.9c-61.6,32.9-123,33.1-185.1,0.5c2.4,4.2,6.2,6.4,9.5,8.9c9.6,7.6,20.3,13.4,31.7,17.7c3.6,1.4,4.4,2.6,1.9,5.9
			c-8.2,11.1-8.1,11.3-22.1,8.8c-25.1-4.5-47.3-14.5-65.2-33.2c-2.4-2.5-3.6-5-3.3-8.4c3.7-42.4,12-83.7,30.7-122.4
			c4.2-8.8,10-15.4,18.5-20.1c14.4-8.1,29.3-14.3,45.6-17c1.5-0.2,3-0.2,4.5-0.4c3.2-0.4,3.9,2.2,4.6,4.3c0.9,2.8-1.7,2.8-3.3,3.2
			c-15.3,3.9-29.5,10.4-42.3,19.8c-1.9,1.4-3.8,3-5.5,5.1c57.9-27.4,115.6-27.4,173.4,0.1c-5.4-6.3-12.3-10.2-19.2-14.1
			c-8.8-4.8-18.4-7.8-27.9-10.7c-1.7-0.5-4.6-0.2-3.8-3.3c0.7-2.6,1.8-4.8,5.5-4.4c11.9,1.3,23.3,4.5,33.9,9.8
			c29.9,15,27.2,12.1,40.9,44.2c11.9,27.9,18.3,57.4,21.6,87.5c0.7,6.1,1.2,12.2,1.9,18.4c0.4,3.4-0.8,6-3.2,8.5
			c-20.9,21.7-47.1,31.8-76.6,34.7c-1.8,0.2-3.1-0.4-4.4-1.7c-10.4-11.3-10.3-11.5,3.3-17.7C262.6,266.9,274.2,259,284,248.9z
			 M128.3,204.2c0,0.7-0.1,2.4,0.2,4c1.6,8.8,6,15.4,14.6,18.7c8.3,3.1,15.5,0.5,21.4-5.4c9.1-9.1,9.1-26.5,0.3-36
			c-3.6-3.9-7.8-6.6-13.4-6.9C137.9,178,128.3,188.1,128.3,204.2z M210.5,203.2c0,1.2-0.1,2.3,0,3.5c1.3,15.7,16.7,25.8,29.9,19.5
			c8.8-4.2,12.5-12,13.3-21.4c1.2-15-9.4-26.9-23.3-26.2C219.2,179.2,210.5,190,210.5,203.2z"/>
	</g>
</g>
</svg>
