<svg xmlns="http://www.w3.org/2000/svg" x="0" y="0" enable-background="new 0 0 400 400" version="1.1" viewBox="0 0 400 400" xml:space="preserve"><style type="text/css">.st0{display:none}.st1{display:inline}.st3{fill:#fff}.st4{fill:#3d5a98}.st4,.st5,.st9{display:inline}.st5{fill:#fff}.st9{fill:red}.st11{fill:#181616}.st16{fill:#d54b3d}.st17{fill:#d72b27}</style><g id="Twitter" class="st0"><g id="Dark_Blue" class="st1"><circle cx="200" cy="200" r="200" fill="#1da1f2"/></g><g id="Logo__x2014__FIXED" class="st1"><path d="M163.4,305.5c88.7,0,137.2-73.5,137.2-137.2c0-2.1,0-4.2-0.1-6.2c9.4-6.8,17.6-15.3,24.1-25 c-8.6,3.8-17.9,6.4-27.7,7.6c10-6,17.6-15.4,21.2-26.7c-9.3,5.5-19.6,9.5-30.6,11.7c-8.8-9.4-21.3-15.2-35.2-15.2 c-26.6,0-48.2,21.6-48.2,48.2c0,3.8,0.4,7.5,1.3,11c-40.1-2-75.6-21.2-99.4-50.4c-4.1,7.1-6.5,15.4-6.5,24.2 c0,16.7,8.5,31.5,21.5,40.1c-7.9-0.2-15.3-2.4-21.8-6c0,0.2,0,0.4,0,0.6c0,23.4,16.6,42.8,38.7,47.3c-4,1.1-8.3,1.7-12.7,1.7 c-3.1,0-6.1-0.3-9.1-0.9c6.1,19.2,23.9,33.1,45,33.5c-16.5,12.9-37.3,20.6-59.9,20.6c-3.9,0-7.7-0.2-11.5-0.7 C110.8,297.5,136.2,305.5,163.4,305.5" class="st3"/></g></g><g id="Facebook" class="st0"><circle cx="200" cy="200" r="200" class="st4"/><path id="Blue_1_" d="M323.5,350.9c8.5,0,15.3-7.5,15.3-16.7V65.7c0-9.2-6.9-16.7-15.3-16.7h-247 c-8.5,0-15.3,7.5-15.3,16.7v268.6c0,9.2,6.9,16.7,15.3,16.7H323.5z" class="st4"/><path id="f" d="M218.3,328.1V211.2h36.1l5.4-45.6h-41.5v-29.1c0-13.2,3.4-22.2,20.8-22.2l22.2,0V73.7 c-3.8-0.6-17-1.8-32.3-1.8c-32,0-53.9,21.2-53.9,60.2v33.6h-36.2v45.6H175v116.9H218.3z" class="st5"/></g><g id="LinkedIn" class="st0"><circle cx="200" cy="200" r="200" fill="#007bb5" display="inline"/><g class="st1"><g><path fill="#007bb5" d="M318.1,58.5H79.8c-11.4,0-20.6,9-20.6,20.1V318c0,11.1,9.3,20.2,20.6,20.2h238.3c11.4,0,20.7-9,20.7-20.2 V78.7C338.8,67.6,329.5,58.5,318.1,58.5z"/><path d="M100.7,163.4h41.5v133.4h-41.5V163.4z M121.4,97c13.3,0,24,10.8,24,24c0,13.3-10.8,24.1-24,24.1 c-13.3,0-24.1-10.8-24.1-24.1C97.4,107.8,108.1,97,121.4,97" class="st3"/><path d="M168.2,163.4h39.8v18.2h0.6c5.5-10.5,19.1-21.6,39.2-21.6c42,0,49.8,27.6,49.8,63.6v73.2H256v-64.9 c0-15.5-0.3-35.4-21.6-35.4c-21.6,0-24.9,16.9-24.9,34.3v66h-41.4V163.4z" class="st3"/></g></g></g><g id="Reddit" class="st0"><g id="Artwork" class="st1"><g><circle cx="200" cy="200.4" r="200.4" fill="#ff4500"/><path d="M333.6,200.4c0-16.2-13.1-29.3-29.3-29.3c-8,0-15,3-20.2,8.2c-19.9-14.3-47.6-23.7-78-24.8l13.4-62.6 l43.4,9.1c0.5,11,9.6,19.9,20.9,19.9c11.5,0,20.9-9.4,20.9-20.9c0-11.5-9.4-20.9-20.9-20.9c-8.2,0-15.2,4.7-18.5,11.7l-48.5-10.3 c-1.4-0.2-2.8,0-4,0.7s-1.9,1.9-2.3,3.3l-14.8,69.8c-31.2,0.9-59.1,10.1-79.2,24.8c-5.2-4.9-12.4-8.2-20.2-8.2 c-16.2,0-29.3,13.1-29.3,29.3c0,12,7,22,17.3,26.7c-0.5,2.8-0.7,5.9-0.7,8.9c0,45,52.3,81.3,117,81.3s117-36.3,117-81.3 c0-3-0.2-5.9-0.7-8.7C326.3,222.7,333.6,212.3,333.6,200.4z M133.2,221.3c0-11.5,9.4-20.9,20.9-20.9s20.9,9.4,20.9,20.9 s-9.4,20.9-20.9,20.9S133.2,232.7,133.2,221.3z M249.7,276.3c-14.3,14.3-41.5,15.2-49.5,15.2c-8,0-35.4-1.2-49.5-15.2 c-2.1-2.1-2.1-5.6,0-7.7c2.1-2.1,5.6-2.1,7.7,0c8.9,8.9,28.1,12.2,42,12.2c13.8,0,32.8-3.3,42-12.2c2.1-2.1,5.6-2.1,7.7,0 C251.8,270.9,251.8,274.2,249.7,276.3z M245.9,242.1c-11.5,0-20.9-9.4-20.9-20.9s9.4-20.9,20.9-20.9s20.9,9.4,20.9,20.9 S257.4,242.1,245.9,242.1z" class="st3"/></g></g></g><g id="YouTube" class="st0"><circle cx="200" cy="200" r="200" class="st9"/><path d="M370.6,111.1c-4.1-15.4-16.3-27.6-31.7-31.7c-28-7.5-140.2-7.5-140.2-7.5s-112.2,0-140.2,7.5 C43.1,83.5,31,95.6,26.8,111.1c-7.5,28-7.5,86.4-7.5,86.4s0,58.4,7.5,86.4c4.1,15.4,16.3,27.6,31.7,31.7 c28,7.5,140.2,7.5,140.2,7.5s112.2,0,140.2-7.5c15.4-4.1,27.6-16.3,31.7-31.7c7.5-28,7.5-86.4,7.5-86.4S378.1,139.1,370.6,111.1z" class="st9"/><polygon points="162.9 251.2 256.1 197.4 162.9 143.6" class="st5"/></g><g id="Github" class="st0"><circle cx="200" cy="200" r="200" class="st5"/><g class="st1"><path fill="#181616" fill-rule="evenodd" d="M200,0C89.7,0,0.3,89.4,0.3,199.7c0,88.2,57.2,163.1,136.6,189.5c10,1.8,13.6-4.3,13.6-9.6 c0-4.8-0.2-20.5-0.3-37.2c-55.6,12.1-67.3-23.6-67.3-23.6c-9.1-23.1-22.2-29.2-22.2-29.2c-18.1-12.4,1.4-12.1,1.4-12.1 c20.1,1.4,30.6,20.6,30.6,20.6c17.8,30.5,46.7,21.7,58.1,16.6c1.8-12.9,7-21.7,12.7-26.7c-44.4-5-91-22.2-91-98.7 c0-21.8,7.8-39.6,20.6-53.6c-2.1-5-8.9-25.3,1.9-52.9c0,0,16.8-5.4,54.9,20.5c15.9-4.4,33-6.6,50-6.7c17,0.1,34.1,2.3,50,6.7 c38.1-25.8,54.9-20.5,54.9-20.5c10.9,27.5,4,47.8,2,52.9c12.8,14,20.6,31.8,20.6,53.6c0,76.7-46.7,93.6-91.2,98.5 c7.2,6.2,13.5,18.4,13.5,37c0,26.7-0.2,48.2-0.2,54.8c0,5.3,3.6,11.5,13.7,9.6c79.3-26.4,136.5-101.3,136.5-189.5 C399.7,89.4,310.3,0,200,0z" clip-rule="evenodd"/><path d="M75.9,286.8c-0.4,1-2,1.3-3.4,0.6c-1.5-0.7-2.3-2-1.8-3c0.4-1,2-1.3,3.4-0.6 C75.6,284.4,76.4,285.8,75.9,286.8L75.9,286.8z M73.5,284.9" class="st11"/><path d="M84,295.8c-1,0.9-2.8,0.5-4.1-0.9c-1.3-1.4-1.6-3.3-0.6-4.2c1-0.9,2.8-0.5,4.1,0.9 C84.7,293.1,85,294.9,84,295.8L84,295.8z M82.1,293.8" class="st11"/><path d="M91.9,307.3c-1.2,0.9-3.2,0.1-4.5-1.7c-1.2-1.8-1.2-3.9,0-4.8c1.2-0.9,3.2-0.1,4.5,1.7 C93.1,304.3,93.1,306.4,91.9,307.3L91.9,307.3z M91.9,307.3" class="st11"/><path d="M102.7,318.4c-1.1,1.2-3.4,0.9-5.1-0.8c-1.7-1.6-2.2-3.9-1.1-5.1c1.1-1.2,3.5-0.9,5.2,0.8 C103.3,314.9,103.8,317.2,102.7,318.4L102.7,318.4z M102.7,318.4" class="st11"/><path d="M117.6,324.9c-0.5,1.6-2.7,2.3-5,1.6c-2.3-0.7-3.7-2.5-3.3-4.1c0.5-1.6,2.7-2.3,5-1.6 C116.5,321.5,118,323.3,117.6,324.9L117.6,324.9z M117.6,324.9" class="st11"/><path d="M133.9,326.1c0.1,1.6-1.9,3-4.2,3c-2.4,0.1-4.3-1.3-4.3-2.9c0-1.7,1.9-3,4.3-3.1 C132,323.1,133.9,324.4,133.9,326.1L133.9,326.1z M133.9,326.1" class="st11"/><path d="M149.1,323.5c0.3,1.6-1.4,3.3-3.7,3.7c-2.3,0.4-4.5-0.6-4.8-2.2c-0.3-1.6,1.4-3.3,3.7-3.7 C146.7,320.9,148.8,321.8,149.1,323.5L149.1,323.5z M149.1,323.5" class="st11"/></g></g><g id="Twitch" class="st0"><circle cx="200" cy="200" r="200" fill="#6441a4" display="inline"/><path d="M90,66l-18,46v188h64v34h36l34-34h52l70-70V66H90z M304,218l-40,40h-64l-34,34v-34h-54V90h192V218z M264,136 v70h-24v-70H264z M200,136v70h-24v-70H200z" class="st5"/></g><g id="Gmail"><circle cx="200" cy="200" r="200" fill="#d6d6d6"/><g><path fill="#e3e3e3" d="M303.4,289.3H94.6c-8.1,0-14.9-6.6-14.9-14.9V123.6c0-8.1,6.6-14.9,14.9-14.9h208.8 c8.1,0,14.9,6.6,14.9,14.9v150.8C318.3,282.7,311.7,289.3,303.4,289.3L303.4,289.3z"/><path fill="#231f20" d="M109.5,289.3l89.3-71.8l0.6-3.8l-92-66.3l-0.2,138.7L109.5,289.3z" enable-background="new" opacity=".1"/><path d="M94.6,289.3c-8.3,0-14.9-6.6-14.9-14.9v-151c0-8.3,6.6-9.8,14.9-9.8s14.9,1.7,14.9,9.8v165.9H94.6 L94.6,289.3z" class="st16"/><path d="M94.6,115.7c10.7,0,12.8,3.2,12.8,7.7v163.8H94.6c-7,0-12.8-5.8-12.8-12.8v-151 C81.8,118.7,84,115.7,94.6,115.7L94.6,115.7z M94.6,113.6c-8.3,0-14.9,1.7-14.9,9.8v151c0,8.3,6.6,14.9,14.9,14.9h14.9V123.4 C109.5,115,102.9,113.6,94.6,113.6L94.6,113.6L94.6,113.6z" class="st17"/><path d="M303.4,289.3h-14.9V122.9c0-8.3,6.6-9.4,14.9-9.4c8.3,0,14.9,1.1,14.9,9.4v151.7 C318.3,282.7,311.7,289.3,303.4,289.3L303.4,289.3z" class="st16"/><path d="M303.4,115.7c9.6,0,12.8,1.9,12.8,7.2v151.7c0,7-5.8,12.8-12.8,12.8h-12.8V122.9 C290.6,117.4,293.8,115.7,303.4,115.7L303.4,115.7z M303.4,113.6c-8.3,0-14.9,1.1-14.9,9.4v166.6h14.9c8.3,0,14.9-6.6,14.9-14.9 V122.9C318.3,114.6,311.7,113.6,303.4,113.6L303.4,113.6L303.4,113.6z" class="st17"/><linearGradient id="SVGID_1_" x1="-104.272" x2="-103.334" y1="594.806" y2="594.806" gradientTransform="matrix(253.1598 0 0 -174.8345 26478.3613 104199.9766)" gradientUnits="userSpaceOnUse"><stop offset="0" stop-color="#000" stop-opacity=".1"/><stop offset="1" stop-color="#000" stop-opacity=".2"/></linearGradient><path fill="url(#SVGID_1_)" d="M239.5,289.3L80.9,129.5l8.3,3.4l110.3,79.5l118.7-87l0,149.2c0,8.1-6.6,14.7-14.9,14.7H239.5z"/><path d="M198.8,217.5L86.1,135.7c-6.6-4.9-8.5-14.3-3.6-20.9c4.9-6.6,14.5-8.1,21.3-3.2l95.2,69.2l95.9-70.1 c6.6-4.9,16-3.4,20.9,3.4c4.9,6.6,3.4,16-3.4,20.9L198.8,217.5L198.8,217.5z" class="st16"/><path d="M303.4,109.9L303.4,109.9c4,0,7.9,1.9,10.4,5.3c4,5.8,2.8,13.6-2.8,17.9L198.8,215L87.4,134 c-5.8-4.3-7.2-12.4-3.2-17.9c2.3-3.2,6.4-5.3,10.7-5.3c2.8,0,5.5,0.9,7.7,2.6l95,69l1.3,0.9l1.3-0.9l95.6-70.1 C298,110.8,300.6,109.9,303.4,109.9L303.4,109.9z M303.4,107.8c-3,0-6.2,0.9-8.7,2.8l-95.9,70.1l-95.2-69.2 c-2.6-1.9-5.8-2.8-8.9-2.8c-4.7,0-9.4,2.1-12.4,6.2c-4.7,6.6-2.8,16,3.8,20.9l112.7,82l113.3-82.7c6.6-4.9,8.1-14.1,3.4-20.9 C312.5,109.9,308.1,107.8,303.4,107.8L303.4,107.8L303.4,107.8z" class="st17"/></g></g></svg>