<?xml version="1.0" encoding="utf-8"?>
<!-- Generator: Adobe Illustrator 22.1.0, SVG Export Plug-In . SVG Version: 6.00 Build 0)  -->
<svg version="1.1" xmlns="http://www.w3.org/2000/svg" x="0px" y="0px"
     viewBox="0 0 400 400" style="enable-background:new 0 0 400 400;" xml:space="preserve">
<style type="text/css">
	.st0{display:none;}
	.st1{display:inline;}
	.st2{fill:#1DA1F2;}
	.st3{fill:#FFFFFF;}
	.st4{display:inline;fill:#3D5A98;}
	.st5{display:inline;fill:#FFFFFF;}
	.st6{display:none;fill:#007BB5;}
	.st7{fill:#007BB5;}
	.st8{fill:#FF4500;}
</style>
  <g id="Layer_1" class="st0">
	<g id="Dark_Blue" class="st1">
		<circle class="st2" cx="200" cy="200" r="200"/>
	</g>
    <g id="Logo__x2014__FIXED" class="st1">
		<path class="st3" d="M163.4,305.5c88.7,0,137.2-73.5,137.2-137.2c0-2.1,0-4.2-0.1-6.2c9.4-6.8,17.6-15.3,24.1-25
			c-8.6,3.8-17.9,6.4-27.7,7.6c10-6,17.6-15.4,21.2-26.7c-9.3,5.5-19.6,9.5-30.6,11.7c-8.8-9.4-21.3-15.2-35.2-15.2
			c-26.6,0-48.2,21.6-48.2,48.2c0,3.8,0.4,7.5,1.3,11c-40.1-2-75.6-21.2-99.4-50.4c-4.1,7.1-6.5,15.4-6.5,24.2
			c0,16.7,8.5,31.5,21.5,40.1c-7.9-0.2-15.3-2.4-21.8-6c0,0.2,0,0.4,0,0.6c0,23.4,16.6,42.8,38.7,47.3c-4,1.1-8.3,1.7-12.7,1.7
			c-3.1,0-6.1-0.3-9.1-0.9c6.1,19.2,23.9,33.1,45,33.5c-16.5,12.9-37.3,20.6-59.9,20.6c-3.9,0-7.7-0.2-11.5-0.7
			C110.8,297.5,136.2,305.5,163.4,305.5"/>
	</g>
</g>
  <g id="Layer_2" class="st0">
	<circle class="st4" cx="200" cy="200" r="200"/>
    <path id="Blue_1_" class="st4" d="M323.5,350.9c8.5,0,15.3-7.5,15.3-16.7V65.7c0-9.2-6.9-16.7-15.3-16.7h-247
		c-8.5,0-15.3,7.5-15.3,16.7v268.6c0,9.2,6.9,16.7,15.3,16.7H323.5z"/>
    <path id="f" class="st5" d="M218.3,328.1V211.2h36.1l5.4-45.6h-41.5v-29.1c0-13.2,3.4-22.2,20.8-22.2l22.2,0V73.7
		c-3.8-0.6-17-1.8-32.3-1.8c-32,0-53.9,21.2-53.9,60.2v33.6h-36.2v45.6H175v116.9H218.3z"/>
</g>
  <g id="Layer_3">
	<circle class="st6" cx="200" cy="200" r="200"/>
    <g class="st0">
		<g class="st1">
			<path class="st7" d="M318.1,58.5H79.8c-11.4,0-20.6,9-20.6,20.1V318c0,11.1,9.3,20.2,20.6,20.2h238.3c11.4,0,20.7-9,20.7-20.2
				V78.7C338.8,67.6,329.5,58.5,318.1,58.5z"/>
      <path class="st3" d="M100.7,163.4h41.5v133.4h-41.5V163.4z M121.4,97c13.3,0,24,10.8,24,24c0,13.3-10.8,24.1-24,24.1
				c-13.3,0-24.1-10.8-24.1-24.1C97.4,107.8,108.1,97,121.4,97"/>
      <path class="st3" d="M168.2,163.4h39.8v18.2h0.6c5.5-10.5,19.1-21.6,39.2-21.6c42,0,49.8,27.6,49.8,63.6v73.2H256v-64.9
				c0-15.5-0.3-35.4-21.6-35.4c-21.6,0-24.9,16.9-24.9,34.3v66h-41.4V163.4z"/>
		</g>
	</g>
    <g id="Artwork">
		<g>
			<circle class="st8" cx="200" cy="200.4" r="200.4"/>
      <path class="st3" d="M333.6,200.4c0-16.2-13.1-29.3-29.3-29.3c-8,0-15,3-20.2,8.2c-19.9-14.3-47.6-23.7-78-24.8l13.4-62.6
				l43.4,9.1c0.5,11,9.6,19.9,20.9,19.9c11.5,0,20.9-9.4,20.9-20.9c0-11.5-9.4-20.9-20.9-20.9c-8.2,0-15.2,4.7-18.5,11.7l-48.5-10.3
				c-1.4-0.2-2.8,0-4,0.7s-1.9,1.9-2.3,3.3l-14.8,69.8c-31.2,0.9-59.1,10.1-79.2,24.8c-5.2-4.9-12.4-8.2-20.2-8.2
				c-16.2,0-29.3,13.1-29.3,29.3c0,12,7,22,17.3,26.7c-0.5,2.8-0.7,5.9-0.7,8.9c0,45,52.3,81.3,117,81.3s117-36.3,117-81.3
				c0-3-0.2-5.9-0.7-8.7C326.3,222.7,333.6,212.3,333.6,200.4z M133.2,221.3c0-11.5,9.4-20.9,20.9-20.9s20.9,9.4,20.9,20.9
				s-9.4,20.9-20.9,20.9S133.2,232.7,133.2,221.3z M249.7,276.3c-14.3,14.3-41.5,15.2-49.5,15.2c-8,0-35.4-1.2-49.5-15.2
				c-2.1-2.1-2.1-5.6,0-7.7c2.1-2.1,5.6-2.1,7.7,0c8.9,8.9,28.1,12.2,42,12.2c13.8,0,32.8-3.3,42-12.2c2.1-2.1,5.6-2.1,7.7,0
				C251.8,270.9,251.8,274.2,249.7,276.3z M245.9,242.1c-11.5,0-20.9-9.4-20.9-20.9s9.4-20.9,20.9-20.9s20.9,9.4,20.9,20.9
				S257.4,242.1,245.9,242.1z"/>
		</g>
	</g>
</g>
</svg>
