<?xml version="1.0" standalone="no"?>
<!DOCTYPE svg PUBLIC "-//W3C//DTD SVG 20010904//EN"
 "http://www.w3.org/TR/2001/REC-SVG-20010904/DTD/svg10.dtd">
<svg version="1.0" xmlns="http://www.w3.org/2000/svg"
 width="884.000000pt" height="884.000000pt" viewBox="0 0 884.000000 884.000000"
 preserveAspectRatio="xMidYMid meet">
<metadata>
Created by potrace 1.11, written by Peter Selinger 2001-2013
</metadata>
<g transform="translate(0.000000,884.000000) scale(0.100000,-0.100000)"
fill="#000000" stroke="none">
<path d="M0 4420 l0 -4420 4420 0 4420 0 0 4420 0 4420 -4420 0 -4420 0 0
-4420z m4805 3895 c173 -19 344 -48 495 -85 137 -34 287 -76 315 -89 11 -5 45
-17 75 -27 30 -9 78 -28 107 -40 28 -13 58 -24 65 -24 8 0 23 -7 34 -15 10 -8
25 -15 33 -15 15 0 342 -160 351 -171 3 -4 21 -15 41 -25 136 -70 438 -277
572 -392 181 -156 383 -360 493 -497 27 -33 51 -62 54 -65 13 -11 152 -204
211 -292 62 -94 209 -343 209 -355 0 -3 20 -46 45 -94 96 -187 210 -509 269
-757 67 -279 95 -487 103 -760 l6 -204 -34 4 c-26 2 -35 8 -37 26 -4 24 -4 25
-26 16 -9 -3 -16 -17 -16 -31 0 -13 4 -21 10 -18 6 4 10 -5 10 -19 0 -14 -4
-26 -9 -26 -5 0 -11 -9 -14 -21 -3 -12 -10 -18 -16 -15 -7 5 -7 15 1 31 6 14
9 28 6 31 -9 8 -48 -28 -48 -44 0 -7 -4 -10 -10 -7 -5 3 -10 15 -10 26 0 11 4
18 9 15 5 -3 14 1 21 9 10 12 8 21 -10 50 -18 29 -19 35 -6 35 25 0 19 29 -11
55 l-28 23 28 7 c37 10 34 21 -7 29 -45 9 -54 33 -15 41 16 4 29 13 29 21 0 8
5 14 11 14 5 0 8 4 5 8 -3 5 -19 7 -36 4 -27 -4 -30 -1 -31 22 -1 14 -2 32 -3
38 0 7 -15 13 -31 13 -17 0 -38 7 -48 15 -49 43 -87 82 -87 89 0 18 33 21 45
5 6 -10 17 -14 23 -10 17 10 15 26 -3 26 -20 0 -35 33 -40 88 -2 26 -4 51 -4
55 -1 5 -5 5 -11 2 -6 -3 -10 0 -10 8 0 23 -26 67 -49 83 -25 18 -27 34 -5 34
8 0 32 -18 53 -39 41 -43 83 -57 89 -30 2 11 -7 20 -27 27 -27 10 -31 16 -32
49 -1 21 -3 30 -6 21 -7 -27 -49 -22 -78 9 -14 15 -25 33 -25 40 0 7 -4 13
-10 13 -5 0 -10 7 -10 15 0 8 -5 15 -11 15 -5 0 -8 4 -4 9 3 5 1 12 -5 16 -5
3 -10 19 -10 36 0 19 -5 29 -15 29 -9 0 -15 -9 -15 -22 0 -13 -4 -18 -8 -12
-4 5 -24 18 -44 27 -21 10 -38 24 -38 32 0 22 -37 18 -57 -5 -22 -25 -43 -26
-43 -1 0 25 -15 35 -36 23 -13 -7 -12 -11 10 -25 14 -10 24 -25 23 -37 -1 -18
-17 -30 -17 -12 0 14 -41 33 -60 27 -10 -3 -21 -14 -23 -23 -3 -10 -5 -6 -6
11 -1 22 -6 27 -26 27 -42 0 -103 -72 -113 -133 -6 -33 -12 -43 -30 -45 -12
-2 -22 -7 -22 -11 0 -4 -12 -13 -26 -20 -21 -9 -25 -16 -20 -36 5 -18 2 -25
-9 -25 -19 0 -19 -19 0 -57 15 -30 12 -63 -7 -63 -5 0 -7 4 -4 9 3 5 -4 11
-15 14 -14 4 -20 11 -16 20 9 24 -3 27 -24 6 -34 -34 -18 -103 17 -70 17 17
54 -6 54 -34 0 -34 -17 -65 -35 -65 -8 0 -15 -5 -15 -11 0 -6 -7 -3 -16 5 -27
28 -36 19 -29 -26 7 -39 6 -41 -9 -29 -9 7 -16 19 -16 27 0 10 -7 11 -32 2
-80 -27 -107 -78 -43 -78 24 0 35 5 35 15 0 8 5 15 10 15 6 0 13 -7 16 -15 10
-24 30 -18 74 25 25 24 51 40 66 40 22 0 23 -2 12 -22 -7 -12 -19 -29 -27 -37
-9 -11 -10 -16 -2 -19 6 -2 11 -13 11 -24 0 -20 0 -20 -47 -1 -16 6 -16 -5 -2
-46 8 -24 8 -35 -1 -46 -7 -8 -10 -26 -6 -40 5 -21 3 -25 -16 -25 -20 0 -23
-5 -24 -41 0 -28 -6 -46 -20 -57 -30 -25 -52 -74 -36 -79 24 -9 12 -25 -14
-19 -25 7 -26 6 -19 -33 l7 -40 -26 12 c-14 7 -26 15 -26 20 0 4 -4 7 -10 7
-5 0 -10 -12 -10 -27 0 -14 3 -23 6 -20 4 3 15 2 25 -4 24 -12 27 -69 4 -69
-8 0 -15 -4 -15 -10 0 -5 5 -10 10 -10 6 0 10 -4 10 -10 0 -5 -7 -10 -16 -10
-8 0 -13 -4 -10 -9 3 -5 -1 -11 -9 -15 -9 -3 -15 -18 -15 -36 0 -27 -3 -30
-20 -25 -12 4 -20 2 -20 -6 0 -14 -65 -6 -86 12 -21 17 -18 49 5 49 11 0 21
-5 23 -11 2 -7 10 -10 16 -8 8 3 2 15 -17 34 -16 17 -31 40 -33 50 -2 17 3 20
31 20 19 0 36 6 38 12 4 10 10 9 26 -2 21 -14 67 -21 67 -9 0 14 -22 44 -33
44 -7 0 -24 10 -39 23 l-26 23 24 21 c27 24 31 43 9 43 -8 0 -15 -4 -15 -10 0
-5 -18 -10 -39 -10 -40 0 -51 -11 -51 -51 0 -11 -4 -18 -8 -15 -4 2 -13 -40
-20 -94 -9 -78 -9 -105 1 -127 14 -32 22 -35 95 -36 56 0 60 -3 37 -33 -8 -10
-15 -29 -15 -41 0 -14 -6 -23 -15 -23 -10 0 -15 -10 -15 -31 0 -26 -2 -30 -15
-19 -8 6 -19 9 -24 5 -14 -8 -7 -51 8 -48 6 2 11 -5 11 -15 0 -11 -11 -21 -32
-27 -24 -8 -34 -18 -40 -43 -5 -20 -5 -40 2 -52 14 -26 -11 -37 -46 -21 -24
10 -25 10 -18 -11 3 -13 11 -24 15 -26 12 -5 11 -42 -1 -42 -5 0 -10 -11 -10
-25 0 -18 5 -25 20 -25 18 0 25 10 21 33 -2 12 9 8 39 -13 18 -13 30 -16 32
-9 2 6 36 12 83 14 73 2 83 0 110 -23 16 -13 36 -38 44 -53 7 -16 20 -29 27
-29 24 0 15 28 -15 51 -31 23 -46 56 -28 62 13 4 57 -15 57 -25 0 -5 7 -8 15
-8 7 0 18 -7 23 -16 6 -11 12 -13 16 -6 3 6 2 13 -4 17 -5 3 -10 17 -10 31 0
19 5 23 21 21 27 -4 48 -42 49 -84 0 -47 25 -42 48 10 16 36 15 37 -8 37 -17
0 -19 6 -15 59 3 34 0 63 -5 66 -6 3 -10 15 -10 26 0 10 -4 19 -10 19 -5 0
-10 -8 -10 -18 0 -21 -18 -42 -37 -42 -21 0 -4 50 25 77 14 13 31 23 39 23 8
0 11 5 8 10 -3 5 -2 10 4 10 5 0 12 -17 14 -37 3 -33 5 -35 12 -15 4 12 11 22
16 22 22 0 7 54 -23 82 l-32 30 24 18 c14 10 22 22 18 25 -12 12 44 55 72 55
14 0 35 6 45 14 14 10 26 11 43 5 37 -14 52 -11 52 11 0 15 -9 22 -30 27 -44
8 -37 29 10 31 l40 3 0 -42 c0 -34 3 -40 16 -35 9 4 23 1 30 -5 8 -6 44 -14
80 -17 55 -4 69 -2 79 11 11 15 15 16 43 2 25 -13 35 -13 50 -4 14 9 27 9 48
2 16 -6 43 -8 60 -6 25 4 36 -1 60 -27 16 -18 39 -42 52 -53 12 -11 22 -24 22
-29 0 -14 -38 -8 -44 7 -6 17 -26 20 -26 5 0 -6 16 -26 35 -45 21 -21 32 -41
29 -50 -4 -9 -1 -15 8 -15 17 0 38 -34 30 -47 -4 -5 -15 -13 -25 -16 -28 -11
-14 -32 19 -30 80 7 83 6 113 -26 17 -18 31 -40 31 -48 0 -8 -11 -58 -25 -111
-101 -399 -269 -788 -489 -1131 -53 -83 -188 -272 -222 -311 -12 -14 -55 -65
-97 -115 -81 -97 -242 -264 -348 -361 -125 -114 -401 -328 -471 -365 -13 -7
-25 -15 -28 -19 -3 -3 -43 -29 -90 -56 -214 -127 -440 -241 -513 -259 -15 -4
-27 -11 -27 -15 0 -5 -15 -12 -32 -15 -18 -4 -37 -11 -43 -15 -5 -4 -28 -13
-50 -20 -22 -7 -44 -16 -50 -20 -5 -4 -35 -13 -65 -20 -30 -7 -59 -16 -65 -20
-29 -22 -337 -98 -520 -129 -194 -32 -296 -41 -550 -48 -336 -8 -611 15 -910
78 -147 31 -321 78 -370 99 -11 5 -40 14 -65 21 -25 6 -49 14 -55 19 -5 4 -26
11 -45 15 -19 4 -46 13 -60 21 -33 17 -117 54 -125 54 -14 0 -343 157 -355
170 -3 3 -30 18 -60 34 -123 66 -421 272 -545 377 -157 134 -386 361 -482 479
-15 19 -36 44 -46 55 -49 53 -253 344 -320 456 -192 320 -351 702 -437 1049
-12 47 -23 91 -26 98 -2 9 4 12 19 10 16 -2 21 -9 19 -25 -3 -18 2 -23 19 -23
16 0 20 5 16 19 -4 17 0 19 37 18 35 -2 41 1 38 17 -2 10 -10 25 -18 33 -18
18 -18 23 2 23 8 0 12 -5 9 -11 -4 -6 2 -13 14 -16 12 -3 21 -11 21 -18 0 -15
51 -35 86 -35 15 0 24 6 24 15 0 10 -10 15 -30 15 -16 0 -30 5 -30 10 0 6 -9
10 -20 10 -11 0 -24 8 -27 17 -4 10 -18 28 -31 40 -28 24 -25 57 5 46 10 -4
21 -11 25 -17 4 -6 10 -8 13 -4 8 7 -11 41 -42 76 -26 29 -30 52 -8 52 20 0
20 39 0 46 -8 4 -15 13 -15 21 0 9 -7 21 -16 27 -15 12 -10 46 7 46 5 0 9 12
9 26 0 20 4 25 16 20 9 -3 22 -6 29 -6 22 0 5 -40 -21 -46 -19 -5 -21 -9 -11
-24 6 -10 19 -21 29 -23 14 -4 17 0 14 18 -3 13 2 29 10 36 15 13 19 39 5 39
-13 0 -71 62 -71 77 0 7 -4 13 -9 13 -11 0 -22 40 -15 52 3 5 12 4 20 -3 27
-22 26 -1 -2 40 -21 32 -24 45 -16 53 9 9 15 7 25 -6 12 -17 14 -17 20 -2 4
10 1 16 -8 16 -10 0 -15 10 -15 30 0 28 2 30 28 24 15 -4 32 -11 39 -16 13
-10 33 -3 33 13 0 5 -9 9 -20 9 -11 0 -20 7 -20 15 0 8 9 15 21 15 11 0 17 -4
14 -10 -3 -5 6 -12 21 -16 19 -5 31 -2 39 10 15 20 31 21 38 1 9 -21 78 -48
91 -35 8 8 4 12 -12 16 -22 6 -32 34 -12 34 6 0 10 -4 10 -10 0 -5 6 -10 14
-10 7 0 29 -10 47 -23 32 -22 35 -22 52 -6 20 19 61 29 118 29 30 0 37 3 33
15 -4 8 -9 13 -13 11 -4 -3 -12 4 -19 15 -17 27 13 39 33 13 8 -11 15 -14 15
-8 0 17 -25 75 -31 70 -2 -2 -11 13 -20 34 -15 34 -15 38 -1 33 13 -5 14 0 9
31 -7 44 0 66 20 66 10 0 14 7 10 20 -4 15 0 20 14 20 14 0 18 6 15 23 -7 33
-7 33 -15 13 -8 -22 -71 -32 -71 -11 0 26 -29 24 -48 -3 -16 -21 -23 -24 -34
-14 -8 6 -18 9 -21 5 -4 -3 -7 1 -7 10 0 12 -9 17 -29 17 -54 0 -94 13 -98 32
-3 10 -8 18 -12 18 -4 0 -15 16 -24 35 -9 19 -21 35 -27 35 -5 0 -10 7 -10 15
0 20 -46 30 -65 15 -8 -7 -13 -16 -10 -20 3 -4 -5 -10 -16 -13 -15 -4 -23 0
-26 14 -6 20 -28 26 -38 10 -6 -11 48 -71 64 -71 6 0 8 -6 5 -13 -2 -7 2 -21
9 -31 17 -24 57 -13 57 15 0 36 56 13 62 -26 2 -14 -2 -19 -12 -16 -8 3 -27 4
-42 3 -46 -2 -71 -2 -128 0 -49 3 -55 6 -58 26 -2 13 3 25 12 28 18 7 23 64 6
64 -5 0 -10 11 -10 25 0 14 5 25 10 25 6 0 10 9 10 21 0 11 -4 17 -10 14 -5
-3 -10 3 -10 15 0 17 4 20 20 15 21 -7 28 9 9 20 -5 4 -9 14 -7 22 2 12 17 16
69 16 86 0 100 -9 63 -39 -26 -20 -27 -23 -9 -23 23 0 58 26 68 52 9 24 48 22
54 -3 5 -20 23 -28 23 -11 0 5 10 13 23 17 31 11 40 11 53 2 7 -5 24 -3 39 4
24 11 29 10 46 -11 17 -21 20 -21 35 -7 26 26 31 19 30 -43 0 -36 5 -65 13
-75 13 -15 15 -15 28 4 9 13 14 37 11 61 -3 38 -2 40 20 34 20 -5 23 -3 17 14
-7 22 6 34 29 25 17 -6 22 -50 8 -56 -5 -1 -12 -29 -16 -61 -6 -53 -5 -57 9
-44 8 9 15 31 15 50 0 34 25 95 44 109 5 3 24 4 43 1 32 -5 46 8 23 22 -17 10
-11 25 8 18 9 -4 19 -10 22 -13 14 -20 49 -20 68 1 21 22 42 19 42 -7 0 -8 5
-14 10 -14 11 0 14 43 3 54 -11 11 -14 46 -3 46 6 0 10 -8 10 -18 0 -18 42
-46 53 -36 9 9 -6 56 -19 61 -8 3 -14 11 -14 18 0 8 -9 17 -20 20 -11 3 -20
15 -20 26 0 25 15 24 34 -2 8 -12 19 -18 25 -15 17 11 4 46 -29 76 -16 15 -30
32 -30 38 0 5 -9 12 -20 15 -11 3 -23 13 -27 23 -3 10 -15 26 -25 36 -21 21
-24 44 -6 50 16 6 2 38 -17 38 -8 0 -15 -9 -15 -20 0 -24 -18 -26 -49 -4 -23
16 -23 16 -16 -7 4 -13 10 -26 14 -29 7 -6 31 -48 31 -55 0 -3 -5 -5 -12 -5
-6 0 -8 3 -5 7 11 11 -88 41 -117 36 -19 -4 -26 -1 -26 11 0 9 -7 16 -16 16
-12 0 -15 -6 -11 -20 4 -17 2 -20 -14 -15 -21 7 -89 -14 -89 -27 0 -4 -9 -8
-20 -8 -11 0 -20 7 -20 15 0 8 -4 15 -10 15 -13 0 -13 -23 0 -36 6 -6 8 -18 4
-28 -6 -15 -7 -15 -20 1 -7 10 -14 14 -14 9 0 -5 -9 -1 -20 9 -11 10 -17 22
-14 27 3 4 -10 15 -30 23 -45 19 -67 19 -42 0 24 -18 8 -19 -47 -3 -32 10 -41
10 -45 0 -5 -16 -21 -15 -55 3 -31 16 -157 10 -157 -8 0 -5 -6 -4 -14 2 -8 6
-27 13 -43 14 l-29 2 38 130 c55 187 94 303 150 439 46 113 172 373 214 442
10 18 43 72 72 120 76 127 231 343 304 425 13 15 34 41 48 59 14 18 41 49 60
70 19 20 60 63 91 96 166 176 379 356 609 514 36 25 67 48 70 51 3 3 10 8 15
10 14 6 159 92 165 99 3 3 19 12 35 20 17 8 32 17 35 20 13 13 339 170 353
170 10 0 17 4 17 9 0 5 21 14 46 20 25 7 56 18 67 25 12 7 54 23 92 36 39 12
77 26 86 30 23 12 250 76 349 99 196 45 493 86 655 90 49 1 92 5 95 8 8 9 373
-6 525 -22z m2825 -2990 c0 -8 -4 -15 -10 -15 -5 0 -10 7 -10 15 0 8 5 15 10
15 6 0 10 -7 10 -15z m-240 -59 c0 -8 8 -17 18 -19 9 -3 2 -5 -15 -6 -18 0
-33 -5 -33 -11 0 -5 5 -10 10 -10 6 0 10 -9 10 -20 0 -27 -37 -27 -45 0 -4 11
-4 34 0 50 5 23 12 30 31 30 14 0 24 -6 24 -14z m-5796 -136 c6 0 3 -5 -7 -11
-14 -8 -23 -5 -42 13 -14 13 -25 32 -25 42 0 17 5 15 31 -12 17 -18 36 -32 43
-32z m5746 -5 c0 -8 -7 -18 -16 -23 -13 -7 -14 -13 -5 -30 16 -29 14 -34 -11
-30 -13 2 -25 14 -31 31 -8 24 -5 31 19 52 28 24 44 24 44 0z m-5810 -46 c0
-5 -4 -9 -10 -9 -5 0 -10 7 -10 16 0 8 5 12 10 9 6 -3 10 -10 10 -16z m5713
-32 c38 -42 47 -87 18 -87 -11 0 -22 -6 -24 -12 -3 -7 -6 11 -6 40 -1 40 -5
52 -17 52 -8 0 -12 5 -9 10 8 14 24 13 38 -3z m37 -147 c0 -5 -2 -10 -4 -10
-3 0 -8 5 -11 10 -3 6 -1 10 4 10 6 0 11 -4 11 -10z m587 -22 c-3 -8 -6 -5 -6
6 -1 11 2 17 5 13 3 -3 4 -12 1 -19z m-2 -55 c16 -22 8 -43 -15 -43 -18 0 -30
19 -30 46 0 20 30 18 45 -3z m-7028 -35 c-3 -8 -6 -5 -6 6 -1 11 2 17 5 13 3
-3 4 -12 1 -19z m6753 -18 c0 -32 -11 -50 -31 -50 -10 0 -19 5 -19 10 0 6 7
10 15 10 10 0 15 10 15 31 0 17 4 28 10 24 6 -3 10 -15 10 -25z m-6376 -141
c10 -50 7 -69 -9 -69 -18 0 -18 5 -5 30 8 16 6 22 -10 32 -25 16 -26 38 -1 38
13 0 20 -10 25 -31z m6416 18 c0 -7 9 -18 20 -25 20 -12 28 -52 11 -52 -12 0
17 -60 41 -83 14 -14 17 -27 12 -56 -5 -33 -3 -41 17 -54 12 -9 24 -26 26 -37
2 -17 0 -19 -15 -11 -20 11 -63 4 -73 -12 -4 -5 -23 6 -42 26 -20 19 -46 39
-59 42 -12 4 -28 14 -36 21 -18 18 -52 18 -52 0 0 -8 19 -21 43 -28 29 -10 43
-21 45 -35 3 -21 -11 -25 -35 -10 -13 8 -45 -1 -54 -16 -10 -14 -52 19 -56 43
-4 26 15 63 28 55 5 -4 9 -1 9 4 0 6 -7 11 -15 11 -8 0 -15 5 -15 10 0 6 14
10 30 10 31 0 41 16 15 26 -8 4 -15 15 -15 25 0 11 7 22 15 25 8 4 15 16 15
29 0 29 40 75 67 75 11 0 23 7 27 15 7 18 46 20 46 2z m410 -57 c0 -5 -4 -10
-10 -10 -5 0 -10 5 -10 10 0 6 5 10 10 10 6 0 10 -4 10 -10z m0 -55 c0 -8 -7
-15 -15 -15 -8 0 -15 7 -15 15 0 8 7 15 15 15 8 0 15 -7 15 -15z m30 -19 c0
-3 -4 -8 -10 -11 -5 -3 -10 -1 -10 4 0 6 5 11 10 11 6 0 10 -2 10 -4z m-33
-52 c-3 -3 -12 -4 -19 -1 -8 3 -5 6 6 6 11 1 17 -2 13 -5z m-34 -77 c22 -8 23
-47 1 -47 -23 0 -42 29 -36 53 3 10 8 15 11 10 3 -5 14 -12 24 -16z m241 -13
c3 -9 6 -23 6 -32 0 -21 -15 -5 -25 26 -7 25 9 31 19 6z m-301 -27 c15 -12 27
-31 27 -40 0 -14 -8 -9 -35 17 -19 20 -35 38 -35 41 0 11 18 4 43 -18z m-6843
-2 c0 -8 -4 -15 -10 -15 -5 0 -10 7 -10 15 0 8 5 15 10 15 6 0 10 -7 10 -15z
m5723 -18 c3 -8 1 -20 -4 -28 -8 -12 -10 -12 -18 0 -10 15 -4 41 9 41 4 0 10
-6 13 -13z m1042 3 c3 -5 1 -18 -4 -27 -10 -17 -10 -17 -11 0 0 9 -4 17 -10
17 -5 0 -10 5 -10 10 0 13 27 13 35 0z m397 -27 c20 -18 25 -63 7 -63 -8 0 -8
-4 0 -14 17 -20 0 -81 -22 -80 -69 3 -77 5 -77 18 0 8 -7 16 -15 20 -9 3 -15
0 -15 -9 0 -8 5 -15 10 -15 6 0 5 -8 -2 -20 -14 -22 -34 -26 -40 -9 -5 16 -39
-2 -36 -20 2 -9 14 -17 26 -19 17 -3 22 -9 20 -25 -2 -12 -10 -21 -17 -19 -9
2 -11 -3 -7 -13 3 -9 6 -24 7 -33 0 -13 2 -12 9 4 10 26 49 38 57 18 3 -8 4
-16 2 -17 -2 -1 -17 -9 -33 -17 -16 -8 -31 -21 -34 -29 -3 -10 -1 -11 9 -5 38
25 74 30 99 15 31 -19 40 -31 40 -55 0 -16 -3 -15 -25 8 -29 31 -59 31 -63 -1
-2 -17 3 -23 27 -28 17 -4 31 -10 31 -15 0 -14 -22 -24 -29 -13 -3 5 -14 12
-23 16 -10 3 -18 15 -18 25 0 23 -75 48 -110 37 -16 -5 -28 -1 -43 16 l-21 22
25 -5 c13 -3 32 -9 42 -13 12 -5 17 -3 17 8 0 9 -9 19 -20 22 -20 6 -28 40
-11 47 5 2 12 15 16 29 5 20 1 32 -16 48 l-23 21 22 0 c23 0 39 37 28 65 -7
18 -2 19 24 3 10 -7 22 -9 26 -6 12 13 -5 38 -26 38 -11 0 -20 5 -20 10 0 6 4
10 9 10 5 0 12 11 15 25 8 32 24 32 28 0 2 -14 6 -25 11 -25 15 0 48 -42 43
-56 -7 -18 18 -18 33 0 17 20 -3 66 -29 66 -11 0 -20 6 -20 14 0 9 7 12 19 9
11 -3 30 2 43 11 28 20 27 20 50 -1z m-354 -26 c7 -8 7 -18 2 -27 -8 -12 -10
-12 -10 3 0 10 -4 15 -10 12 -5 -3 -10 1 -10 9 0 19 14 21 28 3z m-1058 -7 c0
-5 -5 -10 -11 -10 -5 0 -7 5 -4 10 3 6 8 10 11 10 2 0 4 -4 4 -10z m1170 -21
c0 -5 -4 -9 -10 -9 -5 0 -10 7 -10 16 0 8 5 12 10 9 6 -3 10 -10 10 -16z
m-166 -42 c-3 -9 -10 -17 -15 -17 -11 0 -12 34 -2 44 11 11 24 -9 17 -27z
m110 14 c3 -4 3 -11 0 -14 -8 -8 -34 3 -34 14 0 11 27 12 34 0z m-137 -77 c-2
-2 -14 5 -28 16 -19 18 -21 23 -9 30 11 7 18 2 28 -16 8 -14 12 -28 9 -30z
m91 27 c2 -13 12 -25 22 -28 38 -10 31 -52 -8 -53 -10 0 -10 -5 -1 -22 7 -13
18 -26 25 -31 7 -4 11 -14 8 -22 -5 -11 -12 -9 -32 11 -32 29 -56 28 -60 -4
-4 -24 -22 -31 -22 -8 0 32 23 76 40 76 17 0 34 36 24 52 -3 4 -14 8 -25 8
-14 0 -19 7 -19 26 0 21 4 25 23 22 14 -2 23 -11 25 -27z m86 -6 c-6 -16 -34
-21 -34 -7 0 13 11 22 26 22 8 0 11 -6 8 -15z m-147 -46 c-14 -23 -27 -25 -27
-4 0 8 5 15 11 15 5 0 7 4 4 10 -3 5 0 7 9 4 12 -5 13 -9 3 -25z m-63 -8 c-2
-2 0 -9 5 -15 20 -27 20 -46 1 -46 -11 0 -20 6 -20 14 0 7 -7 19 -15 26 -11 9
-12 16 -3 30 9 13 14 15 24 6 6 -6 10 -13 8 -15z m-338 -8 c-10 -10 -19 5 -10
18 6 11 8 11 12 0 2 -7 1 -15 -2 -18z m792 13 c-7 -8 -15 -12 -17 -11 -5 6 10
25 20 25 5 0 4 -6 -3 -14z m-891 -38 c6 -7 13 -23 16 -36 7 -29 -14 -25 -28 6
-5 12 -13 22 -17 22 -5 0 -8 5 -8 10 0 14 26 12 37 -2z m651 -11 c2 -10 -3
-17 -12 -17 -10 0 -16 9 -16 21 0 24 23 21 28 -4z m212 3 c0 -5 -2 -10 -4 -10
-3 0 -8 5 -11 10 -3 6 -1 10 4 10 6 0 11 -4 11 -10z m-660 -29 c0 -40 -17 -48
-22 -11 -3 17 -2 32 0 35 13 13 22 2 22 -24z m630 19 c0 -5 -4 -10 -10 -10 -5
0 -10 5 -10 10 0 6 5 10 10 10 6 0 10 -4 10 -10z m-120 -141 c0 -5 -4 -9 -10
-9 -5 0 -10 7 -10 16 0 8 5 12 10 9 6 -3 10 -10 10 -16z m46 -48 c-12 -19 -24
-12 -19 10 4 13 9 17 15 11 6 -6 7 -15 4 -21z m-7401 -1 c-3 -5 -11 -10 -16
-10 -6 0 -7 5 -4 10 3 6 11 10 16 10 6 0 7 -4 4 -10z m7443 -43 c3 -16 1 -17
-17 -5 -25 16 -27 31 -4 26 10 -2 19 -11 21 -21z m82 9 c0 -8 -4 -18 -10 -21
-5 -3 -10 3 -10 14 0 12 5 21 10 21 6 0 10 -6 10 -14z m-1030 -17 c0 -5 -7 -9
-15 -9 -8 0 -15 7 -15 15 0 9 6 12 15 9 8 -4 15 -10 15 -15z m853 5 c-3 -9 -9
-11 -12 -6 -3 5 -13 12 -21 15 -9 3 -4 6 12 6 21 1 26 -3 21 -15z m156 -38
c11 -13 6 -46 -8 -46 -15 1 -41 29 -41 44 0 20 33 21 49 2z m-99 -26 c0 -4 11
-11 25 -14 53 -13 92 -87 45 -83 -11 1 -21 5 -21 9 -7 44 -20 64 -49 76 -30
14 -44 37 -15 26 8 -4 15 -10 15 -14z m-1320 -14 c0 -3 -4 -8 -10 -11 -5 -3
-10 -1 -10 4 0 6 5 11 10 11 6 0 10 -2 10 -4z m388 -119 c5 -24 -15 -21 -21 4
-3 13 -1 19 6 16 7 -2 13 -11 15 -20z"/>
<path d="M2510 5415 c0 -8 4 -15 9 -15 5 0 11 7 15 15 3 9 0 15 -9 15 -8 0
-15 -7 -15 -15z"/>
<path d="M3680 5420 c0 -5 4 -10 9 -10 6 0 13 5 16 10 3 6 -1 10 -9 10 -9 0
-16 -4 -16 -10z"/>
<path d="M5901 5414 c0 -11 3 -14 6 -6 3 7 2 16 -1 19 -3 4 -6 -2 -5 -13z"/>
<path d="M5940 5414 c0 -8 5 -12 10 -9 6 3 10 10 10 16 0 5 -4 9 -10 9 -5 0
-10 -7 -10 -16z"/>
<path d="M6440 5420 c0 -6 7 -10 15 -10 8 0 18 0 22 -1 4 0 9 3 10 8 2 5 -8
10 -22 11 -14 1 -25 -3 -25 -8z"/>
<path d="M7566 5415 c-3 -8 -1 -15 3 -15 5 0 11 7 15 15 3 8 1 15 -3 15 -5 0
-11 -7 -15 -15z"/>
<path d="M796 5404 c-5 -12 -2 -15 10 -10 8 3 18 6 20 6 2 0 4 5 4 10 0 16
-27 11 -34 -6z"/>
<path d="M2595 5410 c-4 -6 5 -10 19 -10 16 0 26 -6 26 -15 0 -17 2 -18 24 -9
20 8 21 24 1 24 -8 0 -15 5 -15 10 0 6 -11 10 -24 10 -14 0 -28 -4 -31 -10z"/>
<path d="M3777 5406 c-3 -8 0 -13 6 -12 15 2 22 19 9 24 -5 1 -12 -4 -15 -12z"/>
<path d="M6230 5380 c0 -22 5 -40 10 -40 6 0 10 18 10 40 0 22 -4 40 -10 40
-5 0 -10 -18 -10 -40z"/>
<path d="M6290 5405 c0 -8 5 -15 10 -15 6 0 10 -5 10 -10 0 -14 51 -59 68 -60
17 0 15 -19 -4 -27 -24 -9 -62 13 -66 39 -2 15 -11 24 -25 26 -27 4 -28 -1 -7
-34 9 -13 15 -26 13 -28 -8 -8 -35 -9 -52 -1 -25 11 -33 -1 -13 -20 20 -21 21
-35 1 -35 -8 0 -15 9 -15 20 0 23 -40 43 -74 38 -16 -2 -20 -9 -18 -28 2 -22
1 -23 -11 -8 -21 27 -51 27 -55 0 -2 -13 2 -30 8 -38 9 -9 9 -18 2 -26 -5 -7
-13 -28 -17 -45 -4 -20 -13 -33 -22 -33 -10 0 -13 -6 -9 -16 3 -9 6 -22 6 -30
0 -8 7 -14 15 -14 8 0 15 -4 15 -10 0 -5 -6 -10 -14 -10 -8 0 -16 -6 -19 -13
-7 -18 4 -71 12 -58 4 6 15 -5 26 -24 19 -37 15 -56 -9 -36 -11 9 -16 9 -21 0
-4 -6 -3 -14 2 -18 5 -3 16 -21 24 -38 8 -18 20 -33 26 -33 7 0 13 -7 13 -15
0 -8 -4 -15 -9 -15 -5 0 -14 7 -21 15 -14 17 -40 20 -40 5 0 -5 4 -10 8 -10 4
0 15 -20 24 -45 l17 -45 -24 6 c-31 8 -33 -9 -5 -38 22 -24 30 -82 8 -60 -16
16 -28 15 -28 -2 0 -8 7 -16 15 -20 9 -3 15 -18 15 -40 0 -27 -3 -34 -15 -30
-9 4 -15 0 -15 -10 0 -9 4 -16 9 -16 5 0 11 -8 14 -17 2 -10 8 -26 12 -36 5
-13 3 -16 -8 -11 -22 8 -31 -14 -13 -32 21 -21 22 -76 1 -68 -10 4 -15 0 -15
-16 0 -11 4 -19 8 -16 5 3 13 -12 18 -34 9 -33 9 -37 -5 -32 -17 6 -44 34 -75
77 -14 19 -27 25 -43 22 -15 -3 -23 1 -23 9 0 8 -4 14 -10 14 -5 0 -10 7 -10
15 0 8 -11 24 -25 37 -25 23 -34 68 -20 101 5 12 3 17 -9 17 -12 0 -16 10 -16
40 0 29 4 40 15 40 19 0 19 9 0 34 -15 19 -6 52 19 68 6 5 2 8 -11 8 -12 0
-25 -5 -29 -11 -3 -6 -15 -8 -26 -6 -17 5 -19 2 -14 -21 4 -15 7 -33 8 -39 1
-7 7 -13 15 -13 7 0 13 -4 13 -10 0 -15 -26 -12 -40 5 -7 8 -16 12 -21 9 -5
-3 -9 -1 -9 5 0 6 -19 28 -42 50 -35 32 -41 42 -30 52 18 19 15 34 -4 18 -13
-10 -17 -10 -25 2 -4 8 -6 21 -4 30 3 9 1 29 -5 44 -10 27 -10 27 20 22 28 -6
30 -5 30 24 0 26 -3 30 -20 26 -15 -4 -20 0 -20 15 0 10 5 16 10 13 6 -3 10 3
10 14 0 12 5 21 10 21 6 0 10 6 10 14 0 9 -7 12 -20 9 -11 -3 -20 -10 -20 -17
0 -6 -16 -26 -35 -45 -32 -31 -35 -32 -35 -12 0 13 10 26 25 33 22 10 37 50
18 47 -32 -5 -63 3 -63 17 0 8 -4 12 -10 9 -14 -9 -12 -21 6 -39 14 -15 14
-16 -5 -16 -12 0 -21 5 -21 10 0 6 -7 10 -15 10 -9 0 -18 8 -22 18 -3 9 -15
25 -27 34 l-21 18 23 0 c23 0 26 7 16 33 -4 11 -17 14 -52 11 -57 -5 -70 2
-78 44 -8 37 13 45 34 12 13 -21 42 -28 42 -10 0 6 -5 10 -11 10 -5 0 -7 5 -4
10 3 6 -3 10 -14 10 -12 0 -21 5 -21 10 0 6 -4 16 -10 23 -56 69 -80 84 -80
48 0 -11 -4 -23 -10 -26 -5 -3 -10 -1 -10 5 0 6 -6 10 -12 9 -28 -3 -38 2 -38
21 0 22 -7 25 -29 11 -8 -5 -11 -17 -7 -32 7 -24 7 -24 -9 -4 -9 11 -14 28
-11 37 3 14 1 16 -14 8 -10 -6 -28 -10 -39 -10 -14 0 -23 -9 -27 -25 -3 -14
-10 -25 -14 -25 -11 0 -22 33 -17 51 2 8 2 11 0 7 -3 -5 -18 -8 -34 -8 -17 0
-29 -5 -29 -13 0 -14 28 -58 44 -69 6 -4 -1 -8 -16 -8 -32 0 -34 -8 -13 -36
23 -30 18 -44 -14 -44 -35 0 -50 -17 -24 -27 33 -12 48 -63 18 -63 -8 0 -15
-9 -15 -21 0 -11 5 -17 10 -14 6 4 10 -5 10 -19 0 -19 7 -27 24 -32 14 -3 27
-13 30 -21 5 -13 0 -15 -34 -9 -32 5 -40 3 -40 -9 0 -9 4 -14 9 -11 5 3 11 -4
15 -17 9 -34 7 -47 -6 -44 -8 1 -14 -10 -16 -25 -2 -16 1 -28 7 -28 6 0 11 -7
11 -15 0 -8 -4 -15 -10 -15 -5 0 -10 -11 -10 -25 0 -14 5 -25 10 -25 6 0 10
-13 10 -30 0 -16 -4 -30 -10 -30 -14 0 -13 -217 1 -222 16 -5 18 -84 2 -80
-10 1 -13 -27 -13 -115 0 -65 4 -112 8 -105 6 8 12 1 19 -23 10 -32 9 -35 -8
-35 -15 0 -19 -7 -19 -31 0 -17 4 -28 10 -24 6 4 10 -5 10 -19 0 -19 -5 -26
-20 -26 -21 0 -27 -15 -10 -25 14 -9 12 -58 -2 -74 -10 -11 -10 -14 0 -18 6
-3 12 -14 12 -24 0 -11 5 -17 10 -14 6 3 10 -4 9 -17 0 -13 -3 -17 -6 -10 -2
6 -9 12 -14 12 -6 0 -7 -4 -4 -10 3 -5 -1 -10 -9 -10 -12 0 -16 -11 -16 -41 0
-42 25 -109 41 -109 16 0 9 -25 -10 -37 -24 -15 -17 -49 12 -64 11 -7 43 -9
76 -5 31 3 58 5 60 6 2 0 1 7 -2 15 -4 8 -2 17 3 20 5 3 11 -4 15 -15 5 -16
15 -20 46 -20 36 0 40 2 34 20 -4 14 -2 20 9 20 8 0 18 -4 21 -10 3 -5 15 -10
26 -10 10 0 19 5 19 10 0 6 12 10 26 10 17 0 28 -6 31 -20 3 -11 13 -20 23
-20 10 0 23 -7 30 -15 12 -14 15 -14 30 0 9 8 24 15 33 15 9 0 20 14 27 35 10
30 13 33 26 21 8 -8 14 -21 14 -28 0 -41 92 -54 123 -18 22 26 22 37 -3 45
-11 3 -20 12 -20 20 0 7 -7 15 -15 19 -8 3 -15 12 -15 20 0 8 -9 18 -21 21
-11 4 -27 22 -35 41 -9 22 -28 41 -53 53 -21 11 -41 27 -44 36 -10 24 22 18
52 -10 54 -53 102 -95 106 -95 11 0 4 37 -9 55 -10 14 -11 25 -5 37 10 19 8
55 -3 73 -4 6 -3 17 3 25 5 8 9 11 9 5 0 -5 11 -15 25 -22 34 -15 34 9 1 40
-14 13 -28 35 -31 49 -5 21 -3 27 14 33 21 6 30 25 12 25 -5 0 -11 9 -14 20
-4 15 -14 20 -41 20 -19 0 -41 -6 -48 -13 -10 -12 -15 -10 -29 7 -15 18 -19
19 -42 7 -22 -12 -31 -11 -65 2 -28 11 -42 13 -50 5 -12 -12 -118 -2 -127 12
-8 14 9 20 74 26 47 5 62 11 66 25 7 22 25 25 43 7 9 -9 12 -8 12 4 0 14 -56
46 -72 40 -5 -1 -8 4 -8 12 0 9 21 16 63 23 l62 9 -46 22 c-48 23 -66 52 -49
81 5 9 10 11 10 6 0 -11 59 -50 65 -43 3 2 -6 14 -18 25 -12 12 -41 39 -64 62
-24 22 -43 45 -43 50 0 5 -6 16 -14 23 -7 8 -17 24 -20 36 -9 27 9 30 35 6 10
-9 25 -14 32 -11 19 7 29 64 16 88 -15 29 -2 59 27 59 19 0 24 -6 25 -25 2
-42 3 -44 27 -60 12 -9 22 -23 22 -31 0 -8 8 -14 18 -14 22 0 42 -39 42 -80 0
-17 3 -30 8 -30 4 0 8 -11 8 -25 2 -20 -3 -25 -22 -25 -13 0 -24 5 -24 10 0
16 -20 11 -27 -6 -4 -10 0 -22 9 -28 8 -6 20 -21 27 -33 6 -13 18 -23 25 -23
8 0 17 -7 20 -16 5 -14 11 -12 41 10 19 15 35 22 35 15 0 -6 8 -18 18 -25 11
-8 17 -26 17 -56 0 -29 4 -42 13 -41 6 2 12 -3 12 -10 0 -8 11 -20 25 -27 14
-7 25 -16 25 -19 0 -3 18 -26 40 -50 22 -25 40 -50 40 -58 0 -7 4 -13 9 -13
14 0 41 -60 41 -92 0 -30 9 -35 28 -16 9 9 12 8 12 -4 0 -9 -5 -18 -11 -20
-22 -7 44 -95 84 -111 9 -3 21 -15 24 -24 4 -10 16 -25 27 -34 15 -12 21 -30
22 -69 3 -59 1 -55 33 -65 22 -7 24 -5 18 24 -4 17 -5 31 -3 31 2 0 20 -13 41
-30 34 -27 65 -39 65 -24 0 3 -5 14 -11 26 -19 35 30 11 79 -38 24 -24 48 -44
53 -44 18 0 9 50 -13 70 -18 16 -19 20 -6 20 9 0 23 -7 32 -15 8 -8 19 -15 24
-15 6 0 12 -5 14 -10 2 -7 15 -7 38 0 22 6 38 6 44 0 13 -13 76 -13 76 -1 0 5
6 16 13 23 24 24 45 83 43 118 -1 32 -5 35 -34 38 -18 2 -32 9 -32 16 0 8 -8
16 -18 18 -10 3 -26 20 -35 39 -9 19 -17 28 -17 22 0 -21 -17 -15 -23 8 -3 12
-1 30 6 40 6 10 7 22 3 26 -5 4 -11 2 -13 -4 -5 -15 -33 -18 -33 -4 0 5 6 16
13 23 25 25 28 48 7 48 -12 0 -20 7 -20 16 0 12 6 15 26 10 24 -6 26 -5 19 16
-17 57 -17 68 -1 68 19 0 19 2 4 52 -9 31 -9 41 1 47 10 7 10 14 -2 38 -15 29
-10 57 13 59 5 1 15 2 20 3 19 2 29 45 13 55 -16 9 -36 -11 -27 -26 3 -4 1 -8
-4 -8 -5 0 -12 10 -16 23 -10 37 -7 50 9 43 25 -9 29 21 7 45 -17 17 -19 25
-9 40 7 11 17 19 24 19 7 0 13 7 13 16 0 11 -6 13 -19 9 -25 -8 -35 22 -21 61
8 20 8 30 1 32 -6 2 -11 12 -11 22 0 27 21 70 31 64 5 -3 9 0 9 5 0 6 -6 11
-14 11 -14 0 -26 21 -26 46 0 8 7 14 15 14 8 0 15 -4 15 -10 0 -15 29 -12 46
4 20 20 18 28 -6 21 -28 -9 -56 10 -69 46 -16 45 -14 60 6 52 13 -5 15 -3 8
13 -20 48 -17 59 31 102 35 33 53 43 70 39 18 -3 24 0 24 15 0 10 -7 21 -15
24 -13 5 -12 8 1 22 19 18 12 72 -11 85 -8 4 -15 16 -15 25 0 10 -9 26 -21 35
-22 19 -21 42 2 42 24 0 22 35 -5 62 -14 14 -26 31 -27 37 0 6 -1 29 -2 51
l-2 40 -64 0 c-43 0 -66 4 -68 13 -6 17 -23 15 -23 -3z m138 -47 c-4 -27 -28
-36 -28 -10 0 20 8 32 22 32 5 0 8 -10 6 -22z m0 -95 c-4 -22 -22 -20 -26 1
-2 10 3 16 13 16 10 0 15 -7 13 -17z m-108 -1 c0 -12 -39 -56 -44 -51 -4 4 35
58 42 59 1 0 2 -4 2 -8z m-1005 -41 c3 -6 -4 -15 -15 -21 -16 -8 -20 -8 -20 3
0 25 23 36 35 18z m-192 -21 c4 -17 2 -19 -21 -14 -34 8 -36 10 -27 23 11 18
42 12 48 -9z m116 -17 l34 -37 -24 -7 c-13 -4 -20 -7 -15 -8 15 -2 -27 -30
-44 -30 -10 0 -11 2 -2 6 6 2 12 11 12 19 0 8 5 14 10 14 16 0 12 37 -5 44
-15 5 -21 36 -7 36 4 0 23 -17 41 -37z m-169 -20 c0 -10 -5 -25 -10 -33 -9
-13 -11 -13 -20 0 -17 25 -12 50 10 50 12 0 20 -7 20 -17z m1050 -3 c0 -5 -4
-10 -10 -10 -5 0 -10 5 -10 10 0 6 5 10 10 10 6 0 10 -4 10 -10z m-810 -39 c0
-5 -7 -11 -15 -15 -9 -3 -15 0 -15 9 0 8 7 15 15 15 8 0 15 -4 15 -9z m-232
-46 c-24 -37 -38 -44 -38 -21 0 12 44 56 56 56 2 0 -6 -16 -18 -35z m992 25
c0 -5 -4 -10 -10 -10 -5 0 -10 5 -10 10 0 6 5 10 10 10 6 0 10 -4 10 -10z
m-830 -25 c0 -8 6 -15 14 -15 8 0 16 -6 19 -14 4 -9 0 -12 -13 -9 -19 5 -46
53 -30 53 6 0 10 -7 10 -15z m897 -21 c-3 -3 -12 -4 -19 -1 -8 3 -5 6 6 6 11
1 17 -2 13 -5z m313 -35 c0 -6 10 -14 23 -19 16 -6 17 -9 5 -9 -9 -1 -29 -12
-44 -26 -15 -14 -28 -24 -30 -23 -1 2 3 23 9 47 10 35 9 45 0 48 -7 3 -13 9
-13 14 0 5 11 2 25 -7 14 -9 25 -20 25 -25z m-1426 -4 c3 -8 1 -15 -3 -15 -5
0 -17 -3 -26 -6 -15 -6 -15 -4 -4 15 16 25 25 27 33 6z m90 0 c3 -9 0 -15 -9
-15 -8 0 -15 7 -15 15 0 8 4 15 9 15 5 0 11 -7 15 -15z m966 -7 c10 -3 8 -6
-8 -10 -18 -5 -22 -2 -22 15 0 13 3 17 8 11 4 -6 14 -13 22 -16z m-671 -22
c18 -21 10 -80 -11 -84 -12 -2 -15 2 -11 17 3 12 9 21 14 21 5 0 9 7 9 15 0 8
-4 15 -9 15 -5 0 -14 -7 -21 -15 -7 -8 -22 -15 -34 -14 -18 1 -18 2 4 8 15 4
26 15 28 29 4 25 15 28 31 8z m-354 -16 c-3 -5 -1 -10 4 -10 6 0 11 -4 11 -10
0 -19 -28 -10 -33 10 -3 13 0 20 10 20 8 0 11 -4 8 -10z m215 6 c0 -2 -7 -6
-15 -10 -8 -3 -15 -1 -15 4 0 6 7 10 15 10 8 0 15 -2 15 -4z m-100 -28 c0 -4
-7 -8 -15 -8 -8 0 -15 4 -15 8 0 5 7 9 15 9 8 0 15 -4 15 -9z m960 8 c0 -3 -4
-8 -10 -11 -5 -3 -10 -1 -10 4 0 6 5 11 10 11 6 0 10 -2 10 -4z m-635 -22 c13
-10 16 -17 9 -22 -6 -4 -16 -17 -23 -30 -12 -22 -7 -38 19 -62 3 -3 16 -20 29
-37 18 -27 19 -33 7 -33 -9 0 -16 4 -16 9 0 5 -8 11 -17 15 -10 3 -24 9 -32
12 -10 5 -11 1 -6 -17 7 -22 7 -22 -9 -6 -32 32 -121 19 -130 -19 -5 -17 -13
-24 -31 -24 -14 0 -25 4 -25 8 0 5 -12 13 -27 20 -25 10 -23 11 25 7 58 -5 65
4 27 39 -27 25 -35 47 -10 26 9 -7 53 -15 100 -17 l85 -5 0 26 c0 21 -5 26
-24 26 -14 0 -28 5 -31 10 -4 6 5 10 19 10 24 0 26 4 26 40 0 44 5 47 35 24z
m-192 -18 c17 -13 16 -14 -2 -19 -13 -3 -21 1 -24 14 -6 22 1 24 26 5z m864
-8 c-3 -8 -6 -5 -6 6 -1 11 2 17 5 13 3 -3 4 -12 1 -19z m-947 -18 c0 -11 -1
-20 -3 -20 -1 0 -10 9 -20 20 -16 19 -16 20 3 20 13 0 20 -7 20 -20z m-157
-14 c6 -14 0 -26 -13 -26 -3 0 -6 9 -6 20 0 23 11 27 19 6z m91 -4 c3 -5 -1
-9 -9 -9 -8 0 -15 4 -15 9 0 4 4 8 9 8 6 0 12 -4 15 -8z m123 -8 c-3 -3 -12
-4 -19 -1 -8 3 -5 6 6 6 11 1 17 -2 13 -5z m863 -4 c0 -5 -4 -10 -10 -10 -5 0
-10 5 -10 10 0 6 5 10 10 10 6 0 10 -4 10 -10z m-793 -32 c-3 -8 -6 -5 -6 6
-1 11 2 17 5 13 3 -3 4 -12 1 -19z m263 3 c0 -3 -9 -12 -19 -18 -16 -10 -20
-9 -25 3 -10 27 -7 31 19 26 14 -2 25 -7 25 -11z m-472 -46 c26 -30 27 -35 7
-35 -8 0 -15 9 -15 20 0 12 -10 24 -22 30 -15 5 -17 9 -7 9 8 1 25 -10 37 -24z
m-68 -25 c0 -5 -7 -10 -15 -10 -8 0 -15 5 -15 10 0 6 7 10 15 10 8 0 15 -4 15
-10z m137 -35 c-4 -8 -12 -15 -19 -14 -10 0 -10 2 0 6 6 2 12 12 12 21 0 8 3
13 6 9 4 -3 4 -13 1 -22z m210 6 c-3 -14 7 -31 31 -55 19 -20 33 -36 31 -37
-2 0 -11 -2 -20 -4 -10 -2 -21 9 -29 29 -8 20 -23 37 -41 43 -40 15 -38 43 2
43 26 0 30 -3 26 -19z m193 -1 c0 -5 -4 -10 -10 -10 -5 0 -10 5 -10 10 0 6 5
10 10 10 6 0 10 -4 10 -10z m774 -18 c3 -5 -1 -9 -9 -9 -8 0 -12 4 -9 9 3 4 7
8 9 8 2 0 6 -4 9 -8z m-1174 -91 c0 -12 -20 -25 -27 -18 -7 7 6 27 18 27 5 0
9 -4 9 -9z m218 -38 c7 -7 17 -13 22 -13 10 0 24 -39 17 -46 -6 -6 -90 82 -96
99 -4 11 19 -5 57 -40z m272 37 c0 -5 -7 -10 -15 -10 -8 0 -15 5 -15 10 0 6 7
10 15 10 8 0 15 -4 15 -10z m-385 -10 c-3 -5 -10 -10 -16 -10 -5 0 -9 5 -9 10
0 6 7 10 16 10 8 0 12 -4 9 -10z m260 0 c3 -5 1 -10 -4 -10 -6 0 -11 5 -11 10
0 6 2 10 4 10 3 0 8 -4 11 -10z m-58 -62 c-2 -13 -4 -5 -4 17 -1 22 1 32 4 23
2 -10 2 -28 0 -40z m-267 28 c0 -3 -4 -8 -10 -11 -5 -3 -10 -1 -10 4 0 6 5 11
10 11 6 0 10 -2 10 -4z m400 -6 c0 -5 -7 -10 -15 -10 -8 0 -15 5 -15 10 0 6 7
10 15 10 8 0 15 -4 15 -10z m-336 -36 c8 -22 8 -24 -8 -24 -9 0 -14 9 -13 20
2 24 13 26 21 4z m-94 -29 c0 -28 -12 -32 -30 -10 -14 16 -6 35 16 35 8 0 14
-10 14 -25z m297 0 c3 -9 3 -19 -1 -22 -7 -7 -36 16 -36 28 0 15 30 10 37 -6z
m70 -55 c2 -56 0 -70 -12 -70 -9 0 -15 10 -15 26 0 14 -4 23 -9 20 -5 -4 -12
0 -15 6 -3 7 -4 1 -1 -13 3 -18 0 -29 -10 -33 -12 -4 -15 3 -15 34 0 22 4 40
9 40 5 0 22 14 38 30 15 17 28 30 28 30 0 0 1 -32 2 -70z m-434 37 c21 -16 28
-30 25 -47 l-3 -25 -29 33 c-28 31 -42 62 -28 62 4 0 20 -10 35 -23z m507 -23
c0 -13 7 -15 31 -10 29 5 31 4 25 -17 -3 -12 -6 -28 -6 -34 0 -26 -38 -13 -52
17 -7 17 -16 30 -20 30 -5 0 -8 7 -8 15 0 8 7 15 15 15 8 0 15 -7 15 -16z
m147 -33 c17 -22 16 -96 -1 -110 -19 -16 -45 -4 -43 20 1 10 5 19 9 19 14 0 4
44 -15 74 l-18 27 28 -7 c15 -4 33 -14 40 -23z m-697 -26 c0 -8 -4 -17 -10
-20 -5 -3 -10 -2 -10 4 0 5 -3 17 -6 25 -5 12 -2 15 10 10 9 -3 16 -12 16 -19z
m50 -17 c15 -6 47 -55 39 -61 -2 -2 -30 -1 -61 2 -56 6 -66 19 -25 34 9 3 17
17 17 29 0 13 4 18 8 12 4 -6 14 -13 22 -16z m100 -5 c37 -33 40 -62 6 -56
-15 3 -27 14 -30 29 -4 13 -14 24 -22 24 -14 0 -14 3 -4 15 16 19 15 20 50
-12z m498 -5 c-7 -19 -38 -22 -38 -4 0 10 9 16 21 16 12 0 19 -5 17 -12z m112
-46 l0 -26 -21 21 c-14 13 -19 28 -15 38 9 25 36 0 36 -33z m-280 13 c0 -8 -4
-15 -10 -15 -5 0 -10 7 -10 15 0 8 5 15 10 15 6 0 10 -7 10 -15z m110 -15 c0
-5 -4 -10 -9 -10 -6 0 -13 5 -16 10 -3 6 1 10 9 10 9 0 16 -4 16 -10z m-146
-55 c4 -11 -1 -15 -19 -15 -16 0 -25 6 -25 15 0 8 9 15 19 15 10 0 21 -7 25
-15z m277 2 c-1 -12 -15 -9 -19 4 -3 6 1 10 8 8 6 -3 11 -8 11 -12z m109 3 c0
-5 -4 -10 -10 -10 -5 0 -10 5 -10 10 0 6 5 10 10 10 6 0 10 -4 10 -10z m-623
-66 c-3 -4 -14 -3 -24 0 -15 6 -15 8 -3 16 16 10 39 -4 27 -16z m-47 -34 c0
-5 -4 -10 -10 -10 -5 0 -10 5 -10 10 0 6 5 10 10 10 6 0 10 -4 10 -10z m45
-50 c3 -5 -1 -10 -9 -10 -9 0 -16 5 -16 10 0 6 4 10 9 10 6 0 13 -4 16 -10z
m-220 -65 c0 -5 -19 -11 -42 -13 -40 -3 -58 10 -30 22 20 8 72 2 72 -9z m369
-71 c3 -9 3 -21 -1 -27 -4 -6 0 -8 10 -4 11 4 17 1 17 -8 0 -8 5 -15 10 -15 6
0 10 -9 10 -20 0 -11 7 -20 15 -20 20 0 19 -30 -2 -59 -15 -22 -15 -25 1 -37
10 -7 13 -15 8 -18 -13 -8 -42 3 -42 15 0 23 -28 59 -46 59 -7 0 -14 5 -16 12
-2 6 -9 8 -16 4 -9 -5 -8 -13 4 -31 15 -23 15 -25 -10 -36 -24 -11 -26 -17
-26 -71 0 -44 4 -58 14 -58 8 0 18 5 21 10 13 21 42 8 88 -37 26 -27 61 -59
77 -73 34 -28 36 -35 15 -44 -9 -3 -31 10 -57 34 -47 45 -64 49 -73 19 -8 -24
-54 -68 -70 -68 -5 0 -25 19 -44 42 -32 40 -32 42 -12 45 20 3 32 42 12 42 -5
0 -11 8 -14 18 -2 9 -8 25 -12 35 -5 13 -2 17 14 17 17 0 21 6 21 36 0 19 -4
33 -9 30 -11 -7 -22 87 -14 125 3 16 9 29 14 29 18 0 8 29 -11 32 -14 2 -17 7
-11 17 7 11 13 10 35 -4 14 -10 26 -23 26 -30 0 -7 7 -15 15 -19 8 -3 15 -12
15 -21 0 -8 8 -15 19 -15 21 0 35 36 18 48 -12 7 -37 47 -37 57 0 13 39 3 44
-11z m856 -15 c0 -5 -4 -9 -10 -9 -5 0 -10 7 -10 16 0 8 5 12 10 9 6 -3 10
-10 10 -16z m-775 1 c-3 -5 -10 -10 -16 -10 -5 0 -9 5 -9 10 0 6 7 10 16 10 8
0 12 -4 9 -10z m795 -100 c0 -13 -7 -20 -19 -20 -14 0 -18 5 -14 20 3 11 12
20 19 20 8 0 14 -9 14 -20z m-1130 -50 c6 -11 7 -20 3 -20 -5 0 -14 9 -21 20
-7 11 -8 20 -2 20 5 0 14 -9 20 -20z m1214 -126 c8 -21 8 -21 -9 -28 -11 -4
-15 1 -15 19 0 28 15 33 24 9z m-1454 -12 c0 -14 -11 -21 -26 -15 -8 3 -11 9
-8 14 7 11 34 12 34 1z m1510 -45 c12 -4 11 -6 -2 -6 -10 -1 -18 -9 -19 -18 0
-15 -2 -15 -9 2 -5 11 -9 29 -9 40 0 18 1 18 12 4 7 -9 19 -18 27 -22z m-37
-52 c9 -8 17 -20 20 -27 3 -9 10 -6 22 10 20 27 45 29 45 2 0 -11 -6 -20 -13
-20 -7 0 -25 -14 -40 -31 -20 -23 -27 -27 -27 -14 0 9 -11 30 -25 47 -14 16
-25 34 -25 39 0 14 27 11 43 -6z m-1185 -4 c11 -7 11 -9 -1 -14 -16 -6 -27 0
-27 15 0 10 11 10 28 -1z m1122 -56 c0 -8 -7 -15 -15 -15 -26 0 -18 20 13 29
1 1 2 -6 2 -14z"/>
<path d="M5385 3900 c3 -5 10 -10 16 -10 5 0 9 5 9 10 0 6 -7 10 -16 10 -8 0
-12 -4 -9 -10z"/>
<path d="M5470 3875 c0 -29 6 -31 26 -11 20 20 17 36 -6 36 -15 0 -20 -7 -20
-25z"/>
<path d="M5362 3876 c1 -10 8 -17 13 -17 15 1 12 24 -3 29 -9 3 -13 -2 -10
-12z"/>
<path d="M5424 3645 c3 -9 6 -21 6 -26 0 -5 9 -9 21 -9 31 0 22 44 -10 48 -19
3 -22 0 -17 -13z"/>
<path d="M5383 3596 c4 -10 1 -13 -9 -9 -10 4 -12 0 -8 -11 7 -17 64 -23 64
-7 0 23 -14 41 -32 41 -13 0 -18 -5 -15 -14z"/>
<path d="M7650 5410 c0 -5 6 -10 14 -10 8 0 16 -7 20 -15 6 -16 36 -21 36 -6
0 27 -15 41 -41 41 -16 0 -29 -4 -29 -10z"/>
<path d="M2440 5393 c0 -13 22 -33 37 -33 7 0 13 7 13 15 0 8 -4 15 -9 15 -5
0 -16 3 -25 6 -9 3 -16 2 -16 -3z"/>
<path d="M3537 5393 c-12 -12 -7 -22 8 -17 8 4 15 10 15 15 0 11 -14 12 -23 2z"/>
<path d="M3735 5390 c4 -6 11 -8 16 -5 14 9 11 15 -7 15 -8 0 -12 -5 -9 -10z"/>
<path d="M1600 5375 c0 -8 4 -15 10 -15 5 0 7 7 4 15 -4 8 -8 15 -10 15 -2 0
-4 -7 -4 -15z"/>
<path d="M2538 5377 c-7 -8 -23 -19 -36 -26 -12 -6 -22 -18 -22 -26 0 -20 -7
-19 -32 5 -12 11 -27 20 -34 20 -7 0 -16 -9 -19 -20 -9 -30 -33 -25 -27 5 3
20 0 25 -17 25 -31 0 -61 -18 -61 -35 0 -8 -5 -15 -10 -15 -14 0 -51 -87 -44
-104 4 -10 -5 -16 -26 -21 -17 -4 -29 -9 -26 -13 3 -3 -4 -10 -17 -17 -15 -8
-21 -19 -20 -38 1 -21 -3 -27 -18 -27 -22 0 -27 -38 -5 -46 31 -12 28 -74 -4
-74 -18 0 -44 52 -33 64 4 3 3 6 -1 6 -16 0 -45 -46 -46 -72 0 -29 9 -35 26
-18 7 7 21 7 42 -1 28 -10 32 -16 32 -47 0 -19 -3 -33 -6 -29 -3 3 -16 -5 -29
-19 -27 -30 -32 -30 -56 -1 l-18 22 -1 -26 c0 -14 3 -29 7 -33 4 -3 8 -13 9
-21 3 -23 -27 -18 -33 5 -6 24 -30 26 -61 4 -12 -8 -22 -12 -22 -7 0 4 -7 -3
-16 -15 -8 -12 -12 -27 -9 -32 10 -15 55 -12 61 5 8 19 30 19 38 0 7 -20 34
-9 73 32 21 20 43 33 58 33 23 0 25 -2 14 -22 -7 -13 -18 -27 -25 -31 -18 -10
-18 -27 0 -27 11 0 15 -29 7 -48 0 -2 -11 4 -23 12 -28 20 -38 20 -38 1 0 -8
4 -15 8 -15 12 0 14 -58 2 -65 -13 -8 -13 -45 0 -45 6 0 10 -4 10 -10 0 -5
-15 -10 -32 -11 -18 0 -27 -3 -20 -6 19 -7 14 -33 -11 -67 -13 -17 -26 -39
-30 -48 -3 -10 -11 -18 -17 -18 -5 0 -10 -9 -10 -20 0 -11 7 -20 15 -20 8 0
15 -5 15 -11 0 -7 -11 -9 -30 -5 -32 6 -41 -9 -19 -31 6 -6 9 -16 5 -21 -7
-11 -56 -3 -56 9 0 5 -7 9 -16 9 -10 0 -14 -7 -12 -22 2 -13 9 -22 17 -20 7 1
19 -2 26 -8 15 -12 18 -70 3 -70 -5 0 -7 -7 -4 -16 6 -16 -9 -37 -34 -46 -9
-3 -15 -17 -15 -34 0 -22 -4 -28 -17 -26 -9 1 -19 -2 -23 -8 -8 -14 -41 -13
-68 3 -12 6 -23 12 -23 12 -1 0 -5 10 -8 23 -6 19 -4 22 17 22 14 0 28 -7 31
-16 3 -8 10 -12 16 -9 16 10 12 22 -10 28 -11 3 -20 12 -20 21 0 9 -4 16 -9
16 -14 0 -20 38 -7 43 7 3 24 3 39 0 22 -4 27 -2 27 16 0 12 -6 21 -16 21 -9
0 -12 5 -8 12 5 8 14 3 28 -15 22 -27 79 -46 89 -30 10 15 -23 45 -65 59 -20
7 -33 37 -19 42 6 2 11 11 11 20 0 15 2 15 10 2 8 -12 10 -11 10 8 0 13 -6 22
-15 22 -8 0 -15 -4 -15 -10 0 -5 -20 -10 -45 -10 -25 0 -44 -3 -43 -7 0 -5 -2
-15 -6 -24 -4 -9 -10 -54 -14 -100 -5 -58 -11 -83 -20 -82 -20 5 -14 -51 8
-67 11 -8 20 -20 20 -27 0 -12 10 -14 90 -17 19 0 36 -4 38 -8 5 -18 1 -28
-13 -28 -10 0 -15 -10 -15 -29 0 -16 -6 -31 -15 -35 -8 -3 -15 -16 -15 -29 0
-20 -4 -23 -30 -19 -33 5 -37 -2 -15 -24 21 -21 19 -54 -2 -54 -10 0 -28 -16
-40 -35 -27 -41 -27 -42 -8 -61 32 -33 8 -42 -47 -19 -13 5 -18 3 -18 -9 0 -9
4 -16 9 -16 5 0 12 -12 16 -27 5 -20 2 -31 -11 -40 -15 -11 -15 -13 -1 -27 9
-9 19 -16 24 -16 4 0 14 -9 21 -21 8 -12 9 -18 3 -14 -6 3 -11 0 -11 -8 0 -8
8 -17 18 -21 9 -3 23 -9 30 -12 8 -4 12 3 12 20 0 17 -9 30 -30 43 -31 18 -40
43 -16 43 8 0 21 -7 30 -15 18 -18 33 -19 38 -3 6 18 158 20 165 2 3 -8 11
-14 18 -14 17 0 32 -43 16 -48 -14 -5 -15 -32 -1 -32 6 0 10 7 10 15 0 20 26
19 34 -2 5 -11 10 -13 17 -6 12 12 -9 53 -27 53 -6 0 -16 11 -22 24 -15 33 11
43 38 16 11 -11 24 -20 29 -20 5 0 14 -7 21 -15 7 -8 16 -15 21 -15 15 0 10
22 -8 35 -9 7 -14 19 -10 29 15 39 75 -4 85 -63 6 -35 9 -38 24 -27 9 7 20 24
23 39 6 23 4 27 -14 27 -19 0 -21 6 -21 58 0 31 -5 75 -10 96 -6 28 -5 45 4
57 16 24 41 8 33 -21 -3 -12 -1 -20 5 -18 5 2 9 7 9 11 0 3 4 20 9 35 9 33 4
44 -27 61 -28 14 -30 41 -4 48 12 3 21 17 25 39 6 29 11 34 44 39 42 7 51 10
73 26 12 9 23 8 47 -3 27 -14 31 -14 36 -1 8 20 -1 32 -31 44 -34 13 -19 29
28 29 36 0 40 -3 39 -22 -4 -40 0 -59 9 -54 5 3 22 -1 37 -9 39 -20 141 -20
161 1 10 9 18 12 22 6 3 -6 18 -13 34 -17 20 -5 28 -3 33 9 5 14 9 14 35 0 20
-10 41 -13 64 -8 30 5 39 2 64 -25 16 -17 31 -38 35 -46 3 -8 12 -15 20 -15
19 0 29 -29 11 -36 -18 -7 -35 3 -35 22 0 8 -7 14 -15 14 -8 0 -15 -9 -15 -20
0 -11 4 -20 9 -20 16 0 61 -46 61 -61 0 -8 9 -21 20 -29 28 -20 25 -47 -5 -54
-26 -7 -34 -25 -12 -27 19 -2 19 -2 60 5 35 7 40 4 87 -44 48 -47 80 -63 80
-40 0 6 -4 10 -9 10 -5 0 -11 9 -14 20 -3 12 -14 20 -26 20 -14 0 -23 9 -27
28 -8 30 -47 72 -68 72 -8 0 -17 7 -20 16 -5 12 -1 14 16 8 12 -4 28 -13 36
-20 7 -8 20 -14 28 -14 7 0 19 -9 26 -20 7 -11 18 -20 25 -20 7 0 15 -11 19
-25 3 -14 12 -25 20 -25 8 0 14 -9 14 -20 0 -11 5 -20 11 -20 27 0 -3 64 -51
109 -54 51 -70 98 -27 82 12 -4 26 -17 32 -29 5 -11 18 -23 28 -26 10 -2 21
-14 24 -25 3 -12 12 -21 19 -21 8 0 14 -4 14 -9 0 -4 12 -21 28 -36 15 -15 27
-32 27 -39 0 -6 11 -13 24 -14 13 -2 26 -12 28 -23 7 -25 33 -25 33 1 0 11 -4
20 -10 20 -5 0 -10 11 -10 25 0 14 6 25 13 25 8 0 14 15 15 37 3 43 17 63 42
63 15 0 30 18 30 37 0 2 -13 2 -30 -2 -37 -8 -70 2 -70 21 0 22 -17 17 -23 -7
-5 -19 -10 -20 -46 -14 -37 6 -41 5 -41 -14 0 -12 6 -21 15 -21 19 0 20 -16 1
-23 -7 -3 -20 3 -29 14 -9 10 -24 19 -32 19 -9 0 -15 9 -15 22 0 12 -3 18 -7
15 -9 -9 -43 22 -43 40 0 7 7 13 15 13 19 0 19 19 0 57 -23 47 -65 55 -65 13
0 -11 11 -22 31 -29 30 -10 32 -31 2 -31 -18 0 -63 40 -63 56 0 14 -23 24 -52
24 -14 0 -18 -5 -14 -15 3 -9 0 -15 -9 -15 -13 0 -19 11 -17 31 1 4 -4 6 -11
6 -33 -1 -47 4 -47 17 0 21 22 26 42 9 9 -8 22 -12 27 -8 17 10 13 22 -10 28
-19 5 -21 10 -14 39 11 47 9 79 -6 88 -9 6 -4 16 17 35 19 18 25 29 17 32 -17
6 -16 48 1 65 7 8 17 24 21 37 8 26 28 23 34 -5 2 -10 14 -29 27 -41 13 -12
24 -27 24 -33 0 -5 7 -10 15 -10 31 0 10 62 -24 72 -13 4 -17 17 -22 63 -1 6
2 18 6 29 12 27 -17 16 -30 -12 -5 -12 -13 -22 -17 -22 -12 0 -9 68 3 76 8 4
9 -1 4 -16 -5 -16 -4 -21 6 -18 22 7 21 42 -2 68 l-21 25 21 3 c28 5 26 26 -4
46 -34 22 -32 46 3 47 25 0 23 2 -13 16 -22 8 -45 15 -52 16 -16 1 -4 27 13
27 8 0 22 9 31 19 9 11 20 18 25 15 4 -3 8 0 8 5 0 6 -18 11 -40 11 -39 0 -40
1 -40 35 0 32 -2 35 -30 35 -16 0 -30 5 -30 10 0 6 -7 10 -15 10 -9 0 -20 11
-26 24 -6 13 -19 26 -29 29 -9 2 -20 14 -23 26 -7 29 21 41 38 17 10 -13 15
-14 21 -5 4 7 2 15 -4 17 -7 2 -12 8 -12 14 0 5 -7 16 -15 24 -8 9 -15 33 -15
54 0 52 -12 80 -54 126 -35 38 -46 64 -26 64 5 0 28 -19 52 -43 46 -46 108
-65 108 -33 0 9 -8 16 -17 16 -27 1 -53 25 -53 48 0 18 -4 20 -35 15 -29 -5
-35 -2 -35 12 0 9 -9 19 -20 22 -11 3 -20 13 -20 22 0 9 -11 33 -25 53 -14 20
-25 48 -25 62 0 15 -4 26 -10 26 -5 0 -10 -9 -10 -20 0 -11 -4 -20 -10 -20 -5
0 -10 4 -10 9 0 5 -15 14 -34 21 -19 6 -36 19 -39 30 -6 23 -30 26 -49 7z m49
-52 c0 -8 -9 -15 -19 -15 -18 0 -24 11 -11 23 12 12 30 7 30 -8z m-234 -65
c16 -19 16 -20 -13 -20 -17 0 -30 -4 -30 -10 0 -5 7 -10 15 -10 8 0 15 -9 15
-20 0 -23 -26 -26 -52 -6 -19 14 -25 56 -8 56 6 0 10 7 10 15 0 22 42 19 63
-5z m-55 -138 c3 -17 -2 -22 -17 -22 -25 0 -27 -13 -6 -34 20 -19 19 -26 -2
-26 -38 1 -77 55 -48 66 8 4 15 13 15 21 0 8 5 11 10 8 6 -3 10 -1 10 5 0 21
35 5 38 -18z m-89 -97 c8 -16 17 -32 20 -35 15 -12 9 -30 -9 -30 -11 0 -20 -4
-20 -10 0 -5 -7 -10 -15 -10 -11 0 -15 12 -15 50 0 28 -4 50 -10 50 -5 0 -10
5 -10 11 0 23 45 3 59 -26z m11 -133 c0 -15 -2 -15 -10 -2 -13 20 -13 33 0 25
6 -3 10 -14 10 -23z m605 -1 c3 -5 1 -12 -4 -15 -5 -3 -11 1 -15 9 -6 16 9 21
19 6z m-7 -63 c14 -14 16 -44 3 -52 -13 -8 -41 17 -46 42 -4 25 22 31 43 10z
m-278 -74 c0 -30 -3 -34 -25 -34 -31 0 -33 16 -3 23 18 5 19 9 9 21 -7 8 -10
20 -6 26 12 19 25 0 25 -36z m0 -54 c0 -5 -2 -10 -4 -10 -3 0 -8 5 -11 10 -3
6 -1 10 4 10 6 0 11 -4 11 -10z m-55 -40 c3 -6 -1 -7 -9 -4 -18 7 -21 14 -7
14 6 0 13 -4 16 -10z m105 -13 c0 -7 8 -22 18 -33 15 -16 16 -22 6 -31 -13
-13 -8 -53 7 -53 5 0 15 -12 22 -27 6 -16 18 -34 25 -42 12 -13 11 -17 -4 -28
-12 -9 -15 -16 -8 -21 6 -4 19 -23 30 -42 10 -19 24 -38 29 -42 15 -11 -4 -9
-25 2 -14 8 -29 7 -53 -3 -30 -13 -35 -12 -55 3 -12 10 -22 23 -22 28 0 6 -16
16 -35 22 -19 6 -33 16 -30 21 4 5 3 9 -2 10 -4 0 -18 2 -30 5 -18 3 -23 -1
-23 -16 0 -14 -7 -20 -21 -20 -25 0 -22 -33 4 -38 12 -2 17 3 17 17 0 14 6 21
20 21 32 0 70 -22 70 -41 0 -23 -22 -30 -37 -10 -11 15 -15 14 -44 -2 l-33
-18 -30 32 c-19 21 -26 34 -18 37 7 2 12 10 12 18 0 8 5 14 11 14 6 0 8 9 4
20 -5 17 -2 20 24 20 34 0 42 19 12 27 -34 9 -38 53 -5 53 8 0 14 10 14 24 0
31 40 76 68 76 11 0 22 7 26 15 7 18 56 20 56 2z m400 -112 c0 -8 7 -15 15
-15 8 0 15 -4 15 -10 0 -15 -17 -12 -40 7 -24 21 -26 33 -5 33 8 0 15 -7 15
-15z m-3 -71 c-3 -3 -12 -4 -19 -1 -8 3 -5 6 6 6 11 1 17 -2 13 -5z m23 -24
c0 -5 -4 -10 -10 -10 -5 0 -10 5 -10 10 0 6 5 10 10 10 6 0 10 -4 10 -10z
m-313 -42 c-3 -8 -6 -5 -6 6 -1 11 2 17 5 13 3 -3 4 -12 1 -19z m258 -9 c19
-17 22 -26 14 -40 -10 -20 -39 -15 -39 7 0 8 -8 14 -17 14 -17 1 -17 1 -1 14
10 7 15 16 11 19 -16 17 10 5 32 -14z m-56 -47 c15 -15 26 -33 23 -40 -6 -19
-18 -14 -30 13 -6 14 -18 25 -27 25 -8 0 -15 7 -15 15 0 23 18 18 49 -13z
m-1129 -23 c0 -5 -7 -9 -15 -9 -15 0 -20 12 -9 23 8 8 24 -1 24 -14z m1060 4
c0 -2 -6 -11 -14 -18 -16 -16 -26 -10 -26 16 0 12 6 16 20 12 11 -3 20 -7 20
-10z m35 -49 c20 -15 20 -16 -4 -12 -14 2 -26 9 -29 16 -5 16 9 15 33 -4z
m105 -25 c0 -10 -4 -19 -9 -19 -10 0 -21 36 -14 44 10 10 23 -5 23 -25z m-162
-31 c-5 -15 -23 -11 -26 6 -2 11 2 14 13 10 9 -4 14 -11 13 -16z m116 -10 c-7
-10 -15 -10 -33 1 -7 5 -11 14 -7 20 5 7 12 7 26 -1 10 -7 16 -16 14 -20z
m-158 -28 c5 0 10 -6 12 -14 4 -21 -24 -21 -32 0 -9 24 -7 42 3 26 4 -8 12
-13 17 -12z m90 12 c6 -4 19 -22 29 -39 11 -18 23 -33 27 -33 17 0 7 -19 -12
-25 -16 -5 -19 -12 -14 -28 3 -12 12 -27 20 -33 14 -11 19 -34 8 -34 -3 0 -13
9 -22 19 -10 11 -27 22 -39 26 -20 5 -23 3 -23 -19 0 -29 -24 -36 -34 -10 -7
17 4 36 41 69 28 25 29 45 3 68 -27 23 -13 59 16 39z m108 -7 c3 -9 0 -15 -9
-15 -8 0 -15 -7 -15 -17 0 -9 -3 -14 -6 -10 -9 8 4 57 15 57 5 0 11 -7 15 -15z
m-220 -85 c4 -23 11 -38 16 -35 6 3 10 1 10 -4 0 -6 -7 -11 -15 -11 -8 0 -15
7 -15 15 0 8 -10 20 -22 26 -14 8 -18 14 -10 17 6 2 12 10 12 18 0 31 18 11
24 -26z m69 33 c-7 -2 -13 -11 -13 -19 0 -8 -4 -14 -10 -14 -12 0 -12 3 -4 24
3 9 14 16 23 15 10 0 11 -2 4 -6z m-409 -18 c-4 -8 -8 -15 -10 -15 -2 0 -4 7
-4 15 0 8 4 15 10 15 5 0 7 -7 4 -15z m-96 -37 c7 -7 12 -23 12 -37 -1 -25 -1
-25 -15 -6 -8 11 -22 28 -31 38 -17 16 -16 17 2 17 11 0 25 -5 32 -12z m649
-3 c8 -22 -6 -33 -17 -15 -13 20 -12 30 0 30 6 0 13 -7 17 -15z m-290 -17 c-3
-8 -6 -5 -6 6 -1 11 2 17 5 13 3 -3 4 -12 1 -19z m-167 -46 c-7 -13 -9 -8 -9
23 0 35 1 37 10 17 6 -15 5 -30 -1 -40z m220 8 c0 -11 -2 -20 -4 -20 -2 0 -6
9 -9 20 -3 11 -1 20 4 20 5 0 9 -9 9 -20z m350 -146 c0 -8 -7 -14 -15 -14 -15
0 -21 21 -9 33 10 9 24 -2 24 -19z m40 -45 c10 -18 9 -20 -7 -17 -10 2 -19 11
-21 21 -5 24 15 21 28 -4z m-86 -4 c-7 -16 -24 -21 -24 -6 0 5 -8 12 -17 14
-10 3 -4 5 14 6 25 1 31 -2 27 -14z m-864 -4 c0 -6 -9 -9 -20 -8 -11 1 -20 5
-20 9 0 4 9 8 20 8 11 0 20 -4 20 -9z m-20 -94 c0 -10 -4 -15 -10 -12 -5 3
-10 0 -10 -8 0 -8 -7 -18 -16 -21 -12 -5 -14 -1 -9 17 13 45 28 68 37 55 4 -7
8 -21 8 -31z m-395 13 c-3 -5 -10 -10 -16 -10 -5 0 -9 5 -9 10 0 6 7 10 16 10
8 0 12 -4 9 -10z m1645 -4 c0 -2 -7 -6 -15 -10 -8 -3 -15 -1 -15 4 0 6 7 10
15 10 8 0 15 -2 15 -4z m-55 -46 c-3 -5 -10 -10 -16 -10 -5 0 -9 5 -9 10 0 6
7 10 16 10 8 0 12 -4 9 -10z m-1195 -54 c0 -24 -17 -28 -23 -6 -3 13 0 20 9
20 8 0 14 -6 14 -14z"/>
<path d="M2510 4560 c0 -5 5 -10 10 -10 6 0 10 5 10 10 0 6 -4 10 -10 10 -5 0
-10 -4 -10 -10z"/>
<path d="M2465 4510 c3 -5 8 -10 11 -10 2 0 4 5 4 10 0 6 -5 10 -11 10 -5 0
-7 -4 -4 -10z"/>
<path d="M2570 4510 c-9 -6 -11 -10 -3 -10 7 0 19 -12 27 -27 13 -24 15 -25
16 -7 0 31 -22 56 -40 44z"/>
<path d="M2500 4460 c0 -5 4 -10 9 -10 6 0 13 5 16 10 3 6 -1 10 -9 10 -9 0
-16 -4 -16 -10z"/>
<path d="M2557 4399 c-4 -15 -1 -19 11 -17 21 4 29 38 9 38 -8 0 -17 -9 -20
-21z"/>
<path d="M2735 5380 c4 -6 11 -8 16 -5 14 9 11 15 -7 15 -8 0 -12 -5 -9 -10z"/>
<path d="M3115 5380 c3 -5 10 -10 16 -10 5 0 9 5 9 10 0 6 -7 10 -16 10 -8 0
-12 -4 -9 -10z"/>
<path d="M3630 5381 c0 -5 9 -7 20 -4 11 3 20 7 20 9 0 2 -9 4 -20 4 -11 0
-20 -4 -20 -9z"/>
<path d="M3820 5365 c0 -25 23 -35 35 -15 3 6 1 10 -4 10 -6 0 -11 7 -11 15 0
8 -4 15 -10 15 -5 0 -10 -11 -10 -25z"/>
<path d="M4990 5380 c0 -13 28 -25 38 -16 3 4 0 11 -8 16 -20 13 -30 12 -30 0z"/>
<path d="M5950 5381 c0 -5 -3 -16 -6 -25 -3 -9 -2 -16 4 -16 5 0 12 11 14 25
3 14 1 25 -3 25 -5 0 -9 -4 -9 -9z"/>
<path d="M7780 5380 c0 -5 7 -10 15 -10 8 0 15 5 15 10 0 6 -7 10 -15 10 -8 0
-15 -4 -15 -10z"/>
<path d="M5846 5365 c-3 -9 3 -19 16 -26 18 -10 20 -9 15 6 -4 9 -7 21 -7 26
0 15 -17 10 -24 -6z"/>
<path d="M5996 5364 c-9 -22 3 -32 14 -14 12 19 12 30 1 30 -5 0 -12 -7 -15
-16z"/>
<path d="M6050 5363 c0 -19 36 -48 44 -35 2 4 -6 18 -20 31 -22 21 -24 21 -24
4z"/>
<path d="M1100 5350 c0 -5 5 -10 10 -10 6 0 10 5 10 10 0 6 -4 10 -10 10 -5 0
-10 -4 -10 -10z"/>
<path d="M1662 5339 c2 -7 10 -15 17 -17 8 -3 12 1 9 9 -2 7 -10 15 -17 17 -8
3 -12 -1 -9 -9z"/>
<path d="M1607 5333 c-4 -3 -7 -15 -7 -25 0 -26 24 -17 28 10 3 21 -8 29 -21
15z"/>
<path d="M4525 5320 c3 -5 1 -10 -5 -10 -14 0 -4 -51 12 -61 7 -4 5 -10 -5
-15 -22 -14 -56 -82 -50 -104 4 -15 0 -20 -16 -20 -17 0 -21 -6 -21 -35 0 -19
-4 -35 -8 -35 -13 0 -33 -65 -39 -125 -4 -37 -10 -55 -19 -55 -14 0 -18 -12
-15 -38 1 -7 -9 -26 -23 -43 -14 -16 -28 -46 -31 -67 -3 -20 -10 -44 -14 -52
-4 -8 -4 -30 1 -48 5 -19 7 -36 4 -40 -3 -3 -6 2 -6 11 0 11 -8 17 -21 17 -19
0 -20 -4 -15 -34 4 -20 2 -37 -4 -41 -5 -3 -10 -14 -10 -25 0 -10 -7 -20 -15
-24 -8 -3 -15 -17 -15 -31 0 -14 7 -28 15 -31 23 -9 18 -24 -9 -24 -25 0 -30
-12 -43 -105 -3 -22 -10 -46 -15 -52 -16 -19 -46 -16 -53 6 -3 11 -12 22 -20
25 -20 7 -19 26 0 26 10 0 15 10 15 27 0 14 -3 23 -7 19 -10 -10 -42 73 -42
112 -1 17 -4 32 -9 32 -15 0 -44 68 -37 89 4 14 0 26 -14 38 -11 9 -23 35 -26
57 -4 23 -8 50 -10 61 -2 11 -4 26 -4 33 -1 7 -15 12 -35 12 -36 0 -35 -3 -36
96 0 18 -7 37 -15 44 -7 6 -12 17 -9 25 3 7 -3 16 -15 20 -12 3 -21 12 -21 19
0 7 -10 18 -22 24 -22 11 -22 11 7 9 l30 -2 3 68 c2 42 -1 67 -8 67 -10 0 -14
-26 -10 -65 2 -18 0 -18 -21 4 -17 18 -22 34 -20 58 2 24 -5 42 -24 65 -19 22
-26 40 -23 60 5 32 -3 35 -26 12 -15 -14 -17 -14 -32 1 -11 11 -26 14 -50 9
-21 -4 -40 -2 -48 6 -12 9 -19 7 -35 -9 -21 -21 -37 -28 -27 -13 10 16 -39 28
-64 15 -14 -7 -20 -13 -15 -13 6 0 3 -5 -5 -10 -13 -9 -12 -13 7 -29 12 -10
19 -21 16 -25 -3 -3 1 -14 10 -24 12 -13 15 -28 10 -54 -5 -33 -2 -40 28 -67
31 -29 32 -32 19 -56 -11 -21 -12 -30 -2 -43 7 -9 15 -24 19 -32 4 -8 13 -20
20 -25 8 -6 12 -23 9 -45 -3 -29 1 -40 26 -63 21 -20 28 -33 23 -48 -7 -22 11
-77 31 -94 7 -5 14 -34 17 -64 3 -41 10 -58 27 -71 17 -13 21 -24 17 -40 -6
-23 21 -100 35 -100 5 0 8 -16 8 -35 0 -41 27 -103 55 -127 12 -10 20 -29 21
-50 2 -105 2 -105 34 -100 23 3 30 0 30 -12 0 -9 -8 -16 -20 -16 -21 0 -24 -8
-14 -34 10 -25 33 -19 45 12 7 17 13 22 16 14 3 -8 -1 -21 -10 -29 -13 -13
-13 -21 0 -71 8 -32 19 -60 25 -63 5 -3 12 -31 15 -61 4 -41 13 -65 33 -88 25
-29 28 -30 43 -16 17 18 37 21 37 6 0 -5 30 -10 68 -12 61 -3 67 -5 70 -25 2
-13 8 -23 13 -23 12 0 12 27 -1 35 -7 4 -6 13 1 27 11 20 13 20 24 5 20 -28
52 -21 64 14 6 18 11 41 11 51 0 15 5 18 20 13 18 -6 21 -2 21 27 0 92 4 113
22 110 14 -2 17 5 17 45 0 67 9 93 31 93 16 0 19 8 19 56 0 46 3 57 19 61 15
4 20 18 25 74 4 38 11 67 15 64 17 -10 30 22 33 80 3 55 4 58 20 42 9 -9 21
-17 27 -17 17 0 13 30 -4 36 -20 8 -19 50 0 58 8 3 14 9 13 13 0 4 4 21 11 37
9 24 9 33 -4 53 -9 13 -20 21 -25 18 -6 -4 -10 -1 -10 6 0 8 11 10 35 6 33 -5
35 -4 35 24 0 18 -5 29 -13 29 -8 0 -24 9 -37 20 -23 20 -23 20 -2 20 12 0 25
-6 29 -14 4 -8 17 -16 28 -18 17 -2 20 3 22 31 1 19 8 38 17 43 22 12 20 25
-4 31 -33 9 -24 30 10 24 31 -7 38 1 19 20 -12 12 1 43 32 77 21 22 25 56 8
56 -6 0 -9 8 -7 18 2 9 12 17 23 17 14 0 20 7 21 23 1 12 -3 25 -8 28 -4 3 0
17 11 32 28 40 35 86 16 105 -17 18 -6 30 15 16 23 -14 30 -11 30 14 0 31 -40
50 -76 37 -19 -8 -34 -7 -55 4 -28 14 -29 14 -29 -10 0 -15 -6 -24 -15 -24
-19 0 -55 36 -55 55 0 8 -7 15 -16 15 -8 0 -12 -4 -9 -10 3 -5 -3 -10 -14 -10
-31 0 -25 -18 7 -23 25 -4 25 -4 -5 -6 -29 -1 -33 2 -33 24 0 14 -5 25 -11 25
-5 0 -7 -4 -4 -10z m-1015 -90 c20 -20 26 -40 12 -40 -4 0 -14 9 -22 20 -8 11
-20 20 -27 20 -7 0 -13 5 -13 10 0 17 29 11 50 -10z m81 10 c10 -6 19 -21 19
-33 l0 -21 -16 22 c-8 12 -21 22 -29 22 -8 0 -17 5 -20 10 -8 13 21 13 46 0z
m92 -15 c24 -23 35 -45 22 -45 -2 0 -20 16 -39 35 -40 40 -25 48 17 10z m957
21 c0 -2 -9 -6 -20 -9 -11 -3 -20 -1 -20 4 0 5 9 9 20 9 11 0 20 -2 20 -4z
m70 0 c0 -3 -4 -8 -10 -11 -5 -3 -10 -1 -10 4 0 6 5 11 10 11 6 0 10 -2 10 -4z
m-126 -42 c4 -11 1 -14 -11 -12 -9 2 -18 9 -21 16 -6 18 25 15 32 -4z m166 -4
c0 -5 -5 -10 -11 -10 -5 0 -7 5 -4 10 3 6 8 10 11 10 2 0 4 -4 4 -10z m-108
-30 c-17 -29 -37 -35 -37 -11 0 9 20 24 52 40 1 1 -6 -12 -15 -29z m-892 -10
c0 -5 -4 -10 -10 -10 -5 0 -10 5 -10 10 0 6 5 10 10 10 6 0 10 -4 10 -10z
m990 -40 c0 -19 -28 -10 -33 10 -4 17 -2 18 14 9 10 -5 19 -14 19 -19z m-150
0 c0 -5 -7 -10 -15 -10 -8 0 -15 5 -15 10 0 6 7 10 15 10 8 0 15 -4 15 -10z
m70 1 c0 -5 8 -12 18 -14 13 -4 12 -5 -4 -6 -12 0 -24 6 -28 14 -3 8 -1 15 4
15 6 0 10 -4 10 -9z m-910 -51 c0 -5 -5 -10 -11 -10 -5 0 -7 5 -4 10 3 6 8 10
11 10 2 0 4 -4 4 -10z m900 -20 c0 -5 -4 -10 -10 -10 -5 0 -10 5 -10 10 0 6 5
10 10 10 6 0 10 -4 10 -10z m-70 -20 c0 -5 -4 -10 -10 -10 -5 0 -10 5 -10 10
0 6 5 10 10 10 6 0 10 -4 10 -10z m-956 -16 c3 -8 2 -12 -4 -9 -6 3 -10 10
-10 16 0 14 7 11 14 -7z m110 -15 c14 -7 27 -18 30 -25 7 -19 -9 -18 -28 1 -8
8 -25 19 -38 24 -16 7 -18 10 -6 10 9 1 28 -4 42 -10z m-61 -13 c7 -18 -1 -26
-25 -26 -20 0 -25 26 -5 33 20 9 25 8 30 -7z m1034 8 c-3 -3 -12 -4 -19 -1 -8
3 -5 6 6 6 11 1 17 -2 13 -5z m-1137 -20 c0 -8 -4 -12 -10 -9 -5 3 -10 10 -10
16 0 5 5 9 10 9 6 0 10 -7 10 -16z m965 6 c3 -5 -1 -10 -9 -10 -9 0 -16 5 -16
10 0 6 4 10 9 10 6 0 13 -4 16 -10z m105 -10 c0 -5 -4 -10 -9 -10 -6 0 -13 5
-16 10 -3 6 1 10 9 10 9 0 16 -4 16 -10z m-65 -38 c-3 -3 -11 0 -18 7 -9 10
-8 11 6 5 10 -3 15 -9 12 -12z m109 -18 c4 -11 1 -14 -11 -12 -9 2 -18 9 -21
16 -6 18 25 15 32 -4z m-44 -29 c0 -9 -7 -11 -22 -7 -19 5 -20 7 -5 10 9 2 14
8 11 14 -4 7 -2 8 4 4 7 -4 12 -13 12 -21z m-105 5 c-3 -5 -10 -10 -16 -10 -5
0 -9 5 -9 10 0 6 7 10 16 10 8 0 12 -4 9 -10z m-788 -6 c-3 -3 -12 -4 -19 -1
-8 3 -5 6 6 6 11 1 17 -2 13 -5z m742 -49 c0 -14 -2 -16 -6 -5 -4 8 -12 21
-20 28 -21 21 -15 34 7 15 11 -10 20 -27 19 -38z m-754 -9 c17 -18 17 -19 1
-13 -10 4 -26 7 -36 7 -10 0 -20 8 -24 18 -3 9 -9 23 -12 30 -8 17 42 -12 71
-42z m80 15 c8 -16 20 -31 27 -34 7 -2 10 -8 6 -12 -5 -5 -16 -1 -26 8 -10 10
-23 17 -29 17 -6 0 -13 11 -15 25 -7 35 18 32 37 -4z m-179 5 c19 -19 18 -26
-5 -26 -10 0 -21 9 -24 20 -6 23 8 26 29 6z m991 -32 c-3 -3 -12 -4 -19 -1 -8
3 -5 6 6 6 11 1 17 -2 13 -5z m-187 -8 c0 -3 -4 -8 -10 -11 -5 -3 -10 -1 -10
4 0 6 5 11 10 11 6 0 10 -2 10 -4z m97 -2 c-3 -3 -12 -4 -19 -1 -8 3 -5 6 6 6
11 1 17 -2 13 -5z m-47 -38 c0 -3 -4 -8 -10 -11 -5 -3 -10 -1 -10 4 0 6 5 11
10 11 6 0 10 -2 10 -4z m-567 -46 c3 -11 1 -20 -4 -20 -5 0 -9 9 -9 20 0 11 2
20 4 20 2 0 6 -9 9 -20z m-215 -42 c-2 -6 -10 -14 -16 -16 -7 -2 -10 2 -6 12
7 18 28 22 22 4z m159 -10 c-3 -8 -6 -5 -6 6 -1 11 2 17 5 13 3 -3 4 -12 1
-19z m50 -50 c-3 -7 -5 -2 -5 12 0 14 2 19 5 13 2 -7 2 -19 0 -25z m633 8 c0
-3 -4 -8 -10 -11 -5 -3 -10 -1 -10 4 0 6 5 11 10 11 6 0 10 -2 10 -4z m-850
-41 c0 -8 -4 -15 -10 -15 -5 0 -10 7 -10 15 0 8 5 15 10 15 6 0 10 -7 10 -15z
m794 0 c3 -8 1 -15 -4 -15 -6 0 -10 7 -10 15 0 8 2 15 4 15 2 0 6 -7 10 -15z
m-577 -57 c-3 -7 -5 -2 -5 12 0 14 2 19 5 13 2 -7 2 -19 0 -25z m-167 12 c0
-5 -4 -10 -10 -10 -5 0 -10 5 -10 10 0 6 5 10 10 10 6 0 10 -4 10 -10z m90 6
c0 -3 -4 -8 -10 -11 -5 -3 -10 -1 -10 4 0 6 5 11 10 11 6 0 10 -2 10 -4z m520
-6 c0 -5 -2 -10 -4 -10 -3 0 -8 5 -11 10 -3 6 -1 10 4 10 6 0 11 -4 11 -10z
m85 0 c-3 -5 -10 -10 -16 -10 -5 0 -9 5 -9 10 0 6 7 10 16 10 8 0 12 -4 9 -10z
m95 0 c0 -5 -7 -10 -15 -10 -8 0 -15 5 -15 10 0 6 7 10 15 10 8 0 15 -4 15
-10z m-746 -37 c-5 -5 -12 -12 -16 -18 -4 -6 -8 -2 -8 8 0 9 7 17 17 17 9 0
12 -3 7 -7z m80 -8 c-4 -8 -8 -15 -10 -15 -2 0 -4 7 -4 15 0 8 4 15 10 15 5 0
7 -7 4 -15z m90 0 c-4 -8 -8 -15 -10 -15 -2 0 -4 7 -4 15 0 8 4 15 10 15 5 0
7 -7 4 -15z m350 0 c-4 -8 -8 -15 -10 -15 -2 0 -4 7 -4 15 0 8 4 15 10 15 5 0
7 -7 4 -15z m83 -7 c-3 -8 -6 -5 -6 6 -1 11 2 17 5 13 3 -3 4 -12 1 -19z
m-486 -51 c-8 -8 -11 -7 -11 4 0 20 13 34 18 19 3 -7 -1 -17 -7 -23z m-61 2
c0 -5 -7 -9 -15 -9 -8 0 -15 7 -15 15 0 9 6 12 15 9 8 -4 15 -10 15 -15z m-50
-125 c0 -2 -7 -4 -15 -4 -8 0 -15 4 -15 10 0 5 7 7 15 4 8 -4 15 -8 15 -10z
m260 6 c0 -5 -5 -10 -11 -10 -5 0 -7 5 -4 10 3 6 8 10 11 10 2 0 4 -4 4 -10z
m185 0 c3 -5 -1 -10 -9 -10 -9 0 -16 5 -16 10 0 6 4 10 9 10 6 0 13 -4 16 -10z
m43 -32 c2 -9 -6 -18 -18 -21 -16 -4 -20 -2 -16 10 3 8 6 19 6 25 0 15 25 3
28 -14z m-350 -9 c-2 -6 -8 -10 -13 -10 -5 0 -11 4 -13 10 -2 6 4 11 13 11 9
0 15 -5 13 -11z m88 -7 c12 -9 27 -28 34 -42 13 -24 12 -24 -6 -10 -10 8 -31
27 -47 42 -30 31 -15 38 19 10z m414 8 c0 -5 -4 -10 -10 -10 -5 0 -10 5 -10
10 0 6 5 10 10 10 6 0 10 -4 10 -10z m-483 -42 c-3 -8 -6 -5 -6 6 -1 11 2 17
5 13 3 -3 4 -12 1 -19z m283 8 c0 -8 -7 -16 -15 -20 -17 -6 -18 -4 -9 18 8 20
24 21 24 2z m70 -11 c7 -9 8 -15 2 -15 -5 0 -12 7 -16 15 -3 8 -4 15 -2 15 2
0 9 -7 16 -15z m-425 -5 c3 -5 -1 -10 -10 -10 -9 0 -13 5 -10 10 3 6 8 10 10
10 2 0 7 -4 10 -10z m520 0 c3 -5 1 -10 -4 -10 -6 0 -11 5 -11 10 0 6 2 10 4
10 3 0 8 -4 11 -10z m-225 -25 c0 -8 -4 -15 -10 -15 -5 0 -10 7 -10 15 0 8 5
15 10 15 6 0 10 -7 10 -15z m-64 -22 c24 -32 15 -47 -11 -19 -14 15 -25 29
-25 32 0 11 24 2 36 -13z m124 -39 c0 -2 -7 -4 -15 -4 -8 0 -15 4 -15 10 0 5
7 7 15 4 8 -4 15 -8 15 -10z m-180 -4 c0 -5 -8 -10 -17 -10 -15 0 -16 2 -3 10
19 12 20 12 20 0z m40 -35 c0 -8 -4 -15 -10 -15 -5 0 -10 7 -10 15 0 8 5 15
10 15 6 0 10 -7 10 -15z m90 -6 c0 -5 -4 -9 -10 -9 -5 0 -10 7 -10 16 0 8 5
12 10 9 6 -3 10 -10 10 -16z m94 -10 c-8 -13 -24 -1 -24 18 0 13 3 13 15 3 8
-7 12 -16 9 -21z m-264 17 c0 -3 -4 -8 -10 -11 -5 -3 -10 -1 -10 4 0 6 5 11
10 11 6 0 10 -2 10 -4z m-50 -52 c0 -8 -4 -12 -10 -9 -5 3 -10 13 -10 21 0 8
5 12 10 9 6 -3 10 -13 10 -21z m80 -4 c-18 -11 -24 -6 -16 16 5 14 9 15 19 5
9 -9 9 -14 -3 -21z m187 24 c-3 -3 -12 -4 -19 -1 -8 3 -5 6 6 6 11 1 17 -2 13
-5z m-87 -19 c0 -8 -7 -15 -15 -15 -8 0 -15 7 -15 15 0 8 7 15 15 15 8 0 15
-7 15 -15z m-50 -40 c0 -8 -7 -15 -15 -15 -8 0 -15 7 -15 15 0 8 7 15 15 15 8
0 15 -7 15 -15z m84 -90 c-4 -8 -8 -15 -10 -15 -2 0 -4 7 -4 15 0 8 4 15 10
15 5 0 7 -7 4 -15z m-84 -5 c0 -5 -4 -10 -10 -10 -5 0 -10 5 -10 10 0 6 5 10
10 10 6 0 10 -4 10 -10z m181 -88 c-7 -2 -18 1 -23 6 -8 8 -4 9 13 5 13 -4 18
-8 10 -11z m-186 -72 c3 -5 1 -10 -4 -10 -6 0 -11 5 -11 10 0 6 2 10 4 10 3 0
8 -4 11 -10z"/>
<path d="M2744 5284 c3 -9 6 -20 6 -25 0 -5 7 -9 15 -9 20 0 19 36 -1 44 -24
9 -27 8 -20 -10z"/>
<path d="M7790 5290 c0 -5 5 -10 11 -10 5 0 8 -4 4 -9 -6 -11 13 -26 22 -18 9
10 -8 47 -23 47 -8 0 -14 -4 -14 -10z"/>
<path d="M1654 5275 c-3 -8 -3 -19 1 -25 11 -18 25 -11 25 15 0 27 -17 34 -26
10z"/>
<path d="M5520 5255 c-14 -26 -5 -50 9 -26 5 7 13 11 19 7 5 -3 24 -3 41 0 21
5 31 12 31 25 0 16 -8 19 -43 19 -36 0 -46 -4 -57 -25z"/>
<path d="M1755 5250 c3 -5 11 -10 16 -10 6 0 7 5 4 10 -3 6 -11 10 -16 10 -6
0 -7 -4 -4 -10z"/>
<path d="M5405 5250 c-3 -6 1 -13 10 -16 19 -8 30 0 20 15 -8 14 -22 14 -30 1z"/>
<path d="M5651 5244 c0 -11 3 -14 6 -6 3 7 2 16 -1 19 -3 4 -6 -2 -5 -13z"/>
<path d="M2790 5226 c0 -9 7 -16 16 -16 17 0 14 22 -4 28 -7 2 -12 -3 -12 -12z"/>
<path d="M3847 5233 c-10 -3 -17 -11 -15 -19 4 -21 21 -19 37 5 14 21 11 23
-22 14z"/>
<path d="M7850 5226 c0 -9 5 -16 10 -16 6 0 10 4 10 9 0 6 -4 13 -10 16 -5 3
-10 -1 -10 -9z"/>
<path d="M4940 5195 c0 -8 5 -15 10 -15 6 0 10 7 10 15 0 8 -4 15 -10 15 -5 0
-10 -7 -10 -15z"/>
<path d="M5460 5199 c0 -9 9 -24 21 -35 16 -14 24 -16 38 -7 17 10 18 9 13
-10 -2 -12 -8 -26 -12 -32 -23 -34 -19 -45 25 -66 25 -12 42 -25 39 -30 -3 -5
2 -9 10 -9 9 0 16 9 16 20 0 13 7 20 20 20 46 0 -3 47 -55 53 l-40 4 40 1 c32
2 41 6 42 21 1 11 -6 21 -19 24 -21 6 -20 34 1 29 7 -1 9 3 5 9 -4 8 -26 9
-67 4 -45 -5 -62 -3 -68 7 -7 10 -9 9 -9 -3z"/>
<path d="M5630 5180 c0 -5 5 -10 10 -10 6 0 10 5 10 10 0 6 -4 10 -10 10 -5 0
-10 -4 -10 -10z"/>
<path d="M4017 5158 c-7 -24 3 -41 10 -20 3 6 11 12 19 12 8 0 14 7 14 15 0
24 -37 18 -43 -7z"/>
<path d="M1740 5150 c0 -5 5 -10 10 -10 6 0 10 5 10 10 0 6 -4 10 -10 10 -5 0
-10 -4 -10 -10z"/>
<path d="M5657 5153 c-4 -3 -7 -11 -7 -17 0 -6 5 -5 12 2 6 6 9 14 7 17 -3 3
-9 2 -12 -2z"/>
<path d="M5940 5128 c0 -12 1 -19 3 -17 1 2 9 12 16 22 12 14 11 17 -3 17 -10
0 -16 -8 -16 -22z"/>
<path d="M1720 5124 c0 -8 5 -12 10 -9 6 4 8 11 5 16 -9 14 -15 11 -15 -7z"/>
<path d="M5711 5073 c-1 -16 -6 -21 -16 -17 -9 4 -15 0 -15 -10 0 -9 4 -16 9
-16 16 0 33 29 28 47 -4 14 -5 13 -6 -4z"/>
<path d="M5841 5074 c-7 -8 -11 -17 -8 -20 8 -9 37 8 37 22 0 18 -11 17 -29
-2z"/>
<path d="M5750 5058 c0 -9 5 -20 10 -23 13 -8 13 5 0 25 -8 13 -10 13 -10 -2z"/>
<path d="M5775 5060 c3 -5 13 -10 21 -10 8 0 14 5 14 10 0 6 -9 10 -21 10 -11
0 -17 -4 -14 -10z"/>
<path d="M1675 5030 c-8 -14 3 -30 21 -30 8 0 14 9 14 20 0 21 -24 28 -35 10z"/>
<path d="M3460 5019 c0 -11 5 -17 10 -14 6 3 10 13 10 21 0 8 -4 14 -10 14 -5
0 -10 -9 -10 -21z"/>
<path d="M3983 5025 c-18 -20 -16 -25 12 -25 18 0 25 -5 25 -20 0 -13 7 -20
20 -20 13 0 20 7 20 20 0 13 -7 20 -19 20 -11 0 -23 9 -26 20 -7 23 -15 25
-32 5z"/>
<path d="M4180 5027 c0 -7 -9 -20 -20 -30 -11 -9 -20 -12 -20 -7 0 6 -7 10
-15 10 -12 0 -13 -4 -4 -18 12 -19 49 -27 49 -11 0 6 7 17 15 25 17 17 20 44
5 44 -5 0 -10 -6 -10 -13z"/>
<path d="M5622 5028 c7 -19 38 -22 38 -4 0 10 -9 16 -21 16 -12 0 -19 -5 -17
-12z"/>
<path d="M7951 5024 c0 -11 3 -14 6 -6 3 7 2 16 -1 19 -3 4 -6 -2 -5 -13z"/>
<path d="M5747 5006 c-21 -16 -22 -26 -2 -26 8 0 15 -4 15 -10 0 -5 5 -10 10
-10 12 0 14 47 2 54 -4 2 -15 -1 -25 -8z"/>
<path d="M5800 5001 c0 -6 5 -13 10 -16 6 -4 8 -11 5 -16 -4 -5 1 -9 9 -9 19
0 20 5 6 31 -11 20 -30 26 -30 10z"/>
<path d="M5940 4985 c0 -18 5 -25 20 -25 11 0 20 6 20 13 0 7 -9 18 -20 25
-18 11 -20 10 -20 -13z"/>
<path d="M1650 4990 c0 -5 7 -10 15 -10 8 0 15 5 15 10 0 6 -7 10 -15 10 -8 0
-15 -4 -15 -10z"/>
<path d="M3944 4985 c3 -9 6 -19 6 -21 0 -2 7 -4 16 -4 22 0 13 34 -10 38 -14
3 -17 0 -12 -13z"/>
<path d="M4205 4990 c-3 -5 -1 -10 4 -10 6 0 11 5 11 10 0 6 -2 10 -4 10 -3 0
-8 -4 -11 -10z"/>
<path d="M6497 4934 c-9 -10 4 -34 19 -34 8 0 14 -6 14 -14 0 -7 7 -19 15 -26
20 -17 19 0 -2 45 -16 33 -32 43 -46 29z"/>
<path d="M1176 4912 c-3 -6 -1 -14 5 -17 15 -10 25 3 12 16 -7 7 -13 7 -17 1z"/>
<path d="M2083 4900 c5 -31 17 -36 17 -7 0 15 -4 27 -10 27 -5 0 -9 -9 -7 -20z"/>
<path d="M7132 4895 c0 -16 2 -22 5 -12 2 9 2 23 0 30 -3 6 -5 -1 -5 -18z"/>
<path d="M785 4900 c-4 -6 -3 -16 3 -22 6 -6 12 -6 17 2 4 6 3 16 -3 22 -6 6
-12 6 -17 -2z"/>
<path d="M975 4899 c-9 -14 -2 -20 14 -10 8 6 9 11 3 15 -6 3 -14 1 -17 -5z"/>
<path d="M2940 4900 c0 -5 9 -10 20 -10 11 0 20 5 20 10 0 6 -9 10 -20 10 -11
0 -20 -4 -20 -10z"/>
<path d="M8000 4900 c0 -5 5 -10 10 -10 6 0 10 5 10 10 0 6 -4 10 -10 10 -5 0
-10 -4 -10 -10z"/>
<path d="M867 4894 c-11 -12 3 -24 29 -24 15 0 24 6 24 15 0 15 -40 21 -53 9z"/>
<path d="M1381 4874 c0 -11 3 -14 6 -6 3 7 2 16 -1 19 -3 4 -6 -2 -5 -13z"/>
<path d="M6465 4850 c3 -5 10 -10 16 -10 5 0 9 5 9 10 0 6 -7 10 -16 10 -8 0
-12 -4 -9 -10z"/>
<path d="M940 4837 c0 -7 9 -20 20 -30 21 -18 23 -15 14 21 -7 23 -34 31 -34
9z"/>
<path d="M6500 4820 c0 -5 7 -10 15 -10 8 0 15 5 15 10 0 6 -7 10 -15 10 -8 0
-15 -4 -15 -10z"/>
<path d="M3520 4809 c0 -5 5 -7 10 -4 6 3 10 8 10 11 0 2 -4 4 -10 4 -5 0 -10
-5 -10 -11z"/>
<path d="M3945 4810 c3 -5 8 -10 11 -10 2 0 4 5 4 10 0 6 -5 10 -11 10 -5 0
-7 -4 -4 -10z"/>
<path d="M4025 4810 c3 -5 12 -7 20 -3 21 7 19 13 -6 13 -11 0 -18 -4 -14 -10z"/>
<path d="M1270 4800 c0 -5 7 -10 16 -10 8 0 12 5 9 10 -3 6 -10 10 -16 10 -5
0 -9 -4 -9 -10z"/>
<path d="M4180 4772 c0 -15 25 -62 33 -62 10 0 9 28 -3 51 -11 19 -30 26 -30
11z"/>
<path d="M5960 4770 c0 -5 7 -10 15 -10 8 0 15 5 15 10 0 6 -7 10 -15 10 -8 0
-15 -4 -15 -10z"/>
<path d="M1032 4748 c-14 -14 -16 -28 -3 -28 9 0 24 30 18 36 -2 2 -9 -2 -15
-8z"/>
<path d="M3422 4731 c2 -14 12 -27 26 -32 28 -11 28 -9 -4 27 -25 28 -25 29
-22 5z"/>
<path d="M1530 4725 c0 -8 6 -15 13 -15 8 0 14 7 14 15 0 8 -6 15 -14 15 -7 0
-13 -7 -13 -15z"/>
<path d="M1893 4703 c3 -10 8 -30 11 -45 4 -16 11 -28 16 -28 14 0 12 64 -2
78 -17 17 -30 15 -25 -5z"/>
<path d="M1960 4704 c0 -11 5 -14 16 -10 9 3 20 6 25 6 5 0 9 5 9 10 0 6 -11
10 -25 10 -16 0 -25 -6 -25 -16z"/>
<path d="M5710 4710 c0 -5 5 -10 10 -10 6 0 10 5 10 10 0 6 -4 10 -10 10 -5 0
-10 -4 -10 -10z"/>
<path d="M6943 4699 c4 -13 7 -34 7 -46 0 -23 23 -32 35 -13 10 16 -7 60 -28
71 -18 10 -19 9 -14 -12z"/>
<path d="M7012 4704 c9 -9 21 -13 27 -10 20 13 11 26 -16 26 -25 0 -26 -1 -11
-16z"/>
<path d="M1580 4700 c0 -5 5 -10 10 -10 6 0 10 5 10 10 0 6 -4 10 -10 10 -5 0
-10 -4 -10 -10z"/>
<path d="M6525 4700 c3 -5 10 -10 16 -10 5 0 9 5 9 10 0 6 -7 10 -16 10 -8 0
-12 -4 -9 -10z"/>
<path d="M3453 4673 c-7 -2 -13 -20 -13 -40 0 -28 3 -34 18 -31 11 3 16 12 15
26 -2 17 2 22 20 22 18 0 19 -2 7 -10 -13 -8 -12 -10 3 -10 12 0 17 6 15 18
-2 9 -8 17 -15 17 -6 0 -15 3 -19 8 -8 8 -13 8 -31 0z"/>
<path d="M5862 4671 c4 -13 18 -16 19 -4 0 4 -5 9 -11 12 -7 2 -11 -2 -8 -8z"/>
<path d="M1855 4657 c-4 -10 -5 -21 -1 -24 10 -10 18 4 13 24 -4 17 -4 17 -12
0z"/>
<path d="M3560 4660 c0 -5 5 -10 10 -10 6 0 10 5 10 10 0 6 -4 10 -10 10 -5 0
-10 -4 -10 -10z"/>
<path d="M6896 4654 c-8 -21 -1 -28 18 -21 9 4 13 13 10 22 -8 20 -20 19 -28
-1z"/>
<path d="M1963 4635 c2 -32 37 -51 37 -21 0 9 -6 16 -14 16 -8 0 -17 8 -20 18
-2 9 -4 4 -3 -13z"/>
<path d="M7000 4645 c0 -8 5 -15 10 -15 6 0 10 -7 10 -15 0 -8 7 -15 15 -15 8
0 15 5 15 10 0 6 -7 13 -15 16 -8 4 -15 12 -15 20 0 8 -4 14 -10 14 -5 0 -10
-7 -10 -15z"/>
<path d="M1500 4625 c0 -9 5 -15 11 -13 6 2 11 8 11 13 0 5 -5 11 -11 13 -6 2
-11 -4 -11 -13z"/>
<path d="M3600 4620 c0 -5 5 -10 10 -10 6 0 10 5 10 10 0 6 -4 10 -10 10 -5 0
-10 -4 -10 -10z"/>
<path d="M4660 4620 c0 -5 7 -10 16 -10 8 0 12 5 9 10 -3 6 -10 10 -16 10 -5
0 -9 -4 -9 -10z"/>
<path d="M1877 4614 c-14 -15 -6 -34 14 -34 14 0 19 5 17 17 -3 18 -20 27 -31
17z"/>
<path d="M6930 4600 c0 -11 5 -20 10 -20 6 0 10 9 10 20 0 11 -4 20 -10 20 -5
0 -10 -9 -10 -20z"/>
<path d="M1565 4580 c-3 -5 -1 -10 4 -10 6 0 11 5 11 10 0 6 -2 10 -4 10 -3 0
-8 -4 -11 -10z"/>
<path d="M5960 4570 c0 -5 7 -10 16 -10 8 0 12 5 9 10 -3 6 -10 10 -16 10 -5
0 -9 -4 -9 -10z"/>
<path d="M1920 4560 c0 -5 7 -10 15 -10 8 0 15 5 15 10 0 6 -7 10 -15 10 -8 0
-15 -4 -15 -10z"/>
<path d="M6970 4560 c0 -5 7 -10 15 -10 8 0 15 5 15 10 0 6 -7 10 -15 10 -8 0
-15 -4 -15 -10z"/>
<path d="M4660 4535 c0 -17 5 -25 13 -22 6 2 12 12 12 22 0 10 -6 20 -12 23
-8 2 -13 -6 -13 -23z"/>
<path d="M3510 4541 c0 -6 5 -13 10 -16 6 -3 10 1 10 9 0 9 -4 16 -10 16 -5 0
-10 -4 -10 -9z"/>
<path d="M1870 4515 c0 -8 7 -15 15 -15 8 0 15 4 15 9 0 5 -7 11 -15 15 -9 3
-15 0 -15 -9z"/>
<path d="M1976 4523 c-11 -11 -6 -23 9 -23 8 0 15 4 15 9 0 13 -16 22 -24 14z"/>
<path d="M4146 4521 c-4 -5 -2 -12 3 -15 5 -4 12 -2 15 3 4 5 2 12 -3 15 -5 4
-12 2 -15 -3z"/>
<path d="M6500 4517 c0 -23 47 -60 67 -53 11 5 13 10 7 14 -6 4 -14 17 -18 30
-8 24 -56 32 -56 9z"/>
<path d="M6922 4518 c5 -15 28 -23 28 -10 0 5 -7 13 -16 16 -10 4 -14 1 -12
-6z"/>
<path d="M1788 4506 c-10 -7 -18 -16 -18 -20 0 -10 38 -7 46 5 11 18 -10 29
-28 15z"/>
<path d="M6836 4504 c-8 -22 -2 -27 23 -19 12 4 18 12 14 21 -7 19 -29 18 -37
-2z"/>
<path d="M7025 4510 c-3 -5 -2 -10 4 -10 5 0 13 5 16 10 3 6 2 10 -4 10 -5 0
-13 -4 -16 -10z"/>
<path d="M4618 4503 c6 -2 18 -2 25 0 6 3 1 5 -13 5 -14 0 -19 -2 -12 -5z"/>
<path d="M6455 4479 c-8 -25 -3 -31 19 -23 20 8 21 44 2 44 -8 0 -18 -9 -21
-21z"/>
<path d="M1500 4467 c0 -8 -6 -17 -12 -20 -17 -6 -9 -13 25 -21 33 -8 37 12 7
39 -17 16 -20 16 -20 2z"/>
<path d="M1815 4470 c-3 -6 2 -13 12 -17 10 -4 21 -11 25 -17 11 -16 18 -3 11
22 -5 23 -37 30 -48 12z"/>
<path d="M1927 4474 c-8 -8 1 -24 14 -24 5 0 9 7 9 15 0 15 -12 20 -23 9z"/>
<path d="M6870 4465 c0 -8 7 -15 15 -15 8 0 15 -4 15 -10 0 -5 5 -10 10 -10
15 0 12 19 -4 36 -19 18 -36 18 -36 -1z"/>
<path d="M5855 4460 c4 -6 11 -8 16 -5 14 9 11 15 -7 15 -8 0 -12 -5 -9 -10z"/>
<path d="M1774 4449 c-3 -6 2 -17 12 -24 26 -20 33 -18 27 4 -6 23 -29 35 -39
20z"/>
<path d="M3130 4445 c-6 -8 -8 -20 -4 -27 12 -18 14 -40 6 -52 -3 -6 -7 -15
-9 -21 -1 -5 -5 -20 -9 -32 -8 -27 8 -30 49 -8 21 10 34 12 47 5 29 -15 30
-14 29 45 l-2 55 -33 0 c-30 0 -34 3 -34 25 0 28 -21 33 -40 10z m59 -88 c0
-21 -1 -21 -9 -2 -12 28 -12 37 0 30 6 -3 10 -16 9 -28z"/>
<path d="M6830 4447 c0 -8 9 -22 20 -32 17 -16 20 -16 20 -2 0 14 -25 47 -36
47 -2 0 -4 -6 -4 -13z"/>
<path d="M3440 4435 c0 -8 5 -15 10 -15 6 0 10 7 10 15 0 8 -4 15 -10 15 -5 0
-10 -7 -10 -15z"/>
<path d="M6507 4434 c-8 -8 1 -24 14 -24 5 0 9 7 9 15 0 15 -12 20 -23 9z"/>
<path d="M1566 4423 c-13 -14 -5 -32 14 -30 11 1 20 3 20 5 0 9 -28 30 -34 25z"/>
<path d="M1881 4421 c-15 -10 -8 -41 9 -41 15 0 25 29 14 40 -5 5 -15 5 -23 1z"/>
<path d="M6930 4400 c0 -11 5 -20 10 -20 6 0 10 9 10 20 0 11 -4 20 -10 20 -5
0 -10 -9 -10 -20z"/>
<path d="M1390 4380 c0 -5 4 -10 9 -10 6 0 13 5 16 10 3 6 -1 10 -9 10 -9 0
-16 -4 -16 -10z"/>
<path d="M4618 4378 c9 -9 15 -9 24 0 9 9 7 12 -12 12 -19 0 -21 -3 -12 -12z"/>
<path d="M3256 4371 c-8 -13 4 -90 15 -97 5 -3 9 -1 9 5 0 5 7 17 17 26 10 11
13 19 6 23 -6 4 -12 16 -14 26 -4 22 -24 32 -33 17z"/>
<path d="M3680 4370 c0 -5 7 -10 15 -10 8 0 15 5 15 10 0 6 -7 10 -15 10 -8 0
-15 -4 -15 -10z"/>
<path d="M4550 4373 c0 -5 5 -15 10 -23 9 -13 11 -13 20 0 15 22 12 30 -10 30
-11 0 -20 -3 -20 -7z"/>
<path d="M6450 4370 c0 -5 5 -10 10 -10 6 0 10 5 10 10 0 6 -4 10 -10 10 -5 0
-10 -4 -10 -10z"/>
<path d="M1610 4340 c0 -11 5 -20 10 -20 6 0 10 9 10 20 0 11 -4 20 -10 20 -5
0 -10 -9 -10 -20z"/>
<path d="M6505 4330 c-3 -5 1 -10 10 -10 9 0 13 5 10 10 -3 6 -8 10 -10 10 -2
0 -7 -4 -10 -10z"/>
<path d="M890 4309 c0 -6 14 -24 30 -39 34 -32 37 -27 14 18 -15 31 -44 44
-44 21z"/>
<path d="M1277 4313 c-12 -11 -8 -23 8 -23 8 0 15 7 15 15 0 16 -12 20 -23 8z"/>
<path d="M4554 4299 c-11 -18 13 -34 31 -19 8 7 15 16 15 21 0 13 -38 11 -46
-2z"/>
<path d="M4650 4290 c0 -19 20 -27 33 -13 8 7 -11 33 -24 33 -5 0 -9 -9 -9
-20z"/>
<path d="M1386 4275 c6 -16 54 -21 54 -6 0 5 -10 11 -22 15 -34 9 -38 7 -32
-9z"/>
<path d="M842 4248 c8 -12 20 -24 26 -26 18 -6 14 35 -4 42 -30 11 -37 6 -22
-16z"/>
<path d="M1026 4255 c4 -8 10 -12 15 -9 14 8 10 24 -6 24 -9 0 -12 -6 -9 -15z"/>
<path d="M1231 4244 c0 -11 3 -14 6 -6 3 7 2 16 -1 19 -3 4 -6 -2 -5 -13z"/>
<path d="M3630 4246 c0 -15 29 -30 39 -20 3 4 0 9 -7 11 -6 3 -10 9 -6 14 3 5
-2 9 -10 9 -9 0 -16 -6 -16 -14z"/>
<path d="M3012 4228 c5 -15 58 -24 58 -10 0 5 -10 12 -22 16 -34 9 -40 7 -36
-6z"/>
<path d="M3730 4230 c0 -5 5 -10 10 -10 6 0 10 5 10 10 0 6 -4 10 -10 10 -5 0
-10 -4 -10 -10z"/>
<path d="M782 4218 c6 -18 28 -21 28 -4 0 9 -7 16 -16 16 -9 0 -14 -5 -12 -12z"/>
<path d="M895 4221 c-3 -6 -2 -18 3 -27 7 -13 10 -13 20 -1 10 11 9 17 -2 26
-10 8 -16 9 -21 2z"/>
<path d="M974 4214 c3 -9 6 -18 6 -20 0 -2 5 -4 10 -4 6 0 10 9 10 20 0 12 -7
20 -16 20 -11 0 -14 -5 -10 -16z"/>
<path d="M1071 4206 c21 -25 49 -25 49 -1 0 14 -22 25 -51 25 -18 0 -18 -1 2
-24z"/>
<path d="M1172 4213 c2 -10 13 -22 26 -28 12 -5 22 -13 22 -17 0 -5 5 -8 10
-8 17 0 11 16 -15 44 -28 30 -48 34 -43 9z"/>
<path d="M1355 4221 c-6 -11 9 -23 19 -14 9 9 7 23 -3 23 -6 0 -12 -4 -16 -9z"/>
<path d="M5420 4219 c0 -6 9 -13 20 -16 11 -3 20 -9 20 -13 0 -4 11 -7 24 -7
l24 0 -21 23 c-21 24 -67 33 -67 13z"/>
<path d="M6473 4220 c-29 -12 -29 -23 1 -55 14 -15 27 -32 29 -38 6 -19 57 13
57 35 0 14 -6 18 -27 16 -25 -3 -28 0 -25 25 3 29 -1 31 -35 17z"/>
<path d="M1270 4210 c0 -5 5 -10 10 -10 6 0 10 5 10 10 0 6 -4 10 -10 10 -5 0
-10 -4 -10 -10z"/>
<path d="M5560 4175 c7 -8 16 -15 21 -15 5 0 9 7 9 15 0 9 -9 15 -21 15 -18 0
-19 -2 -9 -15z"/>
<path d="M930 4160 c0 -13 7 -20 20 -20 24 0 27 25 4 34 -23 9 -24 8 -24 -14z"/>
<path d="M1820 4170 c0 -5 6 -10 14 -10 8 0 18 5 21 10 3 6 -3 10 -14 10 -12
0 -21 -4 -21 -10z"/>
<path d="M3092 4166 c17 -12 17 -14 -2 -31 -11 -10 -20 -13 -20 -7 0 7 -9 12
-20 12 -25 0 -26 -23 -1 -41 26 -19 32 -54 9 -53 -13 1 -18 -5 -18 -22 0 -33
18 -39 30 -10 11 31 50 36 50 8 0 -19 29 -52 46 -52 5 0 15 -9 22 -20 7 -12
17 -18 23 -14 6 3 13 -2 15 -13 6 -21 56 -53 85 -53 30 0 22 17 -11 24 -17 3
-30 12 -30 20 0 8 -9 18 -20 21 -11 3 -20 10 -20 15 0 5 -3 15 -6 24 -5 12 1
14 30 9 24 -4 36 -2 36 6 0 6 -9 11 -19 11 -16 0 -27 19 -35 60 -1 3 -5 11 -9
18 -5 8 -2 12 8 12 24 0 16 54 -9 58 -14 3 -17 0 -13 -12 4 -10 1 -16 -8 -16
-8 0 -15 -4 -15 -10 0 -5 -5 -10 -10 -10 -7 0 -7 6 -1 19 12 22 5 31 -25 31
-12 0 -24 7 -28 15 -3 8 -16 15 -28 15 -21 -1 -22 -2 -6 -14z m85 -101 c9 -25
-4 -29 -17 -6 -7 15 -7 21 0 21 6 0 13 -7 17 -15z m-32 -23 c-8 -8 -25 10 -19
20 4 6 9 5 15 -3 4 -7 6 -15 4 -17z"/>
<path d="M6880 4169 c0 -5 5 -7 10 -4 6 3 10 8 10 11 0 2 -4 4 -10 4 -5 0 -10
-5 -10 -11z"/>
<path d="M840 4161 c0 -12 29 -35 36 -28 4 3 -1 13 -9 22 -17 17 -27 19 -27 6z"/>
<path d="M1036 4153 c-6 -14 -5 -15 5 -6 7 7 10 15 7 18 -3 3 -9 -2 -12 -12z"/>
<path d="M1130 4160 c0 -5 5 -10 10 -10 6 0 10 5 10 10 0 6 -4 10 -10 10 -5 0
-10 -4 -10 -10z"/>
<path d="M5390 4159 c0 -14 49 -60 84 -79 26 -14 29 -13 47 9 19 23 20 23 33
5 19 -26 32 -10 20 24 -7 21 -17 28 -43 30 -31 3 -33 2 -29 -22 4 -20 1 -26
-13 -26 -12 0 -19 7 -19 19 0 38 -11 51 -46 51 -19 0 -34 -5 -34 -11z"/>
<path d="M4545 4110 c9 -17 20 -28 25 -25 6 4 10 1 10 -6 0 -7 2 -10 5 -8 11
11 -9 47 -31 58 l-24 11 15 -30z"/>
<path d="M780 4111 c0 -28 19 -36 38 -17 18 18 16 21 -15 30 -19 6 -23 3 -23
-13z"/>
<path d="M1170 4110 c0 -11 5 -20 10 -20 6 0 10 9 10 20 0 11 -4 20 -10 20 -5
0 -10 -9 -10 -20z"/>
<path d="M6560 4094 c0 -21 4 -33 10 -29 6 3 10 19 10 36 0 16 -4 29 -10 29
-5 0 -10 -16 -10 -36z"/>
<path d="M886 4104 c-9 -22 -8 -24 12 -24 12 0 14 -2 4 -8 -19 -13 -4 -41 19
-35 22 6 25 39 5 66 -16 21 -32 22 -40 1z"/>
<path d="M833 4084 c-6 -17 6 -45 24 -51 12 -4 5 55 -8 63 -5 3 -12 -2 -16
-12z"/>
<path d="M970 4090 c0 -5 5 -10 10 -10 6 0 10 5 10 10 0 6 -4 10 -10 10 -5 0
-10 -4 -10 -10z"/>
<path d="M1080 4090 c0 -5 5 -10 10 -10 6 0 10 5 10 10 0 6 -4 10 -10 10 -5 0
-10 -4 -10 -10z"/>
<path d="M3306 4085 c-19 -14 -18 -15 10 -37 16 -13 32 -22 36 -20 18 5 10
-81 -8 -91 -17 -10 -19 -37 -3 -37 7 0 17 -6 23 -14 6 -7 23 -16 38 -20 26 -6
26 -5 17 26 -5 18 -9 34 -9 35 0 2 -7 3 -16 3 -8 0 -12 -4 -9 -10 3 -5 1 -10
-4 -10 -19 0 -12 22 9 27 21 6 27 29 10 35 -6 2 -11 20 -12 41 -1 20 -5 37
-10 37 -4 0 -8 9 -8 20 0 11 -4 20 -9 20 -5 0 -15 2 -23 5 -7 2 -22 -2 -32
-10z"/>
<path d="M1648 4068 c6 -23 48 -68 65 -68 5 0 6 7 3 16 -3 9 -6 18 -6 20 0 2
-7 4 -15 4 -8 0 -15 7 -15 15 0 8 -9 19 -19 24 -17 9 -18 8 -13 -11z"/>
<path d="M6690 4065 c0 -8 10 -20 23 -26 12 -7 27 -19 34 -28 11 -14 12 -14
13 -1 0 17 -46 70 -60 70 -6 0 -10 -7 -10 -15z"/>
<path d="M6491 4043 c-1 -18 4 -33 9 -33 12 0 12 17 0 45 -7 17 -9 15 -9 -12z"/>
<path d="M4630 4039 c0 -5 5 -7 10 -4 6 3 10 8 10 11 0 2 -4 4 -10 4 -5 0 -10
-5 -10 -11z"/>
<path d="M5620 4030 c0 -5 7 -10 15 -10 8 0 15 5 15 10 0 6 -7 10 -15 10 -8 0
-15 -4 -15 -10z"/>
<path d="M4480 4020 c0 -5 5 -10 10 -10 6 0 10 5 10 10 0 6 -4 10 -10 10 -5 0
-10 -4 -10 -10z"/>
<path d="M3066 3979 c-11 -10 -17 -21 -14 -24 7 -7 68 27 68 38 0 14 -35 6
-54 -14z"/>
<path d="M1720 3980 c0 -5 9 -10 20 -10 11 0 20 5 20 10 0 6 -9 10 -20 10 -11
0 -20 -4 -20 -10z"/>
<path d="M3820 3978 c0 -19 18 -43 25 -36 9 9 -4 48 -16 48 -5 0 -9 -6 -9 -12z"/>
<path d="M5670 3980 c0 -5 7 -10 15 -10 8 0 15 5 15 10 0 6 -7 10 -15 10 -8 0
-15 -4 -15 -10z"/>
<path d="M6780 3980 c0 -5 5 -10 10 -10 6 0 10 5 10 10 0 6 -4 10 -10 10 -5 0
-10 -4 -10 -10z"/>
<path d="M2340 3960 c0 -19 3 -21 12 -12 9 9 9 15 0 24 -9 9 -12 7 -12 -12z"/>
<path d="M7380 3960 c0 -11 5 -20 10 -20 6 0 10 9 10 20 0 11 -4 20 -10 20 -5
0 -10 -9 -10 -20z"/>
<path d="M1670 3940 c0 -13 28 -25 38 -16 3 4 0 11 -8 16 -20 13 -30 12 -30 0z"/>
<path d="M5620 3935 c0 -8 7 -15 15 -15 8 0 15 4 15 9 0 5 -7 11 -15 15 -9 3
-15 0 -15 -9z"/>
<path d="M5732 3941 c-11 -7 -11 -9 2 -14 10 -4 16 -1 16 8 0 17 -1 17 -18 6z"/>
<path d="M6728 3944 c-3 -3 -3 -14 -1 -25 5 -16 8 -18 14 -7 16 25 6 51 -13
32z"/>
<path d="M860 3915 c0 -8 5 -15 10 -15 6 0 10 7 10 15 0 8 -4 15 -10 15 -5 0
-10 -7 -10 -15z"/>
<path d="M1650 3881 c0 -11 5 -23 10 -26 6 -4 10 5 10 19 0 14 -4 26 -10 26
-5 0 -10 -9 -10 -19z"/>
<path d="M5660 3885 c0 -8 5 -15 10 -15 6 0 10 7 10 15 0 8 -4 15 -10 15 -5 0
-10 -7 -10 -15z"/>
<path d="M5763 3884 c-3 -8 -1 -20 6 -27 8 -8 11 -4 11 16 0 30 -7 35 -17 11z"/>
<path d="M6694 3884 c3 -9 6 -20 6 -25 0 -6 4 -8 9 -5 12 8 2 46 -11 46 -6 0
-7 -7 -4 -16z"/>
<path d="M2200 3880 c0 -5 9 -10 19 -10 11 0 23 5 26 10 4 6 -5 10 -19 10 -14
0 -26 -4 -26 -10z"/>
<path d="M3440 3880 c0 -5 4 -10 9 -10 6 0 13 5 16 10 3 6 -1 10 -9 10 -9 0
-16 -4 -16 -10z"/>
<path d="M7260 3880 c0 -5 4 -10 9 -10 6 0 13 5 16 10 3 6 -1 10 -9 10 -9 0
-16 -4 -16 -10z"/>
<path d="M5700 3864 c0 -8 5 -12 10 -9 6 4 8 11 5 16 -9 14 -15 11 -15 -7z"/>
<path d="M6486 3871 c-4 -7 -5 -15 -2 -18 9 -9 19 4 14 18 -4 11 -6 11 -12 0z"/>
<path d="M842 3838 c7 -19 38 -22 38 -4 0 10 -9 16 -21 16 -12 0 -19 -5 -17
-12z"/>
<path d="M1680 3840 c0 -5 7 -10 15 -10 8 0 15 5 15 10 0 6 -7 10 -15 10 -8 0
-15 -4 -15 -10z"/>
<path d="M3220 3842 c0 -5 9 -17 20 -27 23 -21 45 -9 34 18 -6 17 -54 24 -54
9z"/>
<path d="M5722 3838 c6 -18 28 -21 28 -4 0 9 -7 16 -16 16 -9 0 -14 -5 -12
-12z"/>
<path d="M6730 3840 c0 -5 5 -10 10 -10 6 0 10 5 10 10 0 6 -4 10 -10 10 -5 0
-10 -4 -10 -10z"/>
<path d="M3320 3825 c0 -8 5 -15 10 -15 6 0 10 7 10 15 0 8 -4 15 -10 15 -5 0
-10 -7 -10 -15z"/>
<path d="M786 3813 c-7 -17 9 -33 32 -33 6 0 12 -9 12 -20 0 -11 5 -20 10 -20
13 0 13 19 -1 59 -12 34 -42 42 -53 14z"/>
<path d="M5666 3813 c-14 -15 -5 -43 14 -43 11 0 20 5 20 11 0 15 -26 39 -34
32z"/>
<path d="M1630 3790 c0 -5 9 -10 20 -10 11 0 20 5 20 10 0 6 -9 10 -20 10 -11
0 -20 -4 -20 -10z"/>
<path d="M5780 3785 c0 -9 4 -14 9 -10 5 3 12 -3 15 -12 3 -11 4 -9 3 6 -2 27
-27 42 -27 16z"/>
<path d="M6690 3790 c0 -5 5 -10 10 -10 6 0 10 5 10 10 0 6 -4 10 -10 10 -5 0
-10 -4 -10 -10z"/>
<path d="M5626 3741 c-10 -16 5 -41 26 -41 14 0 19 6 16 22 -3 24 -32 36 -42
19z"/>
<path d="M5727 3743 c-4 -3 -7 -15 -7 -25 0 -17 1 -17 19 -1 11 9 18 20 15 25
-6 10 -18 10 -27 1z"/>
<path d="M5828 3744 c-8 -7 2 -44 12 -44 11 0 21 30 14 41 -6 10 -18 12 -26 3z"/>
<path d="M6660 3724 c0 -8 5 -12 10 -9 6 3 10 10 10 16 0 5 -4 9 -10 9 -5 0
-10 -7 -10 -16z"/>
<path d="M3440 3710 c0 -11 5 -20 10 -20 6 0 10 9 10 20 0 11 -4 20 -10 20 -5
0 -10 -9 -10 -20z"/>
<path d="M4416 3722 c-3 -6 -1 -14 5 -17 15 -10 25 3 12 16 -7 7 -13 7 -17 1z"/>
<path d="M818 3703 c-22 -5 -24 -23 -3 -23 8 0 15 -7 15 -15 0 -8 5 -15 10
-15 6 0 10 14 10 30 0 17 -3 29 -7 29 -5 -1 -16 -3 -25 -6z"/>
<path d="M5677 3704 c-13 -13 -7 -24 14 -24 11 0 19 5 17 12 -5 14 -22 21 -31
12z"/>
<path d="M5770 3695 c0 -8 7 -15 15 -15 8 0 15 7 15 15 0 8 -7 15 -15 15 -8 0
-15 -7 -15 -15z"/>
<path d="M5866 3692 c-3 -3 -6 -9 -6 -14 0 -11 37 -10 44 1 6 10 -30 22 -38
13z"/>
<path d="M3440 3665 c0 -8 9 -15 20 -15 11 0 20 7 20 15 0 8 -9 15 -20 15 -11
0 -20 -7 -20 -15z"/>
<path d="M3850 3665 c0 -8 -4 -15 -9 -15 -5 0 -11 -11 -13 -24 -4 -19 -1 -22
14 -18 10 2 18 13 18 24 0 17 3 18 15 8 21 -17 38 -4 25 21 -13 22 -50 26 -50
4z"/>
<path d="M3910 3668 c0 -8 20 -20 45 -27 25 -7 45 -17 45 -22 0 -5 7 -9 15 -9
25 0 17 20 -14 33 -15 7 -28 17 -27 22 1 6 -14 11 -31 13 -23 2 -33 -1 -33
-10z"/>
<path d="M4113 3653 c-18 -7 -16 -23 2 -23 8 0 15 7 15 15 0 8 -1 15 -2 14 -2
0 -9 -3 -15 -6z"/>
<path d="M3016 3635 c-8 -8 -22 -15 -30 -15 -34 0 -14 -18 27 -23 23 -3 52 -9
65 -13 27 -8 30 11 6 44 -18 25 -46 29 -68 7z"/>
<path d="M4070 3640 c0 -5 5 -10 10 -10 6 0 10 5 10 10 0 6 -4 10 -10 10 -5 0
-10 -4 -10 -10z"/>
<path d="M5620 3640 c0 -5 7 -10 15 -10 8 0 15 5 15 10 0 6 -7 10 -15 10 -8 0
-15 -4 -15 -10z"/>
<path d="M5830 3640 c0 -5 4 -10 9 -10 6 0 13 5 16 10 3 6 -1 10 -9 10 -9 0
-16 -4 -16 -10z"/>
<path d="M5920 3630 c0 -24 25 -27 34 -4 9 23 8 24 -14 24 -13 0 -20 -7 -20
-20z"/>
<path d="M8051 3629 c-11 -12 -24 -18 -30 -14 -6 3 -11 2 -11 -3 0 -6 21 -12
48 -15 26 -3 60 -8 76 -12 26 -7 28 -6 21 16 -15 50 -69 65 -104 28z"/>
<path d="M3290 3625 c0 -8 -5 -15 -12 -15 -9 0 -9 -3 -1 -11 6 -6 16 -8 22 -5
14 9 14 46 1 46 -5 0 -10 -7 -10 -15z"/>
<path d="M4150 3625 c0 -8 5 -15 10 -15 6 0 10 7 10 15 0 8 -4 15 -10 15 -5 0
-10 -7 -10 -15z"/>
<path d="M4350 3619 c0 -11 5 -17 10 -14 6 3 10 13 10 21 0 8 -4 14 -10 14 -5
0 -10 -9 -10 -21z"/>
<path d="M2845 3610 c-3 -5 3 -10 14 -10 12 0 21 5 21 10 0 6 -6 10 -14 10 -8
0 -18 -4 -21 -10z"/>
<path d="M7900 3610 c0 -5 5 -10 10 -10 6 0 10 5 10 10 0 6 -4 10 -10 10 -5 0
-10 -4 -10 -10z"/>
<path d="M5667 3603 c-13 -12 -7 -23 12 -23 14 0 23 -12 34 -42 17 -52 41 -57
45 -10 3 26 -1 35 -16 39 -11 3 -22 13 -25 24 -5 18 -37 26 -50 12z"/>
<path d="M5760 3599 c0 -13 25 -39 38 -39 5 0 15 -12 23 -27 26 -51 35 -56 72
-38 37 17 54 17 75 -3 8 -7 18 -10 23 -6 13 8 -29 64 -56 74 -12 5 -25 16 -28
24 -7 17 -47 22 -47 6 0 -5 -9 -14 -20 -20 -17 -9 -22 -7 -30 15 -9 25 -50 37
-50 14z m148 -61 c4 -22 -14 -23 -34 -4 -20 21 -17 28 8 24 13 -2 24 -11 26
-20z"/>
<path d="M5957 3604 c-10 -11 -9 -44 2 -44 5 0 12 6 15 13 5 10 7 10 12 0 10
-22 26 -14 22 10 -3 22 -36 36 -51 21z"/>
<path d="M4370 3590 c0 -5 5 -10 10 -10 6 0 10 5 10 10 0 6 -4 10 -10 10 -5 0
-10 -4 -10 -10z"/>
<path d="M4027 3583 c-13 -12 -7 -33 8 -33 8 0 15 9 15 20 0 20 -11 26 -23 13z"/>
<path d="M2630 3546 c0 -26 4 -36 16 -36 11 0 14 8 12 32 -4 46 -28 49 -28 4z"/>
<path d="M7680 3546 c0 -26 4 -36 16 -36 11 0 14 8 12 32 -4 46 -28 49 -28 4z"/>
<path d="M1774 3558 c-4 -7 -2 -14 4 -16 7 -2 12 -9 12 -15 0 -20 17 -40 28
-33 8 4 8 15 1 35 -11 32 -34 47 -45 29z"/>
<path d="M6830 3564 c0 -22 22 -74 31 -74 23 0 20 33 -5 58 -14 15 -26 22 -26
16z"/>
<path d="M687 3553 c-12 -19 -19 -103 -9 -103 16 0 23 16 27 60 4 36 -7 61
-18 43z"/>
<path d="M886 3552 c-3 -5 -3 -18 0 -30 8 -27 36 -17 32 11 -3 22 -23 34 -32
19z"/>
<path d="M3226 3538 c8 -28 12 -33 20 -25 9 8 -6 47 -17 47 -6 0 -7 -10 -3
-22z"/>
<path d="M3300 3552 c-5 -2 -10 -17 -10 -34 0 -25 3 -29 18 -23 9 4 29 10 45
13 15 2 27 8 27 13 0 5 26 9 57 9 46 0 54 2 44 13 -11 11 -153 18 -181 9z"/>
<path d="M4320 3540 c0 -17 3 -19 19 -8 21 13 19 28 -5 28 -8 0 -14 -9 -14
-20z"/>
<path d="M1852 3537 c-15 -17 -6 -27 24 -27 12 0 24 -6 27 -12 3 -10 8 -10 16
-2 14 13 4 44 -14 44 -7 0 -20 2 -28 5 -7 3 -19 0 -25 -8z"/>
<path d="M2926 3543 c-2 -3 -2 -11 1 -19 3 -9 20 -14 47 -14 43 0 76 14 63 26
-9 9 -103 14 -111 7z"/>
<path d="M6738 3543 c7 -5 10 -16 7 -25 -4 -9 3 -19 20 -26 24 -11 25 -10 25
18 0 19 -5 30 -14 30 -8 0 -23 3 -33 6 -13 4 -14 3 -5 -3z"/>
<path d="M6907 3539 c-24 -14 -21 -29 6 -29 13 0 28 -5 35 -12 19 -19 37 4 23
29 -6 10 -11 14 -11 10 0 -4 -8 -3 -18 2 -11 6 -24 6 -35 0z"/>
<path d="M8008 3543 c-36 -3 -46 -7 -41 -19 4 -10 22 -14 64 -14 52 0 59 2 59
20 0 13 -6 19 -17 18 -10 -1 -39 -3 -65 -5z"/>
<path d="M1635 3529 c-10 -15 3 -25 16 -12 7 7 7 13 1 17 -6 3 -14 1 -17 -5z"/>
<path d="M2556 3514 c5 -19 4 -25 -5 -20 -7 5 -11 0 -11 -13 0 -12 5 -21 10
-21 6 0 10 5 10 10 0 6 7 10 16 10 22 0 15 54 -9 58 -15 3 -17 -1 -11 -24z"/>
<path d="M2888 3533 c7 -3 16 -2 19 1 4 3 -2 6 -13 5 -11 0 -14 -3 -6 -6z"/>
<path d="M7610 3514 c0 -14 -4 -23 -10 -19 -5 3 -10 -3 -10 -14 0 -25 6 -26
26 -7 16 17 19 66 4 66 -5 0 -10 -12 -10 -26z"/>
<path d="M7930 3525 c0 -8 5 -15 10 -15 6 0 10 7 10 15 0 8 -4 15 -10 15 -5 0
-10 -7 -10 -15z"/>
<path d="M4196 3512 c-3 -6 -1 -14 5 -17 15 -10 25 3 12 16 -7 7 -13 7 -17 1z"/>
<path d="M5280 3505 c0 -8 5 -15 10 -15 6 0 10 7 10 15 0 8 -4 15 -10 15 -5 0
-10 -7 -10 -15z"/>
<path d="M7000 3498 c0 -7 5 -20 10 -28 8 -12 10 -9 10 13 0 15 -4 27 -10 27
-5 0 -10 -6 -10 -12z"/>
<path d="M1093 3484 c-7 -19 11 -39 26 -30 16 10 13 33 -4 40 -9 3 -18 -1 -22
-10z"/>
<path d="M3408 3491 c8 -4 13 -12 12 -17 0 -5 8 -10 20 -12 28 -5 25 13 -5 26
-30 14 -46 16 -27 3z"/>
<path d="M3370 3470 c0 -11 4 -20 9 -20 11 0 22 26 14 34 -12 12 -23 5 -23
-14z"/>
<path d="M5500 3475 c0 -8 5 -15 10 -15 6 0 10 7 10 15 0 8 -4 15 -10 15 -5 0
-10 -7 -10 -15z"/>
<path d="M2940 3460 c0 -5 7 -10 15 -10 8 0 15 5 15 10 0 6 -7 10 -15 10 -8 0
-15 -4 -15 -10z"/>
<path d="M8000 3460 c0 -5 5 -10 10 -10 6 0 10 5 10 10 0 6 -4 10 -10 10 -5 0
-10 -4 -10 -10z"/>
<path d="M3700 830 c0 -5 5 -10 10 -10 6 0 10 5 10 10 0 6 -4 10 -10 10 -5 0
-10 -4 -10 -10z"/>
<path d="M7600 4640 c0 -5 5 -10 10 -10 6 0 10 5 10 10 0 6 -4 10 -10 10 -5 0
-10 -4 -10 -10z"/>
<path d="M7560 4560 c0 -5 5 -10 10 -10 6 0 10 5 10 10 0 6 -4 10 -10 10 -5 0
-10 -4 -10 -10z"/>
<path d="M7616 4512 c-5 -9 43 -66 50 -59 11 11 -9 55 -27 60 -10 3 -21 2 -23
-1z"/>
<path d="M7555 4469 c-10 -15 3 -25 16 -12 7 7 7 13 1 17 -6 3 -14 1 -17 -5z"/>
<path d="M7610 4400 c0 -11 5 -20 10 -20 6 0 10 9 10 20 0 11 -4 20 -10 20 -5
0 -10 -9 -10 -20z"/>
<path d="M7460 4360 c0 -11 4 -20 9 -20 11 0 22 26 14 34 -12 12 -23 5 -23
-14z"/>
</g>
</svg>
